<svg width="514" height="436" viewBox="0 0 514 436" fill="none" xmlns="http://www.w3.org/2000/svg">
<path d="M37.668 377.478C27.4244 375.02 25.167 366.965 24.3845 358.112C22.6617 338.011 21.3489 317.879 19.8312 297.763C13.8102 218.973 7.83006 140.219 1.89077 61.5003C0.555197 43.7987 7.06238 35.9073 24.6044 34.5838C169.436 23.6563 314.261 12.7294 459.078 1.80309C475.663 0.551748 483.54 7.47244 484.781 23.921C492.222 122.551 499.663 221.174 507.104 319.789C507.81 329.153 507.226 338.109 497.185 342.899C494.681 346.754 490.523 345.693 487.083 345.953C436.051 349.803 384.643 351.093 334.127 358.432C298.75 363.576 263.297 365.586 227.935 369.4C222.276 370.01 216.566 370.556 211.421 367.049C207.807 365.603 204.098 366.548 200.475 366.821C149.809 370.644 99.1416 374.466 48.4747 378.289C44.8735 378.538 41.1291 379.622 37.668 377.478Z" fill="#4FC4EB"/>
<path d="M211.268 365.937C215.683 366.928 220.23 367.196 224.731 366.732C252.061 364.555 279.709 363.569 306.976 360.251C367.205 352.889 427.807 350.47 488.189 345.136C491.309 345.018 494.372 344.256 497.184 342.899C495.766 348.092 491.27 346.507 487.967 346.756C436.559 350.772 385.173 354.787 333.734 358.393C325.487 359.015 322.948 361.498 324.29 369.576C325.633 377.654 325.734 385.368 326.399 393.268C323.595 396.802 319.472 396.815 315.578 397.131C285.439 399.528 255.306 401.801 225.179 403.952C221.284 404.246 217.204 404.829 213.944 401.707C213.304 393.232 212.365 384.734 212.299 376.261C212.239 369.392 209.778 367.745 203.083 368.296C156.447 372.09 109.802 375.472 63.1444 378.992C57.2211 379.439 51.2751 379.887 45.3518 380.334C42.9369 380.517 40.2018 381.616 38.2641 379.013C39.8167 378.292 41.519 377.951 43.2297 378.02L205.414 365.783C207.341 365.284 209.37 365.337 211.268 365.937Z" fill="#99DAF4"/>
<path d="M213.937 401.616L326.388 393.132C332.881 392.642 339.409 392.31 345.912 391.659C349.61 391.235 353.335 392.167 356.398 394.281C362.505 398.403 362.683 403.499 356.665 407.848C353.495 410.272 349.687 411.722 345.707 412.019C296.468 415.735 247.236 419.449 198.012 423.163C195.195 423.511 192.336 423.185 189.67 422.212C185.463 420.513 180.417 419.221 180.893 413.388C181.37 407.556 185.69 404.389 191.039 403.619C198.616 402.612 206.312 402.283 213.937 401.616Z" fill="#51C6EC"/>
<path d="M211.269 365.937L38.2532 378.854C38.0154 378.414 37.8195 377.954 37.6682 377.477C92.8307 373.315 147.986 369.154 203.133 364.993C205.772 364.748 208.805 363.649 211.269 365.937Z" fill="#65BBD6"/>
<path d="M485.745 312.694C482.05 322.939 474.849 327.401 464.003 328.196C331.944 337.961 199.908 347.923 67.8944 358.082C56.7768 358.921 49.368 355.47 44.2006 345.894C42.2746 343.748 42.8725 341.045 42.6852 338.562C36.0469 250.578 29.408 162.587 22.7685 74.5883C22.5863 72.1734 21.3794 69.538 23.4066 67.2543C26.782 57.3309 34.1638 54.0475 44.1895 53.314C177.292 43.409 310.383 33.3673 443.465 23.1889C453.671 22.4189 460.361 26.359 464.613 35.3403C466.713 37.977 466.519 41.1763 466.758 44.343C473.328 131.415 479.897 218.488 486.467 305.56C486.591 307.819 487.844 310.451 485.745 312.694Z" fill="#FEFEFE"/>
<path d="M23.2928 67.3088C30.209 160.19 37.1404 253.07 44.0869 345.948C40.6593 346.069 42.1019 343.326 41.9988 341.959C35.1777 252.767 28.4314 163.554 21.7599 74.3208C21.5759 71.8832 20.5757 69.2551 23.2928 67.3088Z" fill="#72B7CA"/>
<path d="M485.744 312.694C478.983 223.086 472.217 133.416 465.447 43.686C465.236 40.8839 464.84 38.0726 464.561 35.2756C469.52 36.0241 467.213 40.0702 467.39 42.4167C473.005 114.607 478.498 186.8 483.869 258.994C485.001 274.007 486.134 289.02 487.265 304.011C487.371 306.935 488.975 310.274 485.744 312.694Z" fill="#6EB9CF"/>
<path d="M209.183 106.278C221.462 92.292 233.402 78.0566 251.79 71.2393C289.012 57.4562 329.729 69.6433 350.738 103.342C367.187 129.732 365.987 156.95 347.915 182.829C348.049 184.606 347.041 186.125 346.919 187.853C351.525 196.372 359.302 202.269 364.858 210.007C366.645 212.483 368.055 215.21 369.042 218.1C375.671 230.04 385.937 239.164 394.081 249.936C400.545 258.476 407.398 266.711 413.862 275.25C415.949 278.003 419.089 281.065 415.25 284.837C411.41 288.61 407.191 289.478 403.05 286.216C397.676 282.09 392.63 277.553 387.959 272.645C379.286 263.379 371.084 253.665 362.691 244.148C360.413 244.32 359.226 242.554 357.889 241.234C352.607 235.607 348.253 229.222 343.273 223.343C341.916 221.452 340.452 219.661 338.943 217.873C327.784 203.296 327.783 203.273 311.693 211.704C307.281 214.173 302.465 215.839 297.47 216.626C287.742 217.36 278.002 219.447 268.238 216.976C256.854 214.952 245.888 211.04 235.793 205.402C233.974 204.371 232.534 203.196 230.681 202.328C229.329 201.578 228.027 200.742 226.781 199.827C225.2 198.618 223.663 197.382 222.125 196.123C211.462 186.53 203.857 174.013 200.255 160.129C199.739 157.534 198.414 155.159 198.055 152.528C196.35 140.56 195.959 128.698 201.714 117.518C202.975 114.337 204.416 111.23 206.03 108.211C206.383 107.679 206.848 107.23 207.393 106.896C207.937 106.562 208.548 106.351 209.183 106.278Z" fill="#0C0C0B"/>
<path d="M227.715 198.565C228.526 198.643 229.306 198.912 229.993 199.35C230.679 199.788 231.251 200.383 231.663 201.086C233.595 205.133 230.303 207.352 228.387 209.902C218.487 223.227 204.345 231.053 190.198 238.811C181.884 243.402 181.332 247.018 189.111 252.64C196.89 258.262 206.329 260.986 215.483 263.893C233.645 271.687 252.794 272.534 272.047 271.424C280.682 270.773 289.311 269.755 297.99 269.696C300.886 270.417 305.076 269.78 303.686 275.04C280.904 276.759 258.212 282.091 235.133 277.44C232.848 277.205 230.544 277.21 228.26 277.455C225.39 280.1 223.045 276.657 220.397 276.788C214.507 274.941 208.332 273.872 203.071 270.351C200.435 267.594 196.104 269.112 193.377 266.363C187.83 258.441 176.974 255.457 173.865 244.923C173.285 242.997 169.781 244.544 167.608 244.891C149.964 247.597 132.377 249.841 115.434 241.496C111.808 239.983 108.475 237.846 105.587 235.182C103.51 232.246 105.535 231.154 107.844 230.178C114.261 229.9 119.283 233.897 125.059 235.752C149.014 244.118 171.05 238.583 192.245 227.063C203.328 221.219 213.139 213.228 221.104 203.555C222.908 201.357 224.561 198.964 227.715 198.565Z" fill="#EA692A"/>
<path d="M71.8124 142.235C64.8834 135.426 60.0839 127.082 54.8039 119.049C53.5887 117.216 51.5204 115.31 52.7416 112.972C53.9629 110.635 56.6167 111.191 58.8768 111.387C60.2837 111.51 61.7134 111.631 63.1345 111.638C81.8242 111.557 100.051 112.931 116.867 99.8629C129.442 90.0932 146.644 89.7347 162.599 89.2411C164.559 89.358 166.518 88.9984 168.309 88.193C170.1 87.3875 171.668 86.1603 172.881 84.6162C173.582 84.9012 174.221 85.3199 174.761 85.8491C177.242 88.3654 180.227 90.271 181.563 93.6986C181.705 94.3166 181.682 94.9614 181.494 95.5672C181.306 96.173 180.961 96.7182 180.494 97.1473C179.01 98.0071 177.263 98.2938 175.583 97.9531C141.107 93.4746 112.062 102.379 91.414 132.072C90.6063 133.23 89.5523 134.193 88.3277 134.894C87.7612 135.182 87.1435 135.354 86.5101 135.402C85.8767 135.45 85.2402 135.372 84.637 135.173C80.3051 130.597 83.3279 126.932 86.226 123.437C89.4383 119.551 87.029 119.504 83.913 119.808C76.404 123.834 73.2698 130.577 75.6188 137.113C75.9186 137.907 76.0435 138.757 75.9847 139.603C75.926 140.45 75.6852 141.274 75.2787 142.019C74.8427 142.499 74.2367 142.791 73.5893 142.831C72.942 142.871 72.3045 142.657 71.8124 142.235Z" fill="#E66C2C"/>
<path d="M303.69 275.063C303.129 271.577 300.361 272.244 298.033 272.053C298.482 267.987 302.309 267.996 304.82 266.661C320.913 264.347 335.896 259.482 347.89 247.785C351.637 245.211 353.002 239.014 359.27 240.397L362.714 244.147C356.38 247.947 356.972 253.974 357.566 260.023C359.518 268.896 360.205 278 359.606 287.065C358.724 299.367 352.986 306.215 343.098 306.64C334.586 307.099 329.848 303.218 328.966 294.555C328.297 288.122 327.989 281.615 327.661 275.133C327.419 270.409 324.948 269.541 320.901 270.877C315.272 272.791 309.803 275.312 303.69 275.063Z" fill="#DB6F32"/>
<path d="M344.809 186.019C344.99 185.268 345.366 184.578 345.899 184.018C346.432 183.459 347.104 183.051 347.845 182.834C362.298 192.191 379.955 183.276 388.599 169.701C392.428 163.661 394.813 156.7 397.871 150.168C404.752 152.696 403.323 157.753 401.352 162.599C400.191 165.436 397.821 167.722 396.69 170.649C395.104 174.566 392.67 178.083 389.562 180.947C384.631 184.526 380.367 188.743 374.73 191.46C372.083 192.405 369.526 193.587 367.092 194.992C370.219 196.657 373.259 195.649 375.96 196.224C383.108 196.83 388.654 193.204 394.087 189.289C400.808 187.27 402.813 179.833 408.81 177.02C409.591 176.725 410.448 176.691 411.25 176.924C412.053 177.156 412.758 177.643 413.26 178.311C404.279 193.492 391.737 203.396 373.636 204.9C369.809 205.188 367.915 206.202 368.953 210.546C369.28 213.049 369.325 215.582 369.087 218.096C366.835 216.181 364.232 214.476 363.626 211.314C360.653 204.367 356.281 198.107 350.783 192.923C348.566 190.868 345.74 189.248 344.809 186.019Z" fill="#E76931"/>
<path d="M413.235 178.313L407.679 178.457C407.214 178.062 406.874 177.54 406.699 176.955C406.525 176.371 406.524 175.748 406.697 175.163C410.067 169.112 414.802 163.852 416.927 157.093C418.351 154.715 419.178 152.026 419.337 149.259C420.671 143.865 420.408 138.249 421.86 132.893C425.938 126.216 425.511 118.733 425.78 111.358C425.449 108.496 426.335 104.443 422.645 103.827C419.326 103.253 418.027 106.994 416.571 109.555C414.961 112.518 414.176 116.082 410.524 117.481C407.311 117.402 406.798 115.471 407.543 112.894C407.773 109.216 408.93 105.656 410.906 102.546C412.883 99.4366 415.616 96.878 418.849 95.1096C425.432 91.2677 429.269 92.9257 431.561 100.222C435.277 112.131 432.798 123.911 430.118 135.454C426.651 150.54 423.003 165.662 413.235 178.313Z" fill="#D97137"/>
<path d="M193.518 266.375C196.997 267.235 201.55 263.203 204.025 268.675C197.182 277.279 194.955 287.849 191.827 298.006C191.285 299.349 191.233 300.841 191.68 302.219C192.128 303.597 193.046 304.773 194.274 305.542C197.191 307.155 199.752 305.564 202.071 303.808C209.55 298.181 213.657 290.058 217.724 282.007C218.977 279.484 219.605 276.572 221.747 274.601L228.451 277.509C225.124 288.288 219.324 298.141 211.513 306.281C209.217 308.74 206.565 310.841 203.644 312.511C192.615 318.177 182.746 311.567 183.607 299.29C183.95 295.377 185.081 291.574 186.933 288.111C190.561 281.379 192.8 273.988 193.518 266.375Z" fill="#D96F35"/>
<path d="M180.75 96.2572L180.502 92.9766C182.955 89.9506 185.884 91.1271 188.772 92.0548C191.661 92.9825 194.344 93.9256 194.433 89.3366C189.129 83.4132 182.956 84.4975 176.657 87.2639C176.088 87.4273 175.488 87.45 174.908 87.3301C174.329 87.2102 173.787 86.9513 173.329 86.5756C173.279 85.915 173.093 85.2646 172.952 84.6108C176.318 77.7062 180.437 71.1947 185.234 65.1945C187.704 63.3127 188.944 64.5709 189.787 66.9359C189.981 69.5103 188.212 71.8662 189.003 74.4642C191.474 76.8439 192.776 75.2793 194.186 73.3171C195.596 71.3548 196.327 69.1919 199.191 71.0149C200.949 80.0469 202.844 89.0685 204.374 98.1177C204.546 99.7427 205.064 101.312 205.893 102.72C206.723 104.127 207.844 105.341 209.183 106.278C208.614 106.94 208.07 107.622 207.524 108.282C196.862 108.17 188.325 103.132 180.75 96.2572Z" fill="#EA6C2A"/>
<path d="M418.14 157.345C417.751 160.941 416.579 164.408 414.706 167.502C412.834 170.596 410.307 173.242 407.302 175.255C401.899 177.427 398.555 174.105 395.229 170.713C394.321 167.482 396.579 165.525 398.323 163.446C402.125 158.874 402.093 154.501 397.964 150.184C399.294 145.937 399.752 141.389 402.495 137.653C402.778 137.354 403.148 137.151 403.553 137.071C403.957 136.991 404.376 137.039 404.752 137.208C405.534 138.02 406.09 139.021 406.365 140.113C406.64 141.206 406.626 142.351 406.322 143.436C405.663 148.068 407.89 150.856 411.619 152.911C413.311 154.983 416.561 154.944 418.14 157.345Z" fill="#BE7F38"/>
<path d="M71.8138 142.235L74.8438 142.006C78.5542 140.169 78.0618 133.034 84.3521 134.416L87.3593 134.189C89.2884 136.678 87.8935 139.143 86.9353 141.323C83.3627 150.579 81.0728 160.279 80.1294 170.155C79.0211 174.294 80.2487 178.418 80.1252 182.551C80.0211 185.423 80.9465 188.881 76.7658 189.953C72.554 179.495 71.8599 167.951 74.7884 157.064C75.6306 154.547 75.7992 151.854 75.2773 149.253C74.7554 146.651 73.5613 144.232 71.8138 142.235Z" fill="#D77730"/>
<path d="M108.986 231.649C108.525 231.651 108.068 231.751 107.648 231.941C107.227 232.131 106.851 232.408 106.544 232.753C106.237 233.098 106.007 233.504 105.867 233.944C105.728 234.385 105.682 234.849 105.734 235.308C94.8191 228.204 88.0144 217.88 82.9167 206.191C83.3465 205.663 83.8842 205.234 84.4936 204.931C85.1029 204.628 85.77 204.459 86.4501 204.435C87.7931 204.455 89.104 204.849 90.2353 205.573C91.3666 206.297 92.2734 207.323 92.8538 208.534C94.5898 214.841 99.1362 218.92 103.889 223.006C106.464 225.241 110.595 226.854 108.986 231.649Z" fill="#D97344"/>
<path d="M188.816 68.017C188.81 67.5795 188.707 67.1487 188.516 66.755C188.325 66.3613 188.05 66.0143 187.71 65.7385C187.37 65.4627 186.974 65.2647 186.55 65.1585C186.125 65.0524 185.682 65.0406 185.253 65.1241C185.248 63.2457 186.683 62.2209 187.633 60.8433C189.284 58.4276 191.299 55.9844 194.179 56.5003C197.059 57.0162 197.1 60.2894 197.583 62.7503C198.067 65.2112 198.66 68.2137 199.187 70.9462C196.101 71.3395 197.002 74.4791 195.749 75.7879C192.681 79.1583 188.992 80.6738 186 75.3321C189.211 73.8526 191.775 72.0095 188.816 68.017Z" fill="#DF8333"/>
<path d="M86.5892 206.006L82.9669 206.279C79.8397 201.284 77.7303 195.72 76.7599 189.907C80.0324 183.176 75.0666 175.967 77.9467 169.197C78.924 169.47 79.8223 169.972 80.5675 170.661C81.3126 171.349 81.8832 172.206 82.2322 173.158C84.6082 181.571 83.738 190.687 87.7422 198.816C88.2291 200.005 88.379 201.305 88.1756 202.573C87.9722 203.841 87.4234 205.029 86.5892 206.006Z" fill="#BA8439"/>
<path d="M404.788 137.709L402.491 137.631C403.369 129.225 404.177 120.801 407.499 112.898C407.972 114.924 408.744 116.653 411.203 116.743C411.725 117.067 412.147 117.529 412.423 118.078C412.699 118.628 412.818 119.243 412.766 119.855C412.004 123.418 411.004 126.862 410.502 130.542C409.401 133.558 409.399 137.476 404.788 137.709Z" fill="#C1764A"/>
<path d="M359.579 287.067C358.892 277.954 358.22 269.047 357.539 260.025C361.6 268.461 362.329 278.118 359.579 287.067Z" fill="#C3683C"/>
<path d="M86.5926 206.005C83.1146 195.132 80.059 184.09 80.1427 172.445C81.3124 166.995 86.2892 165.543 90.1794 163.05C94.0695 160.557 98.0599 157.873 102.125 155.275C105.765 153.646 109.26 151.712 112.572 149.492C115.404 147.858 118.184 146.136 121.125 144.723C131.161 139.243 141.553 134.441 152.231 130.347C159.207 127.759 166.291 125.392 173.147 122.423C180.29 120.532 187.043 117.411 194.345 116.104C197.599 115.515 201.059 113.993 203.824 117.244C199.001 128.927 198.745 141.02 200.521 153.327C199.687 157.766 195.349 159.17 192.774 162.091C186.83 167.122 178.915 167.284 172.285 170.511C169.264 171.276 166.176 171.74 163.064 171.894C155.188 171.365 148.552 176.632 140.476 176.187C133.943 175.832 135.637 183.105 133.877 187.11C120.82 196.251 107.764 205.416 92.0233 209.353L86.5926 206.005Z" fill="#5FB54D"/>
<path d="M248.536 84.6131C280.247 74.9118 328.168 83.8975 347.628 134.416C348.997 137.978 351.328 141.537 349.809 145.707C346.526 148.658 342.35 148.263 338.554 148.366C316.562 149.017 295.281 153.922 274.031 158.939C266.467 160.724 265.258 159.876 264.849 152.025C268.091 143.372 266.984 134.474 266.086 125.607C265.277 121.79 264.167 118.043 262.766 114.401C260.872 106.915 256.597 100.662 252.65 94.2005C250.762 91.3415 247.545 88.789 248.536 84.6131Z" fill="#FFFFFE"/>
<path d="M91.8907 209.432L133.163 186.774C141.706 187.642 148.35 192.8 154.605 197.666C160.03 201.839 159.304 210.44 154.483 215.18C151.531 217.651 147.82 219.033 143.97 219.094C140.121 219.155 136.367 217.891 133.338 215.515C131.62 213.69 130.142 211.654 128.94 209.454C129.454 212.081 130.816 214.467 132.817 216.244C134.818 218.022 137.347 219.094 140.016 219.295C145.95 220.2 152.681 220.746 156.222 214.842C160.455 207.787 166.376 205.782 173.841 205.425C181.306 205.068 185.726 200.794 187.624 193.754C188.998 188.587 188.953 188.591 183.177 184.925C188.424 190.692 188.013 197.093 181.81 201.731C179.321 203.653 176.377 204.9 173.265 205.352C170.152 205.803 166.975 205.444 164.042 204.309C158.448 202.439 155.813 197.575 157.873 192.081C160.253 185.669 160.813 178.823 163.479 172.55C165.721 169.769 170.314 172.034 172.157 168.527C178.095 164.024 186.189 164.719 192.155 160.282C193.519 159.149 195.188 158.444 196.952 158.258C198.716 158.072 200.495 158.413 202.066 159.237C205.925 173.334 213.88 184.946 223.939 195.276C215.55 205.555 203.215 209.395 191.59 214.442C176.589 220.889 160.971 226.467 145.646 232.274C138.854 234.956 131.717 236.667 124.447 237.356C118.676 237.081 114.336 233.01 108.986 231.649C105.997 226.032 99.8391 223.679 95.9719 218.884C93.7316 215.914 91.6538 213.276 91.8907 209.432Z" fill="#9170B1"/>
<path d="M152.813 132.274L121.18 147.262C119.632 141.926 124.783 137.322 122.866 131.945C122.638 122.545 115.733 124.258 109.907 124.17C109.812 124.177 109.719 124.205 109.636 124.25C109.552 124.296 109.48 124.36 109.423 124.436C109.399 124.719 109.421 125.003 109.486 125.279C109.409 125.561 109.282 125.827 109.11 126.063C96.8327 137.644 96.8327 137.644 104.512 152.277C104.659 153.103 104.622 153.951 104.401 154.76C104.181 155.569 103.784 156.319 103.239 156.956L80.144 172.445C79.4184 171.332 78.6963 170.263 77.9445 169.106C79.0088 157.001 82.2046 145.179 87.3843 134.187C105.664 103.16 134.377 93.2035 168.369 94.0068C172.547 94.4192 176.685 95.1564 180.748 96.2118L207.543 108.212C207.461 111.678 205.393 114.331 203.821 117.176C192.888 117.13 183.361 122.959 172.861 124.69C172.334 124.355 171.904 123.888 171.613 123.335C171.322 122.782 171.181 122.163 171.203 121.539C171.179 120.973 171.261 120.407 171.444 119.871C173.345 114.71 177.231 109.124 169.509 105.468C162.881 102.348 150.623 106.893 147.926 113.054C145.229 119.214 149.3 122.458 153.176 125.855C154.491 128.092 156.012 130.338 152.813 132.274Z" fill="#ECDD76"/>
<path d="M271.278 273.957C253.02 274.899 235.113 274.119 217.732 267.87C216.131 267.344 214.772 266.259 213.905 264.814C213.435 263.774 213.252 262.628 213.376 261.495C213.5 260.361 213.926 259.281 214.61 258.368C223.152 242.831 227.86 225.98 231.791 208.843C231.901 207.714 232.254 206.622 232.824 205.642C233.395 204.662 234.17 203.817 235.097 203.163C245.008 208.11 255.441 211.934 266.201 214.564C268.112 219.009 268.719 223.905 267.953 228.682C266.946 240.535 268.039 252.596 265.226 264.195C263.715 270.289 270.256 270.139 271.278 273.957Z" fill="#F5853B"/>
<path d="M349.022 248.249C348.225 254.083 342.74 256.078 338.98 258.172C328.497 263.774 317.476 268.638 305.125 268.608C301.278 262.872 296.208 221.785 298.532 215.24C298.911 214.18 298.563 215.65 299.078 214.58C307.235 212.059 314.938 208.253 321.895 203.305C326.433 200.282 329.218 200.461 332.11 205.077C334.708 209.143 337.672 212.906 340.488 216.817C343.122 221.361 343.133 226.676 344.826 231.497C346.5 236.984 349.189 242.257 349.022 248.249Z" fill="#5FB54D"/>
<path d="M299.075 214.535C301.758 232.478 304.076 250.449 305.122 268.562C303.545 271.339 299.907 269.895 298.031 272.053L271.276 273.957C269.202 272.578 266.897 273.302 264.668 273.218C262.921 273.144 260.838 272.866 261.462 270.505C266.236 252.09 263.933 233.11 266.194 214.495C277.107 217.017 288.121 215.109 299.075 214.535Z" fill="#ECDD76"/>
<path d="M230.695 175.223C220.323 162.258 212.765 148.326 214.728 130.925C215.474 129.142 216.734 127.622 218.347 126.558C219.96 125.494 221.853 124.934 223.786 124.949C227.362 124.679 231.081 124.765 233.782 121.698C237.669 119.037 242.079 117.236 246.718 116.414C250.557 116.507 254.34 115.481 257.607 113.462C258.518 113.228 259.474 113.234 260.381 113.482C261.25 113.912 261.971 114.592 262.453 115.433C265.157 124.554 264.244 134.017 265.356 143.281C265.454 144.715 265.401 146.155 265.199 147.577C264.084 153.458 262.995 159.36 257.842 163.346C251.231 166.823 244.208 169.69 237.712 173.479C235.565 174.787 233.432 176.276 230.695 175.223Z" fill="#9270B1"/>
<path d="M235.097 203.163C231.698 224.796 224.525 245.663 213.905 264.813C202.273 262.483 190.814 259.407 182.791 249.634C178.726 244.648 179.089 241.252 185.727 238.14C204.009 229.612 221.226 219.423 231.664 201.085C232.364 201.118 233.045 201.325 233.645 201.688C234.244 202.051 234.744 202.558 235.097 203.163Z" fill="#D44427"/>
<path d="M124.446 237.356C132.24 231.636 142.011 230.876 150.741 227.536C174.971 218.285 199.438 209.749 221.683 196.065C222.454 195.716 223.268 195.47 224.103 195.332L227.714 198.565C209.425 224.3 184.217 238.506 153.077 241.794C143.687 242.755 133.286 243.379 124.446 237.356Z" fill="#D24527"/>
<path d="M328.652 192.049C317.34 198.487 304.408 201.516 291.414 200.77C287.867 196.272 289.548 190.921 289.198 185.976C288.211 176.666 288.692 167.26 290.623 158.1C299.873 151.33 310.709 151.017 321.421 150.873C322.234 151.107 322.96 151.574 323.509 152.217C324.059 152.86 324.407 153.65 324.512 154.489C325.892 167.009 329.748 179.251 328.652 192.049Z" fill="#EDDD77"/>
<path d="M290.994 158.118C292.078 172.313 292.188 186.566 291.326 200.777C279.311 202.685 267.002 200.542 256.338 194.687C255.648 184.017 259.368 174.113 261.838 164.029C270.784 157.787 280.806 157.306 290.994 158.118Z" fill="#F5863B"/>
<path d="M258.976 114.298C258.549 114.531 258.067 114.647 257.581 114.632C254.832 117.681 250.104 115.448 247.333 118.499L234.144 123.159C231.571 126.401 226.663 123.907 224.145 127.282C220.436 127.012 217.926 129.882 214.728 130.925C215.975 117.084 218.52 103.741 229.416 93.5937C233.536 89.7291 238.749 87.2312 244.342 86.4418C252.23 94.1178 260.384 101.682 258.976 114.298Z" fill="#60B44C"/>
<path d="M410.464 279.104C411.167 280.838 410.526 281.757 409.465 282.273C408.403 282.733 407.212 282.801 406.104 282.465C404.996 282.129 404.044 281.411 403.416 280.438C397.765 274.472 391.9 268.706 386.592 262.439C369.233 241.891 352.088 221.143 334.792 200.522C332.728 198.066 331.532 196.186 334.732 193.653C337.232 191.563 338.455 191.081 340.759 193.977C363.357 221.599 386.056 249.16 408.858 276.659C409.499 277.55 410.054 278.54 410.464 279.104Z" fill="#767676"/>
<path d="M254.341 76.2474C277.575 65.3299 298.39 68.8228 318.197 79.9069C343.096 93.7914 356.748 115.009 356.741 144.977C342.887 96.4879 319.01 80.3496 254.341 76.2474Z" fill="#B0B0B1"/>
<path d="M328.653 192.049C324.069 179.266 323.787 165.816 322.307 152.57C321.669 151.404 321.813 149.972 322.991 149.792C332.042 148.284 341.008 145.66 350.184 148.84C349.355 166.407 343.6 181.527 328.653 192.049Z" fill="#64B24B"/>
<path d="M209.267 119.858C201.043 171.205 248.212 217.891 302.808 205.707C283.895 217.101 246.106 208.198 226.753 190.069C206.957 171.538 198.716 137.632 209.267 119.858Z" fill="#B0AEAD"/>
<path d="M350.184 148.84C341.013 150.884 331.204 148.417 322.307 152.571L290.993 158.118C283.571 162.687 274.461 159.159 266.885 163.213C265.475 163.961 263.643 163.962 262.734 165.588C259.23 175.017 252.64 182.113 245.836 189.11C243.98 187.899 241.178 188.11 240.313 185.449C243.357 175.688 250.329 168.793 257.395 161.936C259.554 157.443 262.419 153.217 263.017 148.085C266.624 146.691 268.166 147.697 267.02 151.633C265.09 158.858 268.656 157.833 273.573 156.5C298.493 149.716 323.762 145.129 349.721 145.737L350.184 148.84Z" fill="#E76C2B"/>
<path d="M257.485 161.929C252.983 170.585 246.662 177.913 240.366 185.559C236.485 182.829 233.186 179.356 230.659 175.34C239.452 170.415 247.485 164.218 257.485 161.929Z" fill="#CD472C"/>
<path d="M245.928 189.103C249.069 179.404 257.817 173.887 262.823 165.536C261.97 175.473 259.82 185.256 256.427 194.635C252.371 194.128 248.639 192.162 245.928 189.103Z" fill="#D04828"/>
<path d="M349.021 248.25C344.895 243.979 345.514 237.906 343.459 232.837C343.433 229.151 341.495 225.333 344.209 221.829C349.259 228.031 354.308 234.218 359.356 240.39C355.052 241.952 353.638 247.191 349.021 248.25Z" fill="#D65070"/>
<path d="M258.977 114.297C257.413 105.411 251.645 98.8125 246.877 91.4968C245.89 89.8683 244.998 88.1837 244.206 86.4516C244.715 85.8248 245.369 85.3306 246.111 85.0113C246.853 84.692 247.661 84.557 248.466 84.618C255.131 93.6922 262.215 102.552 264.658 113.983C264.094 114.526 263.377 114.883 262.605 115.007C261.832 115.131 261.039 115.015 260.334 114.676C259.862 114.637 259.401 114.508 258.977 114.297Z" fill="#CE7935"/>
<path d="M344.813 186.019C354.431 192.029 362.76 198.87 363.607 211.315C357.301 204.253 351.082 197.139 344.686 190.106C343.335 188.605 342.895 187.332 344.813 186.019Z" fill="#D95162"/>
<path d="M344.216 221.829C343.62 225.471 346.272 229.349 343.465 232.837C339.847 228.001 340.949 222.259 340.424 216.822C342.224 218.008 343.562 219.775 344.216 221.829Z" fill="#A07468"/>
<path d="M202.228 159.293L192.317 160.339C193.09 155.698 199.189 157.277 200.516 153.305C201.079 155.302 201.574 157.304 202.228 159.293Z" fill="#788C89"/>
<path d="M221.695 274.559C219.319 287.961 211.835 299.918 200.819 307.912C195.321 312.176 189.633 308.756 188.893 301.686C188.58 298.009 189.327 294.319 191.047 291.053C194.05 285.007 197.001 278.873 197.463 271.942C197.765 266.833 200.921 267.97 204.09 268.67C209.711 271.306 215.619 273.282 221.695 274.559Z" fill="#1F1915"/>
<path d="M84.3518 134.415C80.2076 135.667 81.5082 143.794 74.8434 142.006L74.0152 136.799C73.3237 135.561 73.0598 134.13 73.2647 132.726C73.4695 131.323 74.1315 130.027 75.1481 129.038C78.5332 125.621 80.1065 120.966 83.2991 117.426C86.2147 117.503 89.2344 115.924 92.331 118.096C90.4073 123.877 82.9485 127.052 84.3518 134.415Z" fill="#E44951"/>
<path d="M173.327 86.5754L176.813 86.3124C183.976 83.7787 190.342 88.8888 197.276 88.4802C198.653 95.7996 194.254 96.7044 189.101 94.9165C186.253 93.9171 183.694 92.4835 180.574 93.0396C177.43 91.8755 174.841 89.5667 173.327 86.5754Z" fill="#E55142"/>
<path d="M83.3911 117.419C84.105 121.718 81.8942 124.909 79.1462 127.66C76.6466 130.19 74.8746 133.347 74.0162 136.799C73.1986 136.557 72.4651 136.09 71.8988 135.453C71.3324 134.815 70.9557 134.032 70.8113 133.192C70.6343 129.631 79.5031 118.422 83.3911 117.419Z" fill="#D44528"/>
<path d="M63.4268 115.488C66.6846 115.243 69.3638 115.224 69.3917 118.933C69.4368 121.656 68.3496 124.557 65.4727 124.384C62.5957 124.212 60.925 121.199 60.1879 118.413C59.2693 115.046 62.6195 116.328 63.4268 115.488Z" fill="#ECAB26"/>
<path d="M356.118 283.021C354.884 289.14 353.82 295.383 348.19 299.405C341.452 304.244 335.256 301.985 334.022 293.83C332.788 285.675 334.082 277.925 332.05 270.128C331.346 267.477 333.406 266.841 335.191 265.904C338.567 264.416 341.777 262.576 344.767 260.416C351.239 255.093 353.867 257.438 354.645 264.711C355.795 270.743 356.289 276.882 356.118 283.021Z" fill="#1F1915"/>
<path d="M356.115 283.021C355.655 276.916 355.194 270.81 354.74 264.796C357.316 270.523 357.803 276.972 356.115 283.021Z" fill="#C3683C"/>
<path d="M374.13 189.581C379.515 187.158 382.883 181.703 388.735 180.001C393.823 181.244 396.483 183.999 394.912 189.594C390.672 196.558 384.369 198.958 376.518 197.855C375.326 196.882 374.458 195.569 374.031 194.091C373.604 192.612 373.639 191.039 374.13 189.581Z" fill="#D34528"/>
<path d="M394.911 189.594C394.105 185.599 391.183 183.001 388.734 180.001L395.226 170.691C399.796 170.529 402.87 174.834 407.299 175.233L407.68 178.457C403.724 182.513 403.42 190.624 394.911 189.594Z" fill="#F58438"/>
<path d="M374.13 189.58C375.195 190.645 375.973 191.963 376.391 193.41C376.808 194.857 376.853 196.386 376.519 197.854C373.443 198.086 370.391 198.317 367.406 198.542C365.356 198.697 363.494 198.31 363.068 195.707C362.643 193.105 364.1 192.376 366.31 191.912C368.896 191.258 371.506 190.328 374.13 189.58Z" fill="#E8486C"/>
<path d="M404.788 137.709C408.328 136.343 406.503 131.898 409.157 130.025C410.035 129.237 411.081 128.658 412.214 128.33C413.348 128.003 414.541 127.935 415.704 128.134C418.947 128.897 422.05 129.946 423.586 133.29C423.873 139.067 423.049 144.846 421.158 150.313C418.534 153.787 415.993 157.461 410.789 154.394C399.331 152.235 405.294 143.811 404.788 137.709Z" fill="#61B24A"/>
<path d="M423.585 133.289C420.606 133.285 418.492 131.383 416.097 130.005C411.625 127.822 409.616 124.583 411.624 119.62C411.551 118.64 411.478 117.684 411.247 116.739C412.474 113.576 413.681 110.438 414.91 107.298C419.616 105.293 424.077 104.59 427.562 109.482C427.328 117.61 430.642 126.319 423.585 133.289Z" fill="#303276"/>
<path d="M427.571 109.573C423.509 108.13 419.23 107.391 414.919 107.389C415.352 106.75 415.844 106.153 416.388 105.606C418.729 103.527 419.306 98.1226 423.485 99.7548C427.184 101.102 428.125 105.385 427.571 109.573Z" fill="#9671A8"/>
<path d="M410.789 154.372C415.054 155.035 417.595 151.361 421.157 150.29C421.043 153.025 421.899 156.168 418.142 157.391C415.333 157.214 411.974 158.544 410.789 154.372Z" fill="#909944"/>
<path d="M197.204 88.417C193.014 93.6133 188.826 87.9036 184.516 88.4808C182.066 88.8031 179.346 87.0609 176.741 86.2493C178.174 84.9317 179.872 83.9345 181.721 83.3241C183.569 82.7136 185.527 82.504 187.463 82.7091C189.399 82.9142 191.269 83.5293 192.949 84.5135C194.628 85.4977 196.079 86.8284 197.204 88.417Z" fill="#D34728"/>
<path d="M188.813 68.0175C189.599 67.9651 190.385 68.1022 191.106 68.4171C191.828 68.7321 192.463 69.2158 192.958 69.8275C193.453 70.4391 193.794 71.1608 193.952 71.9318C194.111 72.7028 194.081 73.5005 193.867 74.2577C192.559 79.0991 188.659 74.4674 186.071 75.3958C185.715 74.0332 185.787 72.5939 186.277 71.2737C186.768 69.9535 187.654 68.8166 188.813 68.0175Z" fill="#E4BF24"/>
<path d="M411.629 119.62C411.063 123.97 414.448 126.625 416.101 130.005L409.229 130.02C408.708 128.226 408.655 126.328 409.075 124.508C409.495 122.687 410.374 121.005 411.629 119.62Z" fill="#303164"/>
<path d="M164.455 173.324C164.308 179.591 163.012 185.777 160.631 191.576C157.93 197.69 161.217 202.987 167.843 203.358C173.992 203.765 179.856 202.841 183.67 197.215C186.845 192.53 185.378 189.479 179.915 189.044C178.072 188.908 177.309 188.209 177.439 186.596C177.425 185.592 177.764 184.615 178.396 183.835C179.027 183.055 179.912 182.521 180.897 182.325C186.603 180.52 192.268 186.668 191.007 193.339C189.234 202.637 181.471 209.066 170.502 208.839C165.384 208.721 162.39 209.726 160.171 214.636C156.618 222.511 149.078 222.782 141.87 222.295C138.718 222.286 135.641 221.338 133.031 219.572C130.42 217.806 128.395 215.302 127.215 212.38C126.619 211.25 126.262 210.01 126.166 208.736C126.07 207.463 126.237 206.183 126.656 204.976C126.948 204.185 127.534 203.538 128.291 203.169C129.049 202.8 129.92 202.738 130.722 202.997C132.516 203.388 132.609 204.619 132.179 206.209C129.991 214.554 136.16 215.852 141.745 216.691C147.955 217.62 154.367 216.655 156.06 209.333C157.456 203.248 154.943 198.787 148.33 196.169C142.901 194.059 138.201 190.06 133.175 186.911C131.555 175.463 133.682 172.988 145.065 173.848C146.286 174.111 147.553 174.069 148.754 173.727C149.954 173.385 151.053 172.752 151.951 171.885C154.908 168.867 158.614 169.091 162.246 170.467C164.237 170.431 165.385 171.078 164.455 173.324Z" fill="#262626"/>
<path d="M103.223 151.275C92.3967 142.606 94.7103 132.58 109.528 123.992C118.522 121.733 120.369 122.533 125.119 131.133C126.935 137.274 124.547 142.38 121.181 147.262L113.288 151.363C109.923 152.006 106.539 154.828 103.223 151.275Z" fill="#1D1E17"/>
<path d="M172.46 121.283L172.857 124.713C166.504 128.036 159.772 130.575 152.807 132.274C153.864 130.499 153.001 128.777 152.665 127.061C159.041 124.404 165.377 121.543 172.46 121.283Z" fill="#CED588"/>
<path d="M103.219 151.275L113.261 151.365L103.235 156.956L103.219 151.275Z" fill="#BECF8B"/>
<path d="M164.453 173.324L162.241 170.421L172.321 168.584C172.282 174.452 167.112 171.818 164.453 173.324Z" fill="#838A8F"/>
<path d="M260.404 114.671L264.728 113.978C266.584 116.985 267.552 120.454 267.522 123.986C266.257 129.076 267.807 134.137 267.779 139.226C267.755 142.252 268.396 145.892 263.283 144.926C262.325 134.856 261.365 124.771 260.404 114.671Z" fill="#CF6B5B"/>
<path d="M263.279 144.881C267.962 143.176 265.448 139.31 265.906 136.274C266.513 132.173 262.769 127.484 267.519 123.94C269.522 133.183 271.021 142.418 267.098 151.466C266.608 149.212 265.544 147.872 263.096 147.919L263.279 144.881Z" fill="#D87847"/>
<path d="M172.468 121.283C166.803 125.573 159.757 127.63 152.673 127.061C144.415 122.368 142.424 117.547 146.059 111.064C150.258 103.552 164.044 99.511 171.344 103.657C177.758 107.274 178.016 111.31 172.468 121.283Z" fill="#1D1C15"/>
<path d="M125.116 131.133C121.301 125.808 116.463 122.416 109.525 123.993C117.515 119.06 123.283 121.718 125.116 131.133Z" fill="#DED195"/>
<path d="M224.14 127.214C225.792 121.773 230.445 123.622 234.139 123.091C232.524 128.712 227.676 126.397 224.14 127.214Z" fill="#7F8E8F"/>
<path d="M247.34 118.589C249.194 112.79 253.972 115.386 257.588 114.723C255.524 119.553 251.11 118.145 247.34 118.589Z" fill="#779E78"/>
<path d="M156.952 184.086C156.748 188.065 155.824 191.915 150.795 190.851C148.184 190.403 145.709 189.366 143.559 187.816C141.409 186.267 139.641 184.248 138.39 181.912C138.095 181.339 138.856 179.586 139.582 179.187C140.567 178.669 141.681 178.446 142.79 178.545C143.899 178.644 144.956 179.061 145.833 179.747C148.218 180.987 150.237 185.28 153.253 180.608C157.202 178.889 157.33 181.193 156.952 184.086Z" fill="#D24A74"/>
<path d="M156.95 184.086C156.479 182.105 155.841 180.32 153.25 180.607C153.267 177.49 154.906 173.998 157.759 175.685C161.513 177.761 158.088 181.25 156.95 184.086Z" fill="#A15061"/>
<path d="M120.532 139.315C113.02 136.926 106.647 135.963 103.653 145.171C101.133 137.273 104.496 130.535 111.202 129.227C117.908 127.919 120.142 132.012 120.532 139.315Z" fill="#F1F0EF"/>
<path d="M151.395 121.361C147.903 115.163 150.692 112.043 155.111 109.877C159.996 107.515 165.111 106.075 170.218 109.378C171.953 110.508 171.784 112.216 170.926 113.907C170.069 115.599 169.361 115.331 167.646 115.071C157.158 113.319 157.03 113.444 151.395 121.361Z" fill="#ECEBE9"/>
</svg>
