<svg width="256" height="67" viewBox="0 0 256 67" fill="none" xmlns="http://www.w3.org/2000/svg">
<path fill-rule="evenodd" clip-rule="evenodd" d="M33.5 0C14.9985 0 0 14.9985 0 33.5C0 52.0015 14.9985 67 33.5 67H222.5C241.002 67 256 52.0015 256 33.5C256 14.9985 241.002 0 222.5 0H33.5ZM140.234 15.52H134.954V52.56H140.234V34.4H145.594V29.96H140.234V15.52ZM119.194 21H111.034V25.24H132.594V21H124.514V16.12H119.194V21ZM131.274 36.16C131.274 31 127.274 27.32 121.874 27.32C116.474 27.32 112.474 31 112.474 36.16C112.474 41.32 116.474 45 121.874 45C127.274 45 131.274 41.32 131.274 36.16ZM117.554 36.16C117.554 33.32 119.354 31.64 121.874 31.64C124.394 31.64 126.194 33.32 126.194 36.16C126.194 39 124.394 40.68 121.874 40.68C119.354 40.68 117.554 39 117.554 36.16ZM173.511 15.52H178.871V52.56H173.511V15.52ZM165.111 19.36H167.871C167.871 30.68 164.031 39.96 150.871 46.32L148.111 42.08C157.55 37.5381 161.637 31.7371 162.44 23.56H150.071V19.36H162.591H165.111ZM216.04 39.8665L196.04 48.6733V42.9205L209.548 37.4975V37.2356L196.04 31.8125V26.0597L216.04 34.8665V39.8665ZM74.3975 33.8H107.917V38.04H94.2775V44.28H88.9175V38.04H74.3975V33.8ZM78.5175 17.08H103.677V30.84H78.5175V17.08ZM98.4375 21.24H83.7175V26.68H98.4375V21.24ZM83.5575 47.68H104.237V51.92H78.2775V49.08V47.68V41.16H83.5575V47.68ZM51.2512 21.6H40.6006V17.4H68.0806V21.6H57.5101C58.0675 25.1402 61.9871 28.7568 69.5206 29.68L67.6006 33.84C61.1289 32.9625 56.5935 30.1862 54.3812 26.4261C52.1717 30.1862 47.645 32.9625 41.2006 33.84L39.2406 29.68C46.7742 28.7568 50.6937 25.1402 51.2512 21.6ZM51.6006 40.2H37.6406V35.96H71.1206V40.2H56.8806V52.6H51.6006V40.2Z" fill="white"/>
</svg>
