<svg width="533" height="48" viewBox="0 0 533 48" fill="none" xmlns="http://www.w3.org/2000/svg">
<path d="M24.474 21.491C25.6533 22.2637 26.6497 23.1787 27.463 24.236C28.317 25.2527 28.988 26.5133 29.476 28.018C30.0047 29.6853 30.269 31.373 30.269 33.081C30.3097 34.7483 30.0047 36.314 29.354 37.778C28.744 39.2013 27.7477 40.462 26.365 41.56C25.023 42.6173 23.254 43.3697 21.058 43.817C19.8787 44.1017 18.496 44.3253 16.91 44.488C15.324 44.6507 13.9007 44.732 12.64 44.732C11.054 44.7727 9.407 44.7727 7.699 44.732C6.03167 44.732 4.405 44.5693 2.819 44.244C2.12767 44.0407 1.61933 43.695 1.294 43.207C1.00933 42.6783 0.806 42.0887 0.684 41.438C0.521334 41.072 0.44 40.706 0.44 40.34V5.692C0.44 4.55333 0.663667 3.679 1.111 3.069C1.599 2.41833 2.22933 1.95067 3.002 1.666C3.77467 1.34067 4.649 1.15767 5.625 1.117C6.601 1.03566 7.61767 0.994997 8.675 0.994997C9.48833 0.994997 10.3017 0.994997 11.115 0.994997C11.969 0.954331 12.823 0.954331 13.677 0.994997C15.019 1.03566 16.4017 1.15766 17.825 1.361C19.289 1.52366 20.6717 1.849 21.973 2.337C22.583 2.54033 23.2337 2.825 23.925 3.191C24.6163 3.51633 25.1653 3.923 25.572 4.411C26.8733 5.59033 27.829 6.973 28.439 8.559C29.0897 10.1043 29.3743 11.6903 29.293 13.317C29.2117 14.903 28.7643 16.428 27.951 17.892C27.1783 19.356 26.0193 20.5557 24.474 21.491ZM13.799 37.656C15.0597 37.5747 16.3407 37.4323 17.642 37.229C18.9433 37.0257 19.838 36.6393 20.326 36.07C20.8547 35.4193 21.2207 34.667 21.424 33.813C21.668 32.9183 21.729 32.0237 21.607 31.129C21.5257 30.1937 21.2613 29.3193 20.814 28.506C20.4073 27.652 19.8583 26.981 19.167 26.493C18.2317 25.761 17.154 25.2933 15.934 25.09C14.714 24.846 13.5143 24.724 12.335 24.724C11.7657 24.724 11.237 24.7443 10.749 24.785C10.3017 24.785 9.895 24.846 9.529 24.968C9.20367 25.0493 8.95967 25.2323 8.797 25.517C8.63433 25.8017 8.553 26.2287 8.553 26.798C8.63433 27.8553 8.63433 28.9127 8.553 29.97C8.47167 31.0273 8.431 32.044 8.431 33.02C8.431 33.5893 8.41067 34.2197 8.37 34.911C8.37 35.5617 8.59367 36.1107 9.041 36.558C9.48833 37.0053 10.139 37.3103 10.993 37.473C11.847 37.6357 12.7823 37.6967 13.799 37.656ZM15.019 8.376C13.7583 8.33533 12.701 8.315 11.847 8.315C11.0337 8.27433 10.383 8.33533 9.895 8.498C9.44767 8.62 9.12233 8.925 8.919 9.413C8.75633 9.86033 8.69533 10.5517 8.736 11.487C8.736 12.2597 8.71567 13.0323 8.675 13.805C8.675 14.537 8.675 15.269 8.675 16.001C8.675 16.8143 8.93933 17.4243 9.468 17.831C9.99667 18.197 10.6473 18.4207 11.42 18.502C12.2333 18.5833 13.067 18.5833 13.921 18.502C14.8157 18.4207 15.5883 18.319 16.239 18.197C17.703 17.953 18.8213 17.465 19.594 16.733C20.4073 15.9603 20.875 14.842 20.997 13.378C21.1597 11.548 20.6717 10.2873 19.533 9.596C18.435 8.864 16.9303 8.45733 15.019 8.376Z" fill="#FCB247"/>
<path d="M60.0761 29.482C59.9947 30.824 59.9134 32.1863 59.8321 33.569C59.7507 34.911 59.5271 36.2123 59.1611 37.473C58.8357 38.7337 58.3071 39.8723 57.5751 40.889C56.8837 41.9057 55.8874 42.719 54.5861 43.329C53.4474 43.8983 52.2274 44.2847 50.9261 44.488C49.6247 44.732 48.3234 44.8337 47.0221 44.793C45.7207 44.7523 44.4601 44.549 43.2401 44.183C42.0201 43.8577 40.9221 43.39 39.9461 42.78C38.9701 42.17 38.1771 41.377 37.5671 40.401C36.9571 39.425 36.4691 38.3677 36.1031 37.229C35.7777 36.0903 35.5541 34.911 35.4321 33.691C35.3101 32.471 35.2287 31.3323 35.1881 30.275C35.0254 27.469 35.0254 24.7037 35.1881 21.979C35.1881 21.4503 35.1881 20.8607 35.1881 20.21C35.1881 19.5187 35.2287 18.8477 35.3101 18.197C35.4321 17.5463 35.6151 16.9567 35.8591 16.428C36.1031 15.8587 36.5097 15.4317 37.0791 15.147C38.2991 14.4963 39.4174 14.4557 40.4341 15.025C41.4914 15.5943 42.1217 16.7737 42.3251 18.563C42.4471 19.4983 42.4877 20.5353 42.4471 21.674C42.4471 22.8127 42.4877 23.8497 42.5691 24.785C42.6097 26.1677 42.6504 27.6723 42.6911 29.299C42.7317 30.885 42.9554 32.3083 43.3621 33.569C43.8094 34.8297 44.5211 35.7853 45.4971 36.436C46.5137 37.046 48.0184 37.0663 50.0111 36.497C50.9464 36.2123 51.5564 35.5007 51.8411 34.362C52.1664 33.2233 52.3291 31.5357 52.3291 29.299C52.3291 28.323 52.3087 27.2453 52.2681 26.066C52.2274 24.8867 52.2071 23.7277 52.2071 22.589C52.2071 21.4097 52.2274 20.332 52.2681 19.356C52.3494 18.3393 52.4714 17.5667 52.6341 17.038C52.8374 16.306 53.2644 15.757 53.9151 15.391C54.5657 15.025 55.2571 14.842 55.9891 14.842C56.7211 14.8013 57.4124 14.9437 58.0631 15.269C58.7137 15.5943 59.1611 16.123 59.4051 16.855C59.6491 17.5057 59.8117 18.3393 59.8931 19.356C60.0151 20.332 60.0964 21.4097 60.1371 22.589C60.1777 23.7277 60.1777 24.907 60.1371 26.127C60.1371 27.3063 60.1167 28.4247 60.0761 29.482Z" fill="#A8D267"/>
<path d="M84.7301 1.361C85.5028 1.15766 86.1738 1.13733 86.7431 1.3C87.3531 1.422 87.8614 1.68633 88.2681 2.093C88.7154 2.49966 89.0408 3.008 89.2441 3.618C89.4881 4.228 89.6101 4.899 89.6101 5.631C89.6508 7.66433 89.6508 9.25033 89.6101 10.389C89.6101 11.5277 89.6101 12.524 89.6101 13.378V32.105C89.6101 34.301 89.6101 36.131 89.6101 37.595C89.6101 39.059 89.5288 40.2587 89.3661 41.194C89.2441 42.0887 89.0001 42.7597 88.6341 43.207C88.3088 43.6543 87.8004 43.9593 87.1091 44.122C86.4178 44.3253 85.5028 44.427 84.3641 44.427C83.2661 44.427 81.8834 44.427 80.2161 44.427C75.8241 44.427 72.3471 43.39 69.7851 41.316C67.2638 39.242 65.9218 35.948 65.7591 31.434C65.6778 29.482 65.9218 27.6927 66.4911 26.066C67.0604 24.4393 67.8941 23.0567 68.9921 21.918C70.1308 20.7387 71.5134 19.844 73.1401 19.234C74.8074 18.5833 76.6984 18.2783 78.8131 18.319H82.1681V7.4C82.1681 6.74933 82.1681 6.119 82.1681 5.509C82.1681 4.85833 82.2291 4.26867 82.3511 3.74C82.4731 3.17067 82.7171 2.68267 83.0831 2.276C83.4491 1.86933 83.9981 1.56433 84.7301 1.361ZM74.1161 35.216C74.9701 36.3953 76.5154 37.046 78.7521 37.168C79.1994 37.2087 79.6264 37.229 80.0331 37.229C80.4398 37.1883 80.8058 37.1273 81.1311 37.046C81.4971 37.0053 81.8428 36.9443 82.1681 36.863V25.578C80.7448 25.334 79.4434 25.1917 78.2641 25.151C77.1254 25.0697 75.9868 25.4763 74.8481 26.371C74.2381 26.859 73.7704 27.4893 73.4451 28.262C73.1198 28.994 72.9368 29.787 72.8961 30.641C72.8554 31.4543 72.9368 32.2677 73.1401 33.081C73.3434 33.8943 73.6688 34.606 74.1161 35.216Z" fill="#44C8F1"/>
<path d="M109.719 33.264C108.946 32.776 108.072 32.3897 107.096 32.105C106.161 31.8203 105.185 31.556 104.168 31.312C103.192 31.068 102.236 30.8037 101.301 30.519C100.366 30.1937 99.5118 29.7463 98.7391 29.177C97.0718 27.9163 96.0958 26.371 95.8111 24.541C95.5671 22.6703 95.9738 20.7997 97.0311 18.929C97.6005 17.953 98.3528 17.16 99.2881 16.55C100.223 15.8993 101.24 15.4113 102.338 15.086C103.477 14.72 104.636 14.5167 105.815 14.476C106.994 14.4353 108.113 14.4963 109.17 14.659C109.861 14.781 110.593 14.964 111.366 15.208C112.139 15.4113 112.85 15.696 113.501 16.062C114.192 16.428 114.802 16.8957 115.331 17.465C115.9 17.9937 116.307 18.6647 116.551 19.478C116.714 20.0067 116.734 20.515 116.612 21.003C116.531 21.491 116.327 21.8977 116.002 22.223C115.717 22.5483 115.331 22.7923 114.843 22.955C114.396 23.1177 113.908 23.1583 113.379 23.077C112.769 22.955 112.2 22.772 111.671 22.528C111.142 22.284 110.614 22.0197 110.085 21.735C109.556 21.4503 109.007 21.2063 108.438 21.003C107.909 20.7997 107.34 20.698 106.73 20.698C105.795 20.6573 105.022 20.82 104.412 21.186C103.802 21.552 103.375 21.9993 103.131 22.528C102.928 23.0567 102.948 23.626 103.192 24.236C103.477 24.846 104.046 25.3747 104.9 25.822C105.673 26.2287 106.527 26.554 107.462 26.798C108.397 27.042 109.312 27.286 110.207 27.53C111.142 27.774 112.037 28.0587 112.891 28.384C113.786 28.7093 114.579 29.1567 115.27 29.726C116.612 30.824 117.425 32.105 117.71 33.569C118.035 35.033 117.954 36.4767 117.466 37.9C116.978 39.3233 116.124 40.584 114.904 41.682C113.725 42.78 112.322 43.512 110.695 43.878C109.516 44.122 108.235 44.244 106.852 44.244C105.51 44.244 104.168 44.1017 102.826 43.817C101.525 43.5323 100.264 43.085 99.0441 42.475C97.8648 41.865 96.8685 41.0923 96.0551 40.157C95.4858 39.5063 95.1808 38.7743 95.1401 37.961C95.1401 37.107 95.3028 36.375 95.6281 35.765C95.9941 35.1143 96.5025 34.667 97.1531 34.423C97.8038 34.179 98.5358 34.3213 99.3491 34.85C99.9998 35.2973 100.772 35.7447 101.667 36.192C102.562 36.5987 103.456 36.924 104.351 37.168C105.246 37.412 106.1 37.534 106.913 37.534C107.767 37.534 108.499 37.351 109.109 36.985C110.004 36.4157 110.471 35.765 110.512 35.033C110.553 34.2603 110.288 33.6707 109.719 33.264Z" fill="#ED3095"/>
<path d="M131.136 20.881C131.136 22.0197 131.136 23.3007 131.136 24.724C131.177 26.1473 131.197 27.6317 131.197 29.177C131.197 30.6817 131.197 32.1863 131.197 33.691C131.197 35.155 131.177 36.5173 131.136 37.778C131.096 38.388 131.035 39.059 130.953 39.791C130.872 40.4823 130.709 41.133 130.465 41.743C130.221 42.353 129.835 42.8613 129.306 43.268C128.818 43.634 128.147 43.7967 127.293 43.756C126.033 43.6747 125.118 43.1257 124.548 42.109C124.02 41.0923 123.715 39.669 123.633 37.839C123.633 36.9037 123.613 35.826 123.572 34.606C123.572 33.386 123.552 32.1457 123.511 30.885C123.511 29.6243 123.511 28.4043 123.511 27.225C123.511 26.005 123.511 24.907 123.511 23.931C123.511 23.3617 123.491 22.6703 123.45 21.857C123.45 21.0437 123.471 20.21 123.511 19.356C123.552 18.502 123.654 17.6887 123.816 16.916C123.979 16.1027 124.243 15.4317 124.609 14.903C124.894 14.5777 125.301 14.3337 125.829 14.171C126.358 13.9677 126.907 13.866 127.476 13.866C128.086 13.866 128.656 13.9677 129.184 14.171C129.754 14.3743 130.16 14.659 130.404 15.025C130.567 15.269 130.689 15.6147 130.77 16.062C130.852 16.5093 130.913 17.0177 130.953 17.587C131.035 18.1157 131.075 18.685 131.075 19.295C131.116 19.8643 131.136 20.393 131.136 20.881ZM128.818 8.559C127.558 8.88433 126.5 8.76233 125.646 8.193C124.833 7.583 124.325 6.68833 124.121 5.509C123.959 4.655 124.02 3.90267 124.304 3.252C124.589 2.60133 125.016 2.11333 125.585 1.788C126.155 1.422 126.805 1.25933 127.537 1.3C128.269 1.34066 129.001 1.62533 129.733 2.154C130.425 2.642 130.913 3.21133 131.197 3.862C131.523 4.51266 131.624 5.143 131.502 5.753C131.421 6.363 131.157 6.93233 130.709 7.461C130.262 7.949 129.632 8.315 128.818 8.559Z" fill="#F7ED62"/>
<path d="M158.212 35.643C158.7 35.521 159.188 35.4397 159.676 35.399C160.205 35.3583 160.673 35.4193 161.079 35.582C161.527 35.7447 161.893 36.0293 162.177 36.436C162.462 36.802 162.604 37.3307 162.604 38.022C162.604 38.51 162.482 38.9777 162.238 39.425C161.994 39.8723 161.689 40.279 161.323 40.645C160.957 41.011 160.551 41.3363 160.103 41.621C159.656 41.865 159.229 42.0683 158.822 42.231C157.643 42.7597 156.281 43.1663 154.735 43.451C153.231 43.7357 151.665 43.8373 150.038 43.756C147.842 43.6747 145.728 43.2477 143.694 42.475C141.702 41.6617 140.136 40.34 138.997 38.51C137.94 36.7207 137.31 34.728 137.106 32.532C136.903 30.336 137.005 28.262 137.411 26.31C137.859 23.9513 138.611 22.04 139.668 20.576C140.766 19.0713 142.068 17.8717 143.572 16.977C145.402 15.9197 147.456 15.3707 149.733 15.33C152.011 15.2893 154.186 15.7367 156.26 16.672C157.643 17.282 158.883 18.1157 159.981 19.173C161.079 20.1897 161.913 21.43 162.482 22.894C162.645 23.26 162.767 23.7073 162.848 24.236C162.97 24.7647 163.052 25.334 163.092 25.944C163.133 26.5133 163.133 27.0827 163.092 27.652C163.052 28.2213 162.95 28.7297 162.787 29.177C162.543 29.909 162.238 30.4783 161.872 30.885C161.506 31.2917 161.039 31.5967 160.469 31.8C159.9 32.0033 159.209 32.1457 158.395 32.227C157.623 32.2677 156.687 32.3083 155.589 32.349C154.613 32.3897 153.698 32.41 152.844 32.41C151.99 32.41 151.116 32.41 150.221 32.41C149.327 32.3693 148.391 32.349 147.415 32.349C146.48 32.3083 145.423 32.2677 144.243 32.227C144.121 33.0403 144.223 33.752 144.548 34.362C144.914 34.9313 145.402 35.4193 146.012 35.826C146.622 36.192 147.314 36.4767 148.086 36.68C148.859 36.8833 149.611 37.0053 150.343 37.046C151.726 37.1273 153.048 37.0257 154.308 36.741C155.569 36.4157 156.87 36.0497 158.212 35.643ZM155.589 23.809C154.817 22.9143 154.003 22.2637 153.149 21.857C152.499 21.5723 151.807 21.4503 151.075 21.491C150.384 21.491 149.713 21.5927 149.062 21.796C147.883 22.0807 146.887 22.6907 146.073 23.626C145.992 23.7073 145.85 23.9107 145.646 24.236C145.443 24.5207 145.24 24.8257 145.036 25.151C144.874 25.4763 144.752 25.7813 144.67 26.066C144.589 26.3507 144.63 26.493 144.792 26.493H156.748C156.708 25.9237 156.606 25.456 156.443 25.09C156.281 24.6833 155.996 24.2563 155.589 23.809Z" fill="#1EAF63"/>
<path d="M183.212 33.264C182.44 32.776 181.565 32.3897 180.589 32.105C179.654 31.8203 178.678 31.556 177.661 31.312C176.685 31.068 175.73 30.8037 174.794 30.519C173.859 30.1937 173.005 29.7463 172.232 29.177C170.565 27.9163 169.589 26.371 169.304 24.541C169.06 22.6703 169.467 20.7997 170.524 18.929C171.094 17.953 171.846 17.16 172.781 16.55C173.717 15.8993 174.733 15.4113 175.831 15.086C176.97 14.72 178.129 14.5167 179.308 14.476C180.488 14.4353 181.606 14.4963 182.663 14.659C183.355 14.781 184.087 14.964 184.859 15.208C185.632 15.4113 186.344 15.696 186.994 16.062C187.686 16.428 188.296 16.8957 188.824 17.465C189.394 17.9937 189.8 18.6647 190.044 19.478C190.207 20.0067 190.227 20.515 190.105 21.003C190.024 21.491 189.821 21.8977 189.495 22.223C189.211 22.5483 188.824 22.7923 188.336 22.955C187.889 23.1177 187.401 23.1583 186.872 23.077C186.262 22.955 185.693 22.772 185.164 22.528C184.636 22.284 184.107 22.0197 183.578 21.735C183.05 21.4503 182.501 21.2063 181.931 21.003C181.403 20.7997 180.833 20.698 180.223 20.698C179.288 20.6573 178.515 20.82 177.905 21.186C177.295 21.552 176.868 21.9993 176.624 22.528C176.421 23.0567 176.441 23.626 176.685 24.236C176.97 24.846 177.539 25.3747 178.393 25.822C179.166 26.2287 180.02 26.554 180.955 26.798C181.891 27.042 182.806 27.286 183.7 27.53C184.636 27.774 185.53 28.0587 186.384 28.384C187.279 28.7093 188.072 29.1567 188.763 29.726C190.105 30.824 190.919 32.105 191.203 33.569C191.529 35.033 191.447 36.4767 190.959 37.9C190.471 39.3233 189.617 40.584 188.397 41.682C187.218 42.78 185.815 43.512 184.188 43.878C183.009 44.122 181.728 44.244 180.345 44.244C179.003 44.244 177.661 44.1017 176.319 43.817C175.018 43.5323 173.757 43.085 172.537 42.475C171.358 41.865 170.362 41.0923 169.548 40.157C168.979 39.5063 168.674 38.7743 168.633 37.961C168.633 37.107 168.796 36.375 169.121 35.765C169.487 35.1143 169.996 34.667 170.646 34.423C171.297 34.179 172.029 34.3213 172.842 34.85C173.493 35.2973 174.266 35.7447 175.16 36.192C176.055 36.5987 176.95 36.924 177.844 37.168C178.739 37.412 179.593 37.534 180.406 37.534C181.26 37.534 181.992 37.351 182.602 36.985C183.497 36.4157 183.965 35.765 184.005 35.033C184.046 34.2603 183.782 33.6707 183.212 33.264Z" fill="#BA80B8"/>
<path d="M209.663 27.24V17.8H202.463V27.24H209.663ZM214.863 13.64V31.4H197.303V13.64H214.863ZM206.743 34.84V42.6H226.543V46.8H201.463V34.84H206.743ZM225.223 21.24H230.103V25.56H225.223V37.48H219.943V10.6H225.223V21.24ZM245.26 13.04C251.02 13.04 255.42 16.84 255.42 22.12C255.42 27.44 251.02 31.2 245.26 31.2C239.5 31.2 235.14 27.44 235.14 22.12C235.14 16.84 239.5 13.04 245.26 13.04ZM245.26 17.56C242.42 17.56 240.26 19.24 240.26 22.12C240.26 25 242.42 26.68 245.26 26.68C248.1 26.68 250.26 25 250.26 22.12C250.26 19.24 248.1 17.56 245.26 17.56ZM258.86 10.56H264.14V47.52H258.86V10.56ZM234.26 40.04L233.58 35.76C240.06 35.76 249.1 35.72 256.86 34.56L257.18 38.36C249.26 39.96 240.62 40.04 234.26 40.04ZM294.379 25V17.12H287.179V25H294.379ZM299.579 12.96V29.2H282.019V12.96H299.579ZM310.419 37.08H301.099C301.939 39.8 305.459 42.56 312.019 43.36L310.099 47.36C304.259 46.64 300.219 44.24 298.099 41.16C296.019 44.24 291.939 46.56 286.059 47.32L284.139 43.32C290.779 42.56 294.299 39.88 295.059 37.08H285.739V32.96H310.419V37.08ZM309.939 18.6H314.819V22.92H309.939V31.2H304.659V10.6H309.939V18.6ZM321.056 26.96L319.536 23C327.496 22.56 331.056 20.32 331.696 17.88H321.336V13.8H332.096V10.6H337.376V13.8H348.216V17.88H337.816C338.456 20.32 342.016 22.56 349.976 23L348.416 26.96C341.656 26.52 337.056 24.68 334.736 21.84C332.456 24.68 327.816 26.52 321.056 26.96ZM342.256 42.88V39.4H327.176V42.88H342.256ZM351.416 32.44H337.376V35.24H347.456V47H322.016V35.24H332.096V32.44H318.136V28.28H351.416V32.44ZM387.375 26.92L384.615 31C380.735 29.72 378.055 27.24 376.495 24.12C374.895 27.72 372.055 30.56 367.855 32.04L365.095 27.88C371.255 25.84 373.735 20.92 373.735 15.92V12.6H379.095V16.36C379.095 20.8 381.575 25.12 387.375 26.92ZM382.615 43.36C387.295 43.36 389.815 42.4 389.815 40.32C389.815 38.28 387.295 37.32 382.615 37.32C377.895 37.32 375.375 38.28 375.375 40.32C375.375 42.4 377.895 43.36 382.615 43.36ZM382.615 33.24C390.255 33.24 395.055 35.88 395.055 40.32C395.055 44.8 390.255 47.44 382.615 47.44C374.935 47.44 370.135 44.8 370.135 40.32C370.135 35.88 374.935 33.24 382.615 33.24ZM394.655 19.16H399.535V23.52H394.655V32.4H389.375V10.64H394.655V19.16ZM423.252 21.36V15.8H415.692V21.36H423.252ZM410.452 21.36V15.8H405.772V11.6H433.172V15.8H428.492V21.36H432.892V25.56H406.012V21.36H410.452ZM426.972 42.88V39.16H411.892V42.88H426.972ZM436.132 32.04H422.132V35.04H432.172V47H406.732V35.04H416.852V32.04H402.852V27.84H436.132V32.04ZM482.61 27.4L480.45 31.76C473.97 30.6 469.25 27.16 466.85 22.6C464.45 27.12 459.77 30.6 453.33 31.76L451.17 27.4C459.49 26.04 464.05 20.4 464.05 15.28V12.64H469.69V15.28C469.69 20.52 474.21 26.04 482.61 27.4ZM469.53 38.84H483.73V43.08H450.37V38.84H464.25V30.6H469.53V38.84ZM488.967 15.16H503.487C503.487 25.48 500.447 33.92 490.167 39.92L487.087 36.24C494.487 31.92 497.607 26.6 498.287 19.36H488.967V15.16ZM514.087 10.6H519.127V47.44H514.087V28.72H510.807V45.88H505.887V11.56H510.807V24.48H514.087V10.6ZM531.979 14.9091L531.51 35.4489H526.936L526.482 14.9091H531.979ZM529.223 44.3125C528.361 44.3125 527.623 44.0095 527.007 43.4034C526.401 42.7973 526.098 42.0587 526.098 41.1875C526.098 40.3352 526.401 39.6061 527.007 39C527.623 38.3939 528.361 38.0909 529.223 38.0909C530.066 38.0909 530.795 38.3939 531.41 39C532.035 39.6061 532.348 40.3352 532.348 41.1875C532.348 41.7652 532.201 42.2907 531.908 42.7642C531.624 43.2377 531.245 43.6165 530.771 43.9006C530.307 44.1752 529.791 44.3125 529.223 44.3125Z" fill="#5A5858"/>
</svg>
