<svg width="105" height="105" viewBox="0 0 105 105" fill="none" xmlns="http://www.w3.org/2000/svg">
<g filter="url(#filter0_d_161_215)">
<circle cx="50.5" cy="50.5" r="50.5" fill="#202020"/>
</g>
<path d="M42.3731 62.1872C42.5776 62.4007 42.7383 62.6536 42.8459 62.9311C42.9534 63.2086 43.0057 63.5051 42.9995 63.8035C42.9934 64.1018 42.9289 64.3958 42.81 64.6685C42.6911 64.9411 42.5201 65.1869 42.3069 65.3914C42.0937 65.5959 41.8427 65.7551 41.5685 65.8596C41.2943 65.9641 41.0025 66.0119 40.7099 66.0002C40.4174 65.9885 40.1301 65.9175 39.8648 65.7913C39.5995 65.6651 39.3616 65.4863 39.1648 65.2654L27.4131 52.5395C27.0293 52.1231 26.8157 51.5733 26.8157 51.002C26.8157 50.4306 27.0293 49.8808 27.4131 49.4644L39.1648 36.7385C39.3616 36.5176 39.5995 36.3388 39.8648 36.2126C40.1301 36.0864 40.4174 36.0154 40.7099 36.0037C41.0025 35.992 41.2943 36.0398 41.5685 36.1443C41.8427 36.2488 42.0937 36.408 42.3069 36.6125C42.5201 36.817 42.6911 37.0628 42.81 37.3354C42.9289 37.6081 42.9934 37.9021 42.9995 38.2005C43.0057 38.4988 42.9534 38.7953 42.8459 39.0728C42.7383 39.3503 42.5776 39.6032 42.3731 39.8167L32.0433 51.0005L42.3731 62.1872ZM20.2035 36.0289C19.6191 36.0289 19.0586 36.2655 18.6454 36.6866C18.2322 37.1078 18 37.679 18 38.2746V63.7263C18 64.3219 18.2322 64.8931 18.6454 65.3143C19.0586 65.7355 19.6191 65.9721 20.2035 65.9721C20.7878 65.9721 21.3483 65.7355 21.7615 65.3143C22.1748 64.8931 22.4069 64.3219 22.4069 63.7263V38.2746C22.4069 37.679 22.1748 37.1078 21.7615 36.6866C21.3483 36.2655 20.7878 36.0289 20.2035 36.0289Z" fill="#F7ED62"/>
<defs>
<filter id="filter0_d_161_215" x="0" y="0" width="105" height="105" filterUnits="userSpaceOnUse" color-interpolation-filters="sRGB">
<feFlood flood-opacity="0" result="BackgroundImageFix"/>
<feColorMatrix in="SourceAlpha" type="matrix" values="0 0 0 0 0 0 0 0 0 0 0 0 0 0 0 0 0 0 127 0" result="hardAlpha"/>
<feOffset dx="4" dy="4"/>
<feComposite in2="hardAlpha" operator="out"/>
<feColorMatrix type="matrix" values="0 0 0 0 0 0 0 0 0 0 0 0 0 0 0 0 0 0 0.13 0"/>
<feBlend mode="normal" in2="BackgroundImageFix" result="effect1_dropShadow_161_215"/>
<feBlend mode="normal" in="SourceGraphic" in2="effect1_dropShadow_161_215" result="shape"/>
</filter>
</defs>
</svg>
