<svg width="105" height="105" viewBox="0 0 105 105" fill="none" xmlns="http://www.w3.org/2000/svg">
<g filter="url(#filter0_d_161_216)">
<circle cx="50.5" cy="50.5" r="50.5" fill="black"/>
</g>
<path d="M60.6269 62.1872C60.4224 62.4007 60.2617 62.6536 60.1541 62.9311C60.0466 63.2086 59.9943 63.5052 60.0005 63.8035C60.0066 64.1018 60.0711 64.3958 60.19 64.6685C60.3089 64.9411 60.4799 65.1869 60.6931 65.3914C60.9063 65.5959 61.1573 65.7551 61.4315 65.8596C61.7057 65.9641 61.9975 66.0119 62.2901 66.0002C62.5826 65.9885 62.8699 65.9175 63.1352 65.7913C63.4005 65.6651 63.6384 65.4864 63.8352 65.2654L75.5869 52.5395C75.9707 52.1231 76.1843 51.5733 76.1843 51.002C76.1843 50.4306 75.9707 49.8808 75.5869 49.4644L63.8352 36.7385C63.6384 36.5176 63.4005 36.3388 63.1352 36.2126C62.8699 36.0864 62.5826 36.0154 62.2901 36.0037C61.9975 35.992 61.7057 36.0398 61.4315 36.1443C61.1573 36.2488 60.9063 36.408 60.6931 36.6125C60.4799 36.817 60.3089 37.0628 60.19 37.3354C60.0711 37.6081 60.0066 37.9021 60.0005 38.2005C59.9943 38.4988 60.0466 38.7953 60.1541 39.0728C60.2617 39.3503 60.4224 39.6032 60.6269 39.8167L70.9567 51.0005L60.6269 62.1872ZM82.7965 36.0289C83.3809 36.0289 83.9414 36.2655 84.3546 36.6866C84.7678 37.1078 85 37.679 85 38.2746V63.7263C85 64.3219 84.7678 64.8931 84.3546 65.3143C83.9414 65.7355 83.3809 65.9721 82.7965 65.9721C82.2122 65.9721 81.6517 65.7355 81.2385 65.3143C80.8253 64.8931 80.5931 64.3219 80.5931 63.7263V38.2746C80.5931 37.679 80.8253 37.1078 81.2385 36.6866C81.6517 36.2655 82.2122 36.0289 82.7965 36.0289Z" fill="#F7ED62"/>
<defs>
<filter id="filter0_d_161_216" x="0" y="0" width="105" height="105" filterUnits="userSpaceOnUse" color-interpolation-filters="sRGB">
<feFlood flood-opacity="0" result="BackgroundImageFix"/>
<feColorMatrix in="SourceAlpha" type="matrix" values="0 0 0 0 0 0 0 0 0 0 0 0 0 0 0 0 0 0 127 0" result="hardAlpha"/>
<feOffset dx="4" dy="4"/>
<feComposite in2="hardAlpha" operator="out"/>
<feColorMatrix type="matrix" values="0 0 0 0 0 0 0 0 0 0 0 0 0 0 0 0 0 0 0.13 0"/>
<feBlend mode="normal" in2="BackgroundImageFix" result="effect1_dropShadow_161_216"/>
<feBlend mode="normal" in="SourceGraphic" in2="effect1_dropShadow_161_216" result="shape"/>
</filter>
</defs>
</svg>
