<svg width="1920" height="393" viewBox="0 0 1920 393" fill="none" xmlns="http://www.w3.org/2000/svg">
<path fill-rule="evenodd" clip-rule="evenodd" d="M1920 271.104V393H0V261.286C1.67242 260.918 3.36965 260.544 5.09097 260.164C94.5955 240.439 249.245 206.358 368.569 237.922C502.709 273.405 830.688 270.111 866.606 269.751C868.268 269.734 869.305 269.723 869.668 269.723C877.883 269.723 1333.08 261.895 1422.47 253.578C1429.11 252.96 1440.25 251.78 1454.68 250.252C1528.65 242.418 1689.01 225.435 1772.32 228.137C1832.78 230.097 1871.21 248.756 1896.74 261.148C1906.07 265.679 1913.67 269.372 1920 271.104Z" fill="#A8D267"/>
<path d="M95.0984 37.6735L91.136 51.999L110.033 57.1806C111.151 56.9774 112.289 54.6203 107.9 46.8174C102.414 37.0639 105.766 36.4543 107.9 36.1495C125.578 36.4543 130.455 27.9199 127.407 23.0431C117.653 7.19354 105.157 1.70715 97.8415 2.01195C90.5264 2.31675 88.088 16.6423 93.2696 23.0431C97.4148 28.1637 96.2159 34.9303 95.0984 37.6735Z" fill="#34508B"/>
<path d="M217.323 64.4958C220.98 67.4219 216.205 74.0462 213.36 76.9926C214.275 77.7038 216.591 79.37 218.542 80.3454C220.493 81.3207 229.921 78.923 234.392 77.6022C232.969 75.875 229.454 71.6891 226.772 68.763C224.089 65.8369 225.654 62.4638 226.772 61.143C229.312 58.7046 234.392 53.0354 234.392 49.8654C235.001 37.0639 228.6 34.6255 218.542 37.3687C208.484 40.1119 197.206 54.1326 203.912 59.619C210.617 65.1054 215.799 63.5814 217.323 64.4958Z" fill="#34508B"/>
<path d="M95.0984 37.6735L91.136 51.999L110.033 57.1806C111.151 56.9774 112.289 54.6203 107.9 46.8174C102.414 37.0639 105.766 36.4543 107.9 36.1495C125.578 36.4543 130.455 27.9199 127.407 23.0431C117.653 7.19354 105.157 1.70715 97.8415 2.01195C90.5264 2.31675 88.088 16.6423 93.2696 23.0431C97.4148 28.1637 96.2159 34.9303 95.0984 37.6735Z" stroke="black" stroke-width="2.5"/>
<path d="M217.323 64.4958C220.98 67.4219 216.205 74.0462 213.36 76.9926C214.275 77.7038 216.591 79.37 218.542 80.3454C220.493 81.3207 229.921 78.923 234.392 77.6022C232.969 75.875 229.454 71.6891 226.772 68.763C224.089 65.8369 225.654 62.4638 226.772 61.143C229.312 58.7046 234.392 53.0354 234.392 49.8654C235.001 37.0639 228.6 34.6255 218.542 37.3687C208.484 40.1119 197.206 54.1326 203.912 59.619C210.617 65.1054 215.799 63.5814 217.323 64.4958Z" stroke="black" stroke-width="2.5"/>
<path d="M93.716 283.008V272.645L102.86 278.131L99.2024 293.371C98.1864 295.708 94.3866 300.199 87.3152 299.467C78.476 298.553 77.5616 292.152 86.096 290.019C92.9235 288.312 94.0208 284.634 93.716 283.008Z" fill="#34508B"/>
<path d="M134.254 299.467C128.402 296.785 129.378 284.126 130.597 278.131L138.217 275.693C138.014 277.725 138.095 283.435 140.046 290.019C146.141 286.117 148.478 290.628 148.885 293.371C146.446 296.521 140.106 302.15 134.254 299.467Z" fill="#34508B"/>
<path d="M193.081 291.543L195.214 281.789C197.348 279.757 201.737 277.583 202.225 285.142C202.712 292.701 199.177 298.858 197.348 300.991H183.022C181.559 292.213 189.118 291.035 193.081 291.543Z" fill="#34508B"/>
<path d="M227.523 294.895V285.142H226.609L233.924 281.789C234.432 282.094 235.631 284.166 236.362 290.019C241.848 290.019 242.458 291.543 242.763 294.895C243.068 298.248 242.458 299.467 236.362 300.991C231.485 302.211 228.437 297.435 227.523 294.895Z" fill="#34508B"/>
<path d="M93.716 283.008V272.645L102.86 278.131L99.2024 293.371C98.1864 295.708 94.3866 300.199 87.3152 299.467C78.476 298.553 77.5616 292.152 86.096 290.019C92.9235 288.312 94.0208 284.634 93.716 283.008Z" stroke="black" stroke-width="2.5"/>
<path d="M134.254 299.467C128.402 296.785 129.378 284.126 130.597 278.131L138.217 275.693C138.014 277.725 138.095 283.435 140.046 290.019C146.141 286.117 148.478 290.628 148.885 293.371C146.446 296.521 140.106 302.15 134.254 299.467Z" stroke="black" stroke-width="2.5"/>
<path d="M193.081 291.543L195.214 281.789C197.348 279.757 201.737 277.583 202.225 285.142C202.712 292.701 199.177 298.858 197.348 300.991H183.022C181.559 292.213 189.118 291.035 193.081 291.543Z" stroke="black" stroke-width="2.5"/>
<path d="M227.523 294.895V285.142H226.609L233.924 281.789C234.432 282.094 235.631 284.166 236.362 290.019C241.848 290.019 242.458 291.543 242.763 294.895C243.068 298.248 242.458 299.467 236.362 300.991C231.485 302.211 228.437 297.435 227.523 294.895Z" stroke="black" stroke-width="2.5"/>
<path d="M249.336 105.849C251.533 82.8311 236.217 75.0575 228.285 74.0479C225.946 73.4421 219.499 72.5941 212.421 74.0479C170.014 83.134 181.912 118.873 183.743 140.074C179.349 141.527 174.793 147.141 173.065 149.766V162.486L151.709 154.914L155.45 132.466L152.929 129.776C153.132 125.839 153.173 113.906 151.709 97.6718C149.878 77.3795 150.183 67.9905 137.065 57.6929C123.946 47.3953 113.573 46.1838 99.8441 48.3039C72.6915 51.3326 65.9796 80.711 68.7254 94.946C70.922 106.334 71.6746 139.67 71.7763 154.914C62.3186 172.481 47.7355 215.367 65.0644 246.381C86.7255 285.149 116.319 283.937 134.624 280.606C149.268 277.94 161.065 265.159 165.132 259.102C165.539 259.607 166.78 261.464 168.488 264.856C175.81 284.24 217.302 299.081 241.404 281.817C265.506 264.553 263.065 230.935 261.539 217.911C260.037 205.087 249.661 179.342 246.431 171.327L246.285 170.966C243.234 163.395 246.59 134.622 249.336 105.849Z" fill="#E2153F" stroke="black" stroke-width="2.5"/>
<path d="M156.365 133.685C149.05 133.685 136.451 144.455 131.066 149.839C136.045 154.919 146.977 165.994 150.878 169.651C154.78 173.309 159.413 169.753 161.242 167.518C161.546 170.769 163.68 177.82 169.776 180.015C177.396 182.758 184.406 174.528 187.454 169.651C190.502 164.775 186.235 158.983 182.273 154.716C178.31 150.449 172.214 150.144 169.776 151.363C169.471 143.743 160.632 137.038 156.365 133.685Z" fill="#34508B" stroke="black" stroke-width="2.5"/>
<path d="M126.8 259.872C101.685 260.116 93.1708 231.119 92.0532 216.591C91.6597 213.177 91.8893 205.618 92.0532 202.265C93.6788 193.426 103.331 176.723 128.934 180.624C154.537 184.526 160.125 209.072 159.719 220.858C159.211 233.761 151.916 259.628 126.8 259.872Z" fill="#34508B"/>
<path d="M205.134 188.854C196.356 188.854 188.878 193.934 186.236 196.474C166.973 223.54 176.787 248.798 184.103 258.043C191.113 265.46 208.913 277.124 224.031 264.444C242.929 248.595 239.881 213.848 233.785 205.313C227.689 196.779 216.107 188.854 205.134 188.854Z" fill="#34508B"/>
<path d="M126.8 259.872C101.685 260.116 93.1708 231.119 92.0532 216.591C91.6597 213.177 91.8893 205.618 92.0532 202.265C93.6788 193.426 103.331 176.723 128.934 180.624C154.537 184.526 160.125 209.072 159.719 220.858C159.211 233.761 151.916 259.628 126.8 259.872Z" stroke="black" stroke-width="2.5"/>
<path d="M205.134 188.854C196.356 188.854 188.878 193.934 186.236 196.474C166.973 223.54 176.787 248.798 184.103 258.043C191.113 265.46 208.913 277.124 224.031 264.444C242.929 248.595 239.881 213.848 233.785 205.313C227.689 196.779 216.107 188.854 205.134 188.854Z" stroke="black" stroke-width="2.5"/>
<path d="M149.548 90.748C148.875 96.4475 146.702 101.349 143.797 104.672C140.888 108.002 137.348 109.654 133.865 109.202C130.382 108.75 127.333 106.244 125.286 102.271C123.243 98.3047 122.275 92.9962 122.948 87.2968C123.621 81.5974 125.794 76.6963 128.699 73.3725C131.608 70.0426 135.148 68.391 138.631 68.8429C142.114 69.2948 145.163 71.8013 147.21 75.7743C149.253 79.7401 150.221 85.0486 149.548 90.748Z" fill="#F9FCFD" stroke="black" stroke-width="2.5"/>
<path d="M105.674 87.0976C104.97 92.7852 102.697 97.6789 99.6544 101.001C96.6093 104.326 92.8783 106.003 89.1767 105.545C85.475 105.087 82.2657 102.55 80.1231 98.5836C77.9821 94.6196 76.971 89.3194 77.675 83.6318C78.379 77.9443 80.652 73.0505 83.6949 69.7282C86.74 66.4035 90.4709 64.7262 94.1726 65.1844C97.8742 65.6426 101.084 68.1789 103.226 72.1458C105.367 76.1098 106.378 81.4101 105.674 87.0976Z" fill="#F9FCFD" stroke="black" stroke-width="2.5"/>
<path d="M105.674 87.0976C104.97 92.7852 102.697 97.6789 99.6544 101.001C96.6093 104.326 92.8783 106.003 89.1767 105.545C85.475 105.087 82.2657 102.55 80.1231 98.5836C77.9821 94.6196 76.971 89.3194 77.675 83.6318C78.379 77.9443 80.652 73.0505 83.6949 69.7282C86.74 66.4035 90.4709 64.7262 94.1726 65.1844C97.8742 65.6426 101.084 68.1789 103.226 72.1458C105.367 76.1098 106.378 81.4101 105.674 87.0976Z" stroke="black" stroke-width="2.5"/>
<path d="M149.548 90.748C148.875 96.4475 146.702 101.349 143.797 104.672C140.888 108.002 137.348 109.654 133.865 109.202C130.382 108.75 127.333 106.244 125.286 102.271C123.243 98.3047 122.275 92.9962 122.948 87.2968C123.621 81.5974 125.794 76.6963 128.699 73.3725C131.608 70.0426 135.148 68.391 138.631 68.8429C142.114 69.2948 145.163 71.8013 147.21 75.7743C149.253 79.7401 150.221 85.0486 149.548 90.748Z" stroke="black" stroke-width="2.5"/>
<path d="M104.571 90.3389C104.124 93.9487 102.69 97.036 100.797 99.117C98.9003 101.201 96.6309 102.199 94.4314 101.927C92.232 101.655 90.2745 100.133 88.9435 97.6499C87.6145 95.1699 86.9767 91.8262 87.4236 88.2164C87.8704 84.6066 89.3042 81.5193 91.1978 79.4382C93.0941 77.3542 95.3635 76.3559 97.563 76.6282C99.7624 76.9004 101.72 78.4219 103.051 80.9054C104.38 83.3854 105.018 86.7291 104.571 90.3389Z" fill="#34508B" stroke="black" stroke-width="2.5"/>
<ellipse cx="98.7384" cy="90.527" rx="7.01437" ry="9.46132" transform="rotate(7.05625 98.7384 90.527)" fill="black"/>
<path d="M148.494 93.9893C148.066 97.6109 146.694 100.705 144.886 102.788C143.072 104.878 140.927 105.85 138.877 105.584C136.828 105.318 134.973 103.827 133.7 101.337C132.431 98.8549 131.82 95.5029 132.248 91.8814C132.675 88.2598 134.048 85.1652 135.856 83.0825C137.669 80.9931 139.815 80.0209 141.865 80.2868C143.914 80.5526 145.769 82.044 147.042 84.5339C148.311 87.0158 148.922 90.3677 148.494 93.9893Z" fill="#34508B" stroke="black" stroke-width="2.5"/>
<ellipse cx="101.855" cy="90.6814" rx="2.23351" ry="3.89428" transform="rotate(7.05625 101.855 90.6814)" fill="white"/>
<ellipse cx="143.244" cy="94.1147" rx="5.87806" ry="9.46132" transform="rotate(7.05625 143.244 94.1147)" fill="black"/>
<ellipse cx="2.13237" cy="3.89164" rx="2.13237" ry="3.89164" transform="matrix(0.991687 0.12867 -0.117273 0.9931 144.301 90.1995)" fill="white"/>
<path d="M80.166 64.8004C81.3852 61.854 85.8353 56.2661 93.882 57.4852C96.3204 57.9729 98.7588 59.7205 99.6732 60.5333M132.592 62.9717C135.944 60.1269 144.418 57.3024 151.489 68.7628" stroke="black" stroke-width="2.5" stroke-linecap="round"/>
<path d="M60.3527 163.251C62.7911 156.911 68.0743 155.936 70.4111 156.241C69.9031 157.765 69.1919 161.3 70.4111 163.251C75.5927 169.652 70.1063 174.833 66.4487 175.138C62.7911 175.443 57.3047 171.176 60.3527 163.251Z" fill="#34508B"/>
<path d="M256.643 181.844C256.643 176.235 249.938 171.785 246.585 170.261C246.991 172.7 247.621 177.698 246.89 178.186C243.842 180.015 243.232 184.892 245.061 187.33C246.89 189.769 256.643 188.854 256.643 181.844Z" fill="#34508B"/>
<path d="M206.961 205.009C219.641 194.767 226.672 192.613 228.602 192.817C230.024 192.512 233.113 192.085 234.088 192.817C237.258 196.474 232.768 199.827 230.126 201.046C225.351 203.789 214.52 210.434 209.4 215.067C204.279 219.7 192.636 225.125 187.454 227.259C178.716 228.986 160.388 231.038 156.974 225.43C152.707 218.42 156.974 215.676 164.289 217.2C183.187 221.163 195.379 213.543 206.961 205.009Z" fill="#34508B"/>
<path d="M113.083 218.724C106.012 215.067 91.4422 198.1 85.0414 190.073C85.0414 188.753 84.0661 186.05 80.1646 185.806C76.2632 185.562 75.491 190.378 75.5926 192.817C77.9294 198.608 86.8093 213.238 103.634 225.43C124.665 240.67 145.696 235.793 150.573 232.44C155.45 229.088 158.803 222.992 152.707 220.553C146.611 218.115 146.306 223.601 140.21 225.43C134.114 227.259 121.922 223.296 113.083 218.724Z" fill="#34508B"/>
<path d="M60.3527 163.251C62.7911 156.911 68.0743 155.936 70.4111 156.241C69.9031 157.765 69.1919 161.3 70.4111 163.251C75.5927 169.652 70.1063 174.833 66.4487 175.138C62.7911 175.443 57.3047 171.176 60.3527 163.251Z" stroke="black" stroke-width="2.5"/>
<path d="M256.643 181.844C256.643 176.235 249.938 171.785 246.585 170.261C246.991 172.7 247.621 177.698 246.89 178.186C243.842 180.015 243.232 184.892 245.061 187.33C246.89 189.769 256.643 188.854 256.643 181.844Z" stroke="black" stroke-width="2.5"/>
<path d="M206.961 205.009C219.641 194.767 226.672 192.613 228.602 192.817C230.024 192.512 233.113 192.085 234.088 192.817C237.258 196.474 232.768 199.827 230.126 201.046C225.351 203.789 214.52 210.434 209.4 215.067C204.279 219.7 192.636 225.125 187.454 227.259C178.716 228.986 160.388 231.038 156.974 225.43C152.707 218.42 156.974 215.676 164.289 217.2C183.187 221.163 195.379 213.543 206.961 205.009Z" stroke="black" stroke-width="2.5"/>
<path d="M113.083 218.724C106.012 215.067 91.4422 198.1 85.0414 190.073C85.0414 188.753 84.0661 186.05 80.1646 185.806C76.2632 185.562 75.491 190.378 75.5926 192.817C77.9294 198.608 86.8093 213.238 103.634 225.43C124.665 240.67 145.696 235.793 150.573 232.44C155.45 229.088 158.803 222.992 152.707 220.553C146.611 218.115 146.306 223.601 140.21 225.43C134.114 227.259 121.922 223.296 113.083 218.724Z" stroke="black" stroke-width="2.5"/>
<path d="M243.46 106.09C243.895 111.226 242.787 115.951 240.705 119.434C238.623 122.919 235.631 125.075 232.276 125.36C228.922 125.644 225.61 124.021 222.971 120.937C220.333 117.854 218.445 113.382 218.01 108.246C217.575 103.11 218.683 98.3846 220.765 94.9017C222.847 91.4167 225.839 89.2601 229.193 88.9758C232.548 88.6915 235.86 90.3141 238.499 93.3989C241.137 96.4819 243.025 100.953 243.46 106.09Z" fill="#F9FCFD" stroke="black" stroke-width="2.5"/>
<path d="M243.46 106.09C243.895 111.226 242.787 115.951 240.705 119.434C238.623 122.919 235.631 125.075 232.276 125.36C228.922 125.644 225.61 124.021 222.971 120.937C220.333 117.854 218.445 113.382 218.01 108.246C217.575 103.11 218.683 98.3846 220.765 94.9017C222.847 91.4167 225.839 89.2601 229.193 88.9758C232.548 88.6915 235.86 90.3141 238.499 93.3989C241.137 96.4819 243.025 100.953 243.46 106.09Z" stroke="black" stroke-width="2.5"/>
<path d="M234.19 104.262C234.489 107.8 233.759 111.033 232.401 113.394C231.04 115.76 229.124 117.148 227.039 117.325C224.954 117.502 222.831 116.456 221.091 114.352C219.355 112.253 218.091 109.189 217.792 105.652C217.492 102.114 218.222 98.8815 219.58 96.5202C220.941 94.1538 222.858 92.766 224.943 92.5893C227.028 92.4126 229.15 93.4583 230.89 95.5618C232.626 97.661 233.89 100.725 234.19 104.262Z" fill="#34508B" stroke="black" stroke-width="2.5"/>
<ellipse cx="223.184" cy="105.052" rx="6.67561" ry="8.64089" transform="rotate(-4.84335 223.184 105.052)" fill="black"/>
<ellipse cx="221.341" cy="105.789" rx="2.62956" ry="2.63762" transform="rotate(-4.84335 221.341 105.789)" fill="white"/>
<path d="M240.49 87.051L236.832 91.0134M242.318 91.0134L238.966 93.7566M244.452 95.5854H240.49M245.671 98.6334H242.318" stroke="black" stroke-width="2.5"/>
<path d="M201.263 109.043C201.964 114.356 201.221 119.329 199.517 123.06C197.807 126.808 195.222 129.139 192.286 129.612C189.351 130.085 186.271 128.666 183.663 125.615C181.065 122.576 179.067 118.045 178.366 112.732C177.664 107.419 178.408 102.446 180.111 98.7145C181.822 94.967 184.407 92.6356 187.342 92.1627C190.278 91.6897 193.358 93.1084 195.966 96.16C198.563 99.1986 200.561 103.73 201.263 109.043Z" fill="#F9FCFD" stroke="black" stroke-width="2.5"/>
<path d="M194.883 106.105C195.71 112.367 192.274 117.626 187.804 118.346C183.334 119.067 178.681 115.111 177.854 108.848C177.027 102.586 180.463 97.327 184.934 96.6068C189.404 95.8866 194.057 99.8424 194.883 106.105Z" fill="#34508B" stroke="black" stroke-width="2.5"/>
<ellipse cx="6.81988" cy="8.02155" rx="6.81988" ry="8.02155" transform="matrix(0.987268 -0.159066 0.130886 0.991397 176.77 99.5737)" fill="black"/>
<ellipse cx="2.52016" cy="2.66746" rx="2.52016" ry="2.66746" transform="matrix(0.987268 -0.159066 0.130886 0.991397 179.484 103.877)" fill="white"/>
<path d="M181.055 90.4038L182.884 93.147M176.788 94.671L179.531 97.719M174.045 100.157L178.007 101.377M174.045 105.339L176.788 105.949" stroke="black" stroke-width="2.5"/>
<path d="M230.737 83.3931C231.448 85.1203 233.907 89.2452 238.052 91.9274M192.637 85.8315C192.332 87.1523 190.747 90.0987 186.846 91.3178" stroke="black" stroke-width="2.5" stroke-linecap="round"/>
<path d="M194.77 129.723L191.417 132.713M191.417 132.713L183.492 139.781C185.016 139.273 188.735 139.72 191.417 145.573M191.417 132.713C192.738 132.936 195.928 134.417 198.123 138.562M206.352 153.802C203.529 155.761 198.91 159.124 194.994 162.336M188.369 168.737C189.425 167.154 192.004 164.789 194.994 162.336M194.994 162.336C198.678 166.705 208.912 173.858 220.373 167.518C231.833 161.178 236.324 151.262 237.137 147.097M234.699 143.134L238.661 148.621M187.15 170.871C191.315 174.122 202.877 180.137 215.801 178.186C228.724 176.235 240.896 168.636 245.366 165.08M182.273 176.052C181.968 171.988 178.128 162.702 165.204 158.069M146.002 165.08C149.863 160.406 159.779 150.815 168.557 149.84M131.372 149.84C129.035 147.503 123.569 142.403 120.399 140.696M131.372 129.723C134.115 128.504 140.82 122.713 144.783 122.713M126.495 122.713C127.409 122.103 128.324 114.788 137.163 114.483M131.372 109.606C132.286 109.911 148.44 122.902 155.755 132.713M81.994 126.98C82.6036 126.98 84.2038 126.269 85.9564 125.38M90.8332 122.713C89.614 123.424 87.709 124.491 85.9564 125.38M85.9564 125.38C85.9564 126.98 87.1756 152.583 118.265 153.802C121.923 153.802 127.714 151.161 130.152 149.84M71.6309 153.802C73.4597 153.802 84.4324 165.08 126.495 165.08C134.298 165.08 141.328 163.657 143.868 162.946" stroke="black" stroke-width="2.5" stroke-linecap="round"/>
<path d="M93.271 4.75488C92.9662 9.12367 94.795 19.3853 104.549 25.4812C114.302 31.5772 123.446 30.6628 126.799 29.4436M202.084 57.79C205.031 59.4156 212.996 61.0208 221.287 54.4372C229.577 47.8535 230.634 40.518 230.126 37.6732" stroke="black" stroke-width="2.5"/>
<path d="M174.346 147.401C168.961 152.075 158.862 162.946 161.545 169.042" stroke="black" stroke-width="2"/>
<circle cx="236.526" cy="135.514" r="5.79119" fill="#FF3F68"/>
<path d="M1817.91 74.8499C1817.91 74.8499 1824.91 70.4999 1822.9 65.4749C1821.63 63.1499 1819.17 64.7249 1817.38 64.5749C1815.6 64.4249 1805.39 64.5749 1802.33 54.2999C1803.6 41.8499 1821.86 34.3499 1834.37 37.5749C1839.22 39.5249 1837.5 48.5249 1836.91 50.0249C1835.04 54.1499 1831.02 54.5249 1831.54 60.9749C1832.06 67.4249 1833.48 78.4499 1833.48 78.4499L1817.91 74.8499Z" fill="#3561A2" stroke="#232020" stroke-width="2.1539" stroke-miterlimit="10"/>
<path d="M1802.86 54.8249C1802.86 54.8249 1811.42 56.6249 1824.46 52.1249C1837.5 47.6249 1835.19 38.4749 1835.19 38.4749" fill="#3561A2"/>
<path d="M1802.86 54.8249C1802.86 54.8249 1811.42 56.6249 1824.46 52.1249C1837.5 47.6249 1835.19 38.4749 1835.19 38.4749" stroke="#232020" stroke-width="2.1539" stroke-miterlimit="10"/>
<path d="M1739.74 138.825C1739.74 138.825 1726.48 147.45 1724.32 160.8C1723.87 162.45 1735.42 173.325 1735.72 172.95C1736.02 172.575 1738.7 175.35 1743.92 168.9C1749.13 162.45 1760.38 157.725 1760.38 157.725L1753.98 143.55L1739.74 138.825Z" fill="#3561A2" stroke="#232020" stroke-width="2.1539" stroke-miterlimit="10"/>
<path d="M1746.53 265.05C1746.53 265.05 1749.06 278.025 1751.22 283.575C1747.72 286.8 1747.72 294.675 1754.87 295.2C1759.19 295.575 1763.59 291.975 1759.42 285.75C1757.7 277.275 1758.37 267.15 1758.37 267.15L1746.53 265.05Z" fill="#3561A2" stroke="#232020" stroke-width="2.1539" stroke-miterlimit="10"/>
<path d="M1791.75 269.1L1794.73 285.975C1794.73 285.975 1788.03 291.225 1794.21 298.425C1795.93 299.625 1806.28 300.6 1805.09 293.325C1803.9 286.05 1801.44 287.1 1801.44 287.1L1802.26 269.175H1792.5H1791.75V269.1Z" fill="#3561A2" stroke="#232020" stroke-width="2.1539" stroke-miterlimit="10"/>
<path d="M1697.42 212.4C1697.42 212.4 1735.72 179.025 1746.97 176.55C1758.22 174.075 1728.2 204.975 1728.2 204.975C1728.2 204.975 1711.28 210.9 1701.89 218.775C1698.69 224.175 1690.64 234.15 1683.12 220.95C1681.48 217.725 1686.4 214.95 1688.63 214.275C1690.87 213.6 1697.42 212.4 1697.42 212.4Z" fill="#3561A2" stroke="#232020" stroke-width="2.1539" stroke-miterlimit="10"/>
<path d="M1817.31 73.0498C1817.31 73.0498 1850.39 73.0498 1851.81 97.3498C1852.7 104.55 1851.81 111.9 1851.81 111.9C1851.81 111.9 1838.25 156.75 1838.02 176.175C1837.87 195.6 1844.8 220.8 1841.45 231.45C1838.1 242.1 1819.99 262.575 1802.26 273.375C1799.58 273.9 1763.29 278.925 1742.5 265.125C1734.6 256.125 1711.21 235.575 1727.45 200.475C1737.14 182.475 1741.01 180.3 1746.23 176.325C1751.44 172.35 1762.77 162.975 1763.66 155.625C1761.8 157.05 1759.12 158.175 1759.12 158.175C1759.12 158.175 1750.32 143.4 1737.14 140.55C1745.03 134.775 1767.39 121.8 1768.28 121.8C1769.18 121.8 1767.91 89.9248 1796.52 76.7998C1809.63 70.6498 1817.31 73.0498 1817.31 73.0498Z" fill="#EB2148" stroke="#232020" stroke-width="2" stroke-miterlimit="10"/>
<path d="M1759.12 164.55C1759.12 164.55 1793.32 182.55 1838.4 169.425" stroke="#232020" stroke-width="2" stroke-miterlimit="10"/>
<path d="M1817.68 189.3L1827.14 182.625C1827.14 182.625 1845.18 210 1846.67 219.525C1848.16 229.05 1847.71 231.375 1847.71 231.375C1847.71 231.375 1855.61 250.5 1840.78 250.5C1837.05 249.75 1829.01 247.425 1832.73 236.25C1833.78 232.65 1841.15 230.85 1841.15 230.85C1841.15 230.85 1842.57 223.65 1828.11 205.275C1820.74 194.7 1817.68 189.3 1817.68 189.3Z" fill="#3561A2" stroke="#232020" stroke-width="2" stroke-miterlimit="10"/>
<path d="M1773.05 214.125C1767.39 231.45 1755.54 242.775 1745.71 239.475C1735.87 236.175 1731.92 219.675 1737.51 202.275C1743.84 182.55 1761.5 177.825 1766.2 178.875C1776.33 181.125 1778.79 196.8 1773.05 214.125Z" fill="#3561A2" stroke="#232020" stroke-width="2.1539" stroke-miterlimit="10"/>
<path d="M1762.69 156.9C1762.84 156.75 1785.72 170.025 1795.03 151.35" stroke="#232020" stroke-width="2.1539" stroke-miterlimit="10"/>
<path d="M1794.81 146.325C1794.81 146.325 1792.12 153.45 1799.43 155.85" stroke="#232020" stroke-width="2.1539" stroke-miterlimit="10"/>
<path d="M1749.95 132.3C1750.18 132.3 1755.91 135.825 1759.49 141.975" stroke="#232020" stroke-width="2" stroke-miterlimit="10" stroke-linecap="round"/>
<path d="M1758.74 126.975C1758.74 126.975 1764.33 128.25 1766.87 136.2" stroke="#232020" stroke-width="2" stroke-miterlimit="10" stroke-linecap="round"/>
<path d="M1727.38 153.9C1727.38 153.9 1741.46 160.65 1743.47 169.8" stroke="#232020" stroke-width="2.1539" stroke-miterlimit="10"/>
<path d="M1808.37 128.85C1815.98 128.85 1822.15 120.187 1822.15 109.5C1822.15 98.8132 1815.98 90.1499 1808.37 90.1499C1800.76 90.1499 1794.58 98.8132 1794.58 109.5C1794.58 120.187 1800.76 128.85 1808.37 128.85Z" fill="white" stroke="#232020" stroke-width="2" stroke-miterlimit="10"/>
<path d="M1801.59 118.65C1805.46 118.65 1808.59 114.553 1808.59 109.5C1808.59 104.446 1805.46 100.35 1801.59 100.35C1797.72 100.35 1794.58 104.446 1794.58 109.5C1794.58 114.553 1797.72 118.65 1801.59 118.65Z" fill="#3561A3" stroke="#232020" stroke-miterlimit="10"/>
<path d="M1799.05 115.275C1801.52 115.275 1803.53 112.689 1803.53 109.5C1803.53 106.31 1801.52 103.725 1799.05 103.725C1796.59 103.725 1794.58 106.31 1794.58 109.5C1794.58 112.689 1796.59 115.275 1799.05 115.275Z" fill="#232020"/>
<path d="M1779.68 127.575C1787.3 127.575 1793.47 118.912 1793.47 108.225C1793.47 97.5383 1787.3 88.875 1779.68 88.875C1772.07 88.875 1765.9 97.5383 1765.9 108.225C1765.9 118.912 1772.07 127.575 1779.68 127.575Z" fill="white" stroke="#232020" stroke-width="2" stroke-miterlimit="10"/>
<path d="M1772.9 117.375C1776.77 117.375 1779.91 113.278 1779.91 108.225C1779.91 103.172 1776.77 99.075 1772.9 99.075C1769.03 99.075 1765.9 103.172 1765.9 108.225C1765.9 113.278 1769.03 117.375 1772.9 117.375Z" fill="#3561A3" stroke="#232020" stroke-miterlimit="10"/>
<path d="M1770.44 114C1772.91 114 1774.91 111.414 1774.91 108.225C1774.91 105.036 1772.91 102.45 1770.44 102.45C1767.97 102.45 1765.97 105.036 1765.97 108.225C1765.97 111.414 1767.97 114 1770.44 114Z" fill="#232020"/>
<path d="M1776.63 82.0498C1776.63 82.0498 1787.51 78.3748 1793.39 88.4998" stroke="#232020" stroke-width="2" stroke-miterlimit="10" stroke-linecap="round"/>
<path d="M1803.82 86.7749C1803.82 86.7749 1814.11 81.6749 1821.33 90.8999" stroke="#232020" stroke-width="2" stroke-miterlimit="10" stroke-linecap="round"/>
</svg>
