<svg width="29" height="28" viewBox="0 0 29 28" fill="none" xmlns="http://www.w3.org/2000/svg">
<path fill-rule="evenodd" clip-rule="evenodd" d="M14.5 28C22.232 28 28.5 21.732 28.5 14C28.5 6.26801 22.232 0 14.5 0C6.76801 0 0.5 6.26801 0.5 14C0.5 21.732 6.76801 28 14.5 28ZM10.3444 8.84561C10.6571 8.53322 10.8329 8.10941 10.8331 7.66741C10.8334 7.2254 10.658 6.80142 10.3456 6.48872C10.0332 6.17602 9.60941 6.00022 9.16741 6C8.7254 5.99978 8.30142 6.17515 7.98872 6.48754C7.67602 6.79993 7.50022 7.22374 7.5 7.66574C7.49978 8.10774 7.67515 8.53173 7.98754 8.84443C8.29993 9.15713 8.72374 9.33293 9.16574 9.33315C9.60774 9.33337 10.0317 9.158 10.3444 8.84561ZM7.55 10.5672H10.8831V21H7.55V10.5672ZM12.833 10.5672H16.1495L16.1162 11.9672C17.4994 9.44231 23.3825 9.25065 23.3825 14.392V21H20.091V15.5253C20.091 12.1922 16.1162 12.4755 16.1162 15.5253V21H12.833V10.5672Z" fill="#5A5858"/>
</svg>
