<svg width="29" height="28" viewBox="0 0 29 28" fill="none" xmlns="http://www.w3.org/2000/svg">
<path fill-rule="evenodd" clip-rule="evenodd" d="M14.5 28C22.232 28 28.5 21.732 28.5 14C28.5 6.26801 22.232 0 14.5 0C6.76801 0 0.5 6.26801 0.5 14C0.5 21.732 6.76801 28 14.5 28ZM17.4129 7.01725C17.0432 7.00675 16.615 7.00225 15.7712 7L14.2293 7.00075C13.6822 6.99892 13.1352 7.00467 12.5883 7.018L12.4428 7.0225C12.2748 7.0285 12.1083 7.036 11.9088 7.045C11.1101 7.0825 10.5664 7.2085 10.0879 7.39374C9.58777 7.58204 9.13475 7.87714 8.7604 8.25847C8.37807 8.63304 8.08218 9.0866 7.89342 9.58744C7.70817 10.0659 7.58217 10.6097 7.54468 11.4084L7.54431 11.4165C7.53547 11.6124 7.52809 11.7759 7.52218 11.9424L7.51693 12.0879C7.50385 12.6348 7.49835 13.1818 7.50043 13.7288V15.2708C7.4991 15.8178 7.50535 16.3649 7.51918 16.9118L7.52293 17.0573L7.54543 17.5912C7.58292 18.39 7.70892 18.9345 7.89417 19.4122C8.08249 19.9129 8.37786 20.3665 8.75965 20.7412C9.13422 21.1226 9.5875 21.4177 10.0879 21.6059C10.5664 21.7911 11.1108 21.9171 11.9088 21.9546C12.0868 21.9634 12.2648 21.9711 12.4428 21.9779L12.5883 21.9824C13.1354 21.9958 13.6827 22.0016 14.23 21.9996H15.2117L15.7712 21.9989C16.615 21.9974 17.0432 21.9921 17.4129 21.9816L17.5584 21.9771L18.0924 21.9546C18.8904 21.9171 19.4349 21.7911 19.9126 21.6059C20.4133 21.4178 20.8668 21.1227 21.2416 20.7412C21.6231 20.3664 21.9182 19.9128 22.1063 19.4122C22.2908 18.9337 22.4183 18.39 22.4558 17.5912L22.4562 17.5834C22.465 17.3874 22.4724 17.2238 22.4783 17.0573L22.4828 16.9118C22.4961 16.3649 22.5019 15.8178 22.5001 15.2708V14.2883L22.4993 13.7288C22.4978 12.8851 22.4933 12.4569 22.4821 12.0879L22.4776 11.9424C22.4716 11.7757 22.4642 11.6119 22.4554 11.4155L22.4551 11.4084C22.4176 10.6097 22.2916 10.0652 22.1063 9.58744C21.9182 9.0868 21.6231 8.63326 21.2416 8.25847C20.8246 7.84223 20.4076 7.58424 19.9126 7.39374C19.4349 7.2085 18.8904 7.0825 18.0924 7.045L18.0737 7.04416C17.8818 7.03553 17.7212 7.02831 17.5584 7.0225L17.4129 7.01725ZM12.3487 11.8482C13.0519 11.145 14.0057 10.7499 15.0002 10.7499C15.9948 10.7499 16.9486 11.145 17.6518 11.8482C18.3551 12.5515 18.7502 13.5053 18.7502 14.4998C18.7502 15.4944 18.3551 16.4482 17.6518 17.1514C16.9486 17.8546 15.9948 18.2497 15.0002 18.2497C14.0057 18.2497 13.0519 17.8546 12.3487 17.1514C11.6454 16.4482 11.2503 15.4944 11.2503 14.4998C11.2503 13.5053 11.6454 12.5515 12.3487 11.8482ZM15.8613 12.421C15.5885 12.3081 15.2962 12.2499 15.001 12.2499C14.4043 12.2499 13.832 12.4869 13.41 12.9089C12.9881 13.3308 12.751 13.9031 12.751 14.4998C12.751 15.0965 12.9881 15.6688 13.41 16.0908C13.832 16.5127 14.4043 16.7498 15.001 16.7498C15.2965 16.7497 15.589 16.6915 15.862 16.5784C16.1349 16.4652 16.3829 16.2995 16.5918 16.0905C16.8007 15.8815 16.9664 15.6335 17.0794 15.3605C17.1925 15.0875 17.2506 14.7949 17.2506 14.4994C17.2505 14.204 17.1923 13.9114 17.0792 13.6385C16.966 13.3655 16.8003 13.1175 16.5913 12.9086C16.3823 12.6997 16.1343 12.534 15.8613 12.421ZM18.2755 9.89952C18.4513 9.72371 18.6898 9.62494 18.9384 9.62494C19.187 9.62494 19.4255 9.72371 19.6013 9.89952C19.7771 10.0753 19.8759 10.3138 19.8759 10.5624C19.8759 10.811 19.7771 11.0495 19.6013 11.2253C19.4255 11.4011 19.187 11.4999 18.9384 11.4999C18.6898 11.4999 18.4513 11.4011 18.2755 11.2253C18.0997 11.0495 18.0009 10.811 18.0009 10.5624C18.0009 10.3138 18.0997 10.0753 18.2755 9.89952Z" fill="#5A5858"/>
</svg>
