<svg width="29" height="28" viewBox="0 0 29 28" fill="none" xmlns="http://www.w3.org/2000/svg">
<path fill-rule="evenodd" clip-rule="evenodd" d="M14.5 28C22.232 28 28.5 21.732 28.5 14C28.5 6.26801 22.232 0 14.5 0C6.76801 0 0.5 6.26801 0.5 14C0.5 21.732 6.76801 28 14.5 28ZM16.8126 7.0035C16.3244 7.00425 15.8353 7.005 15.344 7.01251C15.3323 8.58284 15.3328 10.1532 15.3333 11.725C15.3336 12.6681 15.3339 13.6117 15.3315 14.5562C15.3299 14.8507 15.3304 15.1449 15.3309 15.4388C15.3324 16.2612 15.3338 17.0819 15.2878 17.9061C15.2819 18.1356 15.1652 18.3373 15.0525 18.5322C15.0455 18.5444 15.0385 18.5565 15.0315 18.5686C14.669 19.1623 14.0003 19.5686 13.3004 19.5748C12.2504 19.6686 11.2629 18.8061 11.1129 17.7811C11.112 17.7287 11.1102 17.676 11.1085 17.6231C11.0991 17.3356 11.0896 17.0441 11.2004 16.7749C11.3567 16.3311 11.6567 15.9374 12.0504 15.6811C12.5941 15.3061 13.3191 15.2499 13.9378 15.4499C13.9378 15.0535 13.9447 14.6572 13.9516 14.2608C13.9608 13.7322 13.97 13.2036 13.9628 12.6749C12.6066 12.4187 11.1567 12.8499 10.1192 13.7499C9.20678 14.5249 8.61931 15.6624 8.50681 16.8499C8.49432 17.1561 8.50056 17.4686 8.51307 17.7811C8.6443 19.2436 9.53177 20.6061 10.7942 21.3498C11.5567 21.7998 12.4504 22.0436 13.3441 21.9936C14.8003 21.9686 16.219 21.1873 17.0377 19.9873C17.5439 19.2686 17.8314 18.3998 17.8814 17.5249C17.8931 16.3881 17.8926 15.2488 17.8921 14.1087C17.8919 13.4247 17.8916 12.7405 17.8939 12.0562C18.2189 12.2687 18.5501 12.4749 18.9064 12.6374C19.7251 13.0249 20.6313 13.2124 21.5312 13.2437V10.7249C20.5688 10.6187 19.5813 10.3 18.8813 9.60621C18.1814 8.93123 17.8377 7.95625 17.7877 7C17.4628 7.0025 17.1379 7.003 16.8126 7.0035Z" fill="#5A5858"/>
</svg>
