<svg width="29" height="28" viewBox="0 0 29 28" fill="none" xmlns="http://www.w3.org/2000/svg">
<path fill-rule="evenodd" clip-rule="evenodd" d="M14.5 28C22.232 28 28.5 21.732 28.5 14C28.5 6.26801 22.232 0 14.5 0C6.76801 0 0.5 6.26801 0.5 14C0.5 21.732 6.76801 28 14.5 28ZM22.2658 9.37353C23.0468 9.27647 23.8007 9.07353 24.5 8.76471C23.9732 9.53235 23.3193 10.2029 22.5564 10.7324C22.5655 10.9 22.5655 11.0588 22.5655 11.2265C22.5655 16.2294 18.6329 22 11.4761 22C9.2782 22 7.22562 21.3735 5.5 20.2971C5.8088 20.3324 6.11759 20.35 6.42639 20.35C8.1829 20.3583 9.89004 19.7857 11.2672 18.7265C10.4548 18.7121 9.66737 18.4507 9.01574 17.9791C8.36411 17.5074 7.881 16.8492 7.63432 16.0971C8.21562 16.209 8.81577 16.1879 9.38719 16.0353C7.60707 15.6912 6.26291 14.1559 6.26291 12.3206V12.2941C6.78968 12.5588 7.3891 12.7353 8.03394 12.7353C6.9804 12.0735 6.29924 10.9088 6.29924 9.59412C6.29924 8.90588 6.48996 8.25294 6.826 7.69706C8.74235 9.98235 11.6214 11.4912 14.8547 11.65C14.7911 11.3765 14.7548 11.0853 14.7548 10.7853C14.7548 8.69412 16.4986 7 18.6329 7C19.7772 7 20.7854 7.44118 21.5029 8.2C22.3838 8.02353 23.2194 7.71471 23.9732 7.27353C23.6826 8.16471 23.065 8.90588 22.2658 9.37353Z" fill="#5A5858"/>
</svg>
