<svg width="18" height="19" viewBox="0 0 18 19" fill="none" xmlns="http://www.w3.org/2000/svg">
<path d="M15.9007 2.70005C14.4007 0.600054 11.5007 0.200054 9.50068 1.70005C7.40068 3.20005 7.00068 6.10006 8.50068 8.10006C7.00068 6.00006 4.10068 5.60006 2.10068 7.10006C0.100682 8.60006 -0.399318 11.5001 1.10068 13.5001C1.10068 13.5001 1.20068 13.9001 2.00068 14.5001C2.30068 14.7001 2.50066 14.9001 2.80066 15.0001C4.70066 16.0001 8.40069 17.4001 16.2007 18.6001C17.3007 10.9001 17.2007 6.80006 16.8007 4.80006C16.8007 4.50006 16.7007 4.20006 16.6007 3.90006C16.2007 2.90006 15.9007 2.70005 15.9007 2.70005Z" fill="#DE499A" stroke="black" stroke-width="0.0732" stroke-miterlimit="10"/>
</svg>
