<svg width="67" height="70" viewBox="0 0 67 70" fill="none" xmlns="http://www.w3.org/2000/svg">
<path d="M63.6008 45.5C68.6008 37.2 66.0008 26.4 57.8008 21.4C49.5008 16.4 38.7008 19 33.7008 27.2C38.7008 18.9 36.1008 8.1 27.9008 3.1C19.6008 -1.9 8.80076 0.700004 3.80076 8.9C3.80076 8.9 2.60076 9.8 1.80076 13.6C1.50076 14.8 1.30078 16 1.20078 17.3C0.400781 25.3 1.10076 40.6 7.90076 69.6C36.8008 62.3 50.7008 55.9 57.4008 51.6C58.5008 51 59.5008 50.3 60.4008 49.4C63.4008 46.9 63.6008 45.5 63.6008 45.5Z" fill="#DE499A" stroke="black" stroke-width="0.2789" stroke-miterlimit="10"/>
</svg>
