<svg width="245" height="37" viewBox="0 0 245 37" fill="none" xmlns="http://www.w3.org/2000/svg">
<path d="M11.0004 36.1H227.3C232.8 36.1 237.4 31.6 237.4 26V12.3C237.4 6.79996 232.9 2.19995 227.3 2.19995H11.0004C5.50039 2.19995 0.900391 6.69996 0.900391 12.3V26C0.900391 31.5 5.40039 36.1 11.0004 36.1Z" fill="white"/>
<path d="M235.8 26.7L236.9 17.4V14.7C236.9 14.7 238.7 5.09998 244.3 0.799983C240.9 -0.500017 232.9 4.29998 232.9 4.29998L235.8 26.7Z" fill="white"/>
<path d="M221.1 16.9C219.8 15.7 217.9 16 216.5 17C215 18 214.3 19.8 213 21C211.8 22.1 210.1 21.9 208.6 21.5C206.7 21 204.8 20.3 202.8 20.3C202.2 20.3 201.4 20.5 201.1 21C200.8 21.5 201.3 21.9 201.8 21.9C203.6 21.9 205.3 22.6 207.1 23C208.7 23.4 210.3 23.6 211.9 23.2C213.5 22.8 214.8 22 215.8 20.7C216.3 20.1 216.7 19.4 217.3 18.7C217.7 18.2 218.2 17.4 218.8 17.9C219.3 18.3 220 18.2 220.5 18C220.8 17.9 221.6 17.3 221.1 16.9Z" fill="#020202"/>
<path d="M191.301 19.5C186.101 19.5 180.901 19.3 175.701 18.8C173.201 18.6 170.801 18.3 168.301 17.9C167.501 17.8 166.701 17.6 165.901 17.8C165.101 18 164.401 18.4 163.601 18.7C159.701 20.1 155.401 20.5 151.301 20.8C146.301 21.1 141.301 20.9 136.401 20C134.201 19.6 132.001 19.1 130.001 18.3C128.701 17.8 127.201 17.1 126.301 16C126.001 15.7 124.901 16 124.701 16.1C119.001 18.3 112.701 19.2 106.601 19.9C99.2007 20.7 91.6007 20.8 84.2007 20.3C83.7007 20.3 82.8007 20.4 82.4007 20.8C82.1007 21.1 82.0007 21.4 82.6007 21.4C90.5007 21.9 98.5007 21.8 106.401 20.9C112.901 20.2 119.501 19.1 125.601 16.8C125.101 16.8 124.501 16.9 124.001 16.9C125.701 18.9 128.901 19.7 131.301 20.3C135.501 21.3 139.801 21.8 144.101 21.9C148.401 22 152.801 21.7 157.101 21.1C160.401 20.6 163.801 19.9 166.801 18.4C166.201 18.5 165.601 18.6 165.001 18.7C173.401 20.1 181.801 20.6 190.301 20.6C191.001 20.5 193.001 19.4 191.301 19.5Z" fill="#020202"/>
<path d="M40.7011 21C34.9011 19.5 29.0011 18.8 23.1011 18.7C22.6011 18.7 21.7011 18.8999 21.4011 19.3999C21.1011 19.8999 21.6011 20.1 22.1011 20.1C27.9011 20.2 33.6011 20.9999 39.2011 22.3999C39.8011 22.4999 40.6011 22.2999 41.0011 21.8999C41.3011 21.4999 41.2011 21.1 40.7011 21Z" fill="#020202"/>
<path d="M70.5 20.9C64 21 57.6 19.8 51.5 17.7C51 17.5 50.2 17.7 49.7 18C49.4 18.1 48.9 18.6 49.4 18.7C55.8 20.9 62.6 22.1 69.4 22C69.9 22 70.8 21.8 71.1 21.4C71.4 20.9 70.9 20.9 70.5 20.9Z" fill="#020202"/>
</svg>
