<svg width="145" height="145" viewBox="0 0 145 145" fill="none" xmlns="http://www.w3.org/2000/svg">
<g style="mix-blend-mode:multiply">
<path d="M70.506 2.78089C70.6963 0.319869 74.3037 0.319867 74.494 2.78089L77.7139 44.4104C77.8626 46.3326 80.377 46.9523 81.4019 45.3194L103.599 9.95467C104.911 7.864 108.106 9.54043 107.13 11.808L90.6353 50.1655C89.8737 51.9365 91.8121 53.6538 93.4784 52.6843L129.568 31.6859C131.701 30.4445 133.751 33.4134 131.833 34.968L99.4021 61.2662C97.9047 62.4804 98.823 64.9018 100.749 64.8177L142.463 62.9962C144.929 62.8886 145.364 66.4696 142.944 66.9553L102.006 75.1695C100.116 75.5488 99.8036 78.1196 101.548 78.9402L139.331 96.7129C141.564 97.7636 140.285 101.137 137.916 100.442L97.8504 88.6904C96.0004 88.1478 94.5293 90.2791 95.6926 91.8164L120.888 125.112C122.377 127.08 119.677 129.472 117.903 127.756L87.8873 98.7313C86.5014 97.3912 84.2084 98.5947 84.524 100.497L91.3603 141.687C91.7644 144.122 88.2619 144.985 87.4881 142.641L74.3992 102.992C73.7948 101.161 71.2052 101.161 70.6008 102.992L57.5119 142.641C56.7381 144.985 53.2356 144.122 53.6397 141.687L60.476 100.497C60.7916 98.5947 58.4986 97.3912 57.1127 98.7313L27.0971 127.756C25.3227 129.472 22.6225 127.08 24.112 125.112L49.3074 91.8164C50.4707 90.2791 48.9996 88.1478 47.1496 88.6904L7.08358 100.442C4.71498 101.137 3.43578 97.7636 5.66938 96.7129L43.4519 78.9402C45.1964 78.1196 44.8842 75.5488 42.994 75.1695L2.05615 66.9553C-0.363988 66.4697 0.0708332 62.8886 2.53686 62.9962L44.251 64.8177C46.177 64.9018 47.0953 62.4805 45.5979 61.2662L13.1666 34.968C11.2493 33.4134 13.2985 30.4445 15.4321 31.6859L51.5216 52.6843C53.1879 53.6538 55.1263 51.9365 54.3647 50.1655L37.8696 11.808C36.8944 9.54044 40.0886 7.864 41.4008 9.95467L63.5981 45.3194C64.623 46.9523 67.1374 46.3326 67.2861 44.4104L70.506 2.78089Z" fill="#F7ED62"/>
</g>
</svg>
