<svg width="59" height="56" viewBox="0 0 59 56" fill="none" xmlns="http://www.w3.org/2000/svg">
<path d="M35.2 2.59998C28.1 -1.10002 19.4 1.69996 15.7 8.79996C12 15.9 14.8 24.6 21.9 28.3C14.8 24.6 6.10002 27.4 2.40002 34.5C-1.29998 41.6 1.50004 50.3 8.60004 54C8.60004 54 9.40003 54.9 12.6 55.4C13.6 55.6 14.6 55.7 15.7 55.6C22.3 55.8 34.9 54.3 58.3 47C50.6 23.7 44.5 12.6 40.5 7.29996C39.9 6.49996 39.3 5.69997 38.5 4.99997C36.4 2.69997 35.2 2.59998 35.2 2.59998Z" fill="#DE499A" stroke="black" stroke-width="0.23" stroke-miterlimit="10"/>
</svg>
