<svg width="323" height="36" viewBox="0 0 323 36" fill="none" xmlns="http://www.w3.org/2000/svg">
<path d="M10.1 35.4H303C308.5 35.4 313.1 30.9 313.1 25.3V11.7C313.1 6.19998 308.6 1.59998 303 1.59998H10.1C4.5 1.59998 0 6.09998 0 11.7V25.4C0 30.9 4.5 35.4 10.1 35.4Z" fill="white"/>
<path d="M311 26.1L312.4 16.8V14.1C312.4 14.1 314.8 4.50001 322.2 0.200008C317.6 -1.09999 307.1 3.70001 307.1 3.70001L311 26.1Z" fill="white"/>
<path d="M291.4 16.3001C289.7 15.2001 287.7 15.5001 285.9 16.4001C283.9 17.4001 282.8 19.3001 281.1 20.5001C279.3 21.7001 276.8 21.3001 274.8 20.9001C272.3 20.4001 269.9 19.7001 267.4 19.7001C266.8 19.7001 265.8 19.9001 265.5 20.5001C265.2 21.1001 265.8 21.2001 266.3 21.2001C270.6 21.2001 274.7 23.3001 279.1 22.6001C281 22.3001 282.8 21.5001 284.2 20.2001C285.3 19.2001 287.1 16.2001 288.8 17.3001C289.4 17.7001 290.1 17.5001 290.7 17.3001C290.8 17.2001 292 16.6001 291.4 16.3001Z" fill="#020202"/>
<path d="M252.4 18.8C246.7 18.8 241.1 18.7 235.4 18.4C232.6 18.2 229.8 18 227.1 17.8C225.8 17.7 224.6 17.6 223.3 17.4C222.1 17.3 220.8 17 219.6 17C218 17 216.3 17.9 214.7 18.3C212.6 18.8 210.5 19.1 208.4 19.4C203.2 20.1 198 20.3 192.7 20.3C187.4 20.3 182.2 19.9 177 19.1C173.6 18.6 169.7 18 166.7 16.2C166.3 16 166 15.5 165.6 15.4C164.8 15.2 163.6 15.8 162.8 16C161 16.5 159.3 16.9 157.5 17.2C153.2 18 148.9 18.6 144.6 19C133.2 20.1 121.6 20.4 110.1 19.8C109.5 19.8 108.6 20 108.1 20.3C107.7 20.6 107.6 20.8 108.2 20.8C123.7 21.6 139.4 21.1 154.7 18.5C158 17.9 161.3 17.2 164.5 16.3C164 16.3 163.5 16.4 163 16.4C164.7 18 167.4 18.6 169.6 19.2C173.5 20.2 177.5 20.7 181.5 21C190.4 21.8 199.4 21.6 208.2 20.4C211.9 19.9 215.7 19.3 219.2 17.9C218.6 18 218.1 18.1 217.5 18.2C228.5 19.6 239.5 20.1 250.6 20C251.2 20 252.1 19.8 252.6 19.5C252.9 19.1 253 18.8 252.4 18.8Z" fill="#020202"/>
<path d="M52.2006 19.9C44.5006 18.4 36.7006 17.7 28.8006 17.6C27.1006 17.6 26.6006 19.8 28.6006 19.9C36.2006 20 43.8006 20.8 51.2006 22.2C52.7006 22.5 54.1006 20.3 52.2006 19.9Z" fill="#020202"/>
<path d="M92.1002 20.2001C83.6002 20.3001 75.1002 19.2001 66.8002 17.0001C66.2002 16.8001 65.3002 17.0001 64.8002 17.3001C64.5002 17.4001 63.8002 18.0001 64.5002 18.2001C73.1002 20.5001 82.0002 21.6001 90.9002 21.5001C91.4002 21.5001 92.5002 21.3001 92.8002 20.8001C93.2002 20.2001 92.6002 20.1001 92.1002 20.2001Z" fill="#020202"/>
</svg>
