<svg width="333" height="70" viewBox="0 0 333 70" fill="none" xmlns="http://www.w3.org/2000/svg">
<path d="M108.704 9.99867C111.317 11.498 113.18 13.4258 114.294 15.782C114.851 16.9386 115.215 18.2238 115.386 19.6375C115.558 21.0512 115.601 22.6362 115.515 24.3926C115.386 26.3204 114.958 28.0554 114.23 29.5976C113.502 31.1398 112.538 32.4678 111.338 33.5817C110.181 34.6526 108.811 35.488 107.226 36.0877C105.641 36.6447 103.948 36.9231 102.149 36.9231H98.8719C98.4435 36.9231 98.0151 36.9231 97.5867 36.9231C97.1584 36.8803 96.7085 36.816 96.2373 36.7303C95.7661 36.7303 95.3163 36.6661 94.8879 36.5376C94.4595 36.409 94.0097 36.3019 93.5384 36.2163C93.0672 36.0021 92.596 35.7665 92.1248 35.5094C91.6964 35.2524 91.1823 34.9525 90.5825 34.6098C88.6119 33.3246 87.2411 31.5896 86.47 29.4048C86.1273 28.4195 85.8702 27.37 85.6989 26.2561C85.5275 25.1423 85.4418 24.0499 85.4418 22.979C85.4418 21.8223 85.5275 20.7085 85.6989 19.6375C85.9131 18.5665 86.2558 17.5384 86.727 16.5531C87.0697 15.5249 87.5838 14.6253 88.2692 13.8542C88.9546 13.0403 89.7258 12.2691 90.5825 11.5409C91.3536 10.8983 92.1462 10.3628 92.9601 9.93441C93.7741 9.46318 94.6737 9.09905 95.659 8.84201C96.5158 8.4993 97.4368 8.2851 98.4221 8.19942C99.4074 8.11375 100.35 8.11375 101.25 8.19942C101.721 8.32794 102.106 8.41362 102.406 8.45646C102.749 8.45646 103.07 8.45646 103.37 8.45646C103.713 8.54214 104.013 8.6064 104.27 8.64924C104.57 8.64924 104.848 8.7135 105.105 8.84201C105.405 8.92769 105.683 9.01337 105.94 9.09905C106.24 9.14189 106.519 9.22756 106.776 9.35608C107.033 9.44176 107.333 9.54886 107.675 9.67738C108.018 9.8059 108.361 9.91299 108.704 9.99867ZM130.166 52.1524C130.766 52.1524 131.258 52.4095 131.644 52.9236C132.029 53.4376 132.287 54.0588 132.415 54.7871C132.501 55.6438 132.458 56.3507 132.287 56.9076C132.115 57.4217 131.858 57.9143 131.515 58.3856C130.873 58.9425 130.316 59.2852 129.845 59.4137C129.63 59.4137 129.438 59.4565 129.266 59.5422C129.095 59.6279 128.859 59.6707 128.559 59.6707H123.933H115.901H107.097H100.093H97.1369C96.2373 59.6707 95.4448 59.6493 94.7594 59.6065C94.1168 59.5636 93.5384 59.4137 93.0244 59.1567C92.5531 58.8996 92.1676 58.5141 91.8677 58C91.6107 57.5288 91.4822 57.0575 91.4822 56.5863V46.7547V45.5338V44.2486V43.349C91.7392 42.4065 92.1676 41.6997 92.7673 41.2285C93.2386 40.9286 93.667 40.7144 94.0525 40.5859C94.4809 40.4145 94.9521 40.3288 95.4662 40.3288C95.5519 40.3288 95.8089 40.3717 96.2373 40.4573C96.7085 40.5002 97.0084 40.5216 97.1369 40.5216C97.394 40.6073 97.6296 40.7144 97.8438 40.8429C98.1008 40.9286 98.3364 41.1214 98.5506 41.4212C98.6363 41.5926 98.7434 41.7854 98.8719 41.9996C99.0004 42.1709 99.1075 42.3851 99.1932 42.6421C99.3217 42.942 99.386 43.2205 99.386 43.4775C99.4288 43.7345 99.4931 43.9916 99.5788 44.2486V45.8551V47.076V49.1323V51.06V51.9597H100.864C101.121 52.0025 101.421 52.0239 101.764 52.0239C102.063 52.0668 102.385 52.0882 102.727 52.0882C103.07 52.0882 103.456 52.0882 103.884 52.0882C104.141 52.0882 104.784 52.0882 105.812 52.0882C106.883 52.0882 108.147 52.0882 109.603 52.0882C111.103 52.0454 112.73 52.0239 114.487 52.0239C116.243 52.0239 117.914 52.0239 119.499 52.0239C121.127 52.0239 122.583 52.0454 123.869 52.0882C125.197 52.0882 126.182 52.0882 126.825 52.0882H128.431C128.517 52.0882 128.709 52.1096 129.009 52.1524C129.309 52.1524 129.695 52.1524 130.166 52.1524ZM107.804 22.4006C107.718 21.9294 107.633 21.5224 107.547 21.1797C107.461 20.7942 107.376 20.4086 107.29 20.023C107.076 19.6803 106.883 19.3376 106.711 18.9949C106.54 18.6522 106.305 18.3523 106.005 18.0953C105.748 17.8382 105.448 17.624 105.105 17.4527C104.762 17.2385 104.355 17.0243 103.884 16.8101C103.327 16.6816 102.792 16.5745 102.278 16.4888C101.764 16.3603 101.228 16.296 100.671 16.296C100.071 16.296 99.4931 16.3603 98.9362 16.4888C98.3793 16.5745 97.8652 16.6816 97.394 16.8101C96.8799 17.11 96.3873 17.4099 95.916 17.7097C95.4876 18.0096 95.1021 18.3952 94.7594 18.8664C94.331 19.2091 94.0097 19.6589 93.7955 20.2158C93.5813 20.7299 93.3671 21.3511 93.1529 22.0793C93.1529 22.5506 93.1529 23.0004 93.1529 23.4288C93.1529 23.8572 93.1957 24.307 93.2814 24.7782C93.2814 25.2066 93.3671 25.635 93.5384 26.0634C93.7098 26.4918 93.924 26.8773 94.181 27.22C94.4809 27.6056 94.8022 27.9483 95.1449 28.2482C95.4876 28.5052 95.8518 28.7622 96.2373 29.0193C96.7085 29.2763 97.2012 29.5119 97.7153 29.7261C98.2293 29.8975 98.8505 30.026 99.5788 30.1117C100.05 30.1117 100.5 30.1117 100.928 30.1117C101.357 30.0688 101.806 30.0046 102.278 29.9189C103.134 29.9189 103.97 29.6833 104.784 29.2121C105.126 29.0407 105.469 28.8265 105.812 28.5695C106.197 28.2696 106.519 27.9483 106.776 27.6056C107.333 26.8345 107.675 25.9991 107.804 25.0995V22.4006ZM132.029 35.5094C132.029 35.9378 131.987 36.3662 131.901 36.7946C131.815 37.223 131.73 37.6728 131.644 38.144C131.258 39.5149 130.359 40.3502 128.945 40.6501C127.574 40.95 126.46 40.6501 125.604 39.7505C124.79 38.8509 124.297 37.7799 124.126 36.5376C124.04 36.1948 123.976 35.8521 123.933 35.5094C123.933 35.1239 123.933 34.7597 123.933 34.417V32.2322L124.126 15.6534C124.126 15.0537 124.104 14.4111 124.061 13.7257C124.061 12.9974 124.104 12.312 124.19 11.6694C124.318 10.984 124.554 10.3628 124.897 9.80589C125.239 9.24899 125.775 8.79917 126.503 8.45646C126.846 8.24226 127.21 8.13517 127.596 8.13517C128.024 8.09233 128.474 8.11375 128.945 8.19942C129.93 8.32794 130.659 8.73492 131.13 9.42034C131.644 10.1058 131.944 10.8983 132.029 11.7979V13.9827V35.5094ZM168.791 25.9349C168.791 27.9483 168.341 29.8546 167.441 31.6539C166.541 33.4531 165.278 34.9739 163.65 36.2163C162.536 37.0302 161.358 37.6514 160.116 38.0798C158.873 38.5082 157.588 38.7866 156.26 38.9151C154.932 39.0008 153.604 38.958 152.276 38.7866C150.991 38.5724 149.748 38.2083 148.549 37.6942C147.35 37.223 146.214 36.6018 145.143 35.8307C144.115 35.0596 143.216 34.1814 142.444 33.1961C141.673 32.2108 141.074 31.1184 140.645 29.9189C140.217 28.6766 140.003 27.3485 140.003 25.9349C140.003 24.1784 140.26 22.6362 140.774 21.3082C141.288 19.9374 141.995 18.7164 142.894 17.6455H141.738C140.667 17.6455 139.767 17.3242 139.039 16.6816C138.31 15.9962 137.946 15.1822 137.946 14.2398C137.946 13.2544 138.31 12.4405 139.039 11.7979C139.767 11.1125 140.667 10.7698 141.738 10.7698H150.22V8.7135C150.22 7.85671 150.584 7.14986 151.312 6.59296C152.04 5.99321 152.919 5.69333 153.947 5.69333C154.975 5.69333 155.853 5.99321 156.581 6.59296C157.31 7.14986 157.674 7.85671 157.674 8.7135V10.7698H166.606C167.677 10.7698 168.576 11.1125 169.305 11.7979C170.033 12.4405 170.397 13.2544 170.397 14.2398C170.397 15.1822 170.033 15.9962 169.305 16.6816C168.576 17.3242 167.677 17.6455 166.606 17.6455H165.835C166.734 18.7164 167.441 19.9374 167.955 21.3082C168.512 22.6791 168.791 24.2213 168.791 25.9349ZM143.216 50.2889C143.216 48.3612 143.772 46.7547 144.886 45.4695C146.043 44.1844 147.585 43.1776 149.513 42.4494C151.441 41.6783 153.711 41.1428 156.324 40.8429C158.938 40.543 161.722 40.3931 164.678 40.3931C167.634 40.3931 170.418 40.5002 173.032 40.7144C175.645 40.9286 177.915 41.3998 179.843 42.1281C181.771 42.8135 183.292 43.7988 184.405 45.084C185.562 46.3692 186.14 48.1041 186.14 50.2889C186.14 52.4309 185.562 54.1445 184.405 55.4296C183.292 56.7148 181.771 57.7001 179.843 58.3856C177.915 59.1138 175.645 59.5851 173.032 59.7992C170.418 60.0563 167.634 60.1848 164.678 60.1848C161.722 60.1848 158.938 60.0563 156.324 59.7992C153.711 59.5851 151.441 59.1138 149.513 58.3856C147.585 57.7001 146.043 56.7148 144.886 55.4296C143.772 54.1445 143.216 52.4309 143.216 50.2889ZM185.048 10.3842C185.177 10.6841 185.284 11.0697 185.369 11.5409C185.455 12.0121 185.519 12.4833 185.562 12.9546C185.605 13.383 185.626 13.7899 185.626 14.1755C185.626 14.561 185.626 14.7967 185.626 14.8823V35.7665C185.626 35.8093 185.605 35.9806 185.562 36.2805C185.519 36.5376 185.412 36.8589 185.241 37.2444C185.112 37.63 184.898 38.0155 184.598 38.4011C184.341 38.7866 183.998 39.1079 183.57 39.3649C182.97 39.7505 182.349 39.9433 181.707 39.9433C180.85 39.9433 180.1 39.6862 179.457 39.1722C178.943 38.8723 178.558 38.4439 178.301 37.887C178.001 37.3729 177.808 36.8589 177.723 36.3448C177.637 35.8307 177.573 35.3381 177.53 34.8668V33.0033H177.337C176.694 32.9605 175.988 32.9391 175.216 32.9391C174.488 32.8962 173.76 32.832 173.032 32.7463C172.346 32.6606 171.725 32.5107 171.168 32.2965C170.611 32.0394 170.204 31.6967 169.947 31.2683C169.647 30.7971 169.497 30.2402 169.497 29.5976C169.54 28.9122 169.604 28.3339 169.69 27.8626C169.819 27.3485 170.076 26.9202 170.461 26.5774C170.847 26.2347 171.489 25.9563 172.389 25.7421C172.56 25.6992 172.882 25.6778 173.353 25.6778C173.867 25.635 174.381 25.5921 174.895 25.5493C175.452 25.5065 175.966 25.485 176.437 25.485C176.951 25.4422 177.316 25.4208 177.53 25.4208V22.5291C176.887 22.5291 176.159 22.5506 175.345 22.5934C174.574 22.5934 173.824 22.572 173.096 22.5291C172.41 22.4435 171.768 22.3149 171.168 22.1436C170.611 21.9722 170.204 21.6724 169.947 21.244C169.819 21.0298 169.712 20.7513 169.626 20.4086C169.583 20.0659 169.54 19.7232 169.497 19.3805C169.497 18.9949 169.519 18.6308 169.562 18.2881C169.604 17.9453 169.647 17.6455 169.69 17.3884C169.819 16.9172 170.076 16.5102 170.461 16.1675C170.847 15.8248 171.489 15.5463 172.389 15.3322C172.518 15.2893 172.775 15.2679 173.16 15.2679C173.589 15.2251 174.06 15.2036 174.574 15.2036C175.088 15.1608 175.602 15.1394 176.116 15.1394C176.673 15.0965 177.144 15.0751 177.53 15.0751C177.487 14.6896 177.487 14.1541 177.53 13.4686C177.573 12.7832 177.637 12.2691 177.723 11.9264C177.851 11.5837 177.958 11.241 178.044 10.8983C178.129 10.5556 178.322 10.2129 178.622 9.87015C179.008 9.44176 179.522 9.14189 180.164 8.97053C180.85 8.75634 181.578 8.69208 182.349 8.77775C183.72 8.99195 184.62 9.52744 185.048 10.3842ZM177.465 50.2889C177.465 49.5607 177.08 48.9823 176.309 48.554C175.538 48.1256 174.531 47.8043 173.289 47.5901C172.089 47.3759 170.718 47.2474 169.176 47.2045C167.677 47.1188 166.177 47.076 164.678 47.076C163.179 47.076 161.679 47.1188 160.18 47.2045C158.723 47.2474 157.395 47.3759 156.196 47.5901C155.039 47.8043 154.097 48.1256 153.368 48.554C152.64 48.9823 152.276 49.5607 152.276 50.2889C152.276 50.9315 152.64 51.467 153.368 51.8954C154.097 52.3238 155.039 52.6451 156.196 52.8593C157.395 53.0735 158.723 53.2234 160.18 53.3091C161.679 53.3948 163.179 53.4376 164.678 53.4376C166.177 53.4376 167.677 53.4376 169.176 53.4376C170.718 53.4376 172.089 53.3519 173.289 53.1806C174.531 53.0092 175.538 52.7094 176.309 52.281C177.08 51.8097 177.465 51.1457 177.465 50.2889ZM155.682 31.6539C157.053 31.3969 158.231 30.7971 159.216 29.8546C160.244 28.8693 160.758 27.5627 160.758 25.9349C160.758 24.9924 160.565 24.157 160.18 23.4288C159.837 22.7005 159.366 22.1007 158.766 21.6295C158.209 21.1154 157.545 20.7299 156.774 20.4729C156.003 20.2158 155.232 20.0873 154.461 20.0873C153.647 20.0445 152.854 20.1516 152.083 20.4086C151.312 20.6228 150.627 20.9655 150.027 21.4367C149.427 21.908 148.935 22.5291 148.549 23.3002C148.206 24.0285 148.035 24.9067 148.035 25.9349C148.035 27.0915 148.271 28.0768 148.742 28.8908C149.213 29.7047 149.813 30.3473 150.541 30.8185C151.269 31.2898 152.083 31.5896 152.983 31.7181C153.882 31.8467 154.782 31.8252 155.682 31.6539ZM227.706 48.4254L227.642 39.8148C226.528 39.7719 225.5 39.7505 224.557 39.7505C223.615 39.7505 222.522 39.7505 221.28 39.7505C220.295 39.7505 219.266 39.7291 218.196 39.6862C217.167 39.6006 216.203 39.4292 215.304 39.1722C214.576 38.958 213.912 38.5724 213.312 38.0155C212.755 37.4586 212.305 36.816 211.962 36.0877C211.748 35.6165 211.598 35.0596 211.513 34.417C211.427 33.7744 211.363 33.1533 211.32 32.5535C211.277 31.9109 211.256 31.3754 211.256 30.947C211.298 30.4758 211.32 30.2188 211.32 30.1759V18.4808C211.32 18.3952 211.298 18.1167 211.256 17.6455C211.256 17.1742 211.277 16.6387 211.32 16.039C211.405 15.3964 211.513 14.7538 211.641 14.1112C211.77 13.4258 212.005 12.8261 212.348 12.312C212.905 11.4552 213.762 10.8983 214.918 10.6413C216.075 10.3842 217.253 10.2557 218.453 10.2557H245.377C245.42 10.2557 245.741 10.2771 246.341 10.32C246.941 10.32 247.605 10.3842 248.333 10.5127C249.061 10.6413 249.747 10.8769 250.389 11.2196C251.075 11.5623 251.524 12.0764 251.739 12.7618C251.824 13.0188 251.867 13.3401 251.867 13.7257C251.91 14.0684 251.931 14.4325 251.931 14.8181C251.931 15.2036 251.889 15.5678 251.803 15.9105C251.76 16.2532 251.696 16.5102 251.61 16.6816C251.267 17.2813 250.732 17.6669 250.004 17.8382C249.361 18.0096 248.183 18.0953 246.469 18.0953H223.208C222.222 18.0953 221.473 18.2666 220.959 18.6094C220.487 18.9521 220.123 19.359 219.866 19.8303C219.652 20.2587 219.545 20.7085 219.545 21.1797C219.545 21.6081 219.545 21.9294 219.545 22.1436L219.802 27.9911C219.845 28.4195 219.888 28.9336 219.93 29.5333C220.016 30.1331 220.209 30.5615 220.509 30.8185C220.937 31.2469 221.473 31.4825 222.115 31.5254C222.801 31.5254 223.529 31.5254 224.3 31.5254L246.148 31.4611C248.247 31.4611 250.004 31.7824 251.417 32.425C251.846 32.6392 252.21 33.0033 252.51 33.5174C252.81 33.9886 253.002 34.4599 253.088 34.9311C253.217 35.4023 253.217 35.8736 253.088 36.3448C253.002 36.7732 252.81 37.1587 252.51 37.5014C251.396 38.958 249.811 39.7077 247.755 39.7505C245.827 39.8362 243.92 39.9004 242.036 39.9433C240.193 39.9433 238.287 39.9219 236.316 39.879L236.381 48.4254H252.51C253.238 48.5111 253.902 48.6396 254.502 48.811C255.144 48.9823 255.765 49.3251 256.365 49.8391C256.965 50.4389 257.265 51.1886 257.265 52.0882C257.265 52.5594 257.179 53.0735 257.008 53.6304C256.879 54.1445 256.687 54.5514 256.429 54.8513C256.087 55.194 255.658 55.4511 255.144 55.6224C254.63 55.7938 254.138 55.9223 253.666 56.008C253.195 56.0508 252.767 56.0722 252.381 56.0722C252.038 56.0722 251.846 56.0722 251.803 56.0722C245.763 56.0722 240.643 56.0722 236.445 56.0722C232.247 56.0722 228.777 56.0722 226.035 56.0722C223.336 56.0722 221.216 56.0722 219.673 56.0722C218.174 56.0294 217.039 56.008 216.268 56.008C215.539 56.008 215.09 56.008 214.918 56.008C214.747 56.008 214.618 56.008 214.533 56.008C213.633 56.008 212.669 55.9866 211.641 55.9437C210.613 55.9009 209.735 55.5796 209.006 54.9798C208.107 54.1659 207.657 53.2877 207.657 52.3452C207.657 51.7026 207.85 51.0386 208.235 50.3532C208.621 49.6678 209.135 49.1965 209.778 48.9395C210.634 48.5968 211.513 48.4254 212.412 48.4254C213.355 48.4254 214.297 48.404 215.24 48.3612L227.706 48.4254ZM284.094 28.5052C284.823 29.362 285.551 30.2616 286.279 31.2041C287.007 32.1465 287.5 33.089 287.757 34.0315C287.843 34.4599 287.843 34.9097 287.757 35.3809C287.671 35.8521 287.436 36.2591 287.05 36.6018C286.408 37.0302 285.722 37.2444 284.994 37.2444C284.18 37.2444 283.388 37.0516 282.616 36.6661C281.888 36.2805 281.288 35.895 280.817 35.5094C280.089 34.8668 279.425 34.2242 278.825 33.5817C278.225 32.8962 277.626 32.2322 277.026 31.5896C276.555 31.0756 276.041 30.5615 275.484 30.0474C274.927 29.5333 274.434 28.9764 274.006 28.3767L267.644 35.3809C266.959 36.1092 266.23 36.6232 265.459 36.9231C264.688 37.1801 263.96 37.3087 263.275 37.3087C263.06 37.3087 262.739 37.2658 262.311 37.1801C261.497 36.966 260.94 36.5804 260.64 36.0235C260.383 35.5523 260.297 35.0168 260.383 34.417C260.469 33.8173 260.64 33.2818 260.897 32.8105C261.197 32.2965 261.518 31.8252 261.861 31.3969C262.246 30.9685 262.632 30.5186 263.018 30.0474C264.131 28.8051 265.202 27.5199 266.23 26.1919C267.301 24.821 268.458 23.493 269.7 22.2078V18.6736C269.358 18.7164 268.929 18.7379 268.415 18.7379C267.901 18.695 267.28 18.6736 266.552 18.6736C266.081 18.6736 265.545 18.695 264.945 18.7379C264.346 18.7807 263.746 18.7593 263.146 18.6736C262.589 18.5879 262.075 18.4166 261.604 18.1595C261.133 17.8597 260.768 17.3884 260.511 16.7458C260.297 16.2746 260.169 15.7391 260.126 15.1394C260.083 14.5396 260.126 13.9827 260.254 13.4686C260.383 12.8689 260.704 12.4619 261.218 12.2477C261.775 11.9907 262.289 11.8193 262.76 11.7337C263.189 11.648 263.574 11.6051 263.917 11.6051C264.046 11.6051 264.174 11.6266 264.303 11.6694C264.431 11.6694 264.56 11.6694 264.688 11.6694H269.893C269.979 10.6841 270.172 9.76306 270.472 8.90627C270.814 8.00665 271.457 7.38548 272.399 7.04277C273.128 6.78573 273.792 6.72147 274.391 6.84999C275.034 6.97851 275.591 7.23554 276.062 7.62109C276.533 8.00665 276.919 8.4993 277.219 9.09905C277.519 9.6988 277.711 10.32 277.797 10.9626C277.84 11.0911 277.861 11.2196 277.861 11.3481C277.904 11.4338 277.926 11.5409 277.926 11.6694H281.588C283.088 11.6694 284.287 11.7765 285.187 11.9907C286.086 12.1621 286.836 12.6761 287.436 13.5329C287.607 13.7899 287.736 14.1541 287.821 14.6253C287.907 15.0537 287.907 15.5035 287.821 15.9747C287.779 16.4031 287.671 16.8101 287.5 17.1957C287.329 17.5812 287.115 17.8597 286.858 18.031C286.515 18.1595 286.129 18.3095 285.701 18.4808C285.315 18.6094 284.951 18.6736 284.608 18.6736C284.094 18.7164 283.623 18.7379 283.195 18.7379C282.809 18.695 282.359 18.6736 281.845 18.6736C281.074 18.6736 280.475 18.695 280.046 18.7379C279.618 18.7379 279.104 18.7164 278.504 18.6736C278.504 19.2305 278.504 19.5947 278.504 19.766C278.504 19.8945 278.504 20.023 278.504 20.1516C278.504 20.2801 278.504 20.4729 278.504 20.7299C278.504 20.9869 278.504 21.4796 278.504 22.2078C278.718 22.3792 278.997 22.7219 279.339 23.236C279.682 23.7501 280.025 24.1784 280.367 24.5212C280.71 24.8639 281.074 25.2494 281.46 25.6778C281.845 26.0634 282.252 26.4918 282.681 26.963C282.981 27.2629 283.238 27.5413 283.452 27.7984C283.666 28.0554 283.88 28.291 284.094 28.5052ZM299.902 42.2566C301.701 42.2566 303.008 42.6421 303.822 43.4133C304.679 44.1844 305.107 45.0626 305.107 46.0479V49.7106C305.107 49.8391 305.107 50.0962 305.107 50.4817C305.107 50.8244 305.107 51.1886 305.107 51.5741C305.107 51.9597 305.107 52.3238 305.107 52.6665C305.15 53.0092 305.171 53.2448 305.171 53.3734C305.171 53.8446 305.171 54.3158 305.171 54.7871C305.171 55.2583 305.15 55.7295 305.107 56.2008C305.021 57.1004 304.657 57.8286 304.015 58.3856C303.415 58.9425 302.622 59.2209 301.637 59.2209C301.423 59.2209 301.037 59.1995 300.48 59.1567C299.966 59.1567 299.602 59.1138 299.388 59.0281C298.788 58.8568 298.317 58.5997 297.974 58.257C297.674 57.9143 297.439 57.5288 297.267 57.1004C297.096 56.672 296.989 56.2222 296.946 55.7509C296.903 55.2369 296.86 54.7442 296.818 54.273C296.818 54.1016 296.818 53.8018 296.818 53.3734C296.818 52.945 296.796 52.5166 296.753 52.0882C296.753 51.617 296.732 51.1886 296.689 50.803C296.646 50.3746 296.603 50.0747 296.561 49.9034C296.432 49.8606 296.089 49.8177 295.532 49.7749C294.976 49.732 293.883 49.7106 292.255 49.7106C290.884 49.7106 290.028 49.732 289.685 49.7749C289.385 49.7749 289.214 49.7749 289.171 49.7749H265.973C265.931 49.7749 265.759 49.732 265.459 49.6464C265.202 49.5607 264.902 49.4322 264.56 49.2608C264.217 49.0466 263.896 48.7896 263.596 48.4897C263.296 48.1898 263.125 47.8257 263.082 47.3973C262.825 45.7266 263.082 44.4414 263.853 43.5418C264.367 42.942 264.924 42.5993 265.524 42.5136C266.123 42.3851 266.445 42.2994 266.488 42.2566H299.902ZM305.043 27.7984V33.6459C305 34.1171 304.936 34.6098 304.85 35.1239C304.764 35.5951 304.593 36.0663 304.336 36.5376C304.079 37.0516 303.715 37.48 303.244 37.8227C302.644 38.2511 301.937 38.4653 301.123 38.4653C300.395 38.4653 299.795 38.3154 299.324 38.0155C298.895 37.7585 298.553 37.4372 298.296 37.0516C298.039 36.6661 297.824 36.3019 297.653 35.9592C297.525 35.5737 297.439 35.2524 297.396 34.9953C297.353 34.6955 297.332 34.5455 297.332 34.5455V13.3401C297.289 13.1688 297.31 12.6975 297.396 11.9264C297.482 11.1553 297.653 10.5127 297.91 9.99867C298.338 9.09905 299.195 8.58498 300.48 8.45646C302.065 8.24226 303.244 8.56356 304.015 9.42034C304.272 9.76306 304.443 10.1058 304.529 10.4485C304.657 10.7484 304.764 11.0697 304.85 11.4124C304.979 11.8408 305.043 12.2906 305.043 12.7618C305.086 13.233 305.086 13.7043 305.043 14.1755V18.6094V19.1877C305.043 19.4019 305.021 19.6375 304.979 19.8945C304.979 20.1087 305 20.3658 305.043 20.6656C305.214 20.6656 305.535 20.6871 306.007 20.7299C306.478 20.7299 306.971 20.7513 307.485 20.7941C307.999 20.7941 308.491 20.8156 308.963 20.8584C309.434 20.9012 309.777 20.9441 309.991 20.9869C310.847 21.1583 311.447 21.4153 311.79 21.758C312.133 22.0579 312.347 22.4435 312.433 22.9147C312.561 23.3859 312.625 23.9428 312.625 24.5854C312.625 25.1852 312.497 25.6992 312.24 26.1276C311.726 26.9844 310.955 27.4771 309.926 27.6056C308.898 27.6913 307.763 27.7555 306.521 27.7984H305.043ZM318.514 10.6413C318.856 10.0843 319.327 9.67738 319.927 9.42034C320.527 9.16331 321.105 9.03479 321.662 9.03479C322.133 9.03479 322.583 9.05621 323.012 9.09905C323.483 9.09905 323.933 9.14189 324.361 9.22756C325.261 9.4846 325.903 10.0629 326.289 10.9626C326.674 11.8193 326.91 12.8261 326.996 13.9827C327.124 15.0965 327.146 16.2104 327.06 17.3242C327.017 18.438 326.996 19.3376 326.996 20.023V38.9794C326.996 39.8362 326.996 40.693 326.996 41.5497C326.996 42.4065 326.846 43.2205 326.546 43.9916C326.246 44.7198 325.689 45.2553 324.875 45.5981C324.061 45.9408 323.204 46.1121 322.305 46.1121C321.405 46.0693 320.548 45.8765 319.734 45.5338C318.921 45.1482 318.364 44.6127 318.064 43.9273C317.935 43.5418 317.828 43.0705 317.742 42.5136C317.7 41.9139 317.657 41.3784 317.614 40.9072C317.571 40.1789 317.55 39.4292 317.55 38.6581C317.592 37.8442 317.614 37.0302 317.614 36.2163V14.6896C317.614 14.1755 317.678 13.5115 317.807 12.6975C317.935 11.8836 318.171 11.1982 318.514 10.6413ZM325.903 51.9597C326.032 52.1739 326.139 52.3881 326.225 52.6023C326.353 52.7736 326.46 52.9878 326.546 53.2448C326.674 53.7161 326.76 54.2087 326.803 54.7228C326.846 55.2369 326.803 55.7509 326.674 56.265C326.546 56.7362 326.332 57.1861 326.032 57.6144C325.732 58.0428 325.325 58.3641 324.811 58.5783C324.34 58.7925 323.783 58.921 323.14 58.9639C322.498 59.0067 321.876 58.9639 321.277 58.8354C320.677 58.7068 320.12 58.4712 319.606 58.1285C319.092 57.7858 318.728 57.336 318.514 56.7791C318.299 56.1793 318.171 55.4939 318.128 54.7228C318.128 53.9089 318.235 53.202 318.449 52.6023C318.706 51.9597 319.113 51.5313 319.67 51.3171C320.227 51.06 320.827 50.9315 321.469 50.9315C322.283 50.8887 323.076 50.9101 323.847 50.9958C324.661 51.0815 325.346 51.4028 325.903 51.9597Z" fill="white"/>
<mask id="mask0_161_209" style="mask-type:luminance" maskUnits="userSpaceOnUse" x="0" y="0" width="70" height="70">
<path d="M35.2973 67.627C39.5438 67.6326 43.7495 66.7988 47.6728 65.1737C51.596 63.5486 55.1594 61.1641 58.1582 58.1574C61.1649 55.1587 63.5493 51.5953 65.1744 47.672C66.7995 43.7488 67.6333 39.5431 67.6278 35.2966C67.6332 31.0501 66.7994 26.8444 65.1743 22.9212C63.5492 18.9979 61.1648 15.4345 58.1582 12.4357C55.1594 9.429 51.596 7.04458 47.6728 5.41947C43.7495 3.79435 39.5438 2.96059 35.2973 2.96609C31.0508 2.96068 26.8451 3.79448 22.9219 5.41959C18.9987 7.0447 15.4352 9.42907 12.4364 12.4357C9.4298 15.4345 7.04543 18.9979 5.42032 22.9212C3.79522 26.8444 2.96141 31.0501 2.96682 35.2966C2.96132 39.5431 3.79509 43.7488 5.4202 47.672C7.04531 51.5953 9.42973 55.1587 12.4364 58.1574C15.4352 61.1641 18.9987 63.5484 22.9219 65.1735C26.8451 66.7987 31.0508 67.6325 35.2973 67.627Z" fill="white"/>
<path fill-rule="evenodd" clip-rule="evenodd" d="M35 2.42354e-05C39.597 -0.00539315 44.1499 0.89746 48.397 2.65674C52.6441 4.41599 56.5017 6.99695 59.7484 10.2514C63.0028 13.4982 65.5839 17.3559 67.3431 21.603C69.1024 25.8501 70.0053 30.4029 70 35C70.0054 39.597 69.1025 44.1499 67.3433 48.397C65.584 52.6441 63.003 56.5018 59.7485 59.7485C56.5018 63.003 52.6441 65.584 48.397 67.3433C44.1499 69.1025 39.597 70.0054 34.9999 70C30.4029 70.0053 25.8501 69.1024 21.603 67.3431C17.3559 65.5839 13.4983 63.0029 10.2515 59.7485C6.99702 56.5018 4.41601 52.6441 2.65674 48.397C0.897455 44.1499 -0.00539822 39.597 2.42811e-05 34.9999C-0.00529239 30.4029 0.8976 25.8501 2.65686 21.603C4.41612 17.3559 6.99708 13.4982 10.2515 10.2515C13.4982 6.99708 17.3559 4.41612 21.603 2.65686C25.8501 0.897595 30.4029 -0.00529756 35 2.42354e-05ZM45.9617 8.53594C42.488 7.09702 38.7641 6.35878 35.0041 6.36366H34.9959C31.236 6.35886 27.5121 7.09714 24.0384 8.53606C20.5646 9.97499 17.4094 12.0862 14.7542 14.7483L14.7483 14.7542C12.0862 17.4094 9.97499 20.5646 8.53606 24.0384C7.09714 27.5121 6.35886 31.236 6.36366 34.9959V35.0041C6.35878 38.7641 7.09702 42.488 8.53594 45.9617C9.97486 49.4354 12.0861 52.5906 14.7483 55.2458L14.7542 55.2516C17.4094 57.9138 20.5646 60.025 24.0384 61.4639C27.5121 62.9029 31.236 63.6411 34.9959 63.6363H35.0041C38.7641 63.6412 42.488 62.903 45.9617 61.4641C49.4354 60.0251 52.5906 57.9139 55.2458 55.2517L55.2517 55.2458C57.9139 52.5906 60.0251 49.4354 61.4641 45.9617C62.903 42.488 63.6412 38.7641 63.6363 35.0041V34.9959C63.6411 31.236 62.9029 27.5121 61.4639 24.0384C60.025 20.5646 57.9138 17.4094 55.2517 14.7542L55.2458 14.7483C52.5906 12.0861 49.4354 9.97486 45.9617 8.53594Z" fill="white"/>
<path fill-rule="evenodd" clip-rule="evenodd" d="M53.6279 22.9048C54.8916 24.179 54.8916 26.2448 53.6279 27.519L34.2134 47.0953C32.9498 48.3695 30.901 48.3695 29.6374 47.0953L19.9302 37.3072C18.6665 36.033 18.6665 33.9671 19.9302 32.693C21.1938 31.4188 23.2426 31.4188 24.5062 32.693L31.9254 40.174L49.0519 22.9048C50.3155 21.6307 52.3643 21.6307 53.6279 22.9048Z" fill="black"/>
</mask>
<g mask="url(#mask0_161_209)">
<path d="M-3.55859 -3.55933H73.5601V73.5593H-3.55859V-3.55933Z" fill="#F8F8F8"/>
</g>
</svg>
