<svg width="526" height="70" viewBox="0 0 526 70" fill="none" xmlns="http://www.w3.org/2000/svg">
<path d="M86.0685 34.16C84.0979 33.0033 82.7913 31.2898 82.1487 29.0193C81.7631 28.034 81.4633 27.0058 81.2491 25.9349C81.0777 24.821 80.992 23.7286 80.992 22.6577C80.992 20.43 81.3776 18.3095 82.1487 16.296C82.5771 15.3536 83.0911 14.4754 83.6909 13.6614C84.3335 12.8475 85.0832 12.0978 85.94 11.4124C86.7111 10.7698 87.525 10.2343 88.3818 9.80589C89.2386 9.3775 90.0954 9.03479 90.9521 8.77775C91.9374 8.52072 92.8799 8.34936 93.7795 8.26368C94.6791 8.13517 95.5574 8.11375 96.4141 8.19942C96.9282 8.24226 97.3566 8.26368 97.6993 8.26368C98.042 8.26368 98.3847 8.30652 98.7275 8.3922C99.0273 8.3922 99.3058 8.43504 99.5628 8.52072C99.8627 8.56356 100.163 8.6064 100.462 8.64924C100.805 8.73492 101.105 8.82059 101.362 8.90627C101.619 8.99195 101.876 9.07763 102.133 9.16331C102.647 9.29182 103.268 9.5917 103.997 10.0629C105.282 10.7484 106.353 11.5409 107.21 12.4405C108.066 13.3401 108.795 14.3468 109.394 15.4607C109.908 16.703 110.273 18.031 110.487 19.4447C110.701 20.8584 110.787 22.3578 110.744 23.9428C110.401 28.1839 109.18 31.3326 107.081 33.3889C104.939 35.4023 101.641 36.409 97.1852 36.409H94.1651C93.6938 36.409 93.244 36.409 92.8156 36.409C92.4301 36.409 91.9803 36.3662 91.4662 36.2805C90.7808 36.2377 89.9454 36.0235 88.9601 35.6379C88.4889 35.5094 88.0177 35.3166 87.5464 35.0596C87.0752 34.8026 86.5825 34.5027 86.0685 34.16ZM92.8799 40.4573C92.9227 40.543 92.987 40.8215 93.0727 41.2927C93.2012 41.7211 93.3083 42.1923 93.394 42.7064C93.4797 43.1776 93.5439 43.6274 93.5867 44.0558C93.6724 44.4414 93.6938 44.6342 93.651 44.6342C93.6938 44.677 93.7795 44.7198 93.908 44.7627C94.0366 44.8055 94.2508 44.8269 94.5506 44.8269H120.318V42.4494C120.318 41.7211 120.49 41.0999 120.832 40.5859C121.261 40.029 121.882 39.6862 122.696 39.5577C124.238 39.3007 125.352 39.472 126.037 40.0718C126.766 40.6287 127.237 41.4212 127.451 42.4494C127.708 43.4775 127.794 44.6127 127.708 45.8551C127.665 47.0974 127.665 48.2112 127.708 49.1965C127.794 50.1818 127.794 51.1886 127.708 52.2167C127.665 53.202 127.601 54.2087 127.515 55.2369C127.387 56.4792 127.087 57.4217 126.616 58.0643C126.145 58.7068 125.545 59.1567 124.817 59.4137C124.131 59.6707 123.339 59.7992 122.439 59.7992C121.539 59.8421 120.597 59.8635 119.612 59.8635H116.977C116.249 59.9492 115.499 59.992 114.728 59.992C113.957 60.0349 113.1 60.0563 112.158 60.0563C111.258 60.0563 110.294 60.0349 109.266 59.992C108.238 59.992 107.231 59.9492 106.246 59.8635H100.27C99.1558 59.8635 98.042 59.8849 96.9282 59.9278C95.8144 59.9706 94.6577 59.9492 93.4582 59.8635C93.1155 59.8635 92.6871 59.8635 92.1731 59.8635C91.7018 59.9063 91.1878 59.9063 90.6308 59.8635C90.1168 59.8635 89.6027 59.7992 89.0886 59.6707C88.5746 59.5422 88.1676 59.3494 87.8677 59.0924C87.4822 58.8782 87.1394 58.4498 86.8396 57.8072C86.6682 57.4217 86.5183 57.1004 86.3898 56.8433C86.3041 56.5863 86.197 56.3293 86.0685 56.0722C85.8114 54.8299 85.6829 53.5019 85.6829 52.0882C85.6829 50.6745 85.6829 49.3679 85.6829 48.1684V46.1764C85.6829 45.4053 85.6615 44.5485 85.6187 43.606C85.6187 42.6636 85.7686 41.7854 86.0685 40.9714C86.197 40.7144 86.3469 40.4788 86.5183 40.2646C86.7325 40.0075 86.9895 39.8148 87.2894 39.6862C88.2318 39.3435 89.2386 39.1722 90.3096 39.1722C91.4234 39.1722 92.2802 39.6006 92.8799 40.4573ZM119.419 19.509C119.676 19.4661 119.869 19.4447 119.997 19.4447C120.168 19.4447 120.276 19.4447 120.318 19.4447V12.7618C120.318 12.4619 120.34 12.2049 120.383 11.9907C120.426 11.7765 120.49 11.5409 120.575 11.2838C120.575 11.0696 120.597 10.8769 120.64 10.7055C120.725 10.5342 120.79 10.4056 120.832 10.32C120.832 10.1914 120.897 10.0415 121.025 9.87015C121.197 9.6988 121.325 9.50602 121.411 9.29183C121.668 8.94911 122.16 8.64924 122.889 8.3922C123.189 8.30652 123.489 8.26368 123.788 8.26368C124.131 8.26368 124.517 8.26368 124.945 8.26368C125.588 8.43504 126.123 8.64924 126.552 8.90627C127.023 9.16331 127.344 9.50602 127.515 9.93441C127.601 10.1914 127.687 10.4913 127.772 10.834C127.901 11.1339 127.965 11.4552 127.965 11.7979C128.051 12.1835 128.094 12.5262 128.094 12.8261C128.094 13.0831 128.094 13.233 128.094 13.2759V31.3326C128.094 32.3607 128.072 33.3032 128.029 34.16C128.029 34.9739 127.751 35.8093 127.194 36.6661C127.108 36.9231 126.958 37.1373 126.744 37.3087C126.573 37.4372 126.38 37.5443 126.166 37.63C125.823 37.8442 125.502 37.9941 125.202 38.0798C124.902 38.1654 124.581 38.2083 124.238 38.2083C123.638 38.2083 122.953 37.9941 122.182 37.5657C121.925 37.3515 121.689 37.1373 121.475 36.9231C121.304 36.6661 121.132 36.4305 120.961 36.2163C120.875 36.0021 120.79 35.7665 120.704 35.5094C120.618 35.2524 120.575 35.0168 120.575 34.8026C120.49 34.5455 120.447 34.3099 120.447 34.0957C120.447 33.8815 120.404 33.6459 120.318 33.3889V26.8987H118.905C118.391 26.8559 117.855 26.8345 117.298 26.8345C116.741 26.8345 116.206 26.7916 115.692 26.706C115.178 26.6203 114.685 26.4918 114.214 26.3204C113.743 26.1062 113.357 25.7635 113.057 25.2923C112.843 24.821 112.736 24.2427 112.736 23.5573C112.736 22.8719 112.822 22.2935 112.993 21.8223C112.993 21.2654 113.186 20.8798 113.571 20.6656C113.914 20.3229 114.321 20.0873 114.792 19.9588C115.306 19.7874 115.82 19.6803 116.334 19.6375C116.891 19.5518 117.427 19.509 117.941 19.509C118.498 19.509 118.99 19.509 119.419 19.509ZM88.8316 21.8223C88.6174 22.6791 88.6174 23.5359 88.8316 24.3926C88.9173 24.8639 89.0244 25.2923 89.1529 25.6778C89.3242 26.0634 89.517 26.4275 89.7312 26.7702C90.0739 27.1129 90.3952 27.4556 90.6951 27.7984C90.995 28.0982 91.3805 28.3553 91.8518 28.5695C92.6657 29.0407 93.6724 29.3406 94.8719 29.4691C95.7715 29.5976 96.6712 29.5976 97.5708 29.4691C97.9563 29.3834 98.3419 29.3192 98.7275 29.2763C99.1558 29.1906 99.5414 29.0407 99.8841 28.8265C100.698 28.3981 101.341 27.8626 101.812 27.22C102.069 26.7916 102.283 26.3847 102.454 25.9991C102.669 25.5707 102.819 25.1209 102.904 24.6497C102.904 24.2213 102.904 23.8143 102.904 23.4288C102.904 23.0004 102.861 22.5506 102.776 22.0793C102.776 21.3082 102.626 20.6014 102.326 19.9588C102.155 19.3162 101.79 18.695 101.234 18.0953C100.934 17.7954 100.591 17.5384 100.205 17.3242C99.8627 17.11 99.4771 16.8958 99.0487 16.6816C98.0634 16.4246 97.0139 16.296 95.9001 16.296C95.386 16.296 94.8719 16.3389 94.3579 16.4246C93.8438 16.5102 93.3511 16.6602 92.8799 16.8744C92.3658 17.0886 91.8946 17.3456 91.4662 17.6455C91.0378 17.9453 90.6737 18.2881 90.3738 18.6736C89.9454 19.0592 89.6241 19.509 89.4099 20.023C89.1957 20.4943 89.003 21.094 88.8316 21.8223ZM94.2936 50.6745C94.0366 50.6745 93.7581 50.7602 93.4582 50.9315C93.2012 51.1457 93.0727 51.3813 93.0727 51.6384C93.0727 52.1953 93.1155 52.538 93.2012 52.6665C93.2869 53.0092 93.4154 53.2877 93.5867 53.5019C93.7581 53.6732 93.9509 53.7589 94.1651 53.7589H99.6913C100.42 53.7589 101.084 53.7803 101.683 53.8232C102.326 53.8232 102.99 53.866 103.675 53.9517H104.961C105.346 53.9517 105.732 53.9517 106.117 53.9517C106.546 53.9089 106.995 53.8446 107.467 53.7589H116.72C117.191 53.7589 117.791 53.8018 118.519 53.8874C119.247 53.9303 119.826 53.7375 120.254 53.3091C120.554 52.9664 120.661 52.538 120.575 52.0239C120.533 51.5099 120.447 51.06 120.318 50.6745C120.318 50.6317 120.19 50.6102 119.933 50.6102C119.719 50.6102 119.462 50.6102 119.162 50.6102C118.905 50.6102 118.626 50.6317 118.326 50.6745C118.069 50.6745 117.898 50.6745 117.812 50.6745H96.7997C96.5855 50.6745 96.3713 50.6745 96.1571 50.6745C95.9857 50.6745 95.7715 50.6317 95.5145 50.546C95.3003 50.546 95.0861 50.546 94.8719 50.546C94.7006 50.546 94.5078 50.5888 94.2936 50.6745ZM177.707 48.4897C177.835 48.5325 177.964 48.554 178.092 48.554C178.221 48.5111 178.349 48.4897 178.478 48.4897C179.206 48.5754 179.87 48.7253 180.47 48.9395C181.112 49.1109 181.733 49.4536 182.333 49.9676C182.933 50.5674 183.233 51.3171 183.233 52.2167C183.233 52.6879 183.147 53.202 182.976 53.7589C182.847 54.273 182.654 54.68 182.397 54.9798C182.055 55.3225 181.626 55.5796 181.112 55.7509C180.598 55.9223 180.106 56.0508 179.634 56.1365C179.163 56.1793 178.735 56.2008 178.349 56.2008C178.006 56.2008 177.814 56.2008 177.771 56.2008H141.786C141.572 56.2008 141.357 56.2222 141.143 56.265C140.929 56.265 140.715 56.265 140.501 56.265C139.601 56.3079 138.637 56.3079 137.609 56.265C136.581 56.1793 135.703 55.8366 134.974 55.2369C134.075 54.4229 133.625 53.5019 133.625 52.4737C133.625 51.8312 133.818 51.1671 134.203 50.4817C134.589 49.7963 135.103 49.3251 135.746 49.068C136.602 48.7253 137.481 48.554 138.38 48.554C139.323 48.554 140.265 48.5325 141.208 48.4897H141.529C145.641 48.404 149.84 48.404 154.124 48.4897L154.059 42.4494H147.376C146.52 42.4494 145.62 42.4494 144.678 42.4494C143.778 42.4494 142.857 42.4279 141.914 42.3851C141.015 42.2994 140.265 41.8496 139.665 41.0357C139.066 40.2217 138.723 39.2578 138.637 38.144C138.594 37.7585 138.552 37.1373 138.509 36.2805C138.509 35.4237 138.487 34.5241 138.444 33.5817C138.444 32.6392 138.444 31.761 138.444 30.947C138.444 30.1331 138.444 29.5548 138.444 29.2121V27.6698C138.402 27.1558 138.402 26.6203 138.444 26.0634C138.53 25.4636 138.766 24.9281 139.151 24.4569C139.708 23.7286 140.479 23.2788 141.465 23.1075C142.493 22.8933 143.478 22.7862 144.42 22.7862C144.635 22.7862 144.977 22.8076 145.449 22.8504C145.963 22.8933 146.37 22.8933 146.67 22.8504H169.481V17.4527H146.027C145.813 17.4527 145.577 17.4741 145.32 17.5169C145.063 17.5169 144.827 17.5169 144.613 17.5169C144.356 17.5169 144.078 17.5384 143.778 17.5812C143.521 17.5812 143.264 17.5812 143.007 17.5812C142.107 17.5812 141.379 17.4955 140.822 17.3242C140.094 17.1528 139.494 16.6602 139.023 15.8462C138.466 14.8609 138.316 13.8114 138.573 12.6975C138.787 11.9264 139.28 11.3481 140.051 10.9626C140.822 10.577 141.443 10.3414 141.914 10.2557C142.257 10.17 142.578 10.1272 142.878 10.1272C143.221 10.1272 143.585 10.1272 143.971 10.1272H146.22C146.905 10.1272 147.741 10.1486 148.726 10.1914C149.754 10.1914 150.825 10.1914 151.939 10.1914C153.053 10.1914 154.166 10.1914 155.28 10.1914C156.437 10.1486 157.486 10.1272 158.429 10.1272H171.409C172.137 10.1272 172.866 10.1486 173.594 10.1914C174.322 10.2343 175.029 10.3628 175.715 10.577C176.743 10.8769 177.407 11.5409 177.707 12.569C178.006 13.5543 178.156 14.5182 178.156 15.4607V23.9428C178.156 24.2855 178.114 24.7354 178.028 25.2923C177.985 25.8492 177.899 26.4275 177.771 27.0273C177.642 27.627 177.45 28.2053 177.192 28.7622C176.978 29.2763 176.7 29.6404 176.357 29.8546C175.757 30.1974 175.179 30.4116 174.622 30.4972C174.065 30.5401 173.53 30.5401 173.016 30.4972H147.633V35.6379H173.08C173.465 35.6379 173.83 35.6379 174.172 35.6379C174.558 35.6379 174.922 35.6594 175.265 35.7022C175.907 35.745 176.486 35.9378 177 36.2805C177.557 36.5804 177.942 37.0945 178.156 37.8227C178.371 38.6795 178.328 39.4935 178.028 40.2646C177.771 41.0357 177.257 41.5926 176.486 41.9353C175.972 42.1495 175.436 42.2994 174.879 42.3851C174.365 42.4279 173.872 42.4494 173.401 42.4494H162.349L162.413 48.4897C163.441 48.4897 164.384 48.4897 165.24 48.4897C166.14 48.4469 167.018 48.4254 167.875 48.4254C168.775 48.4254 169.653 48.4469 170.51 48.4897C171.409 48.4897 172.352 48.4897 173.337 48.4897C174.108 48.5325 174.858 48.5325 175.586 48.4897C176.314 48.404 177.021 48.404 177.707 48.4897ZM227.284 33.1318C227.755 33.346 228.119 33.7102 228.376 34.2242C228.676 34.6955 228.89 35.1667 229.019 35.6379C229.233 36.5804 229.019 37.4372 228.376 38.2083C227.776 38.9366 227.048 39.4935 226.191 39.879C225.377 40.2646 224.499 40.543 223.557 40.7144C222.614 40.8429 221.65 40.9072 220.665 40.9072C219.68 40.9072 218.759 40.9072 217.902 40.9072C214.475 40.9072 211.005 40.95 207.492 41.0357C204.022 41.0785 200.552 41.0571 197.082 40.9714C196.482 40.9714 195.861 40.95 195.219 40.9072C194.576 40.8215 193.955 40.693 193.355 40.5216C192.755 40.3074 192.198 40.0075 191.684 39.622C191.213 39.2364 190.828 38.7438 190.528 38.144C190.142 37.3729 189.864 36.4947 189.692 35.5094C189.564 34.5241 189.478 33.496 189.435 32.425C189.392 31.354 189.371 30.3045 189.371 29.2763C189.414 28.2482 189.435 27.3271 189.435 26.5132V20.2801C189.435 20.1944 189.414 19.8731 189.371 19.3162C189.328 18.7593 189.307 18.1381 189.307 17.4527C189.35 16.7244 189.414 15.9962 189.5 15.2679C189.628 14.4968 189.864 13.8542 190.206 13.3401C190.463 12.9117 190.87 12.569 191.427 12.312C191.984 12.055 192.541 11.8622 193.098 11.7337C193.698 11.6051 194.233 11.5195 194.705 11.4766C195.176 11.4338 195.476 11.4124 195.604 11.4124H221.308C221.35 11.4124 221.693 11.4338 222.336 11.4766C222.978 11.4766 223.685 11.5409 224.456 11.6694C225.227 11.7979 225.977 12.0335 226.705 12.3762C227.434 12.719 227.905 13.233 228.119 13.9185C228.162 14.1755 228.205 14.4968 228.248 14.8823C228.29 15.2251 228.312 15.5892 228.312 15.9747C228.312 16.3603 228.269 16.7244 228.183 17.0671C228.14 17.4099 228.076 17.6669 227.991 17.8382C227.819 18.1381 227.519 18.3952 227.091 18.6094C226.663 18.7807 226.277 18.9092 225.934 18.9949C225.549 19.0806 225.056 19.1663 224.456 19.2519C223.857 19.3376 223.15 19.3805 222.336 19.3805H220.344C218.673 19.2948 217.152 19.2519 215.781 19.2519C214.411 19.2091 213.04 19.2091 211.669 19.2519C210.341 19.2519 208.949 19.2734 207.492 19.3162C206.035 19.3162 204.343 19.3376 202.416 19.3805C202.073 19.3805 201.687 19.359 201.259 19.3162C200.873 19.2734 200.466 19.2734 200.038 19.3162C199.652 19.359 199.288 19.4447 198.946 19.5732C198.646 19.7018 198.453 19.9374 198.367 20.2801C198.196 21.0083 198.132 21.908 198.174 22.979C198.217 24.0499 198.196 24.971 198.11 25.7421C198.11 26.042 198.089 26.4918 198.046 27.0915C198.046 27.6913 198.046 28.3124 198.046 28.955C198.089 29.5976 198.174 30.1974 198.303 30.7543C198.432 31.3112 198.646 31.6753 198.946 31.8467C199.288 32.0609 199.738 32.168 200.295 32.168C200.852 32.168 201.302 32.168 201.644 32.168C205.114 32.2965 208.542 32.3393 211.926 32.2965C215.31 32.2108 218.694 32.168 222.079 32.168C224.135 32.168 225.87 32.4893 227.284 33.1318ZM191.299 55.8795C190.613 55.8366 189.928 55.7509 189.243 55.6224C188.6 55.4511 188.022 55.2369 187.508 54.9798C186.993 54.68 186.565 54.273 186.222 53.7589C185.922 53.2448 185.773 52.5594 185.773 51.7026C185.773 50.8459 186.051 50.0962 186.608 49.4536C186.951 49.1109 187.379 48.8538 187.893 48.6825C188.407 48.5111 188.9 48.3826 189.371 48.2969C189.842 48.2112 190.249 48.1684 190.592 48.1684C190.977 48.1684 191.192 48.1684 191.235 48.1684L226.384 48.2327C227.498 48.2327 228.505 48.2541 229.404 48.2969C230.347 48.2969 231.182 48.5968 231.91 49.1965C232.81 50.0105 233.26 50.9315 233.26 51.9597C233.26 52.6023 233.067 53.202 232.681 53.7589C232.296 54.273 231.782 54.6371 231.139 54.8513C230.282 55.194 229.383 55.4296 228.44 55.5582C227.541 55.6867 226.641 55.7724 225.742 55.8152C222.614 55.9437 219.53 55.9866 216.488 55.9437C213.447 55.9009 210.491 55.8795 207.621 55.8795C204.536 55.8795 201.516 55.9009 198.56 55.9437C195.647 55.9866 193.227 55.9651 191.299 55.8795ZM291.418 18.2238C292.103 19.2091 292.703 20.3229 293.217 21.5653C293.731 22.7648 293.924 24.1784 293.796 25.8063C293.624 27.6913 293.11 29.3192 292.253 30.69C291.397 32.018 290.283 33.1318 288.912 34.0315C287.584 34.9311 286.042 35.6379 284.285 36.152C282.529 36.6232 280.665 36.9017 278.695 36.9874H275.482C273.854 36.9874 272.033 36.8374 270.02 36.5376C268.049 36.1948 266.164 35.5737 264.365 34.6741C262.609 33.7316 261.131 32.4464 259.931 30.8185C258.775 29.1906 258.196 27.0487 258.196 24.3926C258.196 23.1503 258.325 22.0365 258.582 21.0512C258.882 20.023 259.289 19.0806 259.803 18.2238H257.232C256.247 18.2238 255.39 17.9025 254.662 17.2599C253.977 16.5745 253.634 15.7605 253.634 14.8181C253.634 13.8756 253.977 13.0831 254.662 12.4405C255.39 11.7551 256.247 11.4124 257.232 11.4124H270.919V8.32794C270.919 7.94239 270.984 7.55684 271.112 7.17129C271.241 6.74289 271.476 6.37876 271.819 6.07888C272.162 5.77901 272.654 5.54339 273.297 5.37204C273.94 5.15784 274.775 5.05074 275.803 5.05074C276.831 5.05074 277.667 5.15784 278.309 5.37204C278.952 5.54339 279.444 5.77901 279.787 6.07888C280.173 6.37876 280.408 6.74289 280.494 7.17129C280.623 7.55684 280.687 7.94239 280.687 8.32794V11.4124H294.438C295.423 11.4124 296.28 11.7551 297.009 12.4405C297.737 13.0831 298.101 13.8756 298.101 14.8181C298.101 15.7605 297.737 16.5745 297.009 17.2599C296.28 17.9025 295.423 18.2238 294.438 18.2238H291.418ZM293.603 40.6501C294.288 40.6073 294.995 40.6287 295.723 40.7144C296.494 40.7572 297.201 40.9072 297.844 41.1642C298.486 41.4212 299.001 41.8068 299.386 42.3209C299.815 42.8349 300.029 43.5418 300.029 44.4414C300.029 45.5124 299.665 46.3263 298.936 46.8832C298.208 47.3973 297.33 47.7828 296.302 48.0399C295.316 48.2541 294.267 48.3826 293.153 48.4254C292.082 48.4254 291.204 48.4254 290.518 48.4254C290.133 48.4254 289.726 48.4469 289.297 48.4897C288.912 48.4897 288.505 48.4897 288.077 48.4897C286.834 48.4897 285.592 48.4897 284.35 48.4897C283.107 48.4897 281.865 48.4683 280.623 48.4254C280.665 49.7535 280.708 50.9744 280.751 52.0882C280.794 53.202 280.73 54.3158 280.558 55.4296C280.43 56.2436 280.216 57.0361 279.916 57.8072C279.616 58.5355 279.102 59.1352 278.373 59.6065C277.731 60.0349 276.981 60.2491 276.124 60.2491C275.268 60.2491 274.497 60.0563 273.811 59.6707C273.254 59.328 272.826 58.8354 272.526 58.1928C272.269 57.5502 272.076 56.929 271.948 56.3293C271.862 55.858 271.841 55.344 271.883 54.7871C271.926 54.2302 271.926 53.7161 271.883 53.2448V48.4254C270.512 48.4254 269.27 48.4254 268.156 48.4254C267.043 48.4254 265.95 48.4469 264.879 48.4897C263.851 48.4897 262.801 48.4897 261.73 48.4897C260.659 48.4897 259.481 48.4897 258.196 48.4897C257.211 48.4897 256.268 48.3612 255.369 48.1041C254.469 47.8471 253.762 47.2902 253.248 46.4334C252.777 45.7051 252.541 44.934 252.541 44.1201C252.584 43.3062 252.906 42.5779 253.505 41.9353C253.805 41.5926 254.212 41.3355 254.726 41.1642C255.24 40.9928 255.733 40.8857 256.204 40.8429C256.718 40.7572 257.147 40.7144 257.489 40.7144C257.875 40.7144 258.089 40.7144 258.132 40.7144L293.603 40.6501ZM285.121 26.3204C285.292 24.9496 285.206 23.7929 284.864 22.8504C284.564 21.8651 284.028 21.0726 283.257 20.4729C282.486 19.8731 281.522 19.4233 280.366 19.1234C279.252 18.8235 278.009 18.6308 276.638 18.5451C275.439 18.5023 274.261 18.5451 273.104 18.6736C271.99 18.7593 270.984 18.9949 270.084 19.3805C269.184 19.766 268.413 20.3015 267.771 20.9869C267.171 21.6724 266.785 22.5506 266.614 23.6215C266.486 24.8639 266.614 25.9349 267 26.8345C267.385 27.7341 267.964 28.4624 268.735 29.0193C269.549 29.5762 270.534 29.9832 271.691 30.2402C272.89 30.4972 274.197 30.6257 275.61 30.6257C276.767 30.6257 277.881 30.5615 278.952 30.433C280.023 30.3045 280.987 30.0903 281.843 29.7904C282.7 29.4477 283.407 28.9979 283.964 28.4409C284.564 27.884 284.949 27.1772 285.121 26.3204ZM321.431 50.2889C321.431 48.3612 321.988 46.7547 323.102 45.4695C324.258 44.1844 325.8 43.1776 327.728 42.4494C329.656 41.6783 331.926 41.1428 334.54 40.8429C337.153 40.543 339.937 40.3931 342.893 40.3931C345.849 40.3931 348.634 40.5002 351.247 40.7144C353.86 40.9286 356.131 41.3998 358.058 42.1281C359.986 42.8135 361.507 43.7988 362.621 45.084C363.777 46.3692 364.356 48.1041 364.356 50.2889C364.356 52.4309 363.777 54.1445 362.621 55.4296C361.507 56.7148 359.986 57.7001 358.058 58.3856C356.131 59.1138 353.86 59.5851 351.247 59.7992C348.634 60.0563 345.849 60.1848 342.893 60.1848C339.937 60.1848 337.153 60.0563 334.54 59.7992C331.926 59.5851 329.656 59.1138 327.728 58.3856C325.8 57.7001 324.258 56.7148 323.102 55.4296C321.988 54.1445 321.431 52.4309 321.431 50.2889ZM320.467 36.0877C319.867 35.8307 319.439 35.3381 319.182 34.6098C318.839 33.753 318.775 32.8962 318.989 32.0394C319.246 31.1827 319.632 30.3687 320.146 29.5976C320.66 28.8265 321.238 28.0982 321.881 27.4128C322.566 26.7274 323.144 26.0848 323.616 25.485C324.344 24.5854 325.072 23.6858 325.8 22.7862C326.529 21.8866 327.257 20.9655 327.985 20.023C328.242 19.6803 328.542 19.3162 328.885 18.9306C329.228 18.5451 329.549 18.1381 329.849 17.7097C330.192 17.2813 330.47 16.8529 330.684 16.4246C330.898 15.9962 331.027 15.5463 331.07 15.0751C331.113 14.3468 331.155 13.64 331.198 12.9546C331.241 12.2263 331.37 11.5837 331.584 11.0268C331.798 10.4271 332.141 9.95583 332.612 9.61312C333.126 9.2704 333.854 9.09905 334.797 9.09905C335.482 9.09905 336.146 9.18473 336.789 9.35608C337.431 9.4846 337.903 9.89157 338.202 10.577C338.502 11.3481 338.588 12.2049 338.459 13.1474C338.374 14.047 338.459 14.9038 338.717 15.7177C338.931 16.446 339.295 17.0886 339.809 17.6455C340.323 18.1595 340.751 18.7164 341.094 19.3162C341.822 20.6442 342.679 21.8223 343.664 22.8504C344.65 23.8786 345.571 24.9924 346.428 26.1919C347.113 27.0915 347.756 28.034 348.355 29.0193C348.998 29.9617 349.426 30.9899 349.641 32.1037C349.855 33.0462 349.748 33.8601 349.319 34.5455C348.934 35.1881 348.398 35.6594 347.713 35.9592C347.027 36.2591 346.278 36.3662 345.464 36.2805C344.65 36.152 343.943 35.7879 343.343 35.1881C341.758 33.5602 340.302 31.8895 338.974 30.1759C337.688 28.4195 336.36 26.6417 334.99 24.8425C334.99 24.8425 334.797 25.0567 334.411 25.485C334.026 25.8706 333.533 26.3847 332.933 27.0273C332.333 27.627 331.691 28.3124 331.005 29.0835C330.32 29.8118 329.677 30.5186 329.078 31.2041C328.478 31.8895 327.942 32.4893 327.471 33.0033C327 33.4746 326.722 33.7744 326.636 33.9029C326.165 34.4599 325.672 34.9525 325.158 35.3809C324.644 35.8093 324.023 36.1092 323.294 36.2805C322.823 36.3662 322.331 36.409 321.816 36.409C321.345 36.409 320.895 36.3019 320.467 36.0877ZM363.199 27.7984V33.6459C363.156 34.1171 363.092 34.6098 363.006 35.1239C362.921 35.5951 362.749 36.0663 362.492 36.5376C362.235 37.0516 361.871 37.48 361.4 37.8227C361.057 38.0369 360.65 38.2083 360.179 38.3368C359.751 38.4225 359.365 38.4653 359.022 38.4653C358.68 38.4653 358.315 38.4439 357.93 38.4011C357.544 38.3154 357.223 38.1869 356.966 38.0155C356.538 37.7585 356.195 37.4372 355.938 37.0516C355.681 36.6661 355.467 36.3019 355.295 35.9592C355.167 35.5737 355.081 35.2524 355.038 34.9953C354.995 34.6955 354.974 34.5455 354.974 34.5455V13.3401C354.931 13.1688 354.953 12.6975 355.038 11.9264C355.124 11.1553 355.295 10.5127 355.552 9.99867C355.767 9.57028 356.131 9.22757 356.645 8.97053C357.202 8.71349 357.78 8.54214 358.38 8.45646C359.108 8.37078 359.836 8.41362 360.565 8.58498C361.293 8.75633 361.828 9.03479 362.171 9.42034C362.428 9.76306 362.599 10.1058 362.685 10.4485C362.814 10.7484 362.921 11.0697 363.006 11.4124C363.135 11.8408 363.199 12.2906 363.199 12.7618C363.242 13.233 363.242 13.7043 363.199 14.1755V18.6094V19.1877C363.199 19.4019 363.178 19.6375 363.135 19.8945C363.135 20.1087 363.156 20.3658 363.199 20.6656C363.37 20.6656 363.692 20.6871 364.163 20.7299C364.634 20.7299 365.127 20.7513 365.641 20.7941C366.155 20.7941 366.648 20.8156 367.119 20.8584C367.59 20.9012 367.933 20.9441 368.147 20.9869C369.004 21.1583 369.604 21.4153 369.946 21.758C370.289 22.0579 370.503 22.4435 370.589 22.9147C370.717 23.3859 370.782 23.9428 370.782 24.5854C370.782 25.1852 370.653 25.6992 370.396 26.1276C369.882 26.9844 369.111 27.4771 368.083 27.6056C367.055 27.6913 365.919 27.7555 364.677 27.7984H363.199ZM355.681 50.2889C355.681 49.5607 355.295 48.9823 354.524 48.554C353.753 48.1256 352.746 47.8043 351.504 47.5901C350.305 47.3759 348.934 47.2474 347.391 47.2045C345.892 47.1188 344.393 47.076 342.893 47.076C341.394 47.076 339.895 47.1188 338.395 47.2045C336.939 47.2474 335.611 47.3759 334.411 47.5901C333.255 47.8043 332.312 48.1256 331.584 48.554C330.856 48.9823 330.491 49.5607 330.491 50.2889C330.491 50.9315 330.856 51.467 331.584 51.8954C332.312 52.3238 333.255 52.6451 334.411 52.8593C335.611 53.0735 336.939 53.2234 338.395 53.3091C339.895 53.3948 341.394 53.4376 342.893 53.4376C344.393 53.4376 345.892 53.4376 347.391 53.4376C348.934 53.4376 350.305 53.3519 351.504 53.1806C352.746 53.0092 353.753 52.7094 354.524 52.281C355.295 51.8097 355.681 51.1457 355.681 50.2889ZM410.499 51.7669C410.499 52.8379 410.456 53.6947 410.37 54.3372C410.327 54.9798 410.135 55.7938 409.792 56.7791C409.578 57.4217 409.213 57.9572 408.699 58.3856C408.185 58.8139 407.457 59.0281 406.515 59.0281C406.258 59.0281 405.915 58.9853 405.486 58.8996C405.058 58.8568 404.737 58.7497 404.523 58.5783C404.094 58.3213 403.751 57.9143 403.494 57.3574C403.28 56.7577 403.109 56.1365 402.98 55.4939C402.852 54.8513 402.766 54.2302 402.723 53.6304C402.723 53.0307 402.723 52.5594 402.723 52.2167V35.0596L398.546 34.8668C398.161 34.8668 397.754 34.824 397.326 34.7383C396.94 34.6098 396.554 34.417 396.169 34.16C395.826 33.9029 395.526 33.5602 395.269 33.1318C395.012 32.7034 394.862 32.168 394.819 31.5254C394.734 30.7543 394.777 29.9403 394.948 29.0835C395.162 28.1839 395.762 27.4985 396.747 27.0273C397.133 26.8131 397.604 26.6845 398.161 26.6417C398.761 26.5989 399.275 26.5989 399.703 26.6417H402.723V14.9466C402.723 14.3897 402.723 13.8328 402.723 13.2759C402.723 12.6761 402.788 12.0978 402.916 11.5409C403.002 11.3267 403.066 11.1339 403.109 10.9626C403.195 10.7912 403.28 10.5984 403.366 10.3842C403.837 9.61312 404.501 9.07763 405.358 8.77775C405.572 8.69208 405.786 8.64924 406.001 8.64924C406.258 8.6064 406.493 8.58498 406.707 8.58498C408.121 8.58498 409.192 9.22756 409.92 10.5127C410.092 10.7698 410.199 11.1339 410.242 11.6051C410.327 12.0764 410.392 12.569 410.434 13.0831C410.477 13.5543 410.499 13.9827 410.499 14.3683C410.499 14.711 410.499 14.9252 410.499 15.0109V45.084V51.7669ZM420.716 57.2289C420.459 57.7858 420.052 58.257 419.495 58.6426C418.638 59.1995 417.696 59.3494 416.667 59.0924C416.025 58.9639 415.511 58.6854 415.125 58.257C414.74 57.8715 414.44 57.4217 414.226 56.9076C414.054 56.3935 413.947 55.8366 413.904 55.2369C413.862 54.6371 413.84 54.0588 413.84 53.5019V15.6534C413.84 15.1822 413.84 14.6467 413.84 14.047C413.84 13.4044 413.883 12.8046 413.969 12.2477C414.054 11.648 414.161 11.0911 414.29 10.577C414.461 10.0629 414.697 9.65596 414.997 9.35608C415.468 8.92769 415.918 8.67066 416.346 8.58498C416.775 8.45646 417.289 8.3922 417.888 8.3922C418.617 8.3922 419.216 8.6064 419.688 9.03479C420.159 9.42034 420.523 9.95583 420.78 10.6413C421.166 11.5409 421.38 12.4619 421.423 13.4044C421.465 14.3468 421.508 15.3107 421.551 16.296V16.6173C421.637 19.8731 421.658 23.0004 421.615 25.9991C421.573 28.9979 421.551 32.018 421.551 35.0596V51.1243C421.551 52.2381 421.508 53.3091 421.423 54.3372C421.38 55.3654 421.144 56.3293 420.716 57.2289ZM387.301 44.8912C387.258 44.934 387.044 45.2125 386.659 45.7266C386.316 46.1978 385.93 46.7333 385.502 47.333C385.116 47.8899 384.731 48.404 384.345 48.8752C384.003 49.3465 383.81 49.6035 383.767 49.6464C383.424 50.1176 383.082 50.5888 382.739 51.06C382.439 51.4884 382.118 51.9168 381.775 52.3452C381.689 52.4309 381.604 52.538 381.518 52.6665C381.475 52.795 381.411 52.9021 381.325 52.9878C380.725 53.7161 380.104 54.4229 379.462 55.1084C378.819 55.7938 378.069 56.3079 377.213 56.6506C376.87 56.8219 376.484 56.9076 376.056 56.9076C375.628 56.9076 375.263 56.8005 374.964 56.5863C374.706 56.3721 374.407 56.0937 374.064 55.7509C373.378 54.9798 373.036 54.0802 373.036 53.0521C373.079 52.281 373.25 51.5527 373.55 50.8673C373.893 50.1818 374.235 49.5393 374.578 48.9395C374.664 48.8538 374.899 48.4897 375.285 47.8471C375.713 47.2045 376.206 46.412 376.763 45.4695C377.32 44.5271 377.898 43.5203 378.498 42.4494C379.14 41.3355 379.74 40.3074 380.297 39.3649C380.897 38.3796 381.411 37.5229 381.839 36.7946C382.268 36.0663 382.567 35.6165 382.739 35.4452C382.996 34.9739 383.189 34.5241 383.317 34.0957C383.489 33.6673 383.596 33.2175 383.638 32.7463C383.724 32.0609 383.767 31.3969 383.767 30.7543C383.767 30.0688 383.767 29.3406 383.767 28.5695V17.1957C383.767 16.7673 383.767 16.3603 383.767 15.9747C383.767 15.5892 383.788 15.1822 383.831 14.7538C383.831 14.2826 383.874 13.8114 383.96 13.3401C384.045 12.8689 384.131 12.4405 384.217 12.055C384.302 11.7979 384.41 11.5195 384.538 11.2196C384.709 10.9197 384.859 10.6413 384.988 10.3842C385.202 10.0415 385.481 9.78448 385.823 9.61312C386.209 9.44176 386.616 9.31324 387.044 9.22756L387.173 9.16331C387.515 9.07763 387.794 9.05621 388.008 9.09905C388.222 9.09905 388.501 9.16331 388.843 9.29183C389.186 9.42034 389.486 9.61312 389.743 9.87015C389.914 10.0415 390.064 10.2771 390.193 10.577C390.321 10.8769 390.45 11.1982 390.578 11.5409C390.75 11.9693 390.878 12.4619 390.964 13.0188C391.092 13.5329 391.178 14.0898 391.221 14.6896C391.392 16.4888 391.499 18.5237 391.542 20.7941C391.585 23.0218 391.607 25.0352 391.607 26.8345C391.649 27.9483 391.671 29.0621 391.671 30.1759C391.671 31.2469 391.714 32.3179 391.799 33.3889C391.842 34.3313 392.056 35.2095 392.442 36.0235C392.87 36.8374 393.299 37.6514 393.727 38.4653C394.155 39.4078 394.605 40.3717 395.077 41.357C395.548 42.3423 396.019 43.2847 396.49 44.1844C396.533 44.3129 396.683 44.6127 396.94 45.084C397.197 45.5552 397.454 46.0693 397.711 46.6262C398.011 47.1403 398.268 47.6329 398.482 48.1041C398.739 48.5325 398.889 48.811 398.932 48.9395L399.061 49.4536L399.253 49.8391C399.51 50.3104 399.703 50.803 399.832 51.3171C399.96 51.7883 400.046 52.3024 400.089 52.8593C400.132 53.4162 400.003 53.9945 399.703 54.5943C399.103 55.9223 398.247 56.6291 397.133 56.7148H397.069C396.383 56.7148 395.783 56.4578 395.269 55.9437C394.755 55.4296 394.198 54.8085 393.599 54.0802C392.999 53.3948 392.42 52.6023 391.864 51.7026C391.307 50.803 390.814 50.0533 390.386 49.4536C389.4 47.8257 388.651 46.6905 388.137 46.0479C387.622 45.3624 387.344 44.9769 387.301 44.8912ZM468.658 54.7871C469.343 54.8299 469.943 55.0013 470.457 55.3011C470.971 55.5582 471.335 56.0294 471.55 56.7148C472.021 58.2999 471.464 59.3709 469.879 59.9278C469.365 60.142 468.829 60.2705 468.272 60.3133C467.758 60.3562 467.287 60.3776 466.859 60.3776H437.621C436.764 60.3776 435.864 60.3776 434.922 60.3776C433.98 60.3776 433.037 60.3562 432.095 60.3133C430.938 60.2705 430.124 59.9063 429.653 59.2209C429.224 58.5355 428.967 57.7001 428.882 56.7148L428.625 52.4737C428.582 52.0025 428.582 51.4456 428.625 50.803C428.71 50.1176 428.946 49.5393 429.331 49.068C429.931 48.4683 430.617 48.0827 431.388 47.9114C432.159 47.74 433.016 47.6543 433.958 47.6543H435.95C436.164 47.6543 436.336 47.6758 436.464 47.7186C436.593 47.7186 436.721 47.7186 436.85 47.7186H464.224V45.4695H436.207C435.993 45.4695 435.757 45.4695 435.5 45.4695C435.286 45.4267 435.051 45.4267 434.793 45.4695H433.251C432.823 45.4695 432.437 45.4695 432.095 45.4695C431.752 45.4695 431.409 45.4267 431.066 45.341C430.681 45.2553 430.317 45.1697 429.974 45.084C429.674 44.9983 429.417 44.7841 429.203 44.4414C428.946 43.9702 428.775 43.5203 428.689 43.092C428.603 42.6636 428.646 42.1923 428.817 41.6783C428.946 41.3355 429.139 41.0785 429.396 40.9072C429.653 40.693 429.953 40.5216 430.295 40.3931C430.638 40.2646 430.959 40.1789 431.259 40.1361C431.602 40.0504 431.902 39.9861 432.159 39.9433C432.502 39.9004 432.823 39.879 433.123 39.879C433.465 39.8362 433.808 39.8148 434.151 39.8148H435.243C435.457 39.8576 435.65 39.879 435.822 39.879C436.036 39.879 436.25 39.879 436.464 39.879H464.867C467.051 39.879 468.722 40.2217 469.879 40.9072C471.035 41.5497 471.614 42.6207 471.614 44.1201V48.6182C471.614 49.218 471.464 49.7963 471.164 50.3532C470.907 50.9101 470.436 51.4028 469.75 51.8312C469.193 52.1739 468.636 52.3666 468.08 52.4095C467.523 52.4095 466.966 52.4095 466.409 52.4095H436.528V54.7871H468.658ZM426.954 35.4452C426.354 35.1881 425.926 34.6955 425.669 33.9672C425.326 33.1104 425.262 32.2536 425.476 31.3969C425.733 30.5401 426.119 29.7261 426.633 28.955C427.147 28.1839 427.725 27.4556 428.368 26.7702C429.053 26.0848 429.631 25.4422 430.103 24.8425C430.831 23.9428 431.559 23.0432 432.287 22.1436C433.016 21.244 433.744 20.3229 434.472 19.3805C434.729 19.0377 435.029 18.6736 435.372 18.2881C435.715 17.9025 436.036 17.4955 436.336 17.0671C436.678 16.6387 436.957 16.2104 437.171 15.782C437.385 15.3536 437.514 14.9038 437.557 14.4325C437.599 13.7043 437.642 12.9974 437.685 12.312C437.728 11.5837 437.856 10.9411 438.071 10.3842C438.285 9.78447 438.628 9.31324 439.099 8.97053C439.613 8.62782 440.341 8.45646 441.284 8.45646C441.969 8.45646 442.633 8.54214 443.276 8.7135C443.918 8.84201 444.389 9.24898 444.689 9.93441C444.989 10.7055 445.075 11.5623 444.946 12.5048C444.861 13.4044 444.946 14.2612 445.203 15.0751C445.418 15.8034 445.782 16.446 446.296 17.0029C446.81 17.517 447.238 18.0739 447.581 18.6736C448.309 20.0016 449.166 21.1797 450.151 22.2078C451.137 23.236 452.058 24.3498 452.914 25.5493C453.6 26.4489 454.242 27.3914 454.842 28.3767C455.485 29.3192 455.913 30.3473 456.127 31.4611C456.342 32.4036 456.234 33.2175 455.806 33.9029C455.421 34.5455 454.885 35.0168 454.2 35.3166C453.514 35.6165 452.765 35.7236 451.951 35.6379C451.137 35.5094 450.43 35.1453 449.83 34.5455C448.245 32.9176 446.788 31.2469 445.46 29.5333C444.175 27.7769 442.847 25.9991 441.476 24.1999C441.476 24.1999 441.284 24.4141 440.898 24.8425C440.513 25.228 440.02 25.7421 439.42 26.3847C438.82 26.9844 438.178 27.6698 437.492 28.4409C436.807 29.1692 436.164 29.8761 435.565 30.5615C434.965 31.2469 434.429 31.8467 433.958 32.3607C433.487 32.832 433.208 33.1318 433.123 33.2604C432.652 33.8173 432.159 34.3099 431.645 34.7383C431.131 35.1667 430.51 35.4666 429.781 35.6379C429.31 35.7236 428.817 35.7665 428.303 35.7665C427.832 35.7665 427.382 35.6594 426.954 35.4452ZM471.421 32.168C471.378 32.6392 471.314 33.1318 471.228 33.6459C471.185 34.1171 471.035 34.5884 470.778 35.0596C470.479 35.6165 470.114 36.0235 469.686 36.2805C469.086 36.7518 468.379 36.9874 467.565 36.9874C466.923 36.9874 466.323 36.816 465.766 36.4733C465.166 36.1306 464.695 35.5951 464.353 34.8668C464.01 34.1386 463.838 33.4746 463.838 32.8748V25.9349C463.11 25.9349 462.36 25.9134 461.589 25.8706C460.861 25.7849 460.261 25.6992 459.79 25.6136C458.548 25.4422 457.52 25.0781 456.706 24.5212C455.935 23.9214 455.656 22.9147 455.87 21.501C456.042 20.5585 456.32 19.8517 456.706 19.3805C457.134 18.8664 457.82 18.5879 458.762 18.5451C459.062 18.5451 459.34 18.5451 459.597 18.5451C459.897 18.5023 460.219 18.4808 460.561 18.4808C461.075 18.4808 461.611 18.4808 462.168 18.4808C462.725 18.438 463.282 18.4166 463.838 18.4166V13.5972C463.838 13.5115 463.817 13.2973 463.774 12.9546C463.774 12.6119 463.774 12.2477 463.774 11.8622C463.774 11.4338 463.796 11.0268 463.838 10.6413C463.924 10.2129 464.031 9.87015 464.16 9.61312C464.374 9.22757 464.695 8.90627 465.124 8.64924C465.552 8.34936 466.066 8.15659 466.666 8.07091C467.394 7.98523 468.058 8.02807 468.658 8.19942C469.3 8.37078 469.793 8.64924 470.136 9.03479C470.736 9.67738 471.121 10.3414 471.292 11.0268C471.421 11.4552 471.485 12.0764 471.485 12.8903C471.528 13.7043 471.528 14.3468 471.485 14.8181V18.2881C471.485 20.8584 471.485 23.2574 471.485 25.485C471.485 27.6698 471.464 29.8975 471.421 32.168ZM495.436 36.2163C495.136 36.2591 494.45 36.2805 493.379 36.2805C492.351 36.2805 491.237 36.2805 490.038 36.2805C488.838 36.2377 487.703 36.2163 486.632 36.2163C485.561 36.2163 484.854 36.2163 484.512 36.2163H484.447C483.676 36.2163 482.905 36.2163 482.134 36.2163C481.406 36.1734 480.699 36.1092 480.014 36.0235C479.328 35.895 478.707 35.7022 478.15 35.4452C477.593 35.1881 477.143 34.8026 476.801 34.2885C476.415 33.7316 476.137 33.0247 475.965 32.168C475.837 31.3112 475.73 30.4972 475.644 29.7261C475.601 28.9122 475.58 28.2053 475.58 27.6056C475.623 27.0058 475.644 26.6845 475.644 26.6417V25.228C475.644 24.7568 475.644 24.2213 475.644 23.6215C475.644 23.0218 475.665 22.3578 475.708 21.6295C475.708 20.8584 475.708 20.1087 475.708 19.3805C475.751 18.6094 475.773 17.9239 475.773 17.3242V15.2679C475.773 15.1394 475.773 14.9038 475.773 14.561C475.773 14.2183 475.794 13.8542 475.837 13.4686C475.88 13.0403 475.944 12.6333 476.03 12.2477C476.115 11.8193 476.244 11.4766 476.415 11.2196C476.801 10.6198 477.186 10.1914 477.572 9.93441C478 9.63454 478.536 9.42034 479.178 9.29183C479.392 9.24898 479.714 9.22756 480.142 9.22756C480.571 9.18472 480.977 9.14189 481.363 9.09905C481.834 9.05621 482.327 9.03479 482.841 9.03479H497.363C498.306 9.03479 499.291 9.12047 500.319 9.29183C501.39 9.42034 502.333 9.74163 503.147 10.2557C503.789 10.6413 504.239 11.1339 504.496 11.7337C504.753 12.3334 504.925 12.976 505.01 13.6614C505.096 14.3468 505.117 15.0537 505.075 15.782C505.032 16.4674 505.01 17.11 505.01 17.7097C505.01 18.3952 504.989 19.0806 504.946 19.766C504.946 20.4086 504.967 21.0726 505.01 21.758V25.2923C504.967 25.5065 504.946 25.7421 504.946 25.9991C504.989 26.2561 505.01 26.5132 505.01 26.7702C504.925 27.3271 504.903 27.884 504.946 28.4409C504.989 28.955 505.01 29.5119 505.01 30.1117C505.01 30.5829 504.967 31.097 504.882 31.6539C504.839 32.168 504.71 32.7034 504.496 33.2604C504.325 33.7744 504.068 34.2457 503.725 34.6741C503.425 35.1024 503.018 35.4023 502.504 35.5737C501.39 36.0449 500.212 36.2805 498.97 36.2805C497.77 36.2377 496.592 36.2163 495.436 36.2163ZM480.206 50.2889C480.206 48.3612 480.763 46.7547 481.877 45.4695C483.034 44.1844 484.576 43.1776 486.504 42.4494C488.432 41.6783 490.702 41.1428 493.315 40.8429C495.928 40.543 498.713 40.3931 501.669 40.3931C504.625 40.3931 507.409 40.5002 510.022 40.7144C512.636 40.9286 514.906 41.3998 516.834 42.1281C518.762 42.8135 520.282 43.7988 521.396 45.084C522.553 46.3692 523.131 48.1041 523.131 50.2889C523.131 52.4309 522.553 54.1445 521.396 55.4296C520.282 56.7148 518.762 57.7001 516.834 58.3856C514.906 59.1138 512.636 59.5851 510.022 59.7992C507.409 60.0563 504.625 60.1848 501.669 60.1848C498.713 60.1848 495.928 60.0563 493.315 59.7992C490.702 59.5851 488.432 59.1138 486.504 58.3856C484.576 57.7001 483.034 56.7148 481.877 55.4296C480.763 54.1445 480.206 52.4309 480.206 50.2889ZM513.235 32.5535C512.936 32.5535 512.55 32.5321 512.079 32.4893C511.65 32.4464 511.201 32.3607 510.729 32.2322C510.301 32.1037 509.894 31.9323 509.508 31.7181C509.123 31.504 508.823 31.2041 508.609 30.8185C508.48 30.6472 508.373 30.4116 508.287 30.1117C508.245 29.8118 508.202 29.5119 508.159 29.2121C508.159 28.8693 508.159 28.548 508.159 28.2482C508.202 27.9483 508.245 27.7127 508.287 27.5413C508.373 27.0701 508.609 26.6631 508.994 26.3204C509.38 25.9349 509.83 25.635 510.344 25.4208C510.515 25.3779 510.836 25.3351 511.308 25.2923C511.822 25.2494 512.336 25.228 512.85 25.228H514.778C514.735 24.7568 514.713 24.307 514.713 23.8786V21.8865H513.235C512.936 21.8865 512.55 21.8651 512.079 21.8223C511.65 21.7795 511.201 21.6938 510.729 21.5653C510.301 21.4367 509.894 21.2654 509.508 21.0512C509.123 20.837 508.823 20.5371 508.609 20.1516C508.266 19.5947 508.095 19.0163 508.095 18.4166C508.095 17.774 508.223 17.1957 508.48 16.6816C508.78 16.1247 509.166 15.6749 509.637 15.3322C510.151 14.9466 510.751 14.7324 511.436 14.6896C511.479 14.6896 511.672 14.6896 512.014 14.6896C512.4 14.6896 512.807 14.6896 513.235 14.6896C513.664 14.6896 514.049 14.6896 514.392 14.6896C514.735 14.6467 514.906 14.5825 514.906 14.4968C514.992 14.0684 515.013 13.5972 514.97 13.0831C514.97 12.569 514.992 12.055 515.035 11.5409C515.077 11.0268 515.163 10.5556 515.292 10.1272C515.463 9.65596 515.763 9.24898 516.191 8.90627C516.534 8.64924 516.941 8.47788 517.412 8.3922C517.883 8.30652 518.333 8.24226 518.762 8.19942C519.833 8.07091 520.754 8.43504 521.525 9.29183C521.825 9.67738 522.039 10.0415 522.167 10.3842C522.339 10.8983 522.403 11.4338 522.36 11.9907C522.36 12.5476 522.36 13.1045 522.36 13.6614V32.1037C522.36 32.1037 522.36 32.3822 522.36 32.9391C522.36 33.496 522.317 34.1171 522.232 34.8026C522.146 35.488 521.996 36.1734 521.782 36.8589C521.61 37.5014 521.311 37.9513 520.882 38.2083C520.582 38.3796 520.218 38.5082 519.79 38.5938C519.361 38.6795 518.976 38.7224 518.633 38.7224C517.905 38.7224 517.198 38.4867 516.513 38.0155C515.999 37.6728 515.634 37.2658 515.42 36.7946C515.292 36.5376 515.185 36.2163 515.099 35.8307C515.013 35.4452 514.949 35.0596 514.906 34.6741C514.863 34.2457 514.82 33.8387 514.778 33.4531C514.735 33.0676 514.713 32.7677 514.713 32.5535H513.235ZM487.211 17.0671C486.825 17.0671 486.461 17.0671 486.118 17.0671C485.818 17.0671 485.54 17.11 485.283 17.1957C484.683 17.2385 484.19 17.4955 483.805 17.9668C483.634 18.181 483.526 18.5023 483.484 18.9306C483.484 19.359 483.484 19.6161 483.484 19.7018V22.4006C483.441 22.7433 483.419 23.0646 483.419 23.3645C483.419 23.6215 483.419 23.8572 483.419 24.0714V24.8425C483.419 24.8425 483.419 24.971 483.419 25.228C483.419 25.485 483.419 25.7849 483.419 26.1276C483.462 26.4703 483.526 26.8131 483.612 27.1558C483.698 27.4985 483.848 27.7984 484.062 28.0554C484.405 28.4838 484.962 28.7408 485.733 28.8265C486.504 28.8693 487.275 28.8908 488.046 28.8908H488.11C489.224 28.8479 490.145 28.8479 490.873 28.8908C491.602 28.8908 492.544 28.8908 493.701 28.8908C494.043 28.8908 494.386 28.9122 494.729 28.955C495.114 28.955 495.479 28.9122 495.821 28.8265C496.164 28.7837 496.4 28.6766 496.528 28.5052C496.657 28.3339 496.764 28.1197 496.849 27.8626C496.935 27.5199 496.978 27.2415 496.978 27.0273C497.149 26.2133 497.235 25.2923 497.235 24.2641C497.235 23.5787 497.235 22.8933 497.235 22.2078C497.278 21.5224 497.278 20.837 497.235 20.1516C497.192 19.8088 497.171 19.4661 497.171 19.1234C497.214 18.7807 497.192 18.438 497.106 18.0953C496.935 17.624 496.657 17.367 496.271 17.3242C495.886 17.2385 495.5 17.1957 495.114 17.1957L487.211 17.0671ZM514.456 50.2889C514.456 49.5607 514.071 48.9823 513.3 48.554C512.529 48.1256 511.522 47.8043 510.279 47.5901C509.08 47.3759 507.709 47.2474 506.167 47.2045C504.668 47.1188 503.168 47.076 501.669 47.076C500.169 47.076 498.67 47.1188 497.171 47.2045C495.714 47.2474 494.386 47.3759 493.187 47.5901C492.03 47.8043 491.088 48.1256 490.359 48.554C489.631 48.9823 489.267 49.5607 489.267 50.2889C489.267 50.9315 489.631 51.467 490.359 51.8954C491.088 52.3238 492.03 52.6451 493.187 52.8593C494.386 53.0735 495.714 53.2234 497.171 53.3091C498.67 53.3948 500.169 53.4376 501.669 53.4376C503.168 53.4376 504.668 53.4376 506.167 53.4376C507.709 53.4376 509.08 53.3519 510.279 53.1806C511.522 53.0092 512.529 52.7094 513.3 52.281C514.071 51.8097 514.456 51.1457 514.456 50.2889Z" fill="white"/>
<mask id="mask0_161_208" style="mask-type:luminance" maskUnits="userSpaceOnUse" x="0" y="0" width="70" height="70">
<path d="M35.2973 67.627C39.5438 67.6326 43.7495 66.7988 47.6728 65.1737C51.596 63.5486 55.1594 61.1641 58.1582 58.1574C61.1649 55.1587 63.5493 51.5953 65.1744 47.672C66.7995 43.7488 67.6333 39.5431 67.6278 35.2966C67.6332 31.0501 66.7994 26.8444 65.1743 22.9212C63.5492 18.9979 61.1648 15.4345 58.1582 12.4357C55.1594 9.429 51.596 7.04458 47.6728 5.41947C43.7495 3.79435 39.5438 2.96059 35.2973 2.96609C31.0508 2.96068 26.8451 3.79448 22.9219 5.41959C18.9987 7.0447 15.4352 9.42907 12.4364 12.4357C9.4298 15.4345 7.04543 18.9979 5.42032 22.9212C3.79522 26.8444 2.96141 31.0501 2.96682 35.2966C2.96132 39.5431 3.79509 43.7488 5.4202 47.672C7.04531 51.5953 9.42973 55.1587 12.4364 58.1574C15.4352 61.1641 18.9987 63.5484 22.9219 65.1735C26.8451 66.7987 31.0508 67.6325 35.2973 67.627Z" fill="white"/>
<path fill-rule="evenodd" clip-rule="evenodd" d="M35 2.42354e-05C39.597 -0.00539315 44.1499 0.89746 48.397 2.65674C52.6441 4.41599 56.5017 6.99695 59.7484 10.2514C63.0028 13.4982 65.5839 17.3559 67.3431 21.603C69.1024 25.8501 70.0053 30.4029 70 35C70.0054 39.597 69.1025 44.1499 67.3433 48.397C65.584 52.6441 63.003 56.5018 59.7485 59.7485C56.5018 63.003 52.6441 65.584 48.397 67.3433C44.1499 69.1025 39.597 70.0054 34.9999 70C30.4029 70.0053 25.8501 69.1024 21.603 67.3431C17.3559 65.5839 13.4983 63.0029 10.2515 59.7485C6.99702 56.5018 4.41601 52.6441 2.65674 48.397C0.897455 44.1499 -0.00539822 39.597 2.42811e-05 34.9999C-0.00529239 30.4029 0.8976 25.8501 2.65686 21.603C4.41612 17.3559 6.99708 13.4982 10.2515 10.2515C13.4982 6.99708 17.3559 4.41612 21.603 2.65686C25.8501 0.897595 30.4029 -0.00529756 35 2.42354e-05ZM45.9617 8.53594C42.488 7.09702 38.7641 6.35878 35.0041 6.36366H34.9959C31.236 6.35886 27.5121 7.09714 24.0384 8.53606C20.5646 9.97499 17.4094 12.0862 14.7542 14.7483L14.7483 14.7542C12.0862 17.4094 9.97499 20.5646 8.53606 24.0384C7.09714 27.5121 6.35886 31.236 6.36366 34.9959V35.0041C6.35878 38.7641 7.09702 42.488 8.53594 45.9617C9.97486 49.4354 12.0861 52.5906 14.7483 55.2458L14.7542 55.2516C17.4094 57.9138 20.5646 60.025 24.0384 61.4639C27.5121 62.9029 31.236 63.6411 34.9959 63.6363H35.0041C38.7641 63.6412 42.488 62.903 45.9617 61.4641C49.4354 60.0251 52.5906 57.9139 55.2458 55.2517L55.2517 55.2458C57.9139 52.5906 60.0251 49.4354 61.4641 45.9617C62.903 42.488 63.6412 38.7641 63.6363 35.0041V34.9959C63.6411 31.236 62.9029 27.5121 61.4639 24.0384C60.025 20.5646 57.9138 17.4094 55.2517 14.7542L55.2458 14.7483C52.5906 12.0861 49.4354 9.97486 45.9617 8.53594Z" fill="white"/>
<path fill-rule="evenodd" clip-rule="evenodd" d="M53.6279 22.9048C54.8916 24.179 54.8916 26.2448 53.6279 27.519L34.2134 47.0953C32.9498 48.3695 30.901 48.3695 29.6374 47.0953L19.9302 37.3072C18.6665 36.033 18.6665 33.9671 19.9302 32.693C21.1938 31.4188 23.2426 31.4188 24.5062 32.693L31.9254 40.174L49.0519 22.9048C50.3155 21.6307 52.3643 21.6307 53.6279 22.9048Z" fill="black"/>
</mask>
<g mask="url(#mask0_161_208)">
<path d="M-3.55859 -3.55933H73.5601V73.5593H-3.55859V-3.55933Z" fill="#F8F8F8"/>
</g>
</svg>
