<svg width="431" height="70" viewBox="0 0 431 70" fill="none" xmlns="http://www.w3.org/2000/svg">
<mask id="mask0_161_206" style="mask-type:luminance" maskUnits="userSpaceOnUse" x="0" y="0" width="70" height="70">
<path d="M35.2973 67.627C39.5438 67.6326 43.7495 66.7988 47.6728 65.1737C51.596 63.5486 55.1594 61.1641 58.1582 58.1574C61.1649 55.1587 63.5493 51.5953 65.1744 47.672C66.7995 43.7488 67.6333 39.5431 67.6278 35.2966C67.6332 31.0501 66.7994 26.8444 65.1743 22.9212C63.5492 18.9979 61.1648 15.4345 58.1582 12.4357C55.1594 9.429 51.596 7.04458 47.6728 5.41947C43.7495 3.79435 39.5438 2.96059 35.2973 2.96609C31.0508 2.96068 26.8451 3.79448 22.9219 5.41959C18.9987 7.0447 15.4352 9.42907 12.4364 12.4357C9.4298 15.4345 7.04543 18.9979 5.42032 22.9212C3.79522 26.8444 2.96141 31.0501 2.96682 35.2966C2.96132 39.5431 3.79509 43.7488 5.4202 47.672C7.04531 51.5953 9.42973 55.1587 12.4364 58.1574C15.4352 61.1641 18.9987 63.5484 22.9219 65.1735C26.8451 66.7987 31.0508 67.6325 35.2973 67.627Z" fill="white"/>
<path fill-rule="evenodd" clip-rule="evenodd" d="M35 2.42354e-05C39.597 -0.00539315 44.1499 0.89746 48.397 2.65674C52.6441 4.41599 56.5017 6.99695 59.7484 10.2514C63.0028 13.4982 65.5839 17.3559 67.3431 21.603C69.1024 25.8501 70.0053 30.4029 70 35C70.0054 39.597 69.1025 44.1499 67.3433 48.397C65.584 52.6441 63.003 56.5018 59.7485 59.7485C56.5018 63.003 52.6441 65.584 48.397 67.3433C44.1499 69.1025 39.597 70.0054 34.9999 70C30.4029 70.0053 25.8501 69.1024 21.603 67.3431C17.3559 65.5839 13.4983 63.0029 10.2515 59.7485C6.99702 56.5018 4.41601 52.6441 2.65674 48.397C0.897455 44.1499 -0.00539822 39.597 2.42811e-05 34.9999C-0.00529239 30.4029 0.8976 25.8501 2.65686 21.603C4.41612 17.3559 6.99708 13.4982 10.2515 10.2515C13.4982 6.99708 17.3559 4.41612 21.603 2.65686C25.8501 0.897595 30.4029 -0.00529756 35 2.42354e-05ZM45.9617 8.53594C42.488 7.09702 38.7641 6.35878 35.0041 6.36366H34.9959C31.236 6.35886 27.5121 7.09714 24.0384 8.53606C20.5646 9.97499 17.4094 12.0862 14.7542 14.7483L14.7483 14.7542C12.0862 17.4094 9.97499 20.5646 8.53606 24.0384C7.09714 27.5121 6.35886 31.236 6.36366 34.9959V35.0041C6.35878 38.7641 7.09702 42.488 8.53594 45.9617C9.97486 49.4354 12.0861 52.5906 14.7483 55.2458L14.7542 55.2516C17.4094 57.9138 20.5646 60.025 24.0384 61.4639C27.5121 62.9029 31.236 63.6411 34.9959 63.6363H35.0041C38.7641 63.6412 42.488 62.903 45.9617 61.4641C49.4354 60.0251 52.5906 57.9139 55.2458 55.2517L55.2517 55.2458C57.9139 52.5906 60.0251 49.4354 61.4641 45.9617C62.903 42.488 63.6412 38.7641 63.6363 35.0041V34.9959C63.6411 31.236 62.9029 27.5121 61.4639 24.0384C60.025 20.5646 57.9138 17.4094 55.2517 14.7542L55.2458 14.7483C52.5906 12.0861 49.4354 9.97486 45.9617 8.53594Z" fill="white"/>
<path fill-rule="evenodd" clip-rule="evenodd" d="M53.6279 22.9048C54.8916 24.179 54.8916 26.2448 53.6279 27.519L34.2134 47.0953C32.9498 48.3695 30.901 48.3695 29.6374 47.0953L19.9302 37.3072C18.6665 36.033 18.6665 33.9671 19.9302 32.693C21.1938 31.4188 23.2426 31.4188 24.5062 32.693L31.9254 40.174L49.0519 22.9048C50.3155 21.6307 52.3643 21.6307 53.6279 22.9048Z" fill="black"/>
</mask>
<g mask="url(#mask0_161_206)">
<path d="M-3.55859 -3.55933H73.5601V73.5593H-3.55859V-3.55933Z" fill="#F8F8F8"/>
</g>
<path d="M95.446 20.6014C94.6749 20.6014 93.8182 20.4086 92.8757 20.023C91.9761 19.6375 91.2906 19.0592 90.8194 18.2881C90.391 17.6026 90.1982 16.7244 90.2411 15.6534C90.3268 14.5396 90.6909 13.7043 91.3335 13.1474C91.8476 12.719 92.4259 12.4191 93.0685 12.2477C93.7539 12.0335 94.4607 11.905 95.189 11.8622C95.9173 11.7765 96.6241 11.7337 97.3096 11.7337C98.0378 11.7337 98.7232 11.7337 99.3658 11.7337H101.486C101.829 11.6908 102.172 11.6908 102.515 11.7337C102.9 11.7337 103.286 11.7337 103.671 11.7337C104.014 11.7337 104.806 11.7337 106.049 11.7337C107.291 11.7337 108.641 11.7337 110.097 11.7337C111.554 11.7337 112.903 11.7337 114.145 11.7337C115.388 11.7337 116.18 11.7337 116.523 11.7337C117.166 11.7765 117.808 11.7979 118.451 11.7979C119.136 11.7551 119.822 11.7337 120.507 11.7337C121.235 11.7337 122.006 11.7551 122.82 11.7979C123.634 11.8408 124.405 11.9693 125.134 12.1835C125.862 12.3977 126.526 12.7404 127.126 13.2116C127.725 13.64 128.154 14.2826 128.411 15.1394C128.754 16.296 128.946 17.4741 128.989 18.6736C129.075 19.8303 129.118 21.094 129.118 22.4649C129.075 23.4502 129.053 24.2641 129.053 24.9067C129.096 25.5065 129.118 26.299 129.118 27.2843C129.118 27.7555 129.118 28.2268 129.118 28.698C129.118 29.1692 129.139 29.6404 129.182 30.1117C129.182 30.6686 129.182 31.2898 129.182 31.9752C129.182 32.6606 129.182 33.3675 129.182 34.0957C129.182 34.7812 129.16 35.4666 129.118 36.152C129.118 36.8374 129.096 37.4586 129.053 38.0155C128.882 38.6581 128.754 39.3007 128.668 39.9433C128.625 40.543 128.432 41.1642 128.09 41.8068C127.875 42.1923 127.533 42.5779 127.061 42.9634C126.847 43.1776 126.526 43.349 126.097 43.4775C125.712 43.5632 125.348 43.606 125.005 43.606C124.405 43.606 123.891 43.5418 123.463 43.4133C122.306 43.0277 121.514 42.4922 121.085 41.8068C120.7 41.1214 120.464 40.286 120.378 39.3007C120.336 38.8723 120.293 38.2725 120.25 37.5014C120.207 36.7303 120.164 35.9378 120.121 35.1239C120.121 34.3099 120.121 33.5602 120.121 32.8748C120.121 32.1894 120.121 31.6967 120.121 31.3969C120.036 29.9832 119.993 28.698 119.993 27.5413C119.993 26.3418 119.95 25.0567 119.864 23.6858C119.822 23.3002 119.822 22.9361 119.864 22.5934C119.907 22.2078 119.843 21.8223 119.672 21.4367C119.543 21.1369 119.35 20.9441 119.093 20.8584C118.879 20.7299 118.622 20.6656 118.322 20.6656C118.022 20.6228 117.722 20.6228 117.423 20.6656C117.123 20.6656 116.844 20.6442 116.587 20.6014C116.116 20.5585 115.752 20.5585 115.495 20.6014C115.281 20.6014 114.938 20.6014 114.467 20.6014H100.33C100.073 20.6014 99.7728 20.6014 99.4301 20.6014C99.0874 20.5585 98.7447 20.5585 98.4019 20.6014C97.9307 20.6871 97.4381 20.7085 96.924 20.6656C96.4099 20.6228 95.9173 20.6014 95.446 20.6014ZM92.8114 55.8795C92.126 55.8366 91.4406 55.7509 90.7552 55.6224C90.1126 55.4511 89.5342 55.2369 89.0202 54.9798C88.5061 54.68 88.0777 54.273 87.735 53.7589C87.4351 53.2448 87.2852 52.5594 87.2852 51.7026C87.2852 50.8459 87.5636 50.0962 88.1205 49.4536C88.4633 49.1109 88.8916 48.8538 89.4057 48.6825C89.9198 48.5111 90.4124 48.3826 90.8837 48.2969C91.3549 48.2112 91.7619 48.1684 92.1046 48.1684C92.4901 48.1684 92.7043 48.1684 92.7472 48.1684L127.897 48.2327C129.011 48.2327 130.017 48.2541 130.917 48.2969C131.859 48.2969 132.695 48.5968 133.423 49.1965C134.323 50.0105 134.772 50.9315 134.772 51.9597C134.772 52.6023 134.58 53.202 134.194 53.7589C133.809 54.273 133.294 54.6371 132.652 54.8513C131.795 55.194 130.895 55.4296 129.953 55.5582C129.053 55.6867 128.154 55.7724 127.254 55.8152C124.127 55.9437 121.042 55.9866 118.001 55.9437C114.959 55.9009 112.003 55.8795 109.133 55.8795C106.049 55.8795 103.029 55.9009 100.073 55.9437C97.1596 55.9866 94.7392 55.9651 92.8114 55.8795ZM141.924 59.1567C141.881 59.1567 141.817 59.1138 141.731 59.0281C141.303 58.6854 141.003 58.1928 140.832 57.5502C140.703 56.8648 140.639 56.2864 140.639 55.8152C140.596 55.0441 140.532 54.273 140.446 53.5019C140.403 52.7308 140.382 51.9811 140.382 51.2528C140.382 50.139 140.382 49.0466 140.382 47.9756C140.382 46.9046 140.489 45.8337 140.703 44.7627C140.832 44.0773 141.046 43.5418 141.346 43.1562C141.646 42.7278 142.117 42.3851 142.76 42.1281C143.959 41.6568 145.159 41.4212 146.358 41.4212H176.624C177.438 41.4641 178.273 41.5283 179.13 41.614C179.987 41.6997 180.801 41.9139 181.572 42.2566C182.429 42.5993 182.986 43.1776 183.243 43.9916C183.543 44.7627 183.735 45.5766 183.821 46.4334C183.864 47.1617 183.885 48.0185 183.885 49.0038C183.928 49.9462 183.928 50.9101 183.885 51.8954C183.842 52.8807 183.778 53.866 183.692 54.8513C183.607 55.7938 183.457 56.6506 183.243 57.4217C183.114 57.8929 182.964 58.2999 182.793 58.6426C182.621 59.0281 182.279 59.3066 181.765 59.478C181.293 59.6493 180.801 59.7564 180.287 59.7992C179.816 59.8421 179.344 59.8635 178.873 59.8635L145.394 59.735C144.837 59.6921 144.238 59.6707 143.595 59.6707C142.952 59.6707 142.395 59.4994 141.924 59.1567ZM164.543 36.4733C164.029 36.6875 163.494 36.8374 162.937 36.9231C162.423 36.966 161.887 36.9874 161.33 36.9874H147.45C146.508 36.9874 145.544 36.9874 144.559 36.9874C143.574 36.9874 142.588 36.9445 141.603 36.8589C140.66 36.816 139.889 36.4733 139.29 35.8307C138.69 35.1881 138.347 34.3313 138.261 33.2604C138.219 32.8748 138.176 32.3179 138.133 31.5896C138.133 30.8614 138.112 30.1117 138.069 29.3406C138.069 28.5695 138.069 27.8412 138.069 27.1558C138.069 26.4703 138.069 25.9563 138.069 25.6136V24.971C138.026 24.4997 138.026 23.9857 138.069 23.4288C138.112 22.8719 138.326 22.3578 138.711 21.8865C139.311 21.1583 140.125 20.7299 141.153 20.6014C142.224 20.43 143.252 20.3443 144.238 20.3443H158.76V16.5531H145.908C145.651 16.5531 145.394 16.5745 145.137 16.6173C144.88 16.6173 144.623 16.6173 144.366 16.6173C144.109 16.6602 143.831 16.6816 143.531 16.6816C143.274 16.6816 142.995 16.6816 142.695 16.6816C141.839 16.6816 141.089 16.6173 140.446 16.4888C139.718 16.3175 139.118 15.8462 138.647 15.0751C138.347 14.561 138.154 14.0041 138.069 13.4044C137.983 12.7618 138.026 12.162 138.197 11.6051C138.411 10.8769 138.904 10.3414 139.675 9.99867C140.446 9.61312 141.089 9.3775 141.603 9.29183C142.246 9.16331 142.952 9.09905 143.723 9.09905H144.88C145.094 9.09905 145.309 9.12047 145.523 9.16331C145.737 9.16331 145.951 9.16331 146.165 9.16331H159.21C161.437 9.16331 163.151 9.61312 164.351 10.5127C165.593 11.4124 166.214 12.6761 166.214 14.304V21.1797C166.214 21.8223 166.064 22.6148 165.764 23.5573C165.507 24.4997 165.036 25.1852 164.351 25.6136C163.794 25.9563 163.215 26.1705 162.616 26.2561C162.059 26.299 161.48 26.299 160.881 26.2561H146.037V30.4972H160.688C161.116 30.4972 161.545 30.4972 161.973 30.4972C162.401 30.4972 162.83 30.5186 163.258 30.5615C163.986 30.6043 164.586 30.8614 165.057 31.3326C165.571 31.8038 165.936 32.3607 166.15 33.0033C166.664 34.6741 166.128 35.8307 164.543 36.4733ZM183.564 33.5817C183.564 33.5817 183.543 33.7316 183.5 34.0315C183.457 34.3313 183.371 34.6741 183.243 35.0596C183.114 35.4452 182.921 35.8521 182.664 36.2805C182.407 36.6661 182.065 36.9874 181.636 37.2444C181.036 37.5871 180.437 37.7585 179.837 37.7585C179.109 37.7585 178.402 37.5229 177.716 37.0516C177.245 36.7089 176.881 36.2591 176.624 35.7022C176.281 35.0596 176.046 34.3528 175.917 33.5817C175.831 32.8105 175.767 32.018 175.724 31.2041C175.724 30.3901 175.746 29.5976 175.789 28.8265C175.831 28.0126 175.853 27.2415 175.853 26.5132C175.896 24.6711 175.917 22.8504 175.917 21.0512C175.917 19.2091 175.917 17.3884 175.917 15.5892V14.7538C175.874 14.2826 175.853 13.7899 175.853 13.2759C175.896 12.719 175.981 12.2049 176.11 11.7337C176.281 11.0911 176.667 10.4056 177.267 9.67738C177.609 9.24899 178.081 8.94911 178.68 8.77775C179.323 8.56356 180.008 8.4993 180.737 8.58498C182.022 8.79917 182.879 9.35608 183.307 10.2557C183.564 10.8126 183.671 11.498 183.628 12.312C183.628 13.1259 183.607 13.6186 183.564 13.7899V33.5817ZM148.029 51.6384C148.029 51.8526 148.029 52.0668 148.029 52.281C148.072 52.4523 148.157 52.5808 148.286 52.6665C148.372 52.7522 148.5 52.8165 148.671 52.8593C148.886 52.8593 149.1 52.8593 149.314 52.8593C149.528 52.8593 149.785 52.8379 150.085 52.795H170.198C170.798 52.8379 171.376 52.8807 171.933 52.9236C172.404 52.9664 172.897 52.9878 173.411 52.9878C173.925 52.9878 174.396 52.945 174.825 52.8593C175.253 52.8165 175.51 52.7094 175.596 52.538C175.682 52.3238 175.746 52.0239 175.789 51.6384C175.831 51.2957 175.853 50.9101 175.853 50.4817C175.853 50.0105 175.724 49.6035 175.467 49.2608C175.167 48.9181 174.739 48.7467 174.182 48.7467C173.668 48.7039 173.197 48.7039 172.768 48.7467H154.905C153.962 48.6611 153.041 48.6396 152.141 48.6825C151.242 48.6825 150.321 48.7039 149.378 48.7467C149.036 48.7467 148.757 48.7682 148.543 48.811C148.372 48.811 148.243 49.0038 148.157 49.3893C148.072 49.6892 148.029 49.9891 148.029 50.2889C148.029 50.546 148.029 50.803 148.029 51.06C148.072 51.1457 148.072 51.2314 148.029 51.3171C148.029 51.4028 148.029 51.5099 148.029 51.6384ZM232.539 49.8391C232.668 50.0533 232.775 50.2889 232.86 50.546C232.989 50.7602 233.096 51.0172 233.182 51.3171C233.31 51.7883 233.396 52.3024 233.439 52.8593C233.482 53.4162 233.353 53.9945 233.053 54.5943C232.368 55.9223 231.425 56.6291 230.226 56.7148H230.162C229.391 56.7148 228.705 56.4578 228.105 55.9437C227.548 55.4296 226.949 54.8085 226.306 54.0802C225.664 53.3948 225.064 52.6879 224.507 51.9597C223.95 51.2314 223.457 50.5888 223.029 50.0319C222.986 49.9462 222.922 49.8606 222.836 49.7749C222.793 49.6464 222.729 49.4964 222.643 49.3251C221.572 47.6972 220.78 46.5834 220.266 45.9836C219.752 45.3839 219.452 45.0626 219.366 45.0197C219.28 45.1054 219.066 45.341 218.724 45.7266C218.424 46.0693 218.231 46.2835 218.145 46.3692C218.06 46.4977 217.974 46.6262 217.888 46.7547C217.803 46.8404 217.717 46.9261 217.631 47.0117C217.246 47.4401 216.924 47.8899 216.667 48.3612C216.453 48.7896 216.175 49.2394 215.832 49.7106C215.489 50.1818 215.125 50.6317 214.74 51.06C214.397 51.4884 214.033 51.9168 213.647 52.3452C213.476 52.5166 213.304 52.7308 213.133 52.9878C212.49 53.7161 211.805 54.4229 211.077 55.1084C210.391 55.7938 209.577 56.3079 208.635 56.6506C208.249 56.8219 207.821 56.9076 207.35 56.9076C206.364 56.9076 205.486 56.522 204.715 55.7509C203.987 55.0227 203.623 54.1231 203.623 53.0521C203.666 52.281 203.858 51.5527 204.201 50.8673C204.587 50.1818 204.951 49.5393 205.293 48.9395L205.422 48.6825C205.55 48.4683 205.679 48.2755 205.808 48.1041C205.936 47.9328 206.065 47.7614 206.193 47.5901C206.279 47.4616 206.343 47.3545 206.386 47.2688C206.472 47.1403 206.557 47.0332 206.643 46.9475C207.157 46.1764 207.607 45.5552 207.992 45.084C208.078 44.9983 208.121 44.934 208.121 44.8912C208.164 44.8055 208.228 44.7198 208.314 44.6342C208.399 44.4628 208.485 44.3557 208.571 44.3129L208.699 44.1201C208.871 43.9059 209.02 43.7131 209.149 43.5418C209.278 43.3276 209.406 43.1134 209.535 42.8992C209.834 42.4279 210.091 41.9996 210.306 41.614C210.563 41.1856 210.798 40.7786 211.012 40.3931C211.27 39.9219 211.527 39.472 211.784 39.0437C212.041 38.5724 212.341 38.1226 212.683 37.6942C212.897 37.3515 213.112 37.0088 213.326 36.6661C213.583 36.3234 213.818 35.9806 214.033 35.6379L214.29 35.2524C214.59 34.7812 214.804 34.3742 214.932 34.0315C215.104 33.6459 215.211 33.2175 215.254 32.7463C215.339 32.0609 215.382 31.3969 215.382 30.7543C215.382 30.0688 215.382 29.3406 215.382 28.5695V16.7458C215.382 16.3175 215.382 15.9105 215.382 15.5249C215.382 15.1394 215.404 14.7324 215.446 14.304C215.446 13.8328 215.489 13.3615 215.575 12.8903C215.661 12.4191 215.768 11.9907 215.896 11.6051C216.11 11.0482 216.389 10.4913 216.732 9.93441C216.946 9.5917 217.246 9.33466 217.631 9.16331C218.06 8.99195 218.509 8.86343 218.981 8.77775L219.109 8.7135C219.837 8.4993 220.608 8.54214 221.422 8.84201C221.851 9.01337 222.172 9.20615 222.386 9.42034C222.6 9.5917 222.772 9.82731 222.9 10.1272C223.029 10.4271 223.157 10.7484 223.286 11.0911C223.671 11.905 223.929 12.9546 224.057 14.2398C224.143 15.1394 224.207 16.1461 224.25 17.2599C224.293 18.3309 224.335 19.4233 224.378 20.5371C224.421 21.6509 224.443 22.7648 224.443 23.8786C224.443 24.9496 224.443 25.9349 224.443 26.8345C224.485 27.9483 224.507 29.0621 224.507 30.1759C224.507 31.2469 224.55 32.3179 224.635 33.3889C224.678 34.3313 224.892 35.2095 225.278 36.0235C225.706 36.8374 226.156 37.6514 226.627 38.4653C227.099 39.4078 227.548 40.3502 227.977 41.2927C228.448 42.1923 228.962 43.092 229.519 43.9916C229.733 44.42 229.947 44.8484 230.162 45.2768C230.419 45.6623 230.676 46.0693 230.933 46.4977C231.018 46.7119 231.104 46.9046 231.19 47.076C231.318 47.2474 231.425 47.4187 231.511 47.5901C231.597 47.8043 231.704 48.0399 231.832 48.2969C231.961 48.5111 232.068 48.7253 232.154 48.9395L232.346 49.4536L232.539 49.8391ZM249.696 28.1839C249.91 28.1839 250.103 28.2053 250.275 28.2482C250.489 28.291 250.703 28.3124 250.917 28.3124C251.131 28.3553 251.367 28.3981 251.624 28.4409C251.881 28.4409 252.138 28.4624 252.395 28.5052C252.866 28.5909 253.338 28.7622 253.809 29.0193C254.28 29.2335 254.623 29.5762 254.837 30.0474C255.137 30.5186 255.287 31.0756 255.287 31.7181C255.287 32.0609 255.265 32.3822 255.223 32.682C255.223 32.9391 255.18 33.2389 255.094 33.5817C255.008 33.9244 254.901 34.2885 254.773 34.6741C254.687 35.0596 254.494 35.3595 254.194 35.5737C253.595 36.0021 253.016 36.2805 252.459 36.409C251.774 36.4947 250.939 36.5161 249.953 36.4733C248.968 36.4305 248.133 36.4305 247.447 36.4733C247.404 36.4733 247.362 36.4947 247.319 36.5376H247.254L247.19 36.6018V36.7946C247.19 37.3087 247.19 37.9298 247.19 38.6581C247.19 39.3435 247.19 40.0718 247.19 40.8429C247.19 41.5712 247.19 42.2994 247.19 43.0277C247.19 43.7131 247.19 44.3343 247.19 44.8912C247.276 47.1188 247.276 49.3036 247.19 51.4456V52.3452C247.19 52.9021 247.169 53.5233 247.126 54.2087C247.126 54.8513 247.083 55.4939 246.997 56.1365C246.912 56.7791 246.762 57.4003 246.548 58C246.333 58.5569 246.034 59.0281 245.648 59.4137C245.134 60.0134 244.448 60.3133 243.592 60.3133C243.592 60.3133 243.549 60.2919 243.463 60.2491C242.435 60.2062 241.6 59.9063 240.957 59.3494C240.357 58.7925 239.886 58.1071 239.543 57.2932C239.244 56.4792 239.051 55.6438 238.965 54.7871C238.879 53.8874 238.837 53.0949 238.837 52.4095V14.2398C238.837 14.1969 238.837 14.0041 238.837 13.6614C238.837 13.2759 238.879 12.8475 238.965 12.3762C239.051 11.8622 239.179 11.3481 239.351 10.834C239.565 10.2771 239.843 9.82731 240.186 9.4846C240.486 9.18473 240.914 8.97053 241.471 8.84201C242.071 8.67065 242.606 8.58498 243.078 8.58498C244.02 8.58498 244.813 8.90627 245.455 9.54886C246.055 10.1486 246.398 10.7912 246.483 11.4766C246.612 12.1192 246.719 12.8046 246.805 13.5329C246.847 13.7043 246.869 13.9613 246.869 14.304C246.955 15.0323 246.997 15.782 246.997 16.5531C247.04 17.3242 247.083 18.0953 247.126 18.8664C247.126 19.3376 247.126 19.8088 247.126 20.2801C247.169 20.7085 247.19 21.1583 247.19 21.6295C247.147 21.8866 247.126 22.1436 247.126 22.4006C247.169 22.6148 247.19 22.829 247.19 23.0432V26.6417C247.19 26.8559 247.19 27.0915 247.19 27.3485C247.19 27.6056 247.233 27.8412 247.319 28.0554C247.319 28.0982 247.533 28.1197 247.961 28.1197C248.39 28.1197 248.625 28.1197 248.668 28.1197C249.054 28.2053 249.354 28.2268 249.568 28.1839H249.696ZM277.654 16.4246C277.654 16.4246 277.632 16.6816 277.59 17.1957C277.59 17.7097 277.59 18.2881 277.59 18.9306C277.59 19.5732 277.59 20.173 277.59 20.7299C277.632 21.2868 277.654 21.6081 277.654 21.6938C277.868 21.908 278.254 22.2721 278.811 22.7862C279.367 23.2574 279.839 23.6644 280.224 24.0071C280.653 24.3498 281.081 24.7354 281.509 25.1637C281.981 25.5493 282.452 25.9777 282.923 26.4489C283.223 26.7488 283.501 27.0487 283.758 27.3485C284.016 27.6056 284.251 27.8412 284.465 28.0554C285.279 28.8693 286.093 29.7475 286.907 30.69C287.721 31.6325 288.278 32.5964 288.578 33.5817C288.706 33.9672 288.728 34.3956 288.642 34.8668C288.556 35.3381 288.278 35.745 287.807 36.0877C287.079 36.5161 286.307 36.7303 285.493 36.7303C284.551 36.7303 283.651 36.5376 282.795 36.152C281.938 35.7665 281.252 35.3809 280.738 34.9953C279.924 34.3956 279.175 33.7744 278.489 33.1318C277.804 32.4464 277.118 31.761 276.433 31.0756C275.962 30.6043 275.426 30.0688 274.827 29.4691C274.227 28.8265 273.627 28.2696 273.027 27.7984L271.292 29.5333C270.992 29.8332 270.693 30.1331 270.393 30.433C270.093 30.69 269.814 30.9685 269.557 31.2683C269 31.8681 268.422 32.4893 267.822 33.1318C267.223 33.7316 266.537 34.3099 265.766 34.8668C264.01 36.152 262.36 36.7946 260.818 36.7946C260.604 36.7946 260.411 36.7946 260.24 36.7946C260.111 36.7946 259.94 36.7518 259.726 36.6661C258.783 36.4519 258.162 36.0663 257.862 35.5094C257.562 35.0382 257.455 34.5027 257.541 33.9029C257.669 33.3032 257.862 32.7677 258.119 32.2965C258.462 31.8252 258.847 31.3754 259.276 30.947C259.704 30.4758 260.133 30.0046 260.561 29.5333C260.947 29.105 261.546 28.5052 262.36 27.7341C263.217 26.9202 264.074 26.1062 264.931 25.2923C265.787 24.4355 266.58 23.6644 267.308 22.979C268.036 22.2935 268.486 21.8651 268.658 21.6938V16.4246H264.545C264.031 16.4246 263.431 16.446 262.746 16.4888C262.06 16.4888 261.375 16.446 260.69 16.3603C260.047 16.2746 259.447 16.1033 258.89 15.8462C258.333 15.5463 257.926 15.0751 257.669 14.4325C257.455 13.9613 257.305 13.4258 257.22 12.8261C257.177 12.2263 257.22 11.6694 257.348 11.1553C257.519 10.5556 257.905 10.1486 258.505 9.93441C259.105 9.67738 259.683 9.50602 260.24 9.42034C260.325 9.42034 260.668 9.42034 261.268 9.42034C261.91 9.42034 262.596 9.42034 263.324 9.42034C264.052 9.42034 264.738 9.42034 265.38 9.42034C266.023 9.42034 266.409 9.39892 266.537 9.35608H281.574C283.287 9.35608 284.722 9.46318 285.879 9.67738C287.079 9.89157 288.042 10.4271 288.771 11.2838C288.985 11.5409 289.113 11.8836 289.156 12.312C289.242 12.7404 289.242 13.1902 289.156 13.6614C289.113 14.0898 288.985 14.4968 288.771 14.8823C288.599 15.2679 288.342 15.5463 288 15.7177C287.657 15.8462 287.25 15.9962 286.779 16.1675C286.307 16.296 285.9 16.3817 285.558 16.4246C284.958 16.4674 284.337 16.4888 283.694 16.4888C283.094 16.446 282.495 16.4246 281.895 16.4246H277.654ZM302.265 52.4095C302.265 52.4095 302.394 52.4523 302.651 52.538C302.95 52.6237 303.272 52.7736 303.614 52.9878C303.957 53.1592 304.278 53.4162 304.578 53.7589C304.878 54.0588 305.071 54.4229 305.157 54.8513C305.371 56.4792 305.092 57.743 304.321 58.6426C303.807 59.2423 303.25 59.6065 302.651 59.735C302.051 59.8635 301.73 59.9278 301.687 59.9278H268.208C266.451 59.9278 265.081 59.6493 264.095 59.0924C263.11 58.5783 262.617 57.8286 262.617 56.8433V47.7186C262.617 47.4616 262.596 47.1403 262.553 46.7547C262.553 46.3692 262.553 45.9622 262.553 45.5338C262.553 45.0626 262.553 44.6342 262.553 44.2486C262.596 43.8631 262.617 43.5418 262.617 43.2847C262.703 42.3851 263.131 41.6568 263.903 41.0999C264.674 40.543 265.552 40.2646 266.537 40.2646C266.751 40.2646 267.008 40.286 267.308 40.3288C267.651 40.3288 267.929 40.3717 268.144 40.4573C268.701 40.6287 269.15 40.9286 269.493 41.357C269.836 41.7425 270.093 42.1923 270.264 42.7064C270.435 43.2205 270.543 43.7774 270.585 44.3771C270.628 44.934 270.671 45.4481 270.714 45.9193C270.714 46.0907 270.714 46.4977 270.714 47.1403C270.714 47.7828 270.714 48.4683 270.714 49.1965C270.714 49.9248 270.714 50.5888 270.714 51.1886C270.714 51.7883 270.714 52.1524 270.714 52.281C270.842 52.3238 271.185 52.3881 271.742 52.4737C272.342 52.5166 273.434 52.538 275.019 52.538C276.39 52.538 277.611 52.5166 278.682 52.4737C279.753 52.4309 280.31 52.4095 280.353 52.4095H302.265ZM303.357 35.5094C303.357 35.5094 303.336 35.6594 303.293 35.9592C303.25 36.2591 303.165 36.6018 303.036 36.9874C302.908 37.3729 302.715 37.7799 302.458 38.2083C302.201 38.5938 301.858 38.9151 301.43 39.1722C300.83 39.5149 300.23 39.6862 299.63 39.6862C298.902 39.6862 298.195 39.4506 297.51 38.9794C297.039 38.6367 296.675 38.1869 296.417 37.63C296.075 36.9874 295.839 36.2805 295.711 35.5094C295.625 34.7383 295.561 33.9458 295.518 33.1318C295.518 32.3179 295.539 31.5254 295.582 30.7543C295.625 29.9403 295.646 29.1692 295.646 28.4409C295.646 27.5413 295.646 26.5346 295.646 25.4208C295.689 24.307 295.711 23.1717 295.711 22.0151C295.711 20.8584 295.711 19.7232 295.711 18.6094C295.711 17.4955 295.711 16.4888 295.711 15.5892V14.7538C295.668 14.2826 295.646 13.7899 295.646 13.2759C295.689 12.719 295.775 12.2049 295.903 11.7337C296.075 11.0911 296.46 10.4056 297.06 9.67738C297.403 9.24899 297.874 8.94911 298.474 8.77775C299.116 8.56356 299.802 8.4993 300.53 8.58498C301.815 8.79917 302.672 9.35608 303.1 10.2557C303.357 10.8126 303.465 11.498 303.422 12.312C303.422 13.1259 303.4 13.6186 303.357 13.7899V35.5094ZM355.267 16.9386C354.539 16.9386 354.025 16.96 353.725 17.0029C353.468 17.0029 353.061 16.9815 352.504 16.9386C352.504 17.4099 352.483 17.9668 352.44 18.6094C352.44 19.2519 352.44 19.8945 352.44 20.5371C352.44 21.1797 352.44 21.8223 352.44 22.4649C352.44 23.0646 352.44 23.5787 352.44 24.0071C353.383 25.0352 354.411 26.1919 355.525 27.4771C356.638 28.7194 357.688 29.8761 358.673 30.947C359.187 31.5468 359.616 32.3393 359.958 33.3246C360.301 34.3099 360.344 35.231 360.087 36.0877C359.873 36.816 359.38 37.3087 358.609 37.5657C357.881 37.8227 357.195 37.8227 356.553 37.5657C355.567 37.1801 354.732 36.6447 354.047 35.9592C353.404 35.2738 352.719 34.5241 351.99 33.7102L348.906 30.6257L344.086 36.2805C343.401 37.0088 342.758 37.5657 342.159 37.9513C341.602 38.294 341.002 38.4653 340.359 38.4653C339.674 38.4653 339.117 38.3154 338.689 38.0155C338.26 37.7156 337.96 37.3301 337.789 36.8589C337.661 36.3876 337.618 35.8736 337.661 35.3166C337.746 34.7169 337.918 34.1386 338.175 33.5817C338.26 33.3675 338.346 33.1747 338.432 33.0033C338.56 32.7891 338.667 32.5749 338.753 32.3607C338.496 32.0609 338.217 31.761 337.918 31.4611C337.661 31.1612 337.361 30.8399 337.018 30.4972L331.299 36.7303C330.614 37.4586 330.035 37.9298 329.564 38.144C329.093 38.3582 328.536 38.4653 327.893 38.4653C327.208 38.4653 326.672 38.2725 326.287 37.887C325.901 37.5014 325.644 37.0302 325.516 36.4733C325.387 35.9164 325.366 35.3166 325.451 34.6741C325.58 34.0315 325.816 33.4531 326.158 32.9391C327.144 31.3969 328.236 29.8975 329.435 28.4409C330.635 26.9844 331.856 25.5065 333.098 24.0071V16.9386H331.427C330.956 16.9386 330.442 16.96 329.885 17.0029C329.328 17.0457 328.771 17.0243 328.215 16.9386C327.658 16.8529 327.144 16.6816 326.672 16.4246C326.201 16.1247 325.858 15.6534 325.644 15.0109C325.43 14.5396 325.344 14.0256 325.387 13.4686C325.473 12.8689 325.644 12.3334 325.901 11.8622C326.115 11.4338 326.501 11.1125 327.058 10.8983C327.615 10.6413 328.107 10.4699 328.536 10.3842C328.836 10.3414 329.2 10.2985 329.628 10.2557C330.057 10.2129 330.678 10.1914 331.492 10.1914C332.349 10.1486 333.441 10.1272 334.769 10.1272C336.14 10.1272 337.896 10.1272 340.038 10.1272C340.381 10.0843 340.745 10.0843 341.131 10.1272C341.516 10.1272 341.88 10.1272 342.223 10.1272H344.215H344.472H355.01C355.739 10.1272 356.338 10.1486 356.81 10.1914C357.324 10.2343 357.752 10.32 358.095 10.4485C358.48 10.577 358.802 10.7698 359.059 11.0268C359.359 11.2838 359.659 11.6051 359.958 11.9907C360.13 12.2477 360.237 12.5904 360.28 13.0188C360.365 13.4044 360.365 13.8328 360.28 14.304C360.237 14.7324 360.13 15.1394 359.958 15.5249C359.787 15.9105 359.573 16.1675 359.316 16.296C359.016 16.4246 358.673 16.5745 358.288 16.7458C357.902 16.8744 357.538 16.9386 357.195 16.9386C356.724 16.9815 356.403 17.0029 356.231 17.0029C356.103 16.96 355.782 16.9386 355.267 16.9386ZM365.292 42.7707C366.577 42.7278 367.584 42.8349 368.312 43.092C369.083 43.349 369.683 43.6917 370.111 44.1201C370.54 44.5485 370.818 45.0197 370.947 45.5338C371.075 46.0479 371.139 46.5619 371.139 47.076V54.53C371.225 55.4725 371.225 56.4149 371.139 57.3574C371.054 58.257 370.69 58.9853 370.047 59.5422C369.447 60.0991 368.655 60.3776 367.669 60.3776C367.455 60.3776 367.07 60.3562 366.513 60.3133C365.956 60.3133 365.57 60.2705 365.356 60.1848C364.799 60.0134 364.349 59.7564 364.007 59.4137C363.707 59.071 363.471 58.6854 363.3 58.257C363.128 57.8286 363.021 57.3788 362.979 56.9076C362.936 56.3935 362.893 55.9009 362.85 55.4296C362.85 55.2583 362.829 54.937 362.786 54.4658C362.786 53.9517 362.764 53.4376 362.722 52.9236C362.722 52.3666 362.7 51.8526 362.657 51.3813C362.657 50.9101 362.636 50.5888 362.593 50.4175C362.464 50.3746 362.1 50.3318 361.501 50.2889C360.944 50.2461 359.873 50.2247 358.288 50.2247C356.917 50.2247 356.06 50.2461 355.717 50.2889C355.417 50.2889 355.246 50.3104 355.203 50.3532H332.006L331.942 50.2889C331.942 50.2889 331.792 50.2461 331.492 50.1604C331.235 50.0747 330.935 49.9462 330.592 49.7749C330.249 49.6035 329.907 49.3679 329.564 49.068C329.264 48.7682 329.093 48.3826 329.05 47.9114C328.836 46.2835 329.114 44.9983 329.885 44.0558C330.399 43.4561 330.956 43.1134 331.556 43.0277C332.156 42.8992 332.477 42.8349 332.52 42.8349L365.292 42.7707ZM372.296 33.5817C372.296 33.5817 372.275 33.7316 372.232 34.0315C372.189 34.3313 372.103 34.6741 371.975 35.0596C371.846 35.4452 371.653 35.8521 371.396 36.2805C371.139 36.6661 370.797 36.9874 370.368 37.2444C369.769 37.5871 369.169 37.7585 368.569 37.7585C367.841 37.7585 367.134 37.5229 366.449 37.0516C365.977 36.7089 365.613 36.2591 365.356 35.7022C365.013 35.0596 364.778 34.3528 364.649 33.5817C364.564 32.8105 364.499 32.018 364.456 31.2041C364.456 30.3901 364.478 29.5976 364.521 28.8265C364.564 28.0126 364.585 27.2415 364.585 26.5132C364.628 24.6711 364.649 22.8504 364.649 21.0512C364.649 19.2091 364.649 17.3884 364.649 15.5892V14.7538C364.606 14.2826 364.585 13.7899 364.585 13.2759C364.628 12.719 364.714 12.2049 364.842 11.7337C365.013 11.0911 365.399 10.4056 365.999 9.67738C366.341 9.24899 366.813 8.94911 367.412 8.77775C368.055 8.56356 368.74 8.4993 369.469 8.58498C370.754 8.79917 371.611 9.35608 372.039 10.2557C372.296 10.8126 372.403 11.498 372.36 12.312C372.36 13.1259 372.339 13.6186 372.296 13.7899V33.5817ZM343.765 16.9386C343.422 16.9386 343.123 16.96 342.866 17.0029C342.651 17.0029 342.437 17.0029 342.223 17.0029H340.938C340.852 18.2024 340.809 19.4447 340.809 20.7299C340.809 21.9722 340.874 23.1717 341.002 24.3284L342.93 26.5132C343.872 25.228 344.536 24.3926 344.922 24.0071V17.0029C344.75 17.0029 344.579 17.0029 344.408 17.0029C344.279 16.96 344.065 16.9386 343.765 16.9386ZM425.7 55.2369C425.614 55.7509 425.55 56.265 425.507 56.7791C425.465 57.2503 425.357 57.743 425.186 58.257C425.1 58.4284 425.036 58.5783 424.993 58.7068C424.95 58.8354 424.886 58.9853 424.801 59.1567C424.501 59.7564 424.115 60.2276 423.644 60.5704C422.659 61.1701 421.566 61.32 420.367 61.0202C419.681 60.8916 419.124 60.6346 418.696 60.2491C418.31 59.9063 418.011 59.4565 417.796 58.8996C417.625 58.3856 417.475 57.8715 417.347 57.3574C417.261 56.8433 417.218 56.3935 417.218 56.008C417.218 55.6224 417.218 55.4082 417.218 55.3654V15.6534C417.218 15.1394 417.218 14.5825 417.218 13.9827C417.218 13.383 417.261 12.7832 417.347 12.1835C417.432 11.5837 417.561 11.0268 417.732 10.5127C417.903 9.99867 418.139 9.5917 418.439 9.29183C418.91 8.82059 419.403 8.54214 419.917 8.45646C420.431 8.32794 420.988 8.26368 421.588 8.26368C422.316 8.26368 422.98 8.47788 423.58 8.90627C424.222 9.29182 424.672 9.84873 424.929 10.577C425.315 11.4766 425.529 12.4191 425.572 13.4044C425.614 14.3897 425.657 15.375 425.7 16.3603V16.6816C425.786 19.9802 425.807 23.3645 425.764 26.8345C425.722 30.3045 425.7 33.5817 425.7 36.6661V52.9236C425.7 53.3091 425.7 53.6947 425.7 54.0802C425.743 54.4658 425.743 54.8513 425.7 55.2369ZM395.37 48.9395C395.327 48.4254 395.306 47.9114 395.306 47.3973C395.306 46.8832 395.306 46.3692 395.306 45.8551V25.4208C395.306 24.7354 395.306 24.0499 395.306 23.3645C395.306 22.6791 395.263 21.9722 395.177 21.244C395.134 21.0298 395.07 20.7299 394.984 20.3443C394.942 19.9588 394.813 19.7232 394.599 19.6375C394.385 19.509 394.128 19.4661 393.828 19.509C393.571 19.509 393.314 19.4876 393.057 19.4447C392.757 19.4019 392.457 19.4019 392.157 19.4447C391.9 19.4876 391.622 19.4876 391.322 19.4447H388.302C387.573 19.4876 386.845 19.4876 386.117 19.4447C385.388 19.4019 384.66 19.4019 383.932 19.4447C383.589 19.4876 383.268 19.509 382.968 19.509C382.711 19.4661 382.411 19.4447 382.068 19.4447C381.597 19.4447 381.105 19.4233 380.59 19.3805C380.076 19.3376 379.605 19.1663 379.177 18.8664C378.577 18.438 378.17 17.9025 377.956 17.2599C377.742 16.6173 377.635 15.9533 377.635 15.2679C377.592 14.4539 377.763 13.64 378.149 12.8261C378.363 12.312 378.641 11.9479 378.984 11.7337C379.198 11.5195 379.498 11.3481 379.884 11.2196C380.312 11.0482 380.676 10.9197 380.976 10.834C381.876 10.6198 382.818 10.5127 383.803 10.5127C384.789 10.4699 385.753 10.4485 386.695 10.4485H397.876C398.433 10.5342 399.011 10.6198 399.611 10.7055C400.254 10.7484 400.832 10.8769 401.346 11.0911C401.689 11.2196 402.01 11.3909 402.31 11.6051C402.653 11.8193 402.931 12.0764 403.145 12.3762C403.531 12.976 403.745 13.5757 403.788 14.1755C403.874 14.7752 403.959 15.4392 404.045 16.1675C404.131 17.367 404.173 18.5665 404.173 19.766C404.173 20.9227 404.173 22.1007 404.173 23.3002V44.3771C404.173 44.42 404.173 44.7627 404.173 45.4053C404.216 46.005 404.238 46.7333 404.238 47.5901C404.238 48.404 404.238 49.2822 404.238 50.2247C404.238 51.1243 404.216 51.9168 404.173 52.6023C404.131 53.0307 404.066 53.4805 403.981 53.9517C403.895 54.4229 403.745 54.8727 403.531 55.3011C403.36 55.7295 403.102 56.1151 402.76 56.4578C402.417 56.8005 401.967 57.079 401.41 57.2932C400.682 57.593 399.954 57.743 399.226 57.743C398.669 57.743 398.112 57.6359 397.555 57.4217C396.998 57.1646 396.612 56.8005 396.398 56.3293C395.713 54.9584 395.37 53.4376 395.37 51.7669V48.9395Z" fill="white"/>
</svg>
