<svg width="376" height="74" viewBox="0 0 376 74" fill="none" xmlns="http://www.w3.org/2000/svg">
<path d="M65.48 7.96V47.62H57.5V7.96H65.48ZM28.1 25.48C28.1 29.92 31.34 32.62 35.42 32.62C39.56 32.62 42.68 29.92 42.68 25.48C42.68 20.92 39.56 18.28 35.42 18.28C31.34 18.28 28.1 20.92 28.1 25.48ZM50.42 25.48C50.42 33.52 43.88 39.46 35.42 39.46C26.96 39.46 20.36 33.52 20.36 25.48C20.36 17.32 26.96 11.44 35.42 11.44C43.88 11.44 50.42 17.32 50.42 25.48ZM36.62 55.9H66.86V62.2H28.7V43.72H36.62V55.9ZM113.055 43.06V37.36H105.855V31.06H113.055V26.32H105.975V20.02H113.055V7.9H120.975V43.06H113.055ZM105.255 12.88V19.12H74.9553V12.88H86.5353V7.48H94.4553V12.88H105.255ZM84.9153 31.36C84.9153 34.24 87.1353 35.8 90.4953 35.8C93.7953 35.8 96.0753 34.24 96.0753 31.36C96.0753 28.48 93.7953 26.92 90.4953 26.92C87.1353 26.92 84.9153 28.48 84.9153 31.36ZM103.395 31.36C103.395 37.48 98.0553 41.68 90.4953 41.68C82.8753 41.68 77.5353 37.48 77.5353 31.36C77.5353 25.24 82.8753 21.04 90.4953 21.04C98.0553 21.04 103.395 25.24 103.395 31.36ZM102.315 57.16C109.095 57.16 112.875 56.02 112.875 53.5C112.875 50.92 109.095 49.84 102.315 49.84C95.4753 49.84 91.7553 50.92 91.7553 53.5C91.7553 56.02 95.4753 57.16 102.315 57.16ZM102.315 43.78C113.955 43.78 121.215 47.38 121.215 53.5C121.215 59.56 113.955 63.16 102.315 63.16C90.6753 63.16 83.3553 59.56 83.3553 53.5C83.3553 47.38 90.6753 43.78 102.315 43.78ZM149.137 35.26L146.257 29.08C157.537 27.7 163.417 22.3 164.197 17.02H148.297V10.72H189.277V17.02H173.617C174.397 22.3 180.217 27.7 191.437 29.08L188.617 35.26C178.957 33.94 172.177 29.8 168.877 24.16C165.577 29.8 158.797 33.94 149.137 35.26ZM193.837 38.44V44.74H172.657V63.28H164.737V44.74H143.917V38.44H193.837ZM234.873 24.58V16.42H212.973V24.58H234.873ZM242.673 10.24V30.82H205.173V10.24H242.673ZM212.733 46.18V55.9H243.513V62.2H204.813V46.18H212.733ZM198.993 35.2H249.033V41.44H228.693V50.86H220.773V41.44H198.993V35.2ZM288.415 31.18V24.34H277.555V31.18H288.415ZM296.215 11.44V37.36H269.755V11.44H277.555V18.28H288.415V11.44H296.215ZM293.515 57.1C300.595 57.1 304.375 55.6 304.375 52.48C304.375 49.36 300.595 47.86 293.515 47.86C286.495 47.86 282.715 49.36 282.715 52.48C282.715 55.6 286.495 57.1 293.515 57.1ZM293.515 41.68C305.035 41.68 312.235 45.7 312.235 52.48C312.235 59.2 305.035 63.22 293.515 63.22C282.055 63.22 274.855 59.2 274.855 52.48C274.855 45.7 282.055 41.68 293.515 41.68ZM311.635 20.8H318.955V27.28H311.635V40.48H303.715V7.96H311.635V20.8ZM361.67 56.14V51.52H340.73V56.14H361.67ZM361.67 45.46V40.54H369.53V62.44H332.93V40.54H340.73V45.46H361.67ZM344.03 30.28V23.74H333.53V30.28H344.03ZM361.61 7.9H369.53V38.2H361.61V26.86H351.77V36.58H325.67V10.72H333.53V17.68H344.03V10.72H351.77V20.5H361.61V7.9Z" fill="white"/>
<rect width="7" height="74" fill="#ED3095"/>
</svg>
