<svg width="565" height="65" viewBox="0 0 565 65" fill="none" xmlns="http://www.w3.org/2000/svg">
<g filter="url(#filter0_d_234_213)">
<path d="M42 9.18C44.44 10.58 46.18 12.38 47.22 14.58C47.74 15.66 48.08 16.86 48.24 18.18C48.4 19.5 48.44 20.98 48.36 22.62C48.24 24.42 47.84 26.04 47.16 27.48C46.48 28.92 45.58 30.16 44.46 31.2C43.38 32.2 42.1 32.98 40.62 33.54C39.14 34.06 37.56 34.32 35.88 34.32H32.82C32.42 34.32 32.02 34.32 31.62 34.32C31.22 34.28 30.8 34.22 30.36 34.14C29.92 34.14 29.5 34.08 29.1 33.96C28.7 33.84 28.28 33.74 27.84 33.66C27.4 33.46 26.96 33.24 26.52 33C26.12 32.76 25.64 32.48 25.08 32.16C23.24 30.96 21.96 29.34 21.24 27.3C20.92 26.38 20.68 25.4 20.52 24.36C20.36 23.32 20.28 22.3 20.28 21.3C20.28 20.22 20.36 19.18 20.52 18.18C20.72 17.18 21.04 16.22 21.48 15.3C21.8 14.34 22.28 13.5 22.92 12.78C23.56 12.02 24.28 11.3 25.08 10.62C25.8 10.02 26.54 9.52 27.3 9.12C28.06 8.68 28.9 8.34 29.82 8.1C30.62 7.78 31.48 7.58 32.4 7.5C33.32 7.42 34.2 7.42 35.04 7.5C35.48 7.62 35.84 7.7 36.12 7.74C36.44 7.74 36.74 7.74 37.02 7.74C37.34 7.82 37.62 7.88 37.86 7.92C38.14 7.92 38.4 7.98 38.64 8.1C38.92 8.18 39.18 8.26 39.42 8.34C39.7 8.38 39.96 8.46 40.2 8.58C40.44 8.66 40.72 8.76 41.04 8.88C41.36 9 41.68 9.1 42 9.18ZM62.04 48.54C62.6 48.54 63.06 48.78 63.42 49.26C63.78 49.74 64.02 50.32 64.14 51C64.22 51.8 64.18 52.46 64.02 52.98C63.86 53.46 63.62 53.92 63.3 54.36C62.7 54.88 62.18 55.2 61.74 55.32C61.54 55.32 61.36 55.36 61.2 55.44C61.04 55.52 60.82 55.56 60.54 55.56H56.22H48.72H40.5H33.96H31.2C30.36 55.56 29.62 55.54 28.98 55.5C28.38 55.46 27.84 55.32 27.36 55.08C26.92 54.84 26.56 54.48 26.28 54C26.04 53.56 25.92 53.12 25.92 52.68V43.5V42.36V41.16V40.32C26.16 39.44 26.56 38.78 27.12 38.34C27.56 38.06 27.96 37.86 28.32 37.74C28.72 37.58 29.16 37.5 29.64 37.5C29.72 37.5 29.96 37.54 30.36 37.62C30.8 37.66 31.08 37.68 31.2 37.68C31.44 37.76 31.66 37.86 31.86 37.98C32.1 38.06 32.32 38.24 32.52 38.52C32.6 38.68 32.7 38.86 32.82 39.06C32.94 39.22 33.04 39.42 33.12 39.66C33.24 39.94 33.3 40.2 33.3 40.44C33.34 40.68 33.4 40.92 33.48 41.16V42.66V43.8V45.72V47.52V48.36H34.68C34.92 48.4 35.2 48.42 35.52 48.42C35.8 48.46 36.1 48.48 36.42 48.48C36.74 48.48 37.1 48.48 37.5 48.48C37.74 48.48 38.34 48.48 39.3 48.48C40.3 48.48 41.48 48.48 42.84 48.48C44.24 48.44 45.76 48.42 47.4 48.42C49.04 48.42 50.6 48.42 52.08 48.42C53.6 48.42 54.96 48.44 56.16 48.48C57.4 48.48 58.32 48.48 58.92 48.48H60.42C60.5 48.48 60.68 48.5 60.96 48.54C61.24 48.54 61.6 48.54 62.04 48.54ZM41.16 20.76C41.08 20.32 41 19.94 40.92 19.62C40.84 19.26 40.76 18.9 40.68 18.54C40.48 18.22 40.3 17.9 40.14 17.58C39.98 17.26 39.76 16.98 39.48 16.74C39.24 16.5 38.96 16.3 38.64 16.14C38.32 15.94 37.94 15.74 37.5 15.54C36.98 15.42 36.48 15.32 36 15.24C35.52 15.12 35.02 15.06 34.5 15.06C33.94 15.06 33.4 15.12 32.88 15.24C32.36 15.32 31.88 15.42 31.44 15.54C30.96 15.82 30.5 16.1 30.06 16.38C29.66 16.66 29.3 17.02 28.98 17.46C28.58 17.78 28.28 18.2 28.08 18.72C27.88 19.2 27.68 19.78 27.48 20.46C27.48 20.9 27.48 21.32 27.48 21.72C27.48 22.12 27.52 22.54 27.6 22.98C27.6 23.38 27.68 23.78 27.84 24.18C28 24.58 28.2 24.94 28.44 25.26C28.72 25.62 29.02 25.94 29.34 26.22C29.66 26.46 30 26.7 30.36 26.94C30.8 27.18 31.26 27.4 31.74 27.6C32.22 27.76 32.8 27.88 33.48 27.96C33.92 27.96 34.34 27.96 34.74 27.96C35.14 27.92 35.56 27.86 36 27.78C36.8 27.78 37.58 27.56 38.34 27.12C38.66 26.96 38.98 26.76 39.3 26.52C39.66 26.24 39.96 25.94 40.2 25.62C40.72 24.9 41.04 24.12 41.16 23.28V20.76ZM63.78 33C63.78 33.4 63.74 33.8 63.66 34.2C63.58 34.6 63.5 35.02 63.42 35.46C63.06 36.74 62.22 37.52 60.9 37.8C59.62 38.08 58.58 37.8 57.78 36.96C57.02 36.12 56.56 35.12 56.4 33.96C56.32 33.64 56.26 33.32 56.22 33C56.22 32.64 56.22 32.3 56.22 31.98V29.94L56.4 14.46C56.4 13.9 56.38 13.3 56.34 12.66C56.34 11.98 56.38 11.34 56.46 10.74C56.58 10.1 56.8 9.52 57.12 9C57.44 8.48 57.94 8.06 58.62 7.74C58.94 7.54 59.28 7.44 59.64 7.44C60.04 7.4 60.46 7.42 60.9 7.5C61.82 7.62 62.5 8 62.94 8.64C63.42 9.28 63.7 10.02 63.78 10.86V12.9V33ZM98.1047 24.06C98.1047 25.94 97.6847 27.72 96.8447 29.4C96.0047 31.08 94.8247 32.5 93.3047 33.66C92.2647 34.42 91.1647 35 90.0047 35.4C88.8447 35.8 87.6447 36.06 86.4047 36.18C85.1647 36.26 83.9247 36.22 82.6847 36.06C81.4847 35.86 80.3247 35.52 79.2047 35.04C78.0847 34.6 77.0247 34.02 76.0247 33.3C75.0647 32.58 74.2247 31.76 73.5047 30.84C72.7847 29.92 72.2247 28.9 71.8247 27.78C71.4247 26.62 71.2247 25.38 71.2247 24.06C71.2247 22.42 71.4647 20.98 71.9447 19.74C72.4247 18.46 73.0847 17.32 73.9247 16.32H72.8447C71.8447 16.32 71.0047 16.02 70.3247 15.42C69.6447 14.78 69.3047 14.02 69.3047 13.14C69.3047 12.22 69.6447 11.46 70.3247 10.86C71.0047 10.22 71.8447 9.9 72.8447 9.9H80.7647V7.98C80.7647 7.18 81.1047 6.52 81.7847 6C82.4647 5.44 83.2847 5.16 84.2447 5.16C85.2047 5.16 86.0247 5.44 86.7047 6C87.3847 6.52 87.7247 7.18 87.7247 7.98V9.9H96.0647C97.0647 9.9 97.9047 10.22 98.5847 10.86C99.2647 11.46 99.6047 12.22 99.6047 13.14C99.6047 14.02 99.2647 14.78 98.5847 15.42C97.9047 16.02 97.0647 16.32 96.0647 16.32H95.3447C96.1847 17.32 96.8447 18.46 97.3247 19.74C97.8447 21.02 98.1047 22.46 98.1047 24.06ZM74.2247 46.8C74.2247 45 74.7447 43.5 75.7847 42.3C76.8647 41.1 78.3047 40.16 80.1047 39.48C81.9047 38.76 84.0247 38.26 86.4647 37.98C88.9047 37.7 91.5047 37.56 94.2647 37.56C97.0247 37.56 99.6247 37.66 102.065 37.86C104.505 38.06 106.625 38.5 108.425 39.18C110.225 39.82 111.645 40.74 112.685 41.94C113.765 43.14 114.305 44.76 114.305 46.8C114.305 48.8 113.765 50.4 112.685 51.6C111.645 52.8 110.225 53.72 108.425 54.36C106.625 55.04 104.505 55.48 102.065 55.68C99.6247 55.92 97.0247 56.04 94.2647 56.04C91.5047 56.04 88.9047 55.92 86.4647 55.68C84.0247 55.48 81.9047 55.04 80.1047 54.36C78.3047 53.72 76.8647 52.8 75.7847 51.6C74.7447 50.4 74.2247 48.8 74.2247 46.8ZM113.285 9.54C113.405 9.82 113.505 10.18 113.585 10.62C113.665 11.06 113.725 11.5 113.765 11.94C113.805 12.34 113.825 12.72 113.825 13.08C113.825 13.44 113.825 13.66 113.825 13.74V33.24C113.825 33.28 113.805 33.44 113.765 33.72C113.725 33.96 113.625 34.26 113.465 34.62C113.345 34.98 113.145 35.34 112.865 35.7C112.625 36.06 112.305 36.36 111.905 36.6C111.345 36.96 110.765 37.14 110.165 37.14C109.365 37.14 108.665 36.9 108.065 36.42C107.585 36.14 107.225 35.74 106.985 35.22C106.705 34.74 106.525 34.26 106.445 33.78C106.365 33.3 106.305 32.84 106.265 32.4V30.66H106.085C105.485 30.62 104.825 30.6 104.105 30.6C103.425 30.56 102.745 30.5 102.065 30.42C101.425 30.34 100.845 30.2 100.325 30C99.8047 29.76 99.4247 29.44 99.1847 29.04C98.9047 28.6 98.7647 28.08 98.7647 27.48C98.8047 26.84 98.8647 26.3 98.9447 25.86C99.0647 25.38 99.3047 24.98 99.6647 24.66C100.025 24.34 100.625 24.08 101.465 23.88C101.625 23.84 101.925 23.82 102.365 23.82C102.845 23.78 103.325 23.74 103.805 23.7C104.325 23.66 104.805 23.64 105.245 23.64C105.725 23.6 106.065 23.58 106.265 23.58V20.88C105.665 20.88 104.985 20.9 104.225 20.94C103.505 20.94 102.805 20.92 102.125 20.88C101.485 20.8 100.885 20.68 100.325 20.52C99.8047 20.36 99.4247 20.08 99.1847 19.68C99.0647 19.48 98.9647 19.22 98.8847 18.9C98.8447 18.58 98.8047 18.26 98.7647 17.94C98.7647 17.58 98.7847 17.24 98.8247 16.92C98.8647 16.6 98.9047 16.32 98.9447 16.08C99.0647 15.64 99.3047 15.26 99.6647 14.94C100.025 14.62 100.625 14.36 101.465 14.16C101.585 14.12 101.825 14.1 102.185 14.1C102.585 14.06 103.025 14.04 103.505 14.04C103.985 14 104.465 13.98 104.945 13.98C105.465 13.94 105.905 13.92 106.265 13.92C106.225 13.56 106.225 13.06 106.265 12.42C106.305 11.78 106.365 11.3 106.445 10.98C106.565 10.66 106.665 10.34 106.745 10.02C106.825 9.7 107.005 9.38 107.285 9.06C107.645 8.66 108.125 8.38 108.725 8.22C109.365 8.02 110.045 7.96 110.765 8.04C112.045 8.24 112.885 8.74 113.285 9.54ZM106.205 46.8C106.205 46.12 105.845 45.58 105.125 45.18C104.405 44.78 103.465 44.48 102.305 44.28C101.185 44.08 99.9047 43.96 98.4647 43.92C97.0647 43.84 95.6647 43.8 94.2647 43.8C92.8647 43.8 91.4647 43.84 90.0647 43.92C88.7047 43.96 87.4647 44.08 86.3447 44.28C85.2647 44.48 84.3847 44.78 83.7047 45.18C83.0247 45.58 82.6847 46.12 82.6847 46.8C82.6847 47.4 83.0247 47.9 83.7047 48.3C84.3847 48.7 85.2647 49 86.3447 49.2C87.4647 49.4 88.7047 49.54 90.0647 49.62C91.4647 49.7 92.8647 49.74 94.2647 49.74C95.6647 49.74 97.0647 49.74 98.4647 49.74C99.9047 49.74 101.185 49.66 102.305 49.5C103.465 49.34 104.405 49.06 105.125 48.66C105.845 48.22 106.205 47.6 106.205 46.8ZM85.8647 29.4C87.1447 29.16 88.2447 28.6 89.1647 27.72C90.1247 26.8 90.6047 25.58 90.6047 24.06C90.6047 23.18 90.4247 22.4 90.0647 21.72C89.7447 21.04 89.3047 20.48 88.7447 20.04C88.2247 19.56 87.6047 19.2 86.8847 18.96C86.1647 18.72 85.4447 18.6 84.7247 18.6C83.9647 18.56 83.2247 18.66 82.5047 18.9C81.7847 19.1 81.1447 19.42 80.5847 19.86C80.0247 20.3 79.5647 20.88 79.2047 21.6C78.8847 22.28 78.7247 23.1 78.7247 24.06C78.7247 25.14 78.9447 26.06 79.3847 26.82C79.8247 27.58 80.3847 28.18 81.0647 28.62C81.7447 29.06 82.5047 29.34 83.3447 29.46C84.1847 29.58 85.0247 29.56 85.8647 29.4ZM124.809 33.42C123.209 32.3 122.069 30.7 121.389 28.62C120.989 27.58 120.709 26.58 120.549 25.62C120.429 24.66 120.369 23.68 120.369 22.68C120.369 21.64 120.449 20.68 120.609 19.8C120.809 18.88 121.069 17.98 121.389 17.1C121.789 16.26 122.209 15.48 122.649 14.76C123.129 14 123.689 13.34 124.329 12.78C124.969 12.1 125.629 11.52 126.309 11.04C127.029 10.56 127.849 10.16 128.769 9.84C129.569 9.44 130.429 9.16 131.349 9C132.309 8.8 133.309 8.7 134.349 8.7C135.069 8.58 135.769 8.58 136.449 8.7C136.769 8.7 137.109 8.72 137.469 8.76C137.869 8.8 138.229 8.86 138.549 8.94C138.709 9.02 138.869 9.06 139.029 9.06C139.229 9.06 139.429 9.1 139.629 9.18C139.829 9.18 140.009 9.22 140.169 9.3C140.369 9.34 140.529 9.4 140.649 9.48C141.089 9.6 141.489 9.74 141.849 9.9C142.249 10.02 142.649 10.18 143.049 10.38C143.729 10.7 144.409 11.06 145.089 11.46C145.329 11.58 145.589 11.76 145.869 12C146.189 12.24 146.489 12.5 146.769 12.78C147.489 13.5 148.069 14.24 148.509 15C148.749 15.4 148.949 15.82 149.109 16.26C149.309 16.7 149.449 17.18 149.529 17.7C149.649 18.14 149.749 18.6 149.829 19.08C149.909 19.52 149.989 19.96 150.069 20.4C150.149 20.84 150.209 21.28 150.249 21.72C150.289 22.16 150.269 22.64 150.189 23.16C150.189 23.4 150.169 23.68 150.129 24C150.089 24.28 150.069 24.54 150.069 24.78C149.989 25.1 149.929 25.42 149.889 25.74C149.849 26.06 149.769 26.34 149.649 26.58C149.409 28.14 148.909 29.58 148.149 30.9C147.709 31.58 147.209 32.18 146.649 32.7C146.129 33.22 145.529 33.72 144.849 34.2C144.329 34.52 143.809 34.8 143.289 35.04C142.769 35.28 142.229 35.46 141.669 35.58C141.149 35.74 140.609 35.88 140.049 36C139.529 36.08 138.989 36.18 138.429 36.3C138.229 36.38 138.029 36.42 137.829 36.42C137.629 36.42 137.429 36.42 137.229 36.42C137.109 36.42 136.949 36.42 136.749 36.42C136.589 36.42 136.409 36.46 136.209 36.54H135.129C134.969 36.54 134.789 36.54 134.589 36.54C134.429 36.54 134.249 36.5 134.049 36.42C133.809 36.42 133.549 36.42 133.269 36.42C133.029 36.42 132.789 36.38 132.549 36.3C132.229 36.3 131.929 36.28 131.649 36.24C131.409 36.2 131.149 36.18 130.869 36.18C129.789 36.02 128.749 35.7 127.749 35.22C127.189 34.94 126.669 34.68 126.189 34.44C125.709 34.16 125.249 33.82 124.809 33.42ZM163.509 19.38C163.589 20.18 163.629 21 163.629 21.84C163.629 22.68 163.629 23.56 163.629 24.48V34.2C163.629 35.12 163.629 35.98 163.629 36.78C163.629 37.58 163.589 38.36 163.509 39.12V45.96C163.429 46.6 163.409 47.24 163.449 47.88C163.489 48.48 163.509 49.06 163.509 49.62C163.509 50.02 163.509 50.4 163.509 50.76C163.509 51.12 163.469 51.46 163.389 51.78C163.389 52.42 163.249 52.94 162.969 53.34C162.889 53.54 162.809 53.72 162.729 53.88C162.649 54 162.569 54.16 162.489 54.36C162.329 54.48 162.169 54.62 162.009 54.78C161.849 54.94 161.609 55.08 161.289 55.2C160.929 55.48 160.509 55.66 160.029 55.74C159.549 55.82 159.049 55.82 158.529 55.74C157.849 55.58 157.349 55.32 157.029 54.96C156.709 54.76 156.409 54.34 156.129 53.7C156.009 53.42 155.909 53.16 155.829 52.92C155.749 52.68 155.709 52.42 155.709 52.14C155.629 51.94 155.569 51.74 155.529 51.54C155.489 51.34 155.469 51.18 155.469 51.06V50.4L155.349 14.82C155.349 14.3 155.349 13.78 155.349 13.26C155.389 12.74 155.469 12.16 155.589 11.52C155.709 10.44 156.069 9.56 156.669 8.88C157.229 8.48 157.669 8.22 157.989 8.1C158.269 8.02 158.529 7.98 158.769 7.98C159.049 7.98 159.349 7.98 159.669 7.98C159.989 7.98 160.309 8.02 160.629 8.1C160.949 8.18 161.269 8.32 161.589 8.52C162.109 8.92 162.489 9.42 162.729 10.02C162.929 10.46 163.089 10.9 163.209 11.34C163.329 11.78 163.389 12.22 163.389 12.66C163.389 13.1 163.389 13.58 163.389 14.1C163.389 14.58 163.429 15.04 163.509 15.48V19.38ZM150.309 43.14C150.829 43.3 151.289 43.52 151.689 43.8C152.089 44.2 152.389 44.6 152.589 45C152.829 45.4 152.949 45.84 152.949 46.32C152.949 47 152.729 47.6 152.289 48.12C151.889 48.64 151.449 48.98 150.969 49.14C150.769 49.22 150.569 49.28 150.369 49.32C150.169 49.36 149.969 49.38 149.769 49.38C149.529 49.46 149.309 49.5 149.109 49.5C148.909 49.5 148.709 49.5 148.509 49.5H142.809C142.129 49.5 141.429 49.5 140.709 49.5C140.029 49.5 139.309 49.54 138.549 49.62H134.349C133.629 49.54 132.989 49.5 132.429 49.5C131.869 49.5 131.309 49.5 130.749 49.5H124.449C124.049 49.5 123.669 49.48 123.309 49.44C122.949 49.4 122.569 49.34 122.169 49.26C121.969 49.18 121.769 49.12 121.569 49.08C121.409 49 121.229 48.92 121.029 48.84C120.669 48.72 120.329 48.54 120.009 48.3C119.769 48.02 119.569 47.72 119.409 47.4C119.289 47.04 119.229 46.6 119.229 46.08C119.229 45.32 119.489 44.64 120.009 44.04C120.249 43.68 120.629 43.44 121.149 43.32C121.389 43.24 121.629 43.18 121.869 43.14C122.109 43.06 122.329 42.98 122.529 42.9C122.809 42.82 123.029 42.78 123.189 42.78C123.349 42.78 123.509 42.78 123.669 42.78H146.349C146.749 42.78 147.129 42.78 147.489 42.78C147.849 42.78 148.189 42.82 148.509 42.9C148.829 42.9 149.129 42.92 149.409 42.96C149.689 43 149.989 43.06 150.309 43.14ZM128.349 21.6C128.229 22.36 128.229 23.16 128.349 24C128.549 24.96 128.809 25.74 129.129 26.34C129.929 27.58 131.109 28.5 132.669 29.1C133.229 29.3 133.789 29.44 134.349 29.52C134.949 29.6 135.529 29.64 136.089 29.64C136.409 29.56 136.709 29.52 136.989 29.52C137.269 29.52 137.569 29.48 137.889 29.4C138.169 29.4 138.429 29.34 138.669 29.22C138.949 29.1 139.229 28.98 139.509 28.86C140.269 28.5 140.909 27.9 141.429 27.06C141.709 26.62 141.909 26.2 142.029 25.8C142.149 25.4 142.269 24.98 142.389 24.54C142.549 23.86 142.589 23.22 142.509 22.62C142.469 22.02 142.349 21.38 142.149 20.7C142.069 20.42 141.949 20.16 141.789 19.92C141.669 19.64 141.549 19.4 141.429 19.2C141.309 19.08 141.209 18.96 141.129 18.84C141.049 18.68 140.929 18.56 140.769 18.48C140.649 18.2 140.409 17.94 140.049 17.7C139.729 17.5 139.409 17.34 139.089 17.22C138.929 17.1 138.749 17 138.549 16.92C138.389 16.84 138.209 16.76 138.009 16.68C136.969 16.44 135.909 16.32 134.829 16.32C134.309 16.32 133.809 16.36 133.329 16.44C132.849 16.52 132.389 16.66 131.949 16.86C131.509 17.06 131.089 17.3 130.689 17.58C130.289 17.82 129.929 18.16 129.609 18.6C129.289 19 129.029 19.46 128.829 19.98C128.669 20.46 128.509 21 128.349 21.6Z" fill="#A8D267"/>
<path d="M209.4 45.54C210.56 45.54 211.6 45.74 212.52 46.14C213.48 46.54 214.04 47.38 214.2 48.66C214.28 49.3 214.18 49.88 213.9 50.4C213.66 50.92 213.32 51.36 212.88 51.72C212.44 52.08 211.92 52.36 211.32 52.56C210.76 52.76 210.22 52.88 209.7 52.92C209.26 52.92 208.48 52.92 207.36 52.92C206.28 52.92 205.06 52.92 203.7 52.92C202.38 52.92 201.02 52.92 199.62 52.92C198.22 52.92 197.04 52.92 196.08 52.92H195.6C194.68 52.88 193.72 52.84 192.72 52.8C191.76 52.76 190.82 52.6 189.9 52.32C189.26 52.12 188.66 51.76 188.1 51.24C187.54 50.72 187.1 50.12 186.78 49.44C186.58 49 186.44 48.48 186.36 47.88C186.28 47.24 186.22 46.64 186.18 46.08C186.14 45.48 186.12 44.96 186.12 44.52C186.16 44.08 186.18 43.84 186.18 43.8V18.3C186.18 18.18 186.16 17.86 186.12 17.34C186.08 16.82 186.06 16.22 186.06 15.54C186.1 14.86 186.16 14.16 186.24 13.44C186.36 12.72 186.58 12.12 186.9 11.64C187.14 11.24 187.56 10.92 188.16 10.68C188.8 10.44 189.44 10.26 190.08 10.14C190.76 10.02 191.36 9.96 191.88 9.96C192.44 9.92 192.78 9.9 192.9 9.9H206.94C206.98 9.9 207.28 9.9 207.84 9.9C208.44 9.9 209.08 9.98 209.76 10.14C210.44 10.26 211.1 10.48 211.74 10.8C212.38 11.12 212.8 11.6 213 12.24C213.08 12.48 213.12 12.78 213.12 13.14C213.16 13.46 213.18 13.82 213.18 14.22C213.18 14.58 213.14 14.92 213.06 15.24C213.02 15.56 212.96 15.8 212.88 15.96C212.6 16.48 212.1 16.84 211.38 17.04C210.58 17.24 209.44 17.34 207.96 17.34C207.72 17.34 207.44 17.34 207.12 17.34C206.84 17.34 206.38 17.34 205.74 17.34C205.14 17.3 204.28 17.28 203.16 17.28C202.08 17.28 200.62 17.28 198.78 17.28C198.22 17.28 197.64 17.3 197.04 17.34C196.48 17.38 196.06 17.46 195.78 17.58C195.5 17.7 195.28 17.94 195.12 18.3C195 18.62 194.9 19 194.82 19.44C194.78 19.84 194.76 20.24 194.76 20.64C194.76 21.04 194.78 21.36 194.82 21.6V21.66L195.06 42.42C195.06 43.22 195.24 43.88 195.6 44.4C195.96 44.88 196.6 45.12 197.52 45.12C197.64 45.12 198.06 45.16 198.78 45.24C199.54 45.28 200.48 45.32 201.6 45.36C202.76 45.4 204.02 45.44 205.38 45.48C206.74 45.52 208.08 45.54 209.4 45.54ZM230.1 26.58C230.82 26.74 231.44 27.06 231.96 27.54C232.52 28.02 232.8 28.7 232.8 29.58C232.8 29.9 232.78 30.2 232.74 30.48C232.74 30.72 232.7 31 232.62 31.32C232.5 32 232.24 32.58 231.84 33.06C231.48 33.54 230.92 33.78 230.16 33.78L225.24 33.84C225.2 34.88 225.18 36.04 225.18 37.32C225.18 38.6 225.18 39.92 225.18 41.28C225.18 42.64 225.18 44.02 225.18 45.42C225.22 46.78 225.24 48.08 225.24 49.32C225.24 49.84 225.22 50.48 225.18 51.24C225.14 52 225 52.74 224.76 53.46C224.52 54.14 224.16 54.74 223.68 55.26C223.2 55.78 222.52 56.06 221.64 56.1C220.68 56.18 219.92 56.02 219.36 55.62C218.8 55.22 218.38 54.7 218.1 54.06C217.82 53.46 217.64 52.8 217.56 52.08C217.48 51.32 217.44 50.62 217.44 49.98V13.14C217.44 13.1 217.44 12.92 217.44 12.6C217.44 12.24 217.48 11.84 217.56 11.4C217.64 10.92 217.76 10.44 217.92 9.96C218.12 9.44 218.38 9.02 218.7 8.7C218.98 8.42 219.38 8.22 219.9 8.1C220.46 7.94 220.96 7.86 221.4 7.86C222.28 7.86 223.02 8.16 223.62 8.76C224.18 9.32 224.5 9.92 224.58 10.56C224.7 11.16 224.8 11.8 224.88 12.48C225.08 14.68 225.2 16.94 225.24 19.26C225.32 21.58 225.36 23.88 225.36 26.16L230.1 26.58ZM255.665 9.36C256.825 10.04 257.825 10.78 258.665 11.58C259.545 12.38 260.225 13.32 260.705 14.4C261.745 16.76 262.125 19.4 261.845 22.32C261.725 26.24 260.605 29.16 258.485 31.08C256.605 32.96 253.605 33.9 249.485 33.9C248.925 33.9 248.405 33.92 247.925 33.96C247.445 33.96 247.005 34 246.605 34.08C246.165 34.08 245.725 34.06 245.285 34.02C244.885 33.94 244.485 33.9 244.085 33.9C243.685 33.82 243.285 33.74 242.885 33.66C242.485 33.58 242.085 33.46 241.685 33.3C240.805 32.98 239.925 32.52 239.045 31.92C237.085 30.68 235.805 29.08 235.205 27.12C234.565 25.32 234.245 23.3 234.245 21.06C234.245 20.06 234.325 19.06 234.485 18.06C234.645 17.06 234.925 16.12 235.325 15.24C235.645 14.28 236.105 13.44 236.705 12.72C237.345 11.96 238.125 11.2 239.045 10.44C240.325 9.36 241.845 8.6 243.605 8.16C244.405 7.88 245.225 7.7 246.065 7.62C246.945 7.54 247.805 7.54 248.645 7.62C249.085 7.62 249.465 7.66 249.785 7.74C250.105 7.78 250.425 7.8 250.745 7.8C251.305 7.8 251.825 7.92 252.305 8.16C252.545 8.24 252.805 8.32 253.085 8.4C253.405 8.44 253.665 8.5 253.865 8.58C254.105 8.66 254.385 8.78 254.705 8.94C255.025 9.06 255.345 9.2 255.665 9.36ZM237.905 46.98C237.905 46.06 238.025 45.26 238.265 44.58C238.505 43.86 238.865 43.18 239.345 42.54C239.905 41.98 240.505 41.48 241.145 41.04C241.785 40.56 242.565 40.14 243.485 39.78C244.325 39.38 245.265 39.08 246.305 38.88C247.345 38.64 248.465 38.42 249.665 38.22C250.825 38.14 252.025 38.08 253.265 38.04C254.545 37.96 255.885 37.92 257.285 37.92C258.605 37.92 259.905 37.96 261.185 38.04C262.465 38.08 263.685 38.14 264.845 38.22C266.045 38.3 267.145 38.46 268.145 38.7C269.185 38.9 270.145 39.16 271.025 39.48C271.865 39.8 272.625 40.2 273.305 40.68C273.985 41.12 274.605 41.62 275.165 42.18C276.085 43.22 276.545 44.82 276.545 46.98C276.545 48.94 276.085 50.52 275.165 51.72C274.005 52.88 272.625 53.78 271.025 54.42C270.145 54.74 269.185 55 268.145 55.2C267.145 55.44 266.045 55.6 264.845 55.68C263.685 55.76 262.465 55.82 261.185 55.86C259.905 55.94 258.605 55.98 257.285 55.98C255.885 55.98 254.545 55.94 253.265 55.86C252.025 55.82 250.825 55.76 249.665 55.68C248.465 55.6 247.345 55.44 246.305 55.2C245.265 55 244.325 54.74 243.485 54.42C242.565 54.1 241.785 53.72 241.145 53.28C240.505 52.8 239.905 52.28 239.345 51.72C238.385 50.48 237.905 48.9 237.905 46.98ZM254.825 23.04C254.825 22.6 254.825 22.18 254.825 21.78C254.825 21.34 254.785 20.96 254.705 20.64C254.705 20.2 254.645 19.8 254.525 19.44C254.445 19.08 254.325 18.74 254.165 18.42C254.085 18.1 253.945 17.82 253.745 17.58C253.545 17.3 253.325 17 253.085 16.68C252.605 16.2 251.925 15.82 251.045 15.54C250.205 15.22 249.245 15.06 248.165 15.06C247.605 15.06 247.085 15.1 246.605 15.18C246.125 15.26 245.645 15.38 245.165 15.54C244.725 15.7 244.285 15.94 243.845 16.26C243.445 16.58 243.025 16.94 242.585 17.34C241.985 18.14 241.565 19.14 241.325 20.34C241.205 21.06 241.205 21.86 241.325 22.74C241.445 23.18 241.585 23.6 241.745 24C241.905 24.4 242.085 24.76 242.285 25.08C242.445 25.4 242.685 25.72 243.005 26.04C243.325 26.32 243.685 26.58 244.085 26.82C244.565 27.02 245.045 27.2 245.525 27.36C246.045 27.52 246.625 27.6 247.265 27.6C248.025 27.72 248.825 27.72 249.665 27.6C250.065 27.6 250.445 27.54 250.805 27.42C251.205 27.26 251.605 27.1 252.005 26.94C252.325 26.78 252.625 26.58 252.905 26.34C253.225 26.1 253.505 25.78 253.745 25.38C253.945 25.06 254.145 24.72 254.345 24.36C254.585 23.96 254.745 23.52 254.825 23.04ZM268.805 46.98C268.805 46.66 268.725 46.36 268.565 46.08C268.405 45.76 268.125 45.52 267.725 45.36C267.365 45.2 266.945 45.04 266.465 44.88C266.025 44.72 265.525 44.56 264.965 44.4C264.405 44.32 263.845 44.26 263.285 44.22C262.725 44.14 262.105 44.1 261.425 44.1C260.665 44.1 259.945 44.08 259.265 44.04C258.625 43.96 257.965 43.92 257.285 43.92C256.525 43.92 255.805 43.96 255.125 44.04C254.485 44.08 253.865 44.1 253.265 44.1C252.545 44.1 251.905 44.14 251.345 44.22C250.785 44.26 250.225 44.32 249.665 44.4C249.105 44.56 248.605 44.72 248.165 44.88C247.725 45.04 247.325 45.2 246.965 45.36C246.645 45.52 246.405 45.76 246.245 46.08C246.085 46.36 246.005 46.66 246.005 46.98C246.005 47.62 246.325 48.08 246.965 48.36C247.645 48.88 248.545 49.2 249.665 49.32C250.225 49.4 250.785 49.48 251.345 49.56C251.905 49.6 252.545 49.62 253.265 49.62C253.865 49.7 254.485 49.76 255.125 49.8C255.805 49.8 256.525 49.8 257.285 49.8H261.425C262.105 49.8 262.725 49.8 263.285 49.8C263.845 49.76 264.405 49.7 264.965 49.62C266.125 49.5 267.045 49.18 267.725 48.66C268.445 48.38 268.805 47.82 268.805 46.98ZM276.125 13.98H276.905H278.285C278.525 13.98 278.765 13.98 279.005 13.98C279.245 13.98 279.445 14.02 279.605 14.1H280.565C281.325 14.3 281.905 14.58 282.305 14.94C282.465 15.02 282.565 15.16 282.605 15.36C282.685 15.56 282.725 15.78 282.725 16.02C282.805 16.18 282.845 16.4 282.845 16.68C282.885 16.92 282.905 17.2 282.905 17.52C282.905 17.84 282.885 18.1 282.845 18.3C282.845 18.5 282.765 18.7 282.605 18.9C282.325 19.3 282.025 19.62 281.705 19.86C281.385 20.06 281.005 20.16 280.565 20.16C280.085 20.24 279.565 20.3 279.005 20.34C278.485 20.34 277.945 20.38 277.385 20.46H276.125V24H280.565C281.245 24.2 281.745 24.46 282.065 24.78C282.265 24.86 282.405 25 282.485 25.2C282.565 25.36 282.645 25.52 282.725 25.68C282.725 25.92 282.745 26.16 282.785 26.4C282.865 26.64 282.905 26.92 282.905 27.24C282.905 27.56 282.885 27.84 282.845 28.08C282.845 28.32 282.765 28.54 282.605 28.74C282.045 29.54 281.365 30 280.565 30.12C280.085 30.12 279.565 30.16 279.005 30.24C278.485 30.28 277.945 30.3 277.385 30.3H276.125V31.08C276.045 31.32 275.985 31.54 275.945 31.74C275.945 31.94 275.945 32.14 275.945 32.34C275.865 32.58 275.785 32.82 275.705 33.06C275.625 33.3 275.545 33.54 275.465 33.78C275.305 33.98 275.145 34.18 274.985 34.38C274.825 34.58 274.625 34.76 274.385 34.92C274.145 35.08 273.865 35.22 273.545 35.34C273.225 35.46 272.845 35.52 272.405 35.52C272.085 35.52 271.785 35.5 271.505 35.46C271.225 35.38 271.005 35.26 270.845 35.1C270.365 34.9 270.045 34.6 269.885 34.2C269.725 34 269.605 33.82 269.525 33.66C269.445 33.5 269.365 33.34 269.285 33.18C269.205 32.98 269.145 32.78 269.105 32.58C269.105 32.34 269.045 32.12 268.925 31.92V12.54C268.925 12.46 268.925 12.32 268.925 12.12C268.965 11.88 269.045 11.56 269.165 11.16C269.165 10.4 269.305 9.8 269.585 9.36C269.745 8.96 270.005 8.66 270.365 8.46C270.765 8.22 271.245 8.04 271.805 7.92C272.605 7.84 273.265 7.9 273.785 8.1C274.305 8.26 274.765 8.52 275.165 8.88C275.325 9.28 275.485 9.54 275.645 9.66C275.725 9.74 275.765 9.86 275.765 10.02C275.805 10.14 275.865 10.28 275.945 10.44C275.945 10.64 275.965 10.82 276.005 10.98C276.085 11.1 276.125 11.2 276.125 11.28V12.42V13.98ZM313.612 24.06C313.612 25.94 313.193 27.72 312.353 29.4C311.513 31.08 310.333 32.5 308.813 33.66C307.453 34.66 305.953 35.36 304.313 35.76C302.713 36.16 301.093 36.3 299.453 36.18C297.813 36.06 296.233 35.7 294.713 35.1C293.193 34.46 291.833 33.62 290.633 32.58C289.473 31.54 288.533 30.3 287.813 28.86C287.093 27.42 286.733 25.82 286.733 24.06C286.733 22.46 286.973 21.02 287.453 19.74C287.933 18.46 288.593 17.32 289.433 16.32H288.353C287.353 16.32 286.513 16.02 285.833 15.42C285.153 14.78 284.813 14.02 284.813 13.14C284.813 12.22 285.153 11.46 285.833 10.86C286.513 10.22 287.353 9.9 288.353 9.9H296.273V7.98C296.273 7.18 296.613 6.52 297.293 6C297.973 5.44 298.793 5.16 299.753 5.16C300.713 5.16 301.533 5.44 302.213 6C302.893 6.52 303.233 7.18 303.233 7.98V9.9H311.573C312.573 9.9 313.413 10.22 314.093 10.86C314.773 11.46 315.113 12.22 315.113 13.14C315.113 14.02 314.773 14.78 314.093 15.42C313.413 16.02 312.573 16.32 311.573 16.32H310.853C311.693 17.32 312.353 18.46 312.833 19.74C313.353 21.02 313.612 22.46 313.612 24.06ZM297.293 55.62C295.653 55.62 294.333 55.26 293.333 54.54C292.333 53.86 291.833 53.06 291.833 52.14V43.5C291.753 42.62 291.753 41.72 291.833 40.8C291.913 39.96 292.233 39.28 292.793 38.76C293.393 38.24 294.153 37.98 295.073 37.98C295.273 37.98 295.633 38 296.153 38.04C296.673 38.04 297.033 38.08 297.233 38.16C297.753 38.32 298.153 38.56 298.433 38.88C298.753 39.2 298.993 39.58 299.152 40.02C299.313 40.42 299.413 40.86 299.453 41.34C299.493 41.78 299.533 42.22 299.573 42.66C299.573 42.82 299.573 43.2 299.573 43.8C299.613 44.36 299.633 44.98 299.633 45.66C299.673 46.3 299.693 46.9 299.693 47.46C299.733 48.02 299.773 48.36 299.813 48.48C299.933 48.52 300.253 48.58 300.773 48.66C301.333 48.7 302.353 48.72 303.833 48.72C305.113 48.72 305.893 48.7 306.173 48.66C306.493 48.62 306.673 48.6 306.713 48.6H326.333C326.333 48.6 326.453 48.64 326.693 48.72C326.973 48.8 327.273 48.94 327.593 49.14C327.913 49.3 328.213 49.54 328.493 49.86C328.773 50.14 328.953 50.48 329.033 50.88C329.233 52.4 328.973 53.58 328.253 54.42C327.773 54.98 327.253 55.32 326.693 55.44C326.133 55.56 325.833 55.62 325.793 55.62H297.293ZM327.353 26.82V34.68C327.313 35.12 327.253 35.58 327.173 36.06C327.093 36.5 326.913 36.94 326.633 37.38C326.353 37.9 325.993 38.28 325.553 38.52C324.913 38.96 324.213 39.18 323.453 39.18C322.813 39.18 322.233 39.02 321.713 38.7C321.273 38.46 320.913 38.16 320.633 37.8C320.393 37.44 320.193 37.1 320.033 36.78C319.913 36.46 319.833 36.18 319.793 35.94C319.753 35.66 319.733 35.52 319.733 35.52V12.66C319.733 12.46 319.753 12.02 319.793 11.34C319.873 10.62 320.033 10.02 320.273 9.54C320.713 8.7 321.593 8.22 322.913 8.1C324.393 7.9 325.533 8.2 326.333 9C326.573 9.32 326.753 9.64 326.873 9.96C326.993 10.24 327.093 10.54 327.173 10.86C327.293 11.26 327.353 11.68 327.353 12.12C327.393 12.56 327.393 13 327.353 13.44V20.1C327.513 20.1 327.833 20.12 328.313 20.16C328.793 20.2 329.293 20.24 329.813 20.28C330.333 20.28 330.813 20.3 331.253 20.34C331.733 20.38 332.053 20.42 332.213 20.46C333.053 20.62 333.653 20.86 334.013 21.18C334.373 21.46 334.613 21.82 334.733 22.26C334.813 22.7 334.853 23.22 334.853 23.82C334.853 24.38 334.733 24.86 334.493 25.26C333.973 26.06 333.213 26.52 332.213 26.64C331.213 26.76 330.073 26.82 328.793 26.82H327.353ZM301.373 29.4C302.653 29.16 303.753 28.6 304.673 27.72C305.633 26.8 306.113 25.58 306.113 24.06C306.113 22.86 305.813 21.86 305.213 21.06C304.653 20.26 303.933 19.66 303.053 19.26C302.173 18.82 301.213 18.6 300.173 18.6C299.133 18.56 298.173 18.74 297.293 19.14C296.413 19.54 295.673 20.16 295.073 21C294.513 21.8 294.233 22.82 294.233 24.06C294.233 25.14 294.453 26.06 294.893 26.82C295.333 27.58 295.893 28.18 296.573 28.62C297.253 29.06 298.013 29.34 298.853 29.46C299.693 29.58 300.533 29.56 301.373 29.4ZM367.608 21.72C368.048 21.48 368.468 21.28 368.868 21.12C369.268 20.92 369.668 20.72 370.068 20.52V17.52H362.088C361.808 17.52 361.528 17.52 361.248 17.52C361.008 17.52 360.748 17.5 360.468 17.46C360.268 17.38 360.028 17.34 359.748 17.34C359.508 17.3 359.288 17.28 359.088 17.28C358.488 17.28 357.968 17.14 357.528 16.86C357.168 16.62 356.788 16.22 356.388 15.66C356.308 15.46 356.228 15.22 356.148 14.94C356.068 14.62 356.028 14.34 356.028 14.1C356.028 13.78 356.028 13.5 356.028 13.26C356.068 12.98 356.148 12.72 356.268 12.48C356.668 11.76 357.208 11.22 357.888 10.86C358.248 10.66 358.608 10.5 358.968 10.38C359.328 10.26 359.688 10.2 360.048 10.2H361.368C361.728 10.28 362.028 10.32 362.268 10.32C362.508 10.32 362.728 10.32 362.928 10.32C363.048 10.24 363.228 10.2 363.468 10.2C363.708 10.2 363.988 10.2 364.308 10.2H370.488L370.308 7.98C370.308 7.78 370.328 7.6 370.368 7.44C370.448 7.24 370.528 7.04 370.608 6.84C370.608 6.64 370.648 6.46 370.728 6.3C370.808 6.1 370.888 5.9 370.968 5.7C371.208 5.5 371.528 5.18 371.928 4.74C372.208 4.54 372.508 4.4 372.828 4.32C373.148 4.24 373.508 4.16 373.908 4.08C374.508 4.08 375.208 4.2 376.008 4.44C376.288 4.6 376.568 4.78 376.848 4.98C377.128 5.18 377.368 5.38 377.568 5.58C377.848 5.82 378.028 6.12 378.108 6.48C378.228 6.8 378.288 7.14 378.288 7.5L378.468 10.2H387.348C387.748 10.2 388.148 10.2 388.548 10.2C388.948 10.2 389.348 10.24 389.748 10.32C390.108 10.48 390.468 10.64 390.828 10.8C391.228 10.92 391.568 11.1 391.848 11.34C392.168 11.54 392.428 11.82 392.628 12.18C392.868 12.5 393.048 12.88 393.168 13.32C393.408 14.44 393.208 15.34 392.568 16.02C392.288 16.26 391.968 16.5 391.608 16.74C391.248 16.94 390.848 17.12 390.408 17.28C389.488 17.52 388.488 17.64 387.408 17.64H384.948C384.668 17.64 384.348 17.62 383.988 17.58C383.668 17.54 383.328 17.52 382.968 17.52H378.828V20.64C379.348 20.96 379.888 21.24 380.448 21.48C380.528 21.56 380.628 21.62 380.748 21.66C380.868 21.7 380.988 21.76 381.108 21.84C381.228 21.92 381.348 22 381.468 22.08C381.588 22.12 381.708 22.18 381.828 22.26C382.028 22.38 382.208 22.5 382.368 22.62C382.568 22.74 382.768 22.84 382.968 22.92C383.288 23.12 383.668 23.32 384.108 23.52C384.508 23.8 384.868 24.06 385.188 24.3C385.548 24.5 385.928 24.7 386.328 24.9C386.688 25.18 387.068 25.42 387.468 25.62C387.868 25.82 388.248 26.04 388.608 26.28C389.008 26.48 389.388 26.68 389.748 26.88C390.108 27.08 390.468 27.32 390.828 27.6C391.268 27.88 391.628 28.18 391.908 28.5C392.228 28.78 392.568 29.08 392.928 29.4C393.128 29.48 393.268 29.64 393.348 29.88C393.468 30.08 393.568 30.28 393.648 30.48C393.688 31 393.688 31.52 393.648 32.04C393.568 32.48 393.348 32.9 392.988 33.3C392.828 33.66 392.448 33.9 391.848 34.02C391.168 34.22 390.508 34.32 389.868 34.32C389.228 34.32 388.568 34.22 387.888 34.02C386.528 33.7 385.228 33.22 383.988 32.58C383.468 32.3 382.968 32.04 382.488 31.8C382.008 31.52 381.508 31.26 380.988 31.02C380.548 30.74 380.108 30.48 379.668 30.24C379.228 30 378.728 29.72 378.168 29.4C377.968 29.2 377.588 28.98 377.028 28.74C376.828 28.54 376.628 28.38 376.428 28.26C376.268 28.14 376.088 28.02 375.888 27.9C375.568 27.7 375.268 27.52 374.988 27.36C374.708 27.2 374.408 27.02 374.088 26.82C373.768 27.02 373.428 27.22 373.068 27.42C372.708 27.58 372.388 27.76 372.108 27.96C371.828 28.12 371.548 28.26 371.268 28.38C370.988 28.5 370.728 28.62 370.488 28.74C369.808 29.02 369.368 29.28 369.168 29.52C368.608 29.8 368.108 30.06 367.668 30.3C367.228 30.5 366.788 30.74 366.348 31.02C365.908 31.26 365.428 31.52 364.908 31.8C364.428 32.04 363.908 32.3 363.348 32.58C362.948 32.78 362.548 32.98 362.148 33.18C361.748 33.38 361.328 33.58 360.888 33.78C360.208 34.34 359.368 34.56 358.368 34.44C358.008 34.4 357.648 34.32 357.288 34.2C356.968 34.04 356.628 33.9 356.268 33.78C355.628 33.46 355.188 32.82 354.948 31.86C354.948 31.62 354.948 31.38 354.948 31.14C354.948 30.9 354.988 30.6 355.068 30.24C355.188 29.92 355.308 29.62 355.428 29.34C355.548 29.06 355.708 28.82 355.908 28.62C356.108 28.38 356.328 28.18 356.568 28.02C356.808 27.82 357.048 27.62 357.288 27.42L361.368 24.96C361.768 24.76 362.128 24.62 362.448 24.54C362.768 24.42 363.048 24.3 363.288 24.18C363.608 23.94 363.908 23.76 364.188 23.64C364.468 23.52 364.808 23.36 365.208 23.16C365.528 22.88 365.868 22.64 366.228 22.44C366.628 22.24 367.088 22 367.608 21.72ZM394.668 37.56C394.948 37.76 395.208 37.94 395.448 38.1C395.728 38.22 395.968 38.4 396.168 38.64C396.488 39.16 396.648 39.82 396.648 40.62C396.648 41.66 396.288 42.44 395.568 42.96C395.288 43.2 394.928 43.42 394.488 43.62C394.088 43.78 393.688 43.9 393.288 43.98C392.728 44.06 392.208 44.14 391.728 44.22C391.288 44.26 390.788 44.3 390.228 44.34H378.468C378.468 44.66 378.468 45.06 378.468 45.54C378.508 46.02 378.528 46.5 378.528 46.98C378.528 47.46 378.528 47.92 378.528 48.36C378.568 48.76 378.588 49.08 378.588 49.32C378.588 49.76 378.588 50.2 378.588 50.64C378.588 51.08 378.548 51.58 378.468 52.14C378.388 52.54 378.288 52.92 378.168 53.28C378.088 53.64 377.968 53.98 377.808 54.3C377.688 54.7 377.488 55.02 377.208 55.26C376.968 55.54 376.688 55.8 376.368 56.04C376.128 56.24 375.828 56.4 375.468 56.52C375.108 56.64 374.748 56.7 374.388 56.7C373.948 56.7 373.528 56.64 373.128 56.52C372.728 56.4 372.388 56.24 372.108 56.04C371.828 55.96 371.588 55.78 371.388 55.5C371.228 55.26 371.088 54.98 370.968 54.66C370.808 54.34 370.668 54.06 370.548 53.82C370.468 53.54 370.388 53.24 370.308 52.92V44.34H357.528C357.088 44.34 356.628 44.32 356.148 44.28C355.708 44.24 355.308 44.14 354.948 43.98C354.508 43.94 354.108 43.8 353.748 43.56C353.428 43.28 353.128 42.94 352.848 42.54C352.648 42.22 352.468 41.88 352.308 41.52C352.188 41.16 352.168 40.8 352.248 40.44C352.248 40.08 352.308 39.72 352.428 39.36C352.588 38.96 352.848 38.6 353.208 38.28C353.368 38.04 353.728 37.8 354.288 37.56C354.568 37.48 354.808 37.4 355.008 37.32C355.208 37.24 355.428 37.2 355.668 37.2C355.948 37.16 356.188 37.14 356.388 37.14C356.588 37.14 356.788 37.14 356.988 37.14H390.588C390.948 37.06 391.288 37.04 391.608 37.08C391.968 37.12 392.288 37.14 392.568 37.14C393.008 37.14 393.368 37.2 393.648 37.32C393.968 37.4 394.308 37.48 394.668 37.56ZM415.323 45.54C415.283 45.06 415.263 44.58 415.263 44.1C415.263 43.62 415.263 43.14 415.263 42.66V23.58C415.263 22.94 415.263 22.3 415.263 21.66C415.263 21.02 415.223 20.36 415.143 19.68C415.103 19.48 415.043 19.2 414.963 18.84C414.923 18.48 414.803 18.26 414.603 18.18C414.403 18.06 414.163 18.02 413.883 18.06C413.643 18.06 413.403 18.04 413.163 18C412.883 17.96 412.603 17.96 412.323 18C412.083 18.04 411.823 18.04 411.543 18H408.723C408.043 18.04 407.363 18.04 406.683 18C406.003 17.96 405.323 17.96 404.643 18C404.323 18.04 404.023 18.06 403.743 18.06C403.503 18.02 403.223 18 402.903 18C402.463 18 402.003 17.98 401.523 17.94C401.043 17.9 400.603 17.74 400.203 17.46C399.643 17.06 399.263 16.56 399.063 15.96C398.863 15.36 398.763 14.74 398.763 14.1C398.723 13.34 398.883 12.58 399.243 11.82C399.443 11.34 399.703 11 400.023 10.8C400.223 10.6 400.503 10.44 400.863 10.32C401.263 10.16 401.603 10.04 401.883 9.96C402.723 9.76 403.603 9.66 404.523 9.66C405.443 9.62 406.343 9.6 407.223 9.6H417.663C418.183 9.68 418.723 9.76 419.283 9.84C419.883 9.88 420.423 10 420.903 10.2C421.223 10.32 421.523 10.48 421.803 10.68C422.123 10.88 422.383 11.12 422.583 11.4C422.943 11.96 423.143 12.52 423.183 13.08C423.263 13.64 423.343 14.26 423.423 14.94C423.503 16.06 423.543 17.18 423.543 18.3C423.543 19.38 423.543 20.48 423.543 21.6V41.28C423.543 41.32 423.543 41.64 423.543 42.24C423.583 42.8 423.603 43.48 423.603 44.28C423.603 45.04 423.603 45.86 423.603 46.74C423.603 47.58 423.583 48.32 423.543 48.96C423.503 49.36 423.443 49.78 423.363 50.22C423.283 50.66 423.143 51.08 422.943 51.48C422.783 51.88 422.543 52.24 422.223 52.56C421.903 52.88 421.483 53.14 420.963 53.34C420.283 53.62 419.603 53.76 418.923 53.76C418.403 53.76 417.883 53.66 417.363 53.46C416.843 53.22 416.483 52.88 416.283 52.44C415.643 51.16 415.323 49.74 415.323 48.18V45.54ZM440.703 26.1C441.263 26.14 441.843 26.18 442.443 26.22C443.043 26.22 443.623 26.24 444.183 26.28C444.383 26.28 444.603 26.3 444.843 26.34C445.083 26.38 445.323 26.42 445.563 26.46C446.363 26.62 447.003 26.96 447.483 27.48C448.003 27.96 448.263 28.62 448.263 29.46C448.263 30.02 448.203 30.66 448.083 31.38C448.003 32.1 447.703 32.66 447.183 33.06C446.943 33.26 446.703 33.42 446.463 33.54C446.223 33.66 445.943 33.76 445.623 33.84C444.983 33.92 444.203 33.94 443.283 33.9C442.363 33.86 441.583 33.86 440.943 33.9C440.783 33.9 440.703 34 440.703 34.2C440.703 34.68 440.703 35.26 440.703 35.94C440.703 36.58 440.703 37.26 440.703 37.98C440.703 38.66 440.703 39.34 440.703 40.02C440.703 40.66 440.703 41.24 440.703 41.76C440.783 43.84 440.783 45.88 440.703 47.88V48.72C440.703 49.24 440.683 49.82 440.643 50.46C440.643 51.06 440.603 51.66 440.523 52.26C440.443 52.86 440.303 53.44 440.103 54C439.903 54.52 439.623 54.96 439.263 55.32C438.783 55.88 438.143 56.16 437.343 56.16C437.343 56.16 437.303 56.14 437.223 56.1C436.263 56.06 435.483 55.78 434.883 55.26C434.323 54.74 433.883 54.1 433.563 53.34C433.283 52.58 433.103 51.8 433.023 51C432.943 50.16 432.903 49.42 432.903 48.78V13.14C432.903 13.1 432.903 12.92 432.903 12.6C432.903 12.24 432.943 11.84 433.023 11.4C433.103 10.92 433.223 10.44 433.383 9.96C433.583 9.44 433.843 9.02 434.163 8.7C434.443 8.42 434.843 8.22 435.363 8.1C435.923 7.94 436.423 7.86 436.863 7.86C437.743 7.86 438.483 8.16 439.083 8.76C439.643 9.32 439.963 9.92 440.043 10.56C440.163 11.16 440.263 11.8 440.343 12.48C440.383 12.64 440.403 12.88 440.403 13.2C440.483 13.88 440.523 14.58 440.523 15.3C440.563 16.02 440.603 16.74 440.643 17.46C440.643 17.78 440.643 18.04 440.643 18.24C440.643 18.44 440.643 18.76 440.643 19.2C440.683 19.6 440.703 20.22 440.703 21.06C440.703 21.9 440.703 23.12 440.703 24.72V26.1ZM493.448 51.42C493.368 51.9 493.308 52.38 493.268 52.86C493.228 53.3 493.128 53.76 492.968 54.24C492.888 54.4 492.828 54.54 492.788 54.66C492.748 54.78 492.688 54.92 492.608 55.08C492.328 55.64 491.968 56.08 491.528 56.4C490.608 56.96 489.588 57.1 488.468 56.82C487.828 56.7 487.308 56.46 486.908 56.1C486.548 55.78 486.268 55.36 486.068 54.84C485.908 54.36 485.768 53.88 485.648 53.4C485.568 52.92 485.528 52.5 485.528 52.14C485.528 51.78 485.528 51.58 485.528 51.54V14.46C485.528 13.98 485.528 13.46 485.528 12.9C485.528 12.34 485.568 11.78 485.648 11.22C485.728 10.66 485.848 10.14 486.008 9.66C486.168 9.18 486.388 8.8 486.668 8.52C487.108 8.08 487.568 7.82 488.048 7.74C488.528 7.62 489.048 7.56 489.608 7.56C490.288 7.56 490.908 7.76 491.468 8.16C492.068 8.52 492.488 9.04 492.728 9.72C493.088 10.56 493.288 11.44 493.328 12.36C493.368 13.28 493.408 14.2 493.448 15.12V15.42C493.528 18.5 493.548 21.66 493.508 24.9C493.468 28.14 493.448 31.2 493.448 34.08V49.26C493.448 49.62 493.448 49.98 493.448 50.34C493.488 50.7 493.488 51.06 493.448 51.42ZM465.128 45.54C465.088 45.06 465.068 44.58 465.068 44.1C465.068 43.62 465.068 43.14 465.068 42.66V23.58C465.068 22.94 465.068 22.3 465.068 21.66C465.068 21.02 465.028 20.36 464.948 19.68C464.908 19.48 464.848 19.2 464.768 18.84C464.728 18.48 464.608 18.26 464.408 18.18C464.208 18.06 463.968 18.02 463.688 18.06C463.448 18.06 463.208 18.04 462.968 18C462.688 17.96 462.408 17.96 462.128 18C461.888 18.04 461.628 18.04 461.348 18H458.528C457.848 18.04 457.168 18.04 456.488 18C455.808 17.96 455.128 17.96 454.448 18C454.128 18.04 453.828 18.06 453.548 18.06C453.308 18.02 453.028 18 452.708 18C452.268 18 451.808 17.98 451.328 17.94C450.848 17.9 450.408 17.74 450.008 17.46C449.448 17.06 449.068 16.56 448.868 15.96C448.668 15.36 448.568 14.74 448.568 14.1C448.528 13.34 448.688 12.58 449.048 11.82C449.248 11.34 449.508 11 449.828 10.8C450.028 10.6 450.308 10.44 450.668 10.32C451.068 10.16 451.408 10.04 451.688 9.96C452.528 9.76 453.408 9.66 454.328 9.66C455.248 9.62 456.148 9.6 457.028 9.6H467.468C467.988 9.68 468.528 9.76 469.088 9.84C469.688 9.88 470.228 10 470.708 10.2C471.028 10.32 471.328 10.48 471.608 10.68C471.928 10.88 472.188 11.12 472.388 11.4C472.748 11.96 472.948 12.52 472.988 13.08C473.068 13.64 473.148 14.26 473.228 14.94C473.308 16.06 473.348 17.18 473.348 18.3C473.348 19.38 473.348 20.48 473.348 21.6V41.28C473.348 41.32 473.348 41.64 473.348 42.24C473.388 42.8 473.408 43.48 473.408 44.28C473.408 45.04 473.408 45.86 473.408 46.74C473.408 47.58 473.388 48.32 473.348 48.96C473.308 49.36 473.248 49.78 473.168 50.22C473.088 50.66 472.948 51.08 472.748 51.48C472.588 51.88 472.348 52.24 472.028 52.56C471.708 52.88 471.288 53.14 470.768 53.34C470.088 53.62 469.408 53.76 468.728 53.76C468.208 53.76 467.688 53.66 467.168 53.46C466.648 53.22 466.288 52.88 466.088 52.44C465.448 51.16 465.128 49.74 465.128 48.18V45.54ZM501.073 47.82C501.073 46.14 501.593 44.74 502.633 43.62C503.673 42.5 505.073 41.62 506.833 40.98C508.593 40.34 510.653 39.9 513.013 39.66C515.413 39.38 517.973 39.24 520.693 39.24C523.413 39.24 525.953 39.34 528.313 39.54C530.713 39.7 532.793 40.08 534.553 40.68C536.353 41.28 537.773 42.16 538.813 43.32C539.853 44.44 540.373 45.94 540.373 47.82C540.373 49.7 539.853 51.2 538.813 52.32C537.773 53.44 536.353 54.3 534.553 54.9C532.793 55.5 530.713 55.9 528.313 56.1C525.953 56.3 523.413 56.4 520.693 56.4C517.973 56.4 515.413 56.3 513.013 56.1C510.653 55.9 508.593 55.5 506.833 54.9C505.073 54.3 503.673 53.44 502.633 52.32C501.593 51.2 501.073 49.7 501.073 47.82ZM504.793 7.74C505.273 7.54 505.733 7.44 506.173 7.44C506.373 7.44 506.593 7.46 506.833 7.5C507.073 7.5 507.293 7.54 507.493 7.62C508.213 7.82 508.753 8.18 509.113 8.7C509.433 9.14 509.653 9.6 509.773 10.08C509.853 10.4 509.913 10.74 509.953 11.1C509.993 11.46 510.033 11.82 510.073 12.18L510.433 17.1C510.473 17.46 510.473 17.72 510.433 17.88C510.393 18.04 510.453 18.28 510.613 18.6C510.733 18.92 510.873 19.14 511.033 19.26C511.233 19.34 511.453 19.4 511.693 19.44C511.933 19.44 512.173 19.42 512.413 19.38C512.653 19.34 512.893 19.34 513.133 19.38H530.533C530.973 19.34 531.433 19.34 531.913 19.38C532.393 19.38 532.873 19.38 533.353 19.38C534.073 19.38 534.853 19.5 535.693 19.74C536.573 19.94 537.253 20.44 537.733 21.24C538.133 21.88 538.253 22.44 538.093 22.92C537.933 23.4 537.553 23.9 536.953 24.42C536.473 24.82 535.913 25.12 535.273 25.32C534.673 25.48 534.053 25.6 533.413 25.68C532.773 25.72 532.113 25.74 531.433 25.74C530.793 25.74 530.173 25.74 529.573 25.74C529.253 25.74 528.913 25.74 528.553 25.74C528.193 25.7 527.853 25.7 527.533 25.74H525.493C525.173 25.74 524.453 25.74 523.333 25.74C522.253 25.74 521.093 25.74 519.853 25.74C518.613 25.74 517.433 25.74 516.313 25.74C515.233 25.74 514.533 25.74 514.213 25.74C513.613 25.7 512.993 25.7 512.353 25.74C511.713 25.74 511.073 25.74 510.433 25.74C509.753 25.74 509.013 25.72 508.213 25.68C507.453 25.64 506.713 25.52 505.993 25.32C505.313 25.08 504.693 24.74 504.133 24.3C503.573 23.82 503.173 23.16 502.933 22.32C502.773 21.88 502.633 21.5 502.513 21.18C502.433 20.82 502.393 20.42 502.393 19.98C502.433 19.78 502.453 19.3 502.453 18.54C502.453 17.74 502.433 16.92 502.393 16.08C502.393 15.2 502.373 14.38 502.333 13.62C502.333 12.82 502.333 12.32 502.333 12.12C502.413 11.6 502.513 11.1 502.633 10.62C502.753 10.1 502.933 9.62 503.173 9.18C503.333 8.94 503.573 8.7 503.893 8.46C504.253 8.18 504.553 7.94 504.793 7.74ZM503.533 29.52C504.533 29.56 505.753 29.58 507.193 29.58C508.633 29.58 510.133 29.58 511.693 29.58C513.253 29.58 514.793 29.58 516.313 29.58C517.833 29.54 519.173 29.52 520.333 29.52H537.613C538.293 29.52 538.993 29.56 539.713 29.64C540.433 29.72 541.073 29.88 541.633 30.12C542.193 30.36 542.653 30.72 543.013 31.2C543.413 31.64 543.613 32.22 543.613 32.94C543.613 33.74 543.213 34.5 542.413 35.22C541.773 35.78 540.993 36.1 540.073 36.18C539.193 36.22 538.353 36.22 537.553 36.18C537.353 36.14 537.173 36.12 537.013 36.12C536.853 36.12 536.673 36.12 536.473 36.12H503.413C503.373 36.12 503.193 36.12 502.873 36.12C502.553 36.12 502.173 36.08 501.733 36C501.333 35.92 500.913 35.82 500.473 35.7C500.033 35.54 499.673 35.3 499.393 34.98C498.913 34.46 498.673 33.84 498.673 33.12C498.673 32.68 498.733 32.34 498.853 32.1C499.013 31.82 499.213 31.56 499.453 31.32C499.973 30.84 500.513 30.44 501.073 30.12C501.633 29.8 502.213 29.6 502.813 29.52C502.933 29.52 503.053 29.54 503.173 29.58C503.293 29.58 503.413 29.56 503.533 29.52ZM532.453 47.82C532.453 47.18 532.093 46.68 531.373 46.32C530.693 45.96 529.773 45.7 528.613 45.54C527.493 45.34 526.233 45.22 524.833 45.18C523.433 45.14 522.053 45.12 520.693 45.12C519.333 45.12 517.973 45.14 516.613 45.18C515.253 45.22 514.033 45.34 512.953 45.54C511.873 45.7 510.993 45.96 510.313 46.32C509.673 46.68 509.353 47.18 509.353 47.82C509.353 48.38 509.673 48.84 510.313 49.2C510.993 49.56 511.873 49.84 512.953 50.04C514.033 50.24 515.253 50.38 516.613 50.46C517.973 50.5 519.333 50.52 520.693 50.52C522.053 50.52 523.433 50.52 524.833 50.52C526.233 50.52 527.493 50.46 528.613 50.34C529.773 50.18 530.693 49.92 531.373 49.56C532.093 49.16 532.453 48.58 532.453 47.82ZM549.916 9.78C550.236 9.26 550.676 8.88 551.236 8.64C551.796 8.4 552.336 8.28 552.856 8.28C553.296 8.28 553.716 8.3 554.116 8.34C554.556 8.34 554.976 8.38 555.376 8.46C556.216 8.7 556.816 9.24 557.176 10.08C557.536 10.88 557.756 11.82 557.836 12.9C557.956 13.94 557.976 14.98 557.896 16.02C557.856 17.06 557.836 17.9 557.836 18.54V36.24C557.836 37.04 557.836 37.84 557.836 38.64C557.836 39.44 557.696 40.2 557.416 40.92C557.136 41.6 556.616 42.1 555.856 42.42C555.096 42.74 554.296 42.9 553.456 42.9C552.616 42.86 551.816 42.68 551.056 42.36C550.296 42 549.776 41.5 549.496 40.86C549.376 40.5 549.276 40.06 549.196 39.54C549.156 38.98 549.116 38.48 549.076 38.04C549.036 37.36 549.016 36.66 549.016 35.94C549.056 35.18 549.076 34.42 549.076 33.66V13.56C549.076 13.08 549.136 12.46 549.256 11.7C549.376 10.94 549.596 10.3 549.916 9.78ZM556.816 48.36C556.936 48.56 557.036 48.76 557.116 48.96C557.236 49.12 557.336 49.32 557.416 49.56C557.536 50 557.616 50.46 557.656 50.94C557.696 51.42 557.656 51.9 557.536 52.38C557.416 52.82 557.216 53.24 556.936 53.64C556.656 54.04 556.276 54.34 555.796 54.54C555.356 54.74 554.836 54.86 554.236 54.9C553.636 54.94 553.056 54.9 552.496 54.78C551.936 54.66 551.416 54.44 550.936 54.12C550.456 53.8 550.116 53.38 549.916 52.86C549.716 52.3 549.596 51.66 549.556 50.94C549.556 50.18 549.656 49.52 549.856 48.96C550.096 48.36 550.476 47.96 550.996 47.76C551.516 47.52 552.076 47.4 552.676 47.4C553.436 47.36 554.176 47.38 554.896 47.46C555.656 47.54 556.296 47.84 556.816 48.36Z" fill="#ED3095"/>
</g>
<rect width="7" height="65" fill="#A8D267"/>
<defs>
<filter id="filter0_d_234_213" x="18.2793" y="0.0800781" width="545.736" height="61.1599" filterUnits="userSpaceOnUse" color-interpolation-filters="sRGB">
<feFlood flood-opacity="0" result="BackgroundImageFix"/>
<feColorMatrix in="SourceAlpha" type="matrix" values="0 0 0 0 0 0 0 0 0 0 0 0 0 0 0 0 0 0 127 0" result="hardAlpha"/>
<feOffset dx="2"/>
<feGaussianBlur stdDeviation="2"/>
<feComposite in2="hardAlpha" operator="out"/>
<feColorMatrix type="matrix" values="0 0 0 0 0.858333 0 0 0 0 0.858333 0 0 0 0 0.858333 0 0 0 0.25 0"/>
<feBlend mode="normal" in2="BackgroundImageFix" result="effect1_dropShadow_234_213"/>
<feBlend mode="normal" in="SourceGraphic" in2="effect1_dropShadow_234_213" result="shape"/>
</filter>
</defs>
</svg>
