<svg width="53" height="62" viewBox="0 0 53 62" fill="none" xmlns="http://www.w3.org/2000/svg">
<path d="M32.1191 24.5344C31.7748 26.6831 30.9688 28.6406 29.7011 30.4069C28.4334 32.1731 26.8247 33.58 24.8751 34.6274C23.5472 35.3056 22.1838 35.7671 20.7848 36.0118C19.3857 36.2565 17.9666 36.3339 16.5274 36.244C15.0955 36.1084 13.6856 35.8356 12.2977 35.4256C10.9628 34.9773 9.69932 34.3763 8.50715 33.6226C7.30765 32.9146 6.20236 32.0576 5.19129 31.0515C4.22593 30.0528 3.41604 28.9618 2.76162 27.7785C2.10719 26.5951 1.65395 25.3268 1.40189 23.9735C1.15715 22.5744 1.15564 21.1206 1.39737 19.6119C1.69769 17.7375 2.2357 16.1357 3.01138 14.8064C3.79438 13.4313 4.75747 12.2493 5.90065 11.2602L4.66631 11.0624C3.52338 10.8793 2.61827 10.3825 1.95095 9.57227C1.29097 8.71627 1.04155 7.78539 1.20271 6.77962C1.37118 5.72813 1.89895 4.92177 2.78602 4.36054C3.6804 3.7536 4.69906 3.5417 5.84198 3.72482L14.8939 5.17519L15.2455 2.98078C15.392 2.06644 15.9015 1.37438 16.7739 0.904588C17.6536 0.389078 18.6421 0.219223 19.7393 0.395026C20.8365 0.570828 21.7224 1.04101 22.3971 1.80557C23.079 2.52442 23.3468 3.34101 23.2003 4.25535L22.8486 6.44976L32.3806 7.97704C33.5235 8.16017 34.425 8.67973 35.085 9.53573C35.7523 10.346 36.0017 11.2769 35.8332 12.3284C35.6721 13.3341 35.1443 14.1405 34.2499 14.7475C33.3629 15.3087 32.3479 15.4977 31.2049 15.3146L30.382 15.1827C31.159 16.4795 31.7045 17.9033 32.0187 19.4541C32.3787 21.0123 32.4121 22.7057 32.1191 24.5344ZM0.661805 46.1514C0.991435 44.0941 1.86045 42.4749 3.26885 41.2939C4.72295 40.1202 6.54089 39.3095 8.72268 38.862C10.9118 38.3687 13.4264 38.1854 16.2664 38.3123C19.1064 38.4391 22.1036 38.7552 25.2581 39.2606C28.4125 39.7661 31.3658 40.3565 34.1179 41.0319C36.87 41.7073 39.2125 42.5984 41.1452 43.7053C43.0852 44.7664 44.5397 46.0779 45.5086 47.6398C46.5232 49.2091 46.8437 51.1595 46.4701 53.4911C46.1039 55.7769 45.1937 57.5067 43.7396 58.6805C42.3312 59.8615 40.5398 60.653 38.3653 61.0548C36.1835 61.5024 33.6799 61.617 30.8546 61.3988C28.0219 61.2262 25.0283 60.8873 21.8739 60.3818C18.7194 59.8764 15.7698 59.2631 13.025 58.542C10.2729 57.8666 7.93047 56.9755 5.99774 55.8686C4.05768 54.8075 2.58036 53.4923 1.56576 51.9231C0.596875 50.3611 0.29555 48.4372 0.661805 46.1514ZM52.1277 10.719C52.2135 11.061 52.2619 11.4908 52.2728 12.0083C52.2836 12.5259 52.2716 13.0397 52.2368 13.55C52.2092 14.0144 52.1625 14.4524 52.0966 14.8639C52.0306 15.2753 51.9904 15.5268 51.9757 15.6182L48.4047 37.9052C48.3974 37.9509 48.3452 38.1301 48.2483 38.4428C48.1586 38.7098 47.9893 39.0343 47.7405 39.4165C47.5375 39.806 47.243 40.1808 46.857 40.541C46.5168 40.9085 46.0961 41.1927 45.595 41.3938C44.8891 41.7027 44.1932 41.8022 43.5074 41.6923C42.5931 41.5458 41.837 41.1433 41.2392 40.4849C40.7418 40.0769 40.4036 39.5538 40.2245 38.9156C39.9924 38.3157 39.8746 37.7341 39.8711 37.1709C39.8675 36.6076 39.8832 36.0709 39.9181 35.5607L40.2367 33.572L40.031 33.539C39.3526 33.3834 38.6019 33.2397 37.779 33.1079C37.0091 32.9376 36.2429 32.7445 35.4804 32.5286C34.7636 32.3199 34.1263 32.0537 33.5686 31.7299C33.0183 31.3604 32.6425 30.925 32.4415 30.4239C32.202 29.8698 32.1373 29.2498 32.2471 28.5641C32.4101 27.8399 32.5775 27.2337 32.7495 26.7455C32.9746 26.2189 33.3221 25.8056 33.7922 25.5058C34.2622 25.206 34.9956 25.0187 35.9923 24.944C36.1825 24.9276 36.529 24.9596 37.0319 25.0402C37.5878 25.0824 38.1438 25.1246 38.6997 25.1668C39.3013 25.2163 39.8536 25.2813 40.3565 25.3619C40.9124 25.4041 41.3047 25.4435 41.5333 25.4801L42.0277 22.3942C41.3419 22.2843 40.5611 22.1827 39.6852 22.0892C38.8622 21.9574 38.0658 21.8063 37.296 21.6361C36.5792 21.4274 35.9154 21.1804 35.3047 20.895C34.7397 20.6169 34.3566 20.2273 34.1556 19.7262C34.055 19.4756 33.9883 19.1601 33.9555 18.7798C33.9684 18.4067 33.9813 18.0336 33.9942 17.6606C34.0601 17.2491 34.1452 16.8642 34.2495 16.5058C34.3538 16.1474 34.4509 15.8347 34.5405 15.5677C34.7582 15.0868 35.1021 14.6964 35.5722 14.3966C36.0422 14.0968 36.7756 13.9095 37.7723 13.8348C37.9168 13.811 38.1947 13.8321 38.6062 13.8981C39.0707 13.9256 39.5772 13.9833 40.1258 14.0712C40.6817 14.1134 41.234 14.1784 41.7826 14.2663C42.3842 14.3158 42.8908 14.3736 43.3023 14.4395C43.3225 14.0207 43.414 13.4492 43.577 12.7251C43.7399 12.001 43.8963 11.4633 44.0464 11.1123C44.2421 10.7685 44.415 10.4211 44.5651 10.07C44.7151 9.7189 44.9794 9.38613 45.358 9.07168C45.8427 8.68043 46.4426 8.44831 47.1577 8.37533C47.9258 8.26394 48.7139 8.31989 49.5222 8.54318C50.9485 9.00617 51.817 9.73145 52.1277 10.719ZM37.2125 52.0078C37.337 51.2306 37.0244 50.5475 36.2748 49.9585C35.5251 49.3694 34.5057 48.8544 33.2165 48.4134C31.9731 47.9797 30.5321 47.6082 28.8936 47.2987C27.3082 46.9509 25.7155 46.6488 24.1154 46.3925C22.5153 46.1361 20.9078 45.9254 19.2931 45.7605C17.7314 45.5571 16.2922 45.4672 14.9755 45.4907C13.7045 45.5215 12.6438 45.7032 11.7934 46.0359C10.9429 46.3685 10.4555 46.9234 10.3309 47.7006C10.2211 48.3864 10.5181 49.0201 11.222 49.6018C11.9259 50.1835 12.8768 50.6875 14.0745 51.1139C15.318 51.5476 16.7096 51.9346 18.2493 52.2751C19.8347 52.6229 21.4275 52.925 23.0276 53.1814C24.6277 53.4378 26.2277 53.6942 27.8278 53.9506C29.4736 54.2143 30.9512 54.3572 32.2606 54.3795C33.6157 54.409 34.7413 54.2611 35.6375 53.9358C36.541 53.5648 37.066 52.9221 37.2125 52.0078ZM17.1518 28.3961C18.6587 28.3562 20.0185 27.9176 21.2311 27.0803C22.4968 26.2046 23.2688 24.8982 23.5472 23.1609C23.7084 22.1552 23.6455 21.2307 23.3585 20.3876C23.1173 19.5518 22.717 18.8312 22.1575 18.2258C21.6511 17.5819 21.0084 17.057 20.2295 16.6508C19.4505 16.2446 18.6496 15.9756 17.8267 15.8438C16.9654 15.6589 16.1013 15.6377 15.2345 15.7801C14.3749 15.8769 13.5849 16.1254 12.8642 16.5257C12.1436 16.9261 11.5117 17.5047 10.9684 18.2617C10.4781 18.9803 10.1451 19.8882 9.96928 20.9854C9.7715 22.2197 9.85446 23.3115 10.2182 24.2607C10.5819 25.2099 11.112 25.9982 11.8087 26.6256C12.5053 27.253 13.3226 27.7122 14.2607 28.0032C15.1988 28.2942 16.1625 28.4252 17.1518 28.3961Z" fill="#1EAF63"/>
</svg>
