<svg width="58" height="60" viewBox="0 0 58 60" fill="none" xmlns="http://www.w3.org/2000/svg">
<path d="M17.1837 43.5684C17.3322 44.2142 17.4576 44.8653 17.56 45.5217C17.6518 46.132 17.795 46.7548 17.9896 47.39C18.0639 47.7129 18.1612 48.0305 18.2816 48.3428C18.402 48.6551 18.604 48.9 18.8877 49.0776C19.2175 49.2446 19.5722 49.3088 19.9519 49.27C20.367 49.1746 20.7591 49.0844 21.1282 48.9995C21.6356 48.8829 22.1714 48.7839 22.7356 48.7028C23.2891 48.5755 23.8196 48.4535 24.327 48.3368C24.9267 48.1989 25.6417 48.0345 26.472 47.8435C27.3024 47.6526 28.1327 47.4616 28.963 47.2707C29.8395 47.0691 30.6982 46.8959 31.5391 46.7511C32.38 46.6063 33.0826 46.4933 33.6468 46.4122C34.4522 46.3241 35.2913 46.2768 36.164 46.2704C37.0723 46.2072 37.9254 46.3268 38.7235 46.6289C39.1455 46.7747 39.4735 47.0393 39.7074 47.4226C39.9767 47.7492 40.1822 48.1148 40.3238 48.5193C40.423 48.7394 40.4991 48.9647 40.5522 49.1954C40.5946 49.3799 40.6423 49.5875 40.6954 49.8181C40.8577 50.9464 40.7008 51.9539 40.2247 52.8405C39.738 53.6809 38.9907 54.3385 37.9828 54.8131C37.3582 55.0539 36.7336 55.2946 36.109 55.5354C35.5305 55.7656 34.9184 55.9549 34.2726 56.1034C34.042 56.1565 33.6729 56.2413 33.1655 56.358C32.6581 56.4747 32.1045 56.602 31.5048 56.7399C30.8945 56.8317 30.3357 56.9359 29.8283 57.0526C29.3208 57.1693 28.9749 57.2488 28.7904 57.2913L22.4245 58.7552C21.5019 58.9673 20.5918 59.1281 19.6941 59.2373C18.8426 59.336 17.9502 59.4684 17.017 59.6344C16.3145 59.7474 15.5729 59.7965 14.7924 59.7817C14.0013 59.7208 13.2937 59.495 12.6696 59.1042C12.0455 58.7135 11.5261 58.2501 11.1114 57.7141C10.7429 57.1674 10.4151 56.5871 10.1282 55.9731C9.51202 54.5606 9.04663 53.0649 8.73209 51.4859C8.41755 49.9069 8.08524 48.3563 7.73518 46.834L3.83675 29.8815C3.65642 29.0973 3.47078 28.29 3.27984 27.4597C3.13502 26.6187 2.94408 25.7884 2.70701 24.9687C2.6964 24.9226 2.59377 24.5819 2.39913 23.9467C2.24001 23.2547 2.05437 22.4475 1.84221 21.5249C1.61945 20.5562 1.39668 19.5875 1.17391 18.6187C0.940536 17.6039 0.756745 16.6991 0.622538 15.9043C0.456508 14.9711 0.446627 13.9777 0.592894 12.9241C0.728554 11.8244 1.33772 10.8829 2.4204 10.0997C2.88539 9.79849 3.38405 9.53811 3.91639 9.31856C4.44872 9.099 5.00758 8.99477 5.59295 9.00586C6.17833 9.01696 6.7441 9.15398 7.29026 9.41694C7.87193 9.62315 8.34705 9.99958 8.7156 10.5462C9.14089 11.1284 9.48452 11.7779 9.74651 12.4947C10.044 13.1549 10.2829 13.877 10.4633 14.6612C10.58 15.1686 10.6966 15.6761 10.8133 16.1835C10.93 16.6909 11.0698 17.193 11.2326 17.6898L17.1837 43.5684ZM50.5531 19.5028C50.7837 19.4497 50.9966 19.4251 51.1917 19.4288C51.433 19.4218 51.6689 19.3919 51.8996 19.3388C52.1408 19.3319 52.4052 19.3197 52.6925 19.3022C52.9693 19.2385 53.2514 19.198 53.5388 19.1804C54.0674 19.156 54.6173 19.2238 55.1883 19.3839C55.7488 19.4979 56.2027 19.7821 56.55 20.2364C56.9896 20.6696 57.289 21.2322 57.4481 21.9241C57.533 22.2931 57.5895 22.6444 57.6176 22.9779C57.6812 23.2547 57.7094 23.5882 57.702 23.9785C57.6946 24.3687 57.6694 24.7873 57.6265 25.2343C57.6297 25.6707 57.4964 26.0413 57.2265 26.3462C56.6868 26.956 56.133 27.3991 55.5651 27.6754C54.8483 27.9374 53.9541 28.1673 52.8825 28.3651C51.8109 28.563 50.9114 28.7699 50.1839 28.9857C50.1378 28.9963 50.097 29.03 50.0615 29.0867L49.9923 29.1026L49.939 29.1877L49.9867 29.3953C50.114 29.9489 50.2678 30.6178 50.4482 31.402C50.6285 32.1862 50.8141 32.9934 51.0051 33.8237C51.1854 34.6079 51.3657 35.3921 51.5461 36.1763C51.7158 36.9144 51.8696 37.5833 52.0075 38.183C52.6514 40.5605 53.1924 42.9131 53.6306 45.2408L53.8533 46.2095C53.9912 46.8092 54.122 47.4833 54.2456 48.232C54.4047 48.924 54.5177 49.6265 54.5845 50.3397C54.6514 51.0528 54.6438 51.7588 54.5616 52.4577C54.4689 53.1104 54.2627 53.6921 53.943 54.2027C53.5379 54.9758 52.8741 55.4684 51.9515 55.6806C51.9515 55.6806 51.9001 55.6681 51.7972 55.6432C50.6795 55.8517 49.7057 55.7356 48.8759 55.2951C48.0922 54.8439 47.415 54.2225 46.8445 53.4309C46.32 52.6287 45.9056 51.7769 45.6011 50.8756C45.2861 49.9281 45.0437 49.0853 44.874 48.3472L35.4223 7.24598C35.4117 7.19985 35.364 6.99227 35.2791 6.62324C35.1836 6.20807 35.1237 5.73617 35.0992 5.20753C35.0642 4.63276 35.0753 4.04739 35.1325 3.45141C35.2253 2.79868 35.4137 2.24537 35.6979 1.79147C35.9465 1.39431 36.3548 1.05759 36.9227 0.781297C37.526 0.448267 38.0814 0.223409 38.5889 0.106721C39.6037 -0.126654 40.5367 0.0230696 41.3877 0.555892C42.182 1.05319 42.7102 1.66027 42.9722 2.37712C43.2697 3.03723 43.5547 3.74878 43.8273 4.51177C43.9159 4.68568 44.0026 4.95715 44.0875 5.32618C44.3601 6.08917 44.5918 6.88582 44.7828 7.71615C45.0198 8.53587 45.2569 9.35559 45.494 10.1753C45.6107 10.6827 45.7274 11.1902 45.8441 11.6976C45.9963 12.1483 46.1307 12.6273 46.2474 13.1347C46.2649 13.4221 46.3055 13.7042 46.3692 13.981C46.4683 14.201 46.5444 14.4264 46.5975 14.657L47.4726 18.4627C47.5257 18.6933 47.584 18.947 47.6477 19.2238C47.7113 19.5006 47.8158 19.7437 47.9611 19.9531C47.9717 19.9993 48.2076 19.9693 48.6689 19.8632C49.1302 19.7571 49.3839 19.6988 49.4301 19.6882C49.8664 19.685 50.1946 19.6338 50.4147 19.5346L50.5531 19.5028Z" fill="#FCB247"/>
</svg>
