<svg width="26" height="68" viewBox="0 0 26 68" fill="none" xmlns="http://www.w3.org/2000/svg">
<path d="M14.6194 2.11034C15.2383 1.4749 15.9828 1.07606 16.8529 0.913807C17.723 0.751552 18.5266 0.753044 19.2637 0.91829C19.8874 1.05811 20.4764 1.21993 21.0307 1.40374C21.6545 1.54357 22.2372 1.73375 22.7788 1.97426C23.8933 2.58141 24.5722 3.53755 24.8156 4.8427C25.0716 6.09114 25.0848 7.49356 24.855 9.04993C24.6946 10.5623 24.3925 12.0429 23.9486 13.4918C23.5614 14.9533 23.2661 16.1377 23.0627 17.0449L17.438 42.1356C17.1838 43.2697 16.9296 44.4037 16.6753 45.5377C16.4211 46.6718 15.9811 47.7046 15.3554 48.6363C14.7424 49.5112 13.8464 50.0548 12.6673 50.2669C11.4883 50.479 10.3035 50.4516 9.11273 50.1846C7.9347 49.861 6.85784 49.3516 5.88219 48.6565C4.91925 47.9046 4.34101 47.0306 4.14747 46.0344C4.09177 45.486 4.08981 44.8305 4.14165 44.0679C4.26291 43.2614 4.36507 42.5399 4.44819 41.9034C4.60758 40.9268 4.8017 39.9282 5.03051 38.9075C5.32872 37.8429 5.59856 36.7719 5.84007 35.6946L12.2275 7.20175C12.38 6.52132 12.6621 5.66151 13.0737 4.6223C13.4853 3.5831 14.0006 2.74578 14.6194 2.11034ZM12.1406 58.9922C12.2472 59.3139 12.3254 59.6291 12.3752 59.9381C12.4945 60.203 12.5726 60.5183 12.6098 60.8839C12.64 61.5458 12.6073 62.2233 12.5115 62.9164C12.4157 63.6096 12.2064 64.2773 11.8838 64.9196C11.5738 65.5052 11.1568 66.037 10.6328 66.515C10.1088 66.993 9.47479 67.2976 8.73081 67.4285C8.04353 67.5722 7.26826 67.5771 6.40502 67.4431C5.54178 67.3092 4.73231 67.0681 3.97661 66.7201C3.22091 66.372 2.55369 65.8949 1.97496 65.2888C1.39622 64.6826 1.04771 63.9792 0.929447 63.1785C0.823894 62.3211 0.857172 61.3758 1.02927 60.3424C1.27078 59.2651 1.6223 58.3613 2.08376 57.631C2.61465 56.8567 3.28039 56.4104 4.08107 56.2922C4.89446 56.1172 5.72646 56.1251 6.57699 56.3157C7.66704 56.5005 8.70969 56.7641 9.70491 57.1063C10.7568 57.4612 11.5687 58.0898 12.1406 58.9922Z" fill="#BA80B8"/>
</svg>
