<svg width="52" height="49" viewBox="0 0 52 49" fill="none" xmlns="http://www.w3.org/2000/svg">
<path d="M26.2656 1.88798C27.9021 1.98807 29.3092 2.23439 30.4871 2.62694C30.9938 2.85824 31.4756 3.16815 31.9326 3.55667C32.392 3.90527 32.7631 4.38869 33.0458 5.00693C33.3358 5.50542 33.5037 6.03651 33.5493 6.60018C33.5949 7.16385 33.4634 7.67663 33.1547 8.13851C32.6074 9.2268 31.5681 9.8443 30.0367 9.99102C29.5529 10.0416 29.0491 10.0909 28.5253 10.139C28.004 10.1471 27.404 10.1305 26.7255 10.089C26.1667 10.0548 25.4683 10.0121 24.6301 9.96081C23.8342 9.87207 22.9598 9.7585 22.0067 9.62008C21.9619 9.69747 21.9261 9.95568 21.8992 10.3947C21.8748 10.7939 21.8431 11.3128 21.804 11.9514C21.765 12.59 21.7222 13.2885 21.6759 14.0468C21.6295 14.8052 21.5819 15.5835 21.533 16.3818C21.4183 18.2577 21.3101 20.3544 21.2085 22.6719L21.1279 23.989C21.1108 24.2684 21.0974 24.4879 21.0876 24.6476C21.0779 24.8073 21.1068 24.9893 21.1744 25.1938C21.2119 25.2361 21.4331 25.5501 21.8379 26.1358C22.2452 26.6815 22.7238 27.3718 23.2737 28.2067C23.8635 29.044 24.4883 29.9636 25.1482 30.9655C25.8105 31.9275 26.4353 32.8471 27.0227 33.7243C27.6101 34.6016 28.1225 35.3941 28.5599 36.1019C28.9998 36.7698 29.2723 37.2272 29.3774 37.474C29.6625 38.0523 29.924 38.6893 30.1619 39.3849C30.4422 40.0431 30.6027 40.6939 30.6435 41.3374C30.7087 41.5818 30.7315 41.8636 30.7119 42.1829C30.7323 42.5047 30.7316 42.8452 30.7096 43.2044C30.5158 43.7534 30.1436 44.2715 29.5929 44.7586C29.259 44.9786 28.9075 45.1574 28.5385 45.2951C28.2094 45.4352 27.8253 45.4918 27.3863 45.465C26.6678 45.4211 26.0366 45.2622 25.4924 44.9886C24.9507 44.675 24.4526 44.304 23.998 43.8756C23.5459 43.4072 23.1361 42.9014 22.7687 42.3581C22.4013 41.8148 22.0551 41.2528 21.7301 40.672C21.4376 40.2135 21.0527 39.629 20.5753 38.9188C20.1378 38.2109 19.753 37.6265 19.4206 37.1655C19.2007 36.8315 18.9994 36.5188 18.8169 36.2272C18.6744 35.938 18.4731 35.6252 18.2133 35.2888C17.9208 34.8302 17.6283 34.3717 17.3359 33.9131C17.0459 33.4146 16.7347 32.9348 16.4023 32.4738C15.5878 33.3454 14.8344 34.2008 14.1421 35.0398C13.4921 35.8414 12.8209 36.6617 12.1286 37.5007C11.4387 38.2999 10.7277 39.1177 9.99544 39.9543C9.2632 40.7909 8.44747 41.6825 7.54826 42.6291C7.07991 43.0812 6.57532 43.471 6.03447 43.7985C5.49363 44.126 4.82406 44.2653 4.02579 44.2165C3.86613 44.2067 3.70894 44.1571 3.55417 44.0675C3.39696 44.0178 3.17863 43.9844 2.89924 43.9673C2.04555 43.5145 1.47978 42.939 1.20197 42.241C1.02925 41.7897 0.933957 41.3832 0.916014 41.0216C0.937985 40.6624 0.961176 40.2832 0.985588 39.884C1.09227 39.4499 1.19525 39.0756 1.2946 38.7611C1.43387 38.4492 1.61187 38.1596 1.82853 37.8924C2.00772 37.5828 2.18688 37.2733 2.36606 36.9637C2.54525 36.6542 2.72447 36.3447 2.90365 36.0351C3.16266 35.7304 3.40046 35.4445 3.61711 35.1773C3.83621 34.8702 4.07529 34.5643 4.3343 34.2597C4.42633 34.065 4.55581 33.9127 4.72279 33.8027C4.89221 33.6528 5.08159 33.5041 5.29093 33.3567C5.38296 33.162 5.49372 32.9885 5.62323 32.8361C5.75273 32.6838 5.86594 32.4704 5.96285 32.1959C6.17707 31.9686 6.41492 31.6827 6.67638 31.3381C6.94027 30.9536 7.24164 30.6115 7.58048 30.3117C8.1881 29.5476 8.83686 28.766 9.52675 27.9669C9.82568 27.6646 10.127 27.3225 10.4309 26.9405C10.7371 26.5185 11.0596 26.1576 11.3985 25.8578C11.6526 25.633 11.9527 25.3108 12.2989 24.8913C12.6451 24.4718 12.8629 24.1846 12.9525 24.0299L13.8643 9.12208L9.91285 8.8804L6.79958 8.68999C6.08114 8.64605 5.62455 8.57806 5.42987 8.48602C3.92779 8.15377 2.98123 7.25456 2.59015 5.78837C2.19418 4.40201 2.38108 3.3117 3.15079 2.51746C3.62158 2.02543 4.08625 1.63319 4.54483 1.34073C5.00341 1.04828 5.55448 0.881665 6.19798 0.840896C6.32505 0.728479 6.48834 0.678372 6.68791 0.690578L7.40635 0.734519L8.24454 0.785784L26.2656 1.88798ZM46.9085 19.0756C47.7866 19.1293 48.6036 19.1993 49.3595 19.2856C50.1155 19.3719 50.7272 19.85 51.1949 20.7199C51.5525 21.4229 51.7081 22.1535 51.6617 22.9119C51.6153 23.6703 51.3755 24.3166 50.9422 24.851C50.6009 25.1907 50.2645 25.4506 49.933 25.6306C49.6414 25.8131 49.3135 25.9333 48.9494 25.9911C48.6252 26.0514 48.2424 26.0881 47.8009 26.1011C47.3618 26.0743 46.8817 26.065 46.3603 26.0731L43.8458 25.9193L43.6662 25.9084L43.4538 29.3809L43.1645 34.1106C43.1589 35.5125 43.0909 36.9506 42.9607 38.425C42.8305 39.8993 42.7227 41.335 42.6372 42.732C42.6177 43.0513 42.5782 43.3694 42.5187 43.6863C42.4617 43.9632 42.4235 44.2613 42.4039 44.5807C42.3095 44.8153 42.2325 45.091 42.1731 45.4079C42.1161 45.6848 42.0004 45.9382 41.8261 46.1679C41.7292 46.4424 41.6147 46.6758 41.4828 46.868C41.3484 47.1002 41.1554 47.3087 40.9037 47.4936C40.2708 48.0158 39.4555 48.2464 38.4576 48.1853C37.4598 48.1243 36.6823 47.7362 36.1251 47.0211C35.6379 46.4705 35.3389 45.7911 35.228 44.9831C35.1571 44.1775 35.1025 43.433 35.0642 42.7496C35.0886 42.3504 35.0706 41.9888 35.0103 41.6646C34.9924 41.3029 34.9932 40.9624 35.0128 40.6431L37.1769 5.25959C37.1964 4.94028 37.2147 4.64093 37.2318 4.36153C37.2888 4.08458 37.3645 3.8288 37.459 3.5942C37.573 3.04029 37.7033 2.54747 37.8499 2.11574C37.9965 1.68401 38.3003 1.30197 38.7613 0.969597C39.0154 0.74476 39.428 0.549647 39.999 0.384255C40.6474 0.263661 41.2685 0.261587 41.8623 0.378031C42.4985 0.457003 43.0614 0.751839 43.551 1.26254C44.2002 1.783 44.5017 2.42242 44.4553 3.18078C44.624 4.35293 44.714 5.50023 44.7255 6.6227C44.7394 7.70525 44.711 8.82528 44.6402 9.98278L44.2045 17.1074L44.1642 17.766L44.0946 18.9035L46.9085 19.0756Z" fill="#A8D267"/>
</svg>
