<svg width="35" height="37" viewBox="0 0 35 37" fill="none" xmlns="http://www.w3.org/2000/svg">
<path d="M4.39865 19.6838C3.13738 18.8172 2.23874 17.5793 1.7027 15.9699C1.38739 15.1652 1.16666 14.3915 1.04054 13.6487C0.945942 12.9059 0.898646 12.1476 0.898646 11.3739C0.898646 10.5692 0.961712 9.82643 1.08784 9.14554C1.2455 8.43371 1.45045 7.73735 1.7027 7.05646C2.01802 6.40652 2.3491 5.80301 2.69594 5.24592C3.07432 4.65788 3.51576 4.14722 4.02027 3.71393C4.52477 3.18779 5.04504 2.73902 5.58108 2.36763C6.14865 1.99624 6.79504 1.68674 7.52027 1.43914C8.1509 1.12965 8.82883 0.913005 9.55405 0.789207C10.3108 0.63446 11.0991 0.557086 11.9189 0.557086C12.4865 0.464239 13.0383 0.464239 13.5743 0.557086C13.8266 0.557086 14.0946 0.572562 14.3784 0.603513C14.6937 0.634462 14.9775 0.680886 15.2297 0.742784C15.3559 0.804684 15.482 0.835633 15.6081 0.835633C15.7658 0.835633 15.9234 0.866582 16.0811 0.92848C16.2387 0.92848 16.3806 0.95943 16.5068 1.02133C16.6644 1.05228 16.7905 1.0987 16.8851 1.1606C17.232 1.25345 17.5473 1.36177 17.8311 1.48557C18.1464 1.57842 18.4617 1.70221 18.777 1.85696C19.3131 2.10456 19.8491 2.3831 20.3851 2.6926C20.5743 2.78544 20.7793 2.92472 21 3.11041C21.2523 3.29611 21.4887 3.49728 21.7095 3.71393C22.277 4.27102 22.7342 4.84358 23.0811 5.43162C23.2703 5.74111 23.4279 6.06608 23.5541 6.40652C23.7117 6.74697 23.8221 7.11836 23.8851 7.5207C23.9797 7.86115 24.0586 8.21706 24.1216 8.58846C24.1847 8.9289 24.2478 9.26934 24.3108 9.60979C24.3739 9.95023 24.4212 10.2907 24.4527 10.6311C24.4842 10.9716 24.4685 11.343 24.4054 11.7453C24.4054 11.931 24.3896 12.1476 24.3581 12.3952C24.3266 12.6119 24.3108 12.813 24.3108 12.9987C24.2478 13.2463 24.2005 13.4939 24.1689 13.7415C24.1374 13.9891 24.0743 14.2058 23.9797 14.3915C23.7905 15.5985 23.3964 16.7127 22.7973 17.734C22.4504 18.2601 22.0563 18.7244 21.6149 19.1267C21.205 19.5291 20.732 19.9159 20.1959 20.2873C19.786 20.5349 19.3761 20.7516 18.9662 20.9373C18.5563 21.123 18.1306 21.2622 17.6892 21.3551C17.2793 21.4789 16.8536 21.5872 16.4122 21.6801C16.0022 21.742 15.5766 21.8193 15.1351 21.9122C14.9775 21.9741 14.8198 22.005 14.6622 22.005C14.5045 22.005 14.3468 22.005 14.1892 22.005C14.0946 22.005 13.9685 22.005 13.8108 22.005C13.6847 22.005 13.5428 22.036 13.3851 22.0979H12.5338C12.4077 22.0979 12.2658 22.0979 12.1081 22.0979C11.982 22.0979 11.8401 22.0669 11.6824 22.005C11.4932 22.005 11.2883 22.005 11.0676 22.005C10.8784 22.005 10.6892 21.9741 10.5 21.9122C10.2477 21.9122 10.0113 21.8967 9.79054 21.8657C9.60135 21.8348 9.3964 21.8193 9.17568 21.8193C8.32432 21.6955 7.5045 21.4479 6.71621 21.0765C6.27477 20.8599 5.86486 20.6587 5.48648 20.473C5.10811 20.2564 4.74549 19.9933 4.39865 19.6838ZM34.9054 8.82058C34.9685 9.43957 35 10.074 35 10.724C35 11.3739 35 12.0548 35 12.7666V20.2873C35 20.9992 35 21.6646 35 22.2836C35 22.9026 34.9685 23.5061 34.9054 24.0941V29.3864C34.8423 29.8816 34.8266 30.3768 34.8581 30.872C34.8896 31.3363 34.9054 31.785 34.9054 32.2183C34.9054 32.5278 34.9054 32.8218 34.9054 33.1004C34.9054 33.3789 34.8739 33.642 34.8108 33.8896C34.8108 34.3848 34.7004 34.7871 34.4797 35.0966C34.4167 35.2514 34.3536 35.3906 34.2905 35.5144C34.2275 35.6073 34.1644 35.7311 34.1014 35.8858C33.9752 35.9787 33.8491 36.087 33.723 36.2108C33.5968 36.3346 33.4077 36.4429 33.1554 36.5358C32.8716 36.7524 32.5405 36.8917 32.1622 36.9536C31.7838 37.0155 31.3896 37.0155 30.9797 36.9536C30.4437 36.8298 30.0495 36.6286 29.7973 36.3501C29.545 36.1953 29.3086 35.8704 29.0878 35.3752C28.9932 35.1585 28.9144 34.9573 28.8513 34.7716C28.7883 34.586 28.7568 34.3848 28.7568 34.1681C28.6937 34.0134 28.6464 33.8586 28.6149 33.7039C28.5833 33.5491 28.5676 33.4253 28.5676 33.3325V32.8218L28.473 5.29234C28.473 4.89 28.473 4.48766 28.473 4.08532C28.5045 3.68298 28.5676 3.23421 28.6622 2.73902C28.7568 1.90339 29.0405 1.2225 29.5135 0.696361C29.955 0.386867 30.3018 0.185695 30.5541 0.0928465C30.7748 0.0309485 30.9797 0 31.1689 0C31.3896 0 31.6261 0 31.8784 0C32.1306 0 32.3829 0.0309485 32.6351 0.0928465C32.8874 0.154746 33.1396 0.26307 33.3919 0.417817C33.8018 0.72731 34.1014 1.11418 34.2905 1.57842C34.4482 1.91886 34.5743 2.2593 34.6689 2.59975C34.7635 2.94019 34.8108 3.28063 34.8108 3.62108C34.8108 3.96152 34.8108 4.33292 34.8108 4.73526C34.8108 5.10665 34.8423 5.46257 34.9054 5.80301V8.82058ZM24.5 27.2045C24.9099 27.3283 25.2725 27.4985 25.5878 27.7152C25.9031 28.0247 26.1396 28.3342 26.2973 28.6437C26.4865 28.9532 26.5811 29.2936 26.5811 29.665C26.5811 30.1911 26.4077 30.6554 26.0608 31.0577C25.7455 31.4601 25.3986 31.7231 25.0203 31.8469C24.8626 31.9088 24.705 31.9552 24.5473 31.9862C24.3896 32.0171 24.232 32.0326 24.0743 32.0326C23.8851 32.0945 23.7117 32.1255 23.5541 32.1255C23.3964 32.1255 23.2387 32.1255 23.0811 32.1255H18.5878C18.0518 32.1255 17.5 32.1255 16.9324 32.1255C16.3964 32.1255 15.8288 32.1564 15.2297 32.2183H11.9189C11.3513 32.1564 10.8468 32.1255 10.4054 32.1255C9.96396 32.1255 9.52252 32.1255 9.08108 32.1255H4.11486C3.79955 32.1255 3.5 32.11 3.21621 32.079C2.93243 32.0481 2.63288 32.0017 2.31757 31.9398C2.15991 31.8779 2.00225 31.8315 1.84459 31.8005C1.71847 31.7386 1.57657 31.6767 1.41891 31.6148C1.13513 31.522 0.867116 31.3827 0.614864 31.197C0.425675 30.9803 0.268017 30.7482 0.141891 30.5006C0.0472962 30.2221 0 29.8816 0 29.4793C0 28.8913 0.204954 28.3651 0.614864 27.9009C0.804054 27.6223 1.1036 27.4366 1.51351 27.3438C1.7027 27.2819 1.89189 27.2355 2.08108 27.2045C2.27027 27.1426 2.44369 27.0807 2.60135 27.0188C2.82207 26.9569 2.99549 26.926 3.12162 26.926C3.24774 26.926 3.37387 26.926 3.5 26.926H21.3784C21.6937 26.926 21.9932 26.926 22.277 26.926C22.5608 26.926 22.8288 26.9569 23.0811 27.0188C23.3333 27.0188 23.5698 27.0343 23.7905 27.0652C24.0113 27.0962 24.2477 27.1426 24.5 27.2045ZM7.18919 10.5383C7.09459 11.1263 7.09459 11.7453 7.18919 12.3952C7.34684 13.138 7.5518 13.7415 7.80405 14.2058C8.43468 15.1652 9.36487 15.877 10.5946 16.3413C11.036 16.496 11.4775 16.6044 11.9189 16.6662C12.3919 16.7281 12.8491 16.7591 13.2905 16.7591C13.5428 16.6972 13.7793 16.6662 14 16.6662C14.2207 16.6662 14.4572 16.6353 14.7095 16.5734C14.9302 16.5734 15.1351 16.527 15.3243 16.4341C15.545 16.3413 15.7658 16.2484 15.9865 16.1556C16.5856 15.877 17.0901 15.4128 17.5 14.7629C17.7207 14.4224 17.8784 14.0974 17.973 13.788C18.0676 13.4785 18.1622 13.1535 18.2568 12.813C18.3829 12.2869 18.4144 11.7917 18.3514 11.3275C18.3198 10.8632 18.2252 10.368 18.0676 9.84191C18.0045 9.62526 17.9099 9.42409 17.7838 9.23839C17.6892 9.02175 17.5946 8.83605 17.5 8.6813C17.4054 8.58846 17.3266 8.49561 17.2635 8.40276C17.2004 8.27896 17.1059 8.18612 16.9797 8.12422C16.8851 7.90757 16.6959 7.7064 16.4122 7.5207C16.1599 7.36596 15.9077 7.24216 15.6554 7.14931C15.5293 7.05646 15.3874 6.97909 15.2297 6.91719C15.1036 6.85529 14.9617 6.79339 14.8041 6.73149C13.9842 6.5458 13.1486 6.45295 12.2973 6.45295C11.8874 6.45295 11.4932 6.4839 11.1149 6.5458C10.7365 6.6077 10.3739 6.71602 10.027 6.87077C9.68018 7.02551 9.3491 7.21121 9.03378 7.42785C8.71847 7.61355 8.43468 7.87662 8.18243 8.21706C7.93018 8.52656 7.72522 8.88248 7.56756 9.28482C7.44144 9.65621 7.31531 10.074 7.18919 10.5383Z" fill="#A8D267"/>
</svg>
