<svg width="64" height="63" viewBox="0 0 64 63" fill="none" xmlns="http://www.w3.org/2000/svg">
<path d="M20.9456 23.3037C23.5836 22.853 25.9211 23.0217 27.9581 23.8098C29.9951 24.5979 31.7638 25.7964 33.2641 27.4052C34.7645 29.014 35.9762 30.9361 36.8993 33.1717C37.8224 35.4072 38.484 37.7228 38.8841 40.1183C39.3326 42.5038 39.4801 44.9016 39.3266 47.3118C39.2216 49.7119 38.8669 51.8859 38.2625 53.8338C37.5916 55.9475 36.3931 57.7162 34.6671 59.1399C32.9794 60.5049 31.0601 61.4884 28.9091 62.0902C26.7582 62.6921 24.5402 62.8526 22.2551 62.5717C20.0185 62.2807 18.0108 61.5117 16.232 60.2648C14.6876 59.1712 13.4967 57.953 12.6592 56.6103C11.8116 55.2192 11.0789 53.6521 10.4613 51.9093C9.84361 50.1664 9.28966 48.4861 8.79939 46.8683C8.29898 45.2021 7.92482 43.5348 7.67692 41.8663C7.42903 40.1979 7.35587 38.5182 7.45744 36.8272C7.60749 35.1261 7.99994 33.3743 8.63474 31.5717C8.97526 30.5391 9.55926 29.5821 10.3868 28.7006C11.2041 27.7706 12.1732 26.9607 13.2938 26.2708C14.4042 25.5325 15.6178 24.9244 16.9345 24.4465C18.2896 23.91 19.6267 23.5291 20.9456 23.3037ZM56.086 21.4917C56.3283 21.441 56.5516 21.4196 56.7556 21.4275C57.0081 21.4253 57.2555 21.3988 57.4979 21.3481C57.7504 21.3459 58.0272 21.3385 58.3282 21.3262C58.6191 21.2653 58.915 21.2287 59.216 21.2163C59.7695 21.2017 60.3433 21.284 60.9374 21.4633C61.5214 21.5941 61.9903 21.9008 62.3442 22.3833C62.7951 22.8455 63.0966 23.4402 63.2488 24.1674C63.3299 24.5552 63.3818 24.9238 63.4043 25.2733C63.4651 25.5641 63.4876 25.9136 63.4718 26.3217C63.456 26.7298 63.421 27.1672 63.3669 27.6339C63.3612 28.0904 63.2141 28.4754 62.9254 28.7888C62.3482 29.4155 61.7598 29.8675 61.16 30.1448C60.4047 30.404 59.4645 30.6261 58.3394 30.8109C57.2143 30.9957 56.2691 31.1934 55.5036 31.4042C55.4551 31.4143 55.4117 31.4487 55.3734 31.5073L55.3007 31.5226L55.2432 31.6105L55.2888 31.8286C55.4939 33.0506 55.7638 34.4615 56.0985 36.0612C56.4817 37.6507 56.8051 39.0757 57.0688 40.3361C57.6932 42.8365 58.2105 45.3087 58.6206 47.7528L58.8336 48.7708C58.9655 49.401 59.0883 50.1089 59.2021 50.8947C59.3542 51.6218 59.4579 52.3591 59.5131 53.1065C59.5683 53.8539 59.5457 54.5923 59.4453 55.3217C59.3348 56.0026 59.107 56.6068 58.762 57.1344C58.3223 57.9347 57.6177 58.4363 56.6482 58.6392C56.6482 58.6392 56.5946 58.6251 56.4875 58.5969C55.314 58.7918 54.2977 58.6503 53.4388 58.1722C52.6283 57.6841 51.9328 57.02 51.3522 56.1801C50.8202 55.3301 50.4043 54.4305 50.1045 53.4812C49.7945 52.4835 49.5584 51.5969 49.3961 50.8213L40.3591 7.62969C40.349 7.58121 40.3034 7.36307 40.2222 6.97527C40.1309 6.53899 40.078 6.04409 40.0634 5.49058C40.0386 4.88859 40.0624 4.27645 40.1345 3.65418C40.2451 2.97328 40.4536 2.39837 40.7603 1.92943C41.0286 1.5191 41.4626 1.1753 42.0624 0.898025C42.7005 0.562127 43.2861 0.338393 43.8194 0.226825C44.8858 0.00368998 45.8587 0.179615 46.738 0.754611C47.5587 1.29127 48.0986 1.93727 48.3578 2.69259C48.6554 3.38929 48.9388 4.13954 49.2082 4.94334C49.2973 5.1271 49.3824 5.41288 49.4635 5.80068C49.7329 6.60448 49.9588 7.44265 50.1414 8.31521C50.3725 9.17762 50.6035 10.04 50.8345 10.9025C50.9461 11.4357 51.0577 11.9689 51.1692 12.5021C51.3191 12.9768 51.4499 13.4807 51.5614 14.0139C51.5738 14.3149 51.6104 14.6108 51.6713 14.9017C51.7705 15.1339 51.8454 15.3712 51.8961 15.6136L52.885 20.3399C52.9358 20.5823 52.9915 20.8489 53.0524 21.1398C53.1132 21.4306 53.2175 21.6871 53.3652 21.9092C53.3753 21.9577 53.6227 21.9312 54.1075 21.8298C54.5922 21.7284 54.8589 21.6726 54.9074 21.6624C55.3639 21.6681 55.7083 21.6213 55.9405 21.5222L56.086 21.4917ZM28.6913 9.53968C29.6608 9.33683 30.6607 9.27941 31.6911 9.36741C32.7214 9.45541 33.6047 9.92838 34.3408 10.7863C34.812 11.3455 35.1004 12.12 35.2063 13.1098C35.3021 14.0511 35.1736 14.8876 34.8207 15.6192C34.4576 16.3023 33.7924 16.8716 32.8252 17.3269C31.8579 17.7823 30.8269 18.1751 29.7323 18.5053C28.6275 18.7871 27.5853 19.0051 26.6056 19.1595C25.6744 19.3037 25.0392 19.4114 24.6999 19.4824C24.3222 19.612 23.9395 19.7174 23.5517 19.7985C23.2123 19.8695 22.8245 19.9506 22.3883 20.0419L20.0614 20.5288C19.6635 20.5614 19.2706 20.6183 18.8828 20.6995C18.5435 20.7705 18.1799 20.8465 17.7921 20.9277L9.18154 22.5775C6.70929 23.0947 4.87402 23.1498 3.67571 22.7428C2.47739 22.3358 1.63929 21.4739 1.1614 20.1571C0.673362 18.7919 0.798586 17.5767 1.53705 16.5114C2.094 15.7877 2.57539 15.3075 2.98124 15.0708C3.43557 14.8239 4.0263 14.6244 4.75343 14.4723C4.94733 14.4317 5.14629 14.4154 5.35034 14.4233C5.54424 14.3827 5.73816 14.3422 5.93206 14.3016L7.74989 13.9212C8.42855 13.7792 9.22838 13.6119 10.1494 13.4192C11.0603 13.178 11.85 12.9622 12.5185 12.7717C12.4779 12.5778 12.4222 12.3112 12.3512 11.9719C12.3185 11.5739 12.2616 11.181 12.1805 10.7932C12.1478 10.3953 12.096 10.0267 12.025 9.68733C11.9923 9.28939 11.9608 9.0177 11.9303 8.87228C11.8549 8.02791 11.9643 7.22076 12.2585 6.45082C12.9824 4.83204 14.1058 3.91391 15.6289 3.69645C16.3278 3.6514 17.0318 3.63059 17.7409 3.63402C18.4398 3.58898 19.0683 3.81167 19.6263 4.30209C20.3218 4.96613 20.7873 5.98188 21.0228 7.34933C21.2967 8.65817 21.5936 9.83568 21.9137 10.8819L24.0224 10.4407C24.4102 10.3595 24.9728 10.2671 25.71 10.1634C26.4372 10.0113 26.9946 9.89467 27.3824 9.81353L28.6913 9.53968ZM27.0902 54.1222C28.1262 53.7537 28.961 53.1489 29.5947 52.308C30.2181 51.4186 30.6708 50.4384 30.9527 49.3675C31.2346 48.2965 31.3559 47.1833 31.3165 46.0278C31.2771 44.8723 31.156 43.8098 30.9532 42.8403C30.7808 42.0162 30.5396 41.1053 30.2296 40.1076C29.958 39.0513 29.6238 38.0587 29.2271 37.1297C28.8202 36.1523 28.3124 35.2972 27.7037 34.5644C27.0848 33.7831 26.3561 33.2019 25.5174 32.8209C24.7474 32.5266 23.8918 32.4273 22.9505 32.5231C21.999 32.5703 21.0588 32.7924 20.1299 33.1891C19.2494 33.5757 18.4721 34.0925 17.7979 34.7396C17.1136 35.3381 16.6829 36.0607 16.5059 36.9073C16.0007 39.0875 15.9318 41.1764 16.2991 43.1741C16.715 45.1616 17.3591 47.1519 18.2315 49.1451C18.697 50.1608 19.2696 51.2047 19.9493 52.2769C20.6189 53.3005 21.4801 54.0311 22.533 54.4685C22.7573 54.5734 23.0735 54.6337 23.4816 54.6496C23.928 54.6067 24.3745 54.5639 24.8209 54.5211C25.3158 54.4682 25.7622 54.4254 26.1601 54.3927C26.5964 54.3014 26.9064 54.2113 27.0902 54.1222Z" fill="#ED3095"/>
</svg>
