<svg width="52" height="64" viewBox="0 0 52 64" fill="none" xmlns="http://www.w3.org/2000/svg">
<path d="M40.0602 53.8464C40.0602 55.1759 40.0147 56.2394 39.924 57.0371C39.8786 57.8348 39.6743 58.8452 39.3111 60.0683C39.0841 60.8659 38.6982 61.5306 38.1534 62.0624C37.6086 62.5942 36.8369 62.8601 35.8381 62.8601C35.5657 62.8601 35.2252 62.8069 34.8166 62.7006C34.408 62.6474 34.0902 62.5144 33.8632 62.3017C33.4093 61.9827 33.0461 61.4775 32.7737 60.7861C32.5467 60.0417 32.3651 59.2706 32.2289 58.4729C32.0927 57.6752 32.0019 56.9042 31.9565 56.1597C31.9565 55.4152 31.9565 54.8302 31.9565 54.4048V34.3035L26.7811 34.2237C26.3725 34.2237 25.9412 34.1706 25.4872 34.0642C25.0786 33.9047 24.67 33.6919 24.2614 33.4261C23.8982 33.107 23.5805 32.7082 23.3081 32.2296C23.0357 31.6978 22.8768 31.0331 22.8314 30.2354C22.7406 29.2782 22.786 28.3476 22.9676 27.4435C23.1946 26.5395 23.8301 25.795 24.8743 25.2101C25.2829 24.9442 25.7823 24.7315 26.3725 24.5719C27.0081 24.4124 27.5528 24.3326 28.0068 24.3326H31.9565V8.21968C31.9565 7.52837 31.9565 6.83705 31.9565 6.14574C31.9565 5.40124 32.0246 4.68334 32.1608 3.99202C32.2516 3.72613 32.3197 3.48683 32.3651 3.27413C32.4559 3.06141 32.5467 2.82211 32.6375 2.55622C32.9099 2.02444 33.1823 1.6256 33.4547 1.35971C33.727 1.04065 34.1129 0.774757 34.6123 0.562044C34.8393 0.45569 35.0663 0.402512 35.2933 0.402512C35.5657 0.349335 35.8154 0.322746 36.0424 0.322746C37.5405 0.322746 38.6755 1.12041 39.4473 2.71575C39.6289 3.03482 39.7424 3.48684 39.7878 4.0718C39.8786 4.65675 39.9467 5.2683 39.9921 5.90644C40.0374 6.49139 40.0602 7.02317 40.0602 7.50178C40.0602 7.9272 40.0602 8.19309 40.0602 8.29945V45.6304V53.8464ZM51.0239 60.6266C50.7515 61.3179 50.3202 61.9029 49.7301 62.3815C49.2307 62.7537 48.7767 62.9664 48.3681 63.0196C48.0049 63.126 47.5282 63.0994 46.938 62.9399C46.2571 62.7803 45.6896 62.4347 45.2356 61.9029C44.827 61.4243 44.5092 60.8659 44.2822 60.2278C44.0552 59.5897 43.8963 58.8983 43.8055 58.1538C43.7148 57.4093 43.6694 56.6914 43.6694 56.0001V9.09711C43.6694 8.51216 43.6694 7.84743 43.6694 7.10294C43.6694 6.30527 43.7148 5.56078 43.8055 4.86946C43.8963 4.12497 44.0098 3.43366 44.146 2.79552C44.3276 2.15739 44.5773 1.65219 44.8951 1.27995C45.3945 0.748167 45.8031 0.4291 46.1209 0.322746C46.484 0.163211 46.9834 0.0834427 47.619 0.0834427C48.3908 0.0834427 49.0945 0.349333 49.7301 0.881112C50.3656 1.35971 50.8196 2.02444 51.092 2.87529C51.5006 3.99203 51.7276 5.13535 51.773 6.30527C51.8184 7.47519 51.8638 8.6717 51.9092 9.89479V10.2936C52 14.3352 52.0227 18.2171 51.9773 21.9396C51.9319 25.6089 51.9092 29.3314 51.9092 33.107V53.0488C51.9092 54.4314 51.8638 55.7608 51.773 57.0371C51.7276 58.3134 51.4779 59.5099 51.0239 60.6266ZM9.96088 13.3248C9.2345 13.3248 8.50811 13.3248 7.78173 13.3248C7.05536 13.3248 6.37437 13.3248 5.73879 13.3248C5.14861 13.2716 4.62652 13.245 4.17253 13.245C3.71854 13.1918 3.42345 13.1652 3.28725 13.1652C1.9253 12.7398 0.949245 11.5965 0.359062 9.73525C0.0412721 8.19309 0.200169 6.86364 0.83575 5.7469C1.56213 4.47063 2.47008 3.67296 3.55965 3.35389C3.69584 3.35389 4.05904 3.35389 4.64922 3.35389C5.2394 3.30072 5.87499 3.27413 6.55597 3.27413C7.23695 3.27413 7.84983 3.27413 8.39462 3.27413C8.9848 3.27413 9.32529 3.27413 9.41609 3.27413H21.8099C23.3535 3.27413 24.6019 3.46025 25.5553 3.83249C26.5541 4.20474 27.3713 5.16194 28.0068 6.70411C28.3246 7.4486 28.5062 8.11332 28.5516 8.69828C28.6424 9.23006 28.5743 9.84161 28.3473 10.5329C27.7571 12.0219 26.7811 12.8993 25.4191 13.1652C24.9651 13.2716 24.5338 13.3514 24.1252 13.4045C23.7166 13.4045 23.24 13.4311 22.6952 13.4843C22.1958 13.4843 21.6056 13.4843 20.9246 13.4843C20.2436 13.4311 19.4265 13.3779 18.4731 13.3248C18.4731 13.4843 18.4731 14.0693 18.4731 15.0796C18.4731 16.09 18.4731 17.3131 18.4731 18.7489C18.5185 20.1316 18.5185 21.6471 18.4731 23.2956C18.4731 24.9442 18.4731 26.4863 18.4731 27.9221C18.5185 29.3048 18.5412 30.5013 18.5412 31.5117C18.5412 32.4689 18.5412 33.0006 18.5412 33.107C18.6774 33.3197 18.8136 33.6388 18.9498 34.0642C19.1314 34.4364 19.313 34.8619 19.4946 35.3405C19.6762 35.7659 19.8578 36.1913 20.0394 36.6167C20.221 37.0422 20.3798 37.3878 20.516 37.6537C20.8792 38.2387 21.2424 38.9566 21.6056 39.8074C22.0142 40.6583 22.4455 41.5091 22.8995 42.36C23.1719 42.8386 23.4216 43.3172 23.6486 43.7958C23.8755 44.2212 24.1025 44.6466 24.3295 45.072C25.0559 46.4547 25.805 47.8373 26.5768 49.2199C27.3485 50.6026 27.8933 52.1181 28.2111 53.7667C28.3019 54.5111 28.3246 55.3354 28.2792 56.2394C28.2338 57.0903 27.9841 57.8082 27.5301 58.3931C26.8946 59.1376 26.1455 59.5099 25.2829 59.5099C24.4203 59.5099 23.6031 59.1908 22.8314 58.5527C22.0596 57.9145 21.424 57.2232 20.9246 56.4787C20.1982 55.4152 19.5173 54.325 18.8817 53.2083C18.2461 52.0384 17.6332 50.895 17.0431 49.7783C16.5891 48.9806 16.067 48.0766 15.4768 47.0662C14.932 46.0558 14.4326 45.1784 13.9786 44.4339C13.7516 44.8593 13.5246 45.3113 13.2977 45.7899C13.1161 46.2686 12.9118 46.7206 12.6848 47.146C12.4124 47.6246 12.0946 48.1032 11.7314 48.5818C11.3682 49.0604 11.0504 49.539 10.7781 50.0176C10.2787 51.0812 9.75658 52.1713 9.2118 53.2881C8.71241 54.3516 8.09952 55.362 7.37314 56.3192C6.60137 57.4359 5.87498 58.2868 5.194 58.8717C4.51302 59.4035 3.80934 59.6694 3.08296 59.6694C2.90137 59.6694 2.7198 59.6694 2.5382 59.6694C2.40201 59.6694 2.22041 59.6162 1.99342 59.5099C1.13084 59.0845 0.540657 58.34 0.222866 57.2764C-0.0495256 56.3724 -0.0722252 55.3886 0.154768 54.325C0.381761 53.2615 0.654156 52.3574 0.971946 51.6129C1.24434 50.7089 1.56213 49.8581 1.92532 49.0604C2.33391 48.2627 2.74247 47.4916 3.15106 46.7472C3.37805 46.2686 3.60505 45.79 3.83204 45.3113C4.10443 44.8327 4.35413 44.3541 4.58112 43.8755C4.89891 43.0779 5.3075 42.1738 5.80689 41.1635C6.35167 40.0999 6.89646 39.0629 7.44124 38.0526C7.98603 36.989 8.48542 36.0318 8.9394 35.1809C9.39339 34.3301 9.73388 33.7451 9.96088 33.4261V13.3248Z" fill="#EEE34D"/>
</svg>
