<svg width="39" height="43" viewBox="0 0 39 43" fill="none" xmlns="http://www.w3.org/2000/svg">
<path d="M34.2024 38.2506C34.7182 38.3187 35.1825 38.4719 35.5952 38.7102C36.0079 38.9145 36.3003 39.306 36.4722 39.8848C36.8849 41.1445 36.4378 42.0637 35.131 42.6425C34.7526 42.8128 34.3571 42.9149 33.9444 42.9489C33.5318 42.983 33.1363 43 32.7579 43H9.02777C8.33994 43 7.63494 42.983 6.91271 42.9489C6.19049 42.9489 5.45106 42.9319 4.69445 42.8979C4.00662 42.8638 3.42197 42.5915 2.94049 42.0808C2.45901 41.5701 2.18387 40.9062 2.11509 40.0891L1.96032 36.31C1.92593 35.9355 1.92593 35.4759 1.96032 34.9311C1.99471 34.3864 2.16669 33.9438 2.47621 33.6033C2.95769 33.0586 3.59393 32.7181 4.38494 32.5819C5.17594 32.4458 5.94974 32.3777 6.70636 32.3777C7.18784 32.3777 7.97884 32.3777 9.07936 32.3777C10.1799 32.3777 11.6759 32.3947 13.5675 32.4287C15.459 32.4287 17.7976 32.4287 20.5833 32.4287C23.4035 32.4287 26.7566 32.4287 30.6429 32.4287V30.4881H5.57144C5.22753 30.4881 4.91799 30.4881 4.64286 30.4881C4.36773 30.4881 4.10979 30.4541 3.86905 30.386C3.55952 30.2839 3.28441 30.1987 3.04367 30.1306C2.80293 30.0626 2.59658 29.8923 2.42462 29.62C1.94314 28.8369 1.82276 28.0709 2.0635 27.3219C2.16667 27.0154 2.32143 26.7771 2.52777 26.6069C2.73412 26.4367 2.95767 26.3005 3.19841 26.1983C3.47354 26.0962 3.74868 26.0281 4.02381 25.9941C4.29895 25.96 4.52249 25.926 4.69445 25.8919C5.21032 25.7898 5.7434 25.7387 6.29367 25.7387C7.05028 25.7387 7.91007 25.7387 8.87303 25.7387C9.87039 25.7387 11.246 25.7557 13 25.7898C14.7884 25.7898 17.1098 25.7898 19.9643 25.7898C22.8532 25.7898 26.5847 25.7898 31.1587 25.7898C32.9127 25.7898 34.2368 26.0792 35.131 26.658C36.0595 27.2027 36.5238 28.1049 36.5238 29.3646V33.1437C36.5238 33.6204 36.4034 34.114 36.1627 34.6247C35.9563 35.1014 35.578 35.5099 35.0278 35.8504C34.6151 36.1227 34.1852 36.2759 33.7381 36.31C33.291 36.31 32.8439 36.31 32.3968 36.31H8.25398V38.2506H34.2024ZM2.16667 7.60927C2.16667 6.21338 2.56217 5.0388 3.35318 4.08551C4.17858 3.09818 5.3307 2.31512 6.80954 1.73634C8.32276 1.12352 10.1627 0.68092 12.3294 0.408552C14.496 0.136184 16.955 0 19.7064 0C22.3201 0 24.7103 0.11916 26.877 0.357483C29.0437 0.561758 30.9008 0.953287 32.4484 1.53207C33.996 2.0768 35.1825 2.84284 36.0079 3.83017C36.8677 4.8175 37.2976 6.0772 37.2976 7.60927C37.2976 9.14133 36.9365 10.401 36.2143 11.3884C35.4921 12.3757 34.3915 13.1587 32.9127 13.7375C31.4339 14.2823 29.5939 14.6738 27.3929 14.9121C25.1918 15.1164 22.6296 15.2185 19.7064 15.2185C17.2646 15.2185 14.9775 15.1164 12.8453 14.9121C10.7474 14.6738 8.89022 14.2823 7.27381 13.7375C5.6918 13.1587 4.43652 12.3757 3.50795 11.3884C2.61377 10.401 2.16667 9.14133 2.16667 7.60927ZM4.17858 17.4656C4.45371 17.4315 4.76322 17.4145 5.10714 17.4145C5.45105 17.3804 5.81218 17.3634 6.19049 17.3634H7.48017H18.8294C20.6521 17.3294 22.4405 17.3124 24.1944 17.3124C25.6733 17.3124 27.2209 17.3124 28.8373 17.3124C30.4537 17.3124 31.8466 17.3294 33.0159 17.3634H33.2738C33.9616 17.3975 34.6495 17.4145 35.3373 17.4145C36.0251 17.4145 36.713 17.5507 37.4008 17.823C37.8823 17.9933 38.2606 18.2827 38.5357 18.6912C38.8452 19.0998 39 19.5594 39 20.0701C39 20.9212 38.6561 21.6362 37.9683 22.215C37.418 22.6916 36.7474 22.964 35.9564 23.0321C35.1654 23.1002 34.4259 23.1002 33.7381 23.0321H4.12699C4.0926 23.0321 3.93785 23.0321 3.66271 23.0321C3.38758 23.0321 3.06085 22.998 2.68254 22.9299C2.33863 22.8618 1.96033 22.7597 1.54763 22.6235C1.16932 22.4873 0.859787 22.2831 0.619046 22.0107C0.206348 21.6021 0 21.0234 0 20.2743C0 19.5594 0.223546 18.9806 0.670636 18.538C1.11773 18.0954 1.58201 17.8401 2.0635 17.772C2.54498 17.6698 3.04366 17.5847 3.55954 17.5166C3.66271 17.5166 3.76587 17.5166 3.86905 17.5166C3.97222 17.4826 4.07541 17.4656 4.17858 17.4656ZM30.2302 7.60927C30.2302 7.06453 29.9034 6.62193 29.25 6.28147C28.631 5.94102 27.8228 5.68567 26.8254 5.51544C25.8281 5.31116 24.6931 5.17498 23.4206 5.10689C22.1825 5.0388 20.9445 5.00475 19.7064 5.00475C18.4683 5.00475 17.2474 5.0388 16.0437 5.10689C14.84 5.17498 13.7566 5.31116 12.7937 5.51544C11.8307 5.68567 11.0397 5.94102 10.4206 6.28147C9.83598 6.62193 9.54367 7.06453 9.54367 7.60927C9.54367 8.08591 9.83598 8.47744 10.4206 8.78385C11.0053 9.09026 11.7791 9.32859 12.7421 9.49881C13.705 9.66904 14.7712 9.78821 15.9405 9.8563C17.1442 9.92439 18.3651 9.95844 19.6032 9.95844C20.8413 9.95844 22.0794 9.95844 23.3175 9.95844C24.5899 9.92439 25.7421 9.83927 26.7738 9.70309C27.8056 9.56691 28.631 9.34561 29.25 9.03919C29.9034 8.69874 30.2302 8.22209 30.2302 7.60927Z" fill="#BA80B8"/>
</svg>
