<svg width="58" height="65" viewBox="0 0 58 65" fill="none" xmlns="http://www.w3.org/2000/svg">
<path d="M28.6961 2.4233C31.9198 4.28454 34.2187 6.67756 35.5927 9.60236C36.2797 11.0382 36.7289 12.6335 36.9403 14.3884C37.1517 16.1433 37.2046 18.1109 37.0989 20.2912C36.9403 22.6842 36.4118 24.8379 35.5134 26.7523C34.615 28.6668 33.426 30.3153 31.9462 31.6979C30.5194 33.0274 28.8282 34.0643 26.8729 34.8088C24.9175 35.5002 22.8301 35.8458 20.6105 35.8458H16.5676C16.0392 35.8458 15.5107 35.8458 14.9822 35.8458C14.4537 35.7926 13.8989 35.7129 13.3175 35.6065C12.7362 35.6065 12.1813 35.5267 11.6528 35.3672C11.1244 35.2077 10.5695 35.0747 9.98814 34.9684C9.40682 34.7025 8.8255 34.41 8.24418 34.0909C7.71571 33.7719 7.08154 33.3996 6.34168 32.9742C3.9107 31.3788 2.21958 29.2251 1.26833 26.513C0.84555 25.2899 0.528468 23.9871 0.317078 22.6044C0.105689 21.2218 0 19.8658 0 18.5363C0 17.1005 0.105689 15.7179 0.317078 14.3884C0.581315 13.0589 1.00409 11.7827 1.58541 10.5596C2.00819 9.28329 2.64237 8.16655 3.48793 7.20934C4.33348 6.19895 5.28473 5.24174 6.34168 4.33771C7.29293 3.54004 8.27061 2.87531 9.27471 2.34353C10.2788 1.75857 11.3886 1.30655 12.6041 0.987485C13.661 0.562059 14.7973 0.296168 16.0127 0.189813C17.2282 0.0834576 18.3909 0.0834576 19.5007 0.189813C20.082 0.349348 20.5576 0.455706 20.9276 0.508883C21.3503 0.508883 21.7467 0.508883 22.1166 0.508883C22.5394 0.615238 22.9093 0.695006 23.2264 0.748187C23.5963 0.748187 23.9399 0.827953 24.2569 0.987485C24.6269 1.09384 24.9704 1.2002 25.2875 1.30656C25.6574 1.35973 26.0009 1.46609 26.318 1.62563C26.6351 1.73198 27.005 1.86493 27.4278 2.02446C27.8506 2.184 28.2733 2.31694 28.6961 2.4233ZM55.1727 54.7507C55.9125 54.7507 56.5203 55.0697 56.9959 55.7079C57.4715 56.346 57.7886 57.1171 57.9472 58.0211C58.0528 59.0847 58 59.9621 57.7886 60.6535C57.5772 61.2916 57.2601 61.9031 56.8373 62.4881C56.0446 63.1794 55.3576 63.6049 54.7763 63.7644C54.5121 63.7644 54.2742 63.8176 54.0629 63.9239C53.8515 64.0303 53.5608 64.0835 53.1909 64.0835H47.4834H37.5745H26.7143H18.0738H14.4273C13.3175 64.0835 12.3398 64.0569 11.4943 64.0037C10.7016 63.9505 9.98814 63.7644 9.35397 63.4453C8.77265 63.1262 8.29704 62.6476 7.9271 62.0095C7.61002 61.4245 7.45147 60.8396 7.45147 60.2546V48.0502V46.5346V44.9393V43.8226C7.76855 42.6526 8.29703 41.7752 9.03689 41.1902C9.61821 40.818 10.1467 40.5521 10.6223 40.3926C11.1508 40.1798 11.7321 40.0735 12.3663 40.0735C12.472 40.0735 12.7891 40.1267 13.3175 40.233C13.8989 40.2862 14.2688 40.3128 14.4273 40.3128C14.7444 40.4191 15.0351 40.5521 15.2993 40.7116C15.6164 40.818 15.907 41.0573 16.1713 41.4295C16.277 41.6422 16.4091 41.8815 16.5676 42.1474C16.7262 42.3601 16.8583 42.626 16.964 42.9451C17.1225 43.3174 17.2018 43.663 17.2018 43.9821C17.2547 44.3012 17.3339 44.6202 17.4396 44.9393V46.9335V48.4491V51.0016V53.3946V54.5114H19.0251C19.3421 54.5646 19.7121 54.5911 20.1348 54.5911C20.5048 54.6443 20.9011 54.6709 21.3239 54.6709C21.7467 54.6709 22.2223 54.6709 22.7508 54.6709C23.0679 54.6709 23.8606 54.6709 25.1289 54.6709C26.4501 54.6709 28.0091 54.6709 29.8059 54.6709C31.6556 54.6177 33.6638 54.5911 35.8305 54.5911C37.9973 54.5911 40.0583 54.5911 42.0137 54.5911C44.0219 54.5911 45.8187 54.6177 47.4041 54.6709C49.0424 54.6709 50.2579 54.6709 51.0506 54.6709H53.0323C53.138 54.6709 53.3759 54.6975 53.7458 54.7507C54.1157 54.7507 54.5913 54.7507 55.1727 54.7507ZM27.5863 17.8184C27.4806 17.2334 27.3749 16.7282 27.2692 16.3028C27.1635 15.8242 27.0579 15.3456 26.9522 14.867C26.6879 14.4416 26.4501 14.0162 26.2387 13.5907C26.0273 13.1653 25.7367 12.7931 25.3667 12.474C25.0497 12.1549 24.6797 11.889 24.2569 11.6763C23.8342 11.4104 23.3321 11.1445 22.7508 10.8786C22.0638 10.7191 21.4032 10.5862 20.769 10.4798C20.1348 10.3203 19.4743 10.2405 18.7872 10.2405C18.0474 10.2405 17.3339 10.3203 16.6469 10.4798C15.9599 10.5862 15.3257 10.7191 14.7444 10.8786C14.1102 11.2509 13.5025 11.6231 12.9212 11.9954C12.3927 12.3676 11.9171 12.8462 11.4943 13.4312C10.9658 13.8566 10.5695 14.415 10.3052 15.1063C10.041 15.7444 9.77676 16.5155 9.51253 17.4196C9.51253 18.0045 9.51253 18.5629 9.51253 19.0947C9.51253 19.6265 9.56537 20.1848 9.67107 20.7698C9.67107 21.3016 9.77676 21.8334 9.98814 22.3651C10.1995 22.8969 10.4638 23.3755 10.7809 23.8009C11.1508 24.2796 11.5471 24.705 11.9699 25.0772C12.3927 25.3963 12.8419 25.7154 13.3175 26.0344C13.8989 26.3535 14.5066 26.646 15.1408 26.9119C15.7749 27.1246 16.5412 27.2841 17.4396 27.3905C18.021 27.3905 18.5758 27.3905 19.1043 27.3905C19.6328 27.3373 20.1877 27.2575 20.769 27.1512C21.826 27.1512 22.8565 26.8587 23.8606 26.2737C24.2834 26.061 24.7061 25.7951 25.1289 25.4761C25.6045 25.1038 26.0009 24.705 26.318 24.2796C27.005 23.3223 27.4278 22.2854 27.5863 21.1686V17.8184ZM57.4715 34.0909C57.4715 34.6227 57.4187 35.1545 57.313 35.6863C57.2073 36.2181 57.1016 36.7764 56.9959 37.3614C56.5203 39.0631 55.4105 40.1001 53.6665 40.4723C51.9754 40.8446 50.6014 40.4723 49.5444 39.3556C48.5403 38.2388 47.9326 36.9094 47.7212 35.3672C47.6155 34.9418 47.5362 34.5164 47.4834 34.0909C47.4834 33.6123 47.4834 33.1603 47.4834 32.7349V30.0228L47.7212 9.44283C47.7212 8.69833 47.6948 7.90066 47.6419 7.04981C47.6419 6.14577 47.6948 5.29492 47.8005 4.49725C47.959 3.6464 48.2497 2.87531 48.6724 2.184C49.0952 1.49268 49.7558 0.93431 50.6542 0.508883C51.077 0.242992 51.5262 0.110047 52.0018 0.110047C52.5303 0.0568693 53.0852 0.0834576 53.6665 0.189813C54.882 0.349348 55.7804 0.854542 56.3617 1.70539C56.9959 2.55625 57.3658 3.54004 57.4715 4.65678V7.36887V34.0909Z" fill="#44C8F1"/>
</svg>
