<svg width="56" height="58" viewBox="0 0 56 58" fill="none" xmlns="http://www.w3.org/2000/svg">
<path d="M23.4059 10.1359C23.4059 10.1359 23.3417 10.3878 23.2132 10.8916C23.1273 11.4025 23.0307 11.9772 22.9234 12.6158C22.816 13.2545 22.7158 13.8505 22.6228 14.404C22.5724 14.9646 22.54 15.2875 22.5257 15.3727C22.7027 15.6213 23.0251 16.0476 23.4927 16.6516C23.9675 17.2129 24.3678 17.6961 24.6937 18.1011C25.0622 18.5133 25.4236 18.968 25.7777 19.4653C26.1817 19.9272 26.5784 20.4317 26.968 20.9787C27.216 21.3269 27.4426 21.6714 27.648 22.0124C27.8605 22.3108 28.0553 22.5843 28.2324 22.8329C28.9053 23.7778 29.5675 24.7866 30.219 25.8592C30.8705 26.9318 31.263 27.9828 31.3964 29.0121C31.4597 29.4168 31.4094 29.8461 31.2455 30.3001C31.0817 30.7541 30.737 31.1121 30.2114 31.3739C29.416 31.678 28.6139 31.7621 27.805 31.6261C26.8683 31.4687 26.0065 31.1268 25.2194 30.6005C24.4323 30.0742 23.8155 29.5765 23.369 29.1075C22.6603 28.3755 22.019 27.6329 21.4451 26.8797C20.8784 26.084 20.3117 25.2883 19.745 24.4926C19.3554 23.9456 18.9127 23.3239 18.4168 22.6277C17.9281 21.8889 17.4251 21.2352 16.9078 20.6667L14.8936 22.1012C14.5455 22.3491 14.1974 22.597 13.8493 22.8449C13.5083 23.0503 13.1851 23.2805 12.8795 23.5356C12.2258 24.0386 11.5473 24.5594 10.8439 25.0978C10.1477 25.5937 9.36988 26.0539 8.5105 26.4786C6.55023 27.4624 4.80375 27.8255 3.27105 27.5679C3.05818 27.5321 2.86659 27.4999 2.69629 27.4713C2.56856 27.4498 2.40542 27.3786 2.20686 27.2577C1.30599 26.8873 0.753052 26.4004 0.548061 25.7968C0.328757 25.2784 0.311774 24.7283 0.497115 24.1466C0.725029 23.572 1.00607 23.072 1.34025 22.6466C1.75957 22.2356 2.21789 21.8529 2.7152 21.4988C3.21967 21.102 3.72415 20.7052 4.22862 20.3085C4.68336 19.9471 5.37958 19.4513 6.31732 18.8209C7.30479 18.1551 8.29227 17.4893 9.27975 16.8235C10.2744 16.1151 11.1908 15.4812 12.0291 14.9216C12.8674 14.3621 13.386 14.0115 13.5849 13.8698L14.4652 8.63309L10.378 7.94607C9.86706 7.86019 9.26742 7.78129 8.57906 7.70936C7.89786 7.59486 7.22384 7.43778 6.55695 7.23813C5.93264 7.04563 5.36521 6.77514 4.85467 6.42665C4.35129 6.03559 4.02555 5.49928 3.87745 4.81772C3.74329 4.31361 3.68373 3.75638 3.69877 3.14602C3.75639 2.54281 3.892 1.99649 4.1056 1.50706C4.37609 0.939633 4.82726 0.59958 5.45909 0.486895C6.09808 0.331636 6.70147 0.257948 7.26926 0.26583C7.35441 0.280143 7.69499 0.337391 8.29104 0.437581C8.92966 0.544928 9.61087 0.659432 10.3346 0.781092C11.0584 0.902751 11.7396 1.01726 12.3783 1.1246C13.0169 1.23195 13.4036 1.27507 13.5385 1.25397L28.4823 3.76588C30.1853 4.05214 31.5937 4.39831 32.7074 4.80441C33.8638 5.21767 34.7323 5.91088 35.3129 6.88404C35.4828 7.17527 35.5533 7.53734 35.5243 7.97025C35.5379 8.41031 35.4628 8.85734 35.2989 9.31136C35.1848 9.72995 34.989 10.1129 34.7118 10.4603C34.477 10.8149 34.1751 11.0487 33.8059 11.1617C33.4438 11.2322 33.0143 11.3132 32.5173 11.4048C32.0275 11.4538 31.6087 11.471 31.261 11.4563C30.6578 11.3987 30.0369 11.3162 29.3983 11.2089C28.8094 11.0661 28.2169 10.9446 27.6208 10.8444L23.4059 10.1359ZM39.6543 39.2652C41.4425 39.5658 42.6766 40.1673 43.3567 41.0696C44.0794 41.9791 44.3584 42.9234 44.1938 43.9026L43.5819 47.5428C43.5605 47.6705 43.5068 47.9898 43.4209 48.5007C43.3422 48.9691 43.2563 49.48 43.1633 50.0334C43.0703 50.5869 42.9844 51.0978 42.9057 51.5661C42.8695 52.0416 42.8407 52.3432 42.8192 52.4709C42.7405 52.9393 42.6618 53.4076 42.5831 53.8759C42.5043 54.3442 42.4043 54.809 42.283 55.2702C42.0476 56.1499 41.5641 56.8129 40.8324 57.259C40.1433 57.7123 39.3092 57.8566 38.33 57.692C38.1171 57.6562 37.7375 57.5706 37.1912 57.4349C36.6803 57.3491 36.3255 57.2457 36.127 57.1247C35.5595 56.8542 35.1341 56.5201 34.8508 56.1222C34.61 55.7315 34.4403 55.309 34.3415 54.8546C34.2428 54.4002 34.2115 53.9353 34.2476 53.4598C34.2909 52.9418 34.3307 52.445 34.3668 51.9695C34.3954 51.7992 34.4563 51.4373 34.5493 50.8838C34.6423 50.3304 34.7177 49.752 34.7753 49.1488C34.8826 48.5102 34.958 47.9319 35.0013 47.4138C35.0517 46.8532 35.07 46.4841 35.056 46.3067C34.9355 46.2426 34.602 46.1428 34.0557 46.0072C33.5094 45.8716 32.4273 45.6678 30.8094 45.3959C29.447 45.1669 28.592 45.045 28.2442 45.0303C27.9462 44.9802 27.7759 44.9516 27.7333 44.9445L4.67894 41.0692C4.63636 41.0621 4.47321 40.9909 4.1895 40.8556C3.94837 40.7276 3.67181 40.5497 3.35983 40.3222C3.05501 40.0521 2.77864 39.7429 2.53071 39.3948C2.28278 39.0467 2.17331 38.6562 2.2023 38.2233C2.22595 36.5199 2.69609 35.2856 3.61273 34.5203C4.22382 34.0102 4.83455 33.7626 5.44491 33.7776C6.06243 33.7501 6.39606 33.7186 6.44579 33.6832L39.6543 39.2652ZM47.1786 25.7549L46.2017 31.5664C46.0805 32.0276 45.9343 32.5065 45.7633 33.0031C45.5994 33.4571 45.3504 33.8968 45.0162 34.3222C44.6749 34.7901 44.2414 35.155 43.7159 35.4169C43.3395 35.5726 42.9064 35.6749 42.4166 35.7239C41.9765 35.7375 41.5862 35.7156 41.2456 35.6584C40.905 35.6011 40.5467 35.519 40.1707 35.412C39.8018 35.2625 39.504 35.0811 39.2771 34.8678C38.8943 34.5408 38.6074 34.1642 38.4163 33.7381C38.2253 33.312 38.0733 32.9143 37.9602 32.5451C37.8969 32.1405 37.8654 31.8069 37.8658 31.5442C37.8733 31.2391 37.8771 31.0865 37.8771 31.0865L41.4195 10.0118C41.4055 9.83438 41.5056 9.36964 41.7195 8.6176C41.9335 7.86556 42.2111 7.25556 42.5525 6.7876C42.8369 6.39763 43.256 6.11786 43.8099 5.94829C44.4063 5.78587 45.0097 5.71219 45.6201 5.72723C46.3581 5.76373 47.0748 5.92797 47.7699 6.21993C48.4651 6.51189 48.9507 6.87808 49.2269 7.31851C49.4251 7.70205 49.5382 8.07127 49.5661 8.42619C49.6437 8.74568 49.6965 9.08288 49.7244 9.4378C49.7805 9.88502 49.7692 10.3428 49.6905 10.8111C49.6544 11.2866 49.5756 11.7549 49.4544 12.2161L48.7137 16.6226L48.617 17.1974C48.5813 17.4102 48.5206 17.6408 48.4351 17.8891C48.3993 18.102 48.3777 18.361 48.3701 18.6662C48.5405 18.6948 48.8562 18.7698 49.3174 18.8911C49.7857 18.9698 50.2717 19.0734 50.7755 19.2018C51.2864 19.2877 51.7724 19.3913 52.2336 19.5126C52.6947 19.6339 53.0282 19.7337 53.2339 19.8121C54.0568 20.1255 54.6099 20.4812 54.8932 20.879C55.1837 21.2343 55.3322 21.6532 55.3386 22.1359C55.3876 22.6257 55.3585 23.1899 55.2511 23.8285C55.1509 24.4246 54.9373 24.914 54.6103 25.2968C53.9563 26.0624 53.1076 26.4232 52.0644 26.3792C51.0283 26.2926 49.8893 26.1668 48.6474 26.0018L47.1786 25.7549Z" fill="#FCB247"/>
</svg>
