<svg width="49" height="48" viewBox="0 0 49 48" fill="none" xmlns="http://www.w3.org/2000/svg">
<path d="M18.54 25.6835C18.26 25.7235 17.62 25.7435 16.62 25.7435C15.66 25.7435 14.62 25.7435 13.5 25.7435C12.38 25.7035 11.32 25.6835 10.32 25.6835C9.32 25.6835 8.66 25.6835 8.34 25.6835H8.28C7.56 25.6835 6.84 25.6835 6.12 25.6835C5.44 25.6435 4.78 25.5835 4.14 25.5035C3.5 25.3835 2.92 25.2035 2.4 24.9635C1.88 24.7235 1.46 24.3635 1.14 23.8835C0.780003 23.3635 0.520001 22.7035 0.360001 21.9035C0.240001 21.1035 0.140001 20.3435 0.0600014 19.6235C0.0200013 18.8635 0 18.2035 0 17.6435C0.0400001 17.0835 0.0600014 16.7835 0.0600014 16.7435V15.4235C0.0600014 14.9835 0.0600014 14.4835 0.0600014 13.9235C0.0600014 13.3635 0.0800028 12.7435 0.120003 12.0635C0.120003 11.3435 0.120003 10.6435 0.120003 9.96346C0.160003 9.24346 0.18 8.60346 0.18 8.04346V6.12346C0.18 6.00346 0.18 5.78346 0.18 5.46346C0.18 5.14346 0.200002 4.80346 0.240002 4.44346C0.280002 4.04346 0.340002 3.66346 0.420002 3.30346C0.500002 2.90346 0.620003 2.58346 0.780003 2.34346C1.14 1.78346 1.5 1.38346 1.86 1.14346C2.26 0.86346 2.76 0.66346 3.36 0.543459C3.56 0.503459 3.86 0.483459 4.26 0.483459C4.66 0.443457 5.04 0.403458 5.4 0.363459C5.84 0.323459 6.3 0.303459 6.78 0.303459H20.34C21.22 0.303459 22.14 0.383458 23.1 0.543459C24.1 0.66346 24.98 0.96346 25.74 1.44346C26.34 1.80346 26.76 2.26346 27 2.82346C27.24 3.38346 27.4 3.98346 27.48 4.62346C27.56 5.26346 27.58 5.92346 27.54 6.60346C27.5 7.24346 27.48 7.84346 27.48 8.40346C27.48 9.04346 27.46 9.68346 27.42 10.3235C27.42 10.9235 27.44 11.5435 27.48 12.1835V15.4835C27.44 15.6835 27.42 15.9035 27.42 16.1435C27.46 16.3835 27.48 16.6235 27.48 16.8635C27.4 17.3835 27.38 17.9035 27.42 18.4235C27.46 18.9035 27.48 19.4235 27.48 19.9835C27.48 20.4235 27.44 20.9035 27.36 21.4235C27.32 21.9035 27.2 22.4035 27 22.9235C26.84 23.4035 26.6 23.8435 26.28 24.2435C26 24.6435 25.62 24.9235 25.14 25.0835C24.1 25.5235 23 25.7435 21.84 25.7435C20.72 25.7035 19.62 25.6835 18.54 25.6835ZM11.88 47.6435C10.24 47.6435 8.92001 47.2835 7.92001 46.5635C6.92001 45.8835 6.42 45.0835 6.42 44.1635V35.5235C6.34 34.6435 6.34 33.7435 6.42 32.8235C6.5 31.9835 6.82 31.3035 7.38 30.7835C7.98 30.2635 8.74 30.0035 9.66 30.0035C9.86 30.0035 10.22 30.0235 10.74 30.0635C11.26 30.0635 11.62 30.1035 11.82 30.1835C12.34 30.3435 12.74 30.5835 13.02 30.9035C13.34 31.2235 13.58 31.6035 13.74 32.0435C13.9 32.4435 14 32.8835 14.04 33.3635C14.08 33.8035 14.12 34.2435 14.16 34.6835C14.16 34.8435 14.16 35.2235 14.16 35.8235C14.2 36.3835 14.22 37.0035 14.22 37.6835C14.26 38.3235 14.28 38.9235 14.28 39.4835C14.32 40.0435 14.36 40.3835 14.4 40.5035C14.52 40.5435 14.84 40.6035 15.36 40.6835C15.92 40.7235 16.94 40.7435 18.42 40.7435C19.7 40.7435 20.48 40.7235 20.76 40.6835C21.08 40.6435 21.26 40.6235 21.3 40.6235H40.92C40.92 40.6235 41.04 40.6635 41.28 40.7435C41.56 40.8235 41.86 40.9635 42.18 41.1635C42.5 41.3235 42.8 41.5635 43.08 41.8835C43.36 42.1635 43.54 42.5035 43.62 42.9035C43.82 44.4235 43.56 45.6035 42.84 46.4435C42.36 47.0035 41.84 47.3435 41.28 47.4635C40.72 47.5835 40.42 47.6435 40.38 47.6435H11.88ZM42.36 18.6635V24.9035C42.32 25.3435 42.26 25.8035 42.18 26.2835C42.1 26.7235 41.94 27.1635 41.7 27.6035C41.42 28.1235 41.08 28.5035 40.68 28.7435C40.04 29.1835 39.36 29.4035 38.64 29.4035C38.04 29.4035 37.48 29.2435 36.96 28.9235C36.56 28.6835 36.24 28.3835 36 28.0235C35.76 27.6635 35.56 27.3235 35.4 27.0035C35.28 26.6835 35.2 26.4035 35.16 26.1635C35.12 25.8835 35.1 25.7435 35.1 25.7435V4.68346C35.1 4.48346 35.12 4.04346 35.16 3.36346C35.24 2.64346 35.4 2.04346 35.64 1.56346C36.04 0.723458 36.86 0.243458 38.1 0.123457C38.78 0.0434579 39.42 0.0834593 40.02 0.24346C40.62 0.40346 41.08 0.66346 41.4 1.02346C41.64 1.34346 41.8 1.66346 41.88 1.98346C42 2.26346 42.1 2.56346 42.18 2.88346C42.3 3.28346 42.36 3.70346 42.36 4.14346C42.4 4.58346 42.4 5.02346 42.36 5.46346V11.9435C42.52 11.9435 42.78 11.9635 43.14 12.0035C43.54 12.0435 43.94 12.0835 44.34 12.1235C44.78 12.1235 45.18 12.1435 45.54 12.1835C45.94 12.2235 46.22 12.2635 46.38 12.3035C47.18 12.4635 47.74 12.7035 48.06 13.0235C48.38 13.3035 48.6 13.6635 48.72 14.1035C48.8 14.5435 48.84 15.0635 48.84 15.6635C48.84 16.2235 48.72 16.7035 48.48 17.1035C48 17.9035 47.28 18.3635 46.32 18.4835C45.36 18.6035 44.3 18.6635 43.14 18.6635H42.36ZM10.86 7.80346C10.5 7.80346 10.16 7.80346 9.84 7.80346C9.56 7.80346 9.3 7.84346 9.06001 7.92346C8.50001 7.96346 8.04 8.20346 7.68 8.64346C7.52 8.84346 7.42 9.14346 7.38 9.54346C7.38 9.94346 7.38 10.1835 7.38 10.2635V12.7835C7.34 13.1035 7.32 13.4035 7.32 13.6835C7.32 13.9235 7.32 14.1435 7.32 14.3435V15.0635C7.32 15.0635 7.32 15.1835 7.32 15.4235C7.32 15.6635 7.32 15.9435 7.32 16.2635C7.36 16.5835 7.42 16.9035 7.5 17.2235C7.58 17.5435 7.72001 17.8235 7.92001 18.0635C8.24001 18.4635 8.76 18.7035 9.48 18.7835C10.2 18.8235 10.92 18.8435 11.64 18.8435H11.7C12.74 18.8035 13.6 18.8035 14.28 18.8435C14.96 18.8435 15.84 18.8435 16.92 18.8435C17.24 18.8435 17.56 18.8635 17.88 18.9035C18.24 18.9035 18.58 18.8635 18.9 18.7835C19.22 18.7435 19.44 18.6435 19.56 18.4835C19.68 18.3235 19.78 18.1235 19.86 17.8835C19.94 17.5635 19.98 17.3035 19.98 17.1035C20.14 16.3435 20.22 15.4835 20.22 14.5235C20.22 13.8835 20.22 13.2435 20.22 12.6035C20.26 11.9635 20.26 11.3235 20.22 10.6835C20.18 10.3635 20.16 10.0435 20.16 9.72346C20.2 9.40346 20.18 9.08346 20.1 8.76346C19.94 8.32346 19.68 8.08346 19.32 8.04346C18.96 7.96346 18.6 7.92346 18.24 7.92346L10.86 7.80346Z" fill="#ED3095"/>
</svg>
